<svg width="535" height="569" viewBox="0 0 535 569" fill="none" xmlns="http://www.w3.org/2000/svg">
<g clip-path="url(#clip0_444_38)">
<path d="M30.9121 7.27807C30.9121 20.2416 38.1934 23.2781 38.1934 57.601C38.1934 63.5177 38.1152 69.6791 38.1152 75.1999C38.1152 97.9187 47.3913 116.398 79.8757 116.398C112.355 116.398 121.631 97.9187 121.631 75.1999C121.631 69.6791 121.553 63.5177 121.553 57.601C121.553 23.2781 128.834 20.2416 128.834 7.27807C128.834 -0.560474 120.032 0.00202474 116.673 0.00202474H96.0319C92.6725 0.00202474 83.8757 -0.560474 83.8757 7.27807C83.8757 20.2416 91.1517 23.2781 91.1517 57.601C91.1517 62.8822 94.1152 92.002 79.8757 92.002C65.6309 92.002 68.5944 62.8822 68.5944 57.601C68.5944 23.2781 75.8757 20.2416 75.8757 7.27807C75.8757 -0.560474 67.0736 0.00202474 63.7142 0.00202474H43.0736C39.7142 0.00202474 30.9121 -0.560474 30.9121 7.27807Z" fill="#272324"/>
<path d="M131.235 42.3199C131.235 55.9188 138.511 70.7991 138.511 94.398C138.511 116.398 131.235 130.721 131.235 143.278C131.235 150.961 140.032 150.398 143.392 150.398H167.871C171.235 150.398 180.032 150.961 180.032 143.278C180.032 133.278 169.152 126.242 169.152 110.799C172.032 114.158 176.194 116.398 181.235 116.398C198.996 116.398 211.954 102.398 211.954 75.2001C211.954 40.5595 185.074 35.2001 174.673 35.2001H143.392C140.032 35.2001 131.235 34.6376 131.235 42.3199ZM167.313 75.2782C167.313 63.2001 170.194 55.2001 174.433 55.2001C178.673 55.2001 181.553 63.2001 181.553 75.2782C181.553 87.2782 178.673 95.2782 174.433 95.2782C170.194 95.2782 167.313 87.2782 167.313 75.2782Z" fill="#272324"/>
<path d="M245.875 116.398C257.552 116.398 260.516 113.122 270.432 113.122C277.391 113.122 280.594 115.2 286.594 115.2C288.672 115.2 297.474 115.763 297.474 108.08C297.474 95.3617 290.193 97.6794 290.193 56.0023C290.193 34.0023 297.474 19.6794 297.474 7.12213C297.474 -0.560157 288.672 0.0023419 285.313 0.0023419H266.271C262.911 0.0023419 254.115 -0.560157 254.115 7.12213C254.115 19.0388 260.995 30.0023 260.995 39.6013C260.995 42.3982 261.151 42.9607 260.271 42.9607C258.594 42.9607 253.151 34.0023 240.672 34.0023C225.474 34.0023 215.953 47.8409 215.953 75.2003C215.953 101.841 227.953 116.398 245.875 116.398ZM246.755 75.3617C246.755 63.2784 249.635 55.2784 253.875 55.2784C258.115 55.2784 260.995 63.2784 260.995 75.3617C260.995 87.3617 258.115 95.3617 253.875 95.3617C249.635 95.3617 246.755 87.3617 246.755 75.3617Z" fill="#272324"/>
<path d="M300.273 75.1999C300.273 99.8405 314.835 116.398 332.591 116.398C343.632 116.398 345.153 111.679 349.794 111.679C354.111 111.679 353.632 116.398 360.195 116.398C371.471 116.398 380.434 111.518 380.434 104.398C380.434 97.1999 374.351 93.5176 374.351 75.1999C374.351 58.1582 379.794 50.4811 379.794 42.9603C379.794 35.278 372.835 34.0019 369.471 34.0019C365.71 34.0019 362.835 35.1999 354.591 35.1999C350.591 35.1999 347.471 33.9186 337.153 34.0019C325.471 34.0801 300.273 41.8405 300.273 75.1999ZM337.794 55.1217C342.033 55.1217 344.914 63.1217 344.914 75.1999C344.914 87.1999 342.033 95.1999 337.794 95.1999C333.554 95.1999 330.674 87.1999 330.674 75.1999C330.674 63.1217 333.554 55.1217 337.794 55.1217Z" fill="#272324"/>
<path d="M408.59 116.398C417.075 116.398 427.471 112.398 427.471 105.278C427.471 98.9603 416.273 99.8405 416.273 75.1999V44.0801H419.554C422.111 44.0801 423.872 42.3197 423.872 39.7624V39.5176C423.872 36.9603 422.111 35.1999 419.554 35.1999H416.273V14.2415C416.273 11.3613 415.715 7.43945 412.59 7.43945C409.794 7.43945 402.992 14.9603 395.794 21.679C387.715 29.1999 382.033 34.7207 382.033 38.7988C382.033 42.0801 383.715 44.0801 388.195 44.0801C390.512 44.0801 392.59 43.278 394.033 43.278C395.471 43.278 396.273 44.002 396.273 46.7988C396.273 55.5176 381.955 70.3978 381.955 89.4395C381.955 106.637 393.715 116.398 408.59 116.398Z" fill="#272324"/>
<path d="M430.273 75.1999C430.273 95.7624 445.393 116.398 473.471 116.398C496.111 116.398 506.273 108.242 506.273 100.96C506.273 96.3197 503.231 88.1582 495.955 88.1582C489.231 88.1582 486.033 95.1999 474.591 95.1999C471.315 95.1999 466.273 94.1582 466.273 91.6009C466.273 90.6374 466.992 90.4811 468.351 90.4811C470.752 90.4811 475.075 91.1217 480.674 89.3613C492.434 85.679 505.075 77.8405 505.075 59.1999C505.075 42.3978 489.872 34.002 473.471 34.002C443.872 34.002 430.273 54.8822 430.273 75.1999ZM461.153 66.7207C463.872 59.7624 468.273 55.1999 472.273 55.1999C476.273 55.1999 477.153 59.7624 474.434 66.7207C471.71 73.6009 467.231 78.1582 463.231 78.1582C459.231 78.1582 458.434 73.6009 461.153 66.7207Z" fill="#272324"/>
<path d="M115.621 283.721C115.621 294.919 121.704 303.398 135.303 303.398C145.782 303.398 161.704 297.882 168.261 271.638C170.74 261.721 177.86 246.039 184.183 232.763C197.225 205.398 204.105 200.919 204.105 193.242C204.105 189.002 200.902 186.2 196.662 186.2H178.105C173.621 186.2 167.782 187.32 167.782 193.481C167.782 196.919 169.86 200.362 169.86 204.841C169.86 210.919 166.824 217.638 164.183 225.481C161.542 217.638 158.501 210.919 158.501 204.841C158.501 200.362 160.584 196.919 160.584 193.481C160.584 187.32 154.74 186.2 150.261 186.2H124.74C120.501 186.2 117.303 189.002 117.303 193.242C117.303 204.518 125.542 208.2 137.225 232.763C143.542 246.039 145.944 259.159 152.345 267.398C151.303 271.799 147.381 273.961 142.662 273.961C135.464 273.961 132.74 269.242 124.74 269.242C118.105 269.242 115.621 278.362 115.621 283.721Z" fill="#272324"/>
<path d="M244.824 267.398C268.824 267.398 282.741 250.919 282.741 226.122C282.741 201.481 268.824 185.002 244.824 185.002C220.824 185.002 206.902 201.481 206.902 226.122C206.902 250.919 220.824 267.398 244.824 267.398ZM237.704 226.278C237.704 214.2 240.585 206.2 244.824 206.2C249.064 206.2 251.944 214.2 251.944 226.278C251.944 238.278 249.064 246.278 244.824 246.278C240.585 246.278 237.704 238.278 237.704 226.278Z" fill="#272324"/>
<path d="M285.544 241.08C285.544 256.44 292.341 267.398 312.742 267.398C319.305 267.398 328.263 263.721 330.18 260.039C331.94 264.44 335.222 266.2 341.143 266.2H355.862C359.222 266.2 366.742 266.763 366.742 259.08C366.742 251.559 359.461 243.638 359.461 229.32C359.461 211.481 366.581 200.841 366.581 193.32C366.581 185.638 357.784 186.2 354.425 186.2H337.143C333.784 186.2 326.742 185.638 326.742 193.32C326.742 200.841 329.383 207.08 329.383 221.398C329.383 232.2 326.581 246.278 319.305 246.278C316.18 246.278 314.904 242.518 314.904 238.763C314.904 231.721 320.742 223.08 320.742 206.763C320.742 198.601 318.82 186.2 309.784 186.2H293.623C291.383 186.2 285.623 187.882 285.623 193.638C285.623 202.601 288.904 207.158 288.904 216.601C288.904 226.2 285.544 229.559 285.544 241.08Z" fill="#272324"/>
<path d="M368.344 197.481C368.344 205.637 376.183 209.882 376.183 231.002C376.183 245.32 368.98 251.559 368.98 259.08C368.98 266.762 376.5 266.2 379.86 266.2H403.063C406.422 266.2 413.943 266.762 413.943 259.08C413.943 251.559 406.662 245.32 406.662 231.002C406.74 223.882 406.662 210.2 414.902 210.2C423.542 210.2 416.105 226.2 430.662 226.2C442.021 226.2 449.141 221.398 449.141 206.122C449.141 192.919 439.62 185.002 429.063 185.002C420.422 185.002 412.021 189.398 405.943 193.882C404.5 187.08 401.141 185.002 398.105 185.002C396.021 185.002 387.224 187.559 383.303 188.601C376.105 190.518 368.344 191.96 368.344 197.481Z" fill="#272324"/>
<path d="M-0.285645 359.601C-0.285645 392.002 10.756 418.398 48.2769 418.398C80.6779 418.398 86.355 395.439 86.355 380.96C86.355 371.919 90.0373 367.361 90.0373 364.481C90.0373 362.799 89.2352 359.601 84.1987 359.601H53.8758C51.3185 359.601 46.4383 359.038 46.4383 364.398C46.4383 372.637 54.4383 374.398 54.4383 385.601C54.4383 390.158 52.9175 394.002 48.2769 394.002C34.9175 394.002 31.0789 378.559 31.0789 359.601C31.0789 340.559 34.9175 325.122 48.2769 325.122C56.355 325.122 58.0373 328.882 58.0373 338.158C58.0373 346.637 62.9175 350.242 68.6779 350.242C77.7144 350.242 87.9539 342.158 87.9539 330.398C87.9539 316.96 78.1154 300.799 48.2769 300.799C10.756 300.799 -0.285645 327.2 -0.285645 359.601Z" fill="#272324"/>
<path d="M91.2363 377.2C91.2363 401.84 105.799 418.398 123.554 418.398C134.596 418.398 136.117 413.679 140.757 413.679C145.075 413.679 144.596 418.398 151.158 418.398C162.434 418.398 171.398 413.518 171.398 406.398C171.398 399.2 165.314 395.518 165.314 377.2C165.314 360.158 170.757 352.481 170.757 344.96C170.757 337.278 163.799 336.002 160.434 336.002C156.674 336.002 153.799 337.2 145.554 337.2C141.554 337.2 138.434 335.919 128.117 336.002C116.434 336.08 91.2363 343.84 91.2363 377.2ZM128.757 357.122C132.997 357.122 135.877 365.122 135.877 377.2C135.877 389.2 132.997 397.2 128.757 397.2C124.518 397.2 121.637 389.2 121.637 377.2C121.637 365.122 124.518 357.122 128.757 357.122Z" fill="#272324"/>
<path d="M172.918 348.481C172.918 356.96 180.757 359.601 180.757 377.2C180.757 391.919 173.475 401.518 173.475 410.08C173.475 417.762 182.277 417.2 185.637 417.2H206.116C210.757 417.122 218.434 416.32 218.434 410.08C218.434 400.481 210.996 389.679 211.074 377.2C211.158 370.721 212.038 361.2 218.517 361.2C224.996 361.2 226.116 370.637 226.277 377.2C226.517 388.637 221.798 399.361 221.798 410.08C221.798 416.32 229.475 417.122 234.116 417.2H251.798C256.996 417.2 263.954 417.122 263.954 410.08C263.954 402.158 256.517 390.799 256.678 377.2C256.757 370.637 257.553 361.2 264.038 361.2C270.517 361.2 271.637 370.637 271.798 377.2C272.038 388.637 267.314 399.361 267.314 410.08C267.314 416.32 274.996 417.122 279.637 417.2H297.314C300.678 417.2 309.475 417.762 309.475 410.08C309.475 401.518 302.194 391.919 302.194 377.2V361.2C302.194 346.559 296.194 336.002 281.715 336.002C269.158 336.002 256.996 344.721 254.517 348.08C251.715 340.637 245.798 336.002 236.194 336.002C222.116 336.002 213.954 345.518 211.954 345.518C210.918 345.518 210.517 344.96 210.277 344.08C208.595 337.919 205.637 336.002 202.678 336.002C200.595 336.002 191.798 338.559 187.876 339.601C180.678 341.518 172.918 342.96 172.918 348.481Z" fill="#272324"/>
<path d="M318.917 377.2C318.917 391.84 311.714 401.518 311.714 410.08C311.714 417.762 319.234 417.2 322.594 417.2H345.797C349.156 417.2 356.677 417.762 356.677 410.08C356.677 403.122 349.396 390.96 349.396 377.2C349.396 371.278 349.318 360.96 349.318 352.398C349.318 339.601 344.839 336.002 340.839 336.002C338.755 336.002 329.958 338.559 326.036 339.601C318.839 341.518 311.078 342.96 311.078 348.481C311.078 356.96 318.917 359.601 318.917 377.2ZM333.958 331.2C338.677 331.2 354.594 322.08 354.594 311.518C354.594 305.2 349.958 300.799 344.677 300.799C339.797 300.799 336.354 304.242 333.958 307.122C331.635 304.242 328.198 300.799 323.318 300.799C318.036 300.799 313.396 305.2 313.396 311.518C313.396 322.08 329.318 331.2 333.958 331.2Z" fill="#272324"/>
<path d="M358.278 348.481C358.278 356.96 366.116 359.601 366.116 377.2C366.116 391.919 358.835 401.518 358.835 410.08C358.835 417.762 367.637 417.2 370.997 417.2H388.757C392.116 417.2 403.793 417.762 403.793 410.08C403.793 401.122 396.517 389.679 396.434 377.2C396.356 370.721 396.997 361.2 403.877 361.2C410.356 361.2 411.476 370.637 411.637 377.2C411.877 388.637 407.158 399.361 407.158 410.08C407.158 417.762 418.835 417.2 422.195 417.2H437.158C440.517 417.2 449.314 417.762 449.314 410.08C449.314 401.518 442.038 391.919 442.038 377.2V361.2C442.038 346.559 436.038 336.002 421.554 336.002C407.476 336.002 399.314 345.518 397.314 345.518C396.278 345.518 395.877 344.96 395.637 344.08C393.955 337.919 390.997 336.002 388.038 336.002C385.955 336.002 377.158 338.559 373.236 339.601C366.038 341.518 358.278 342.96 358.278 348.481Z" fill="#272324"/>
<path d="M487.715 454.559C518.517 454.559 531.553 437.278 531.553 418.481C531.553 399.762 527.397 390.637 527.397 372.481C527.397 358.158 534.678 351.919 534.678 344.398C534.678 336.721 525.876 337.278 522.517 337.278H488.834C478.433 337.278 452.433 343.919 452.433 377.278C452.433 399.841 463.397 418.398 483.314 418.481C488.355 418.481 494.918 417.518 496.756 415.361C500.996 420.398 495.475 426.637 490.038 426.637C474.834 426.637 472.277 418.398 464.756 418.398C457.715 418.398 452.116 426.637 452.116 434.242C452.116 445.919 470.595 454.559 487.715 454.559ZM482.918 377.2C482.918 365.122 485.798 357.122 490.038 357.122C494.277 357.122 497.157 365.122 497.157 377.2C497.157 389.2 494.277 397.2 490.038 397.2C485.798 397.2 482.918 389.2 482.918 377.2Z" fill="#272324"/>
<path d="M68.8027 561.08C68.8027 568.763 77.5996 568.2 80.959 568.2C86.959 568.2 91.5996 566.122 98.5632 566.122C108.48 566.122 111.438 569.398 123.12 569.398C141.042 569.398 153.042 554.841 153.042 528.2C153.042 500.841 143.521 487.002 128.318 487.002C115.839 487.002 110.402 495.961 108.719 495.961C107.839 495.961 108.001 495.398 108.001 492.601C108.001 483.002 114.959 472.039 114.959 460.122C114.959 452.44 106.162 453.002 102.803 453.002H82.2402C78.8809 453.002 70.0788 452.44 70.0788 460.122C70.0788 472.679 77.36 487.002 77.36 509.002C76.0788 550.679 68.8027 548.362 68.8027 561.08ZM108.001 528.362C108.001 516.278 110.881 508.278 115.12 508.278C119.36 508.278 122.24 516.278 122.24 528.362C122.24 540.362 119.36 548.362 115.12 548.362C110.881 548.362 108.001 540.362 108.001 528.362Z" fill="#272324"/>
<path d="M194.962 569.398C218.962 569.398 232.879 552.919 232.879 528.122C232.879 503.481 218.962 487.002 194.962 487.002C170.962 487.002 157.041 503.481 157.041 528.122C157.041 552.919 170.962 569.398 194.962 569.398ZM187.843 528.278C187.843 516.2 190.723 508.2 194.962 508.2C199.202 508.2 202.082 516.2 202.082 528.278C202.082 540.278 199.202 548.278 194.962 548.278C190.723 548.278 187.843 540.278 187.843 528.278Z" fill="#272324"/>
<path d="M235.683 499.481C235.683 507.96 243.521 510.601 243.521 528.2C243.521 542.919 236.24 552.518 236.24 561.08C236.24 568.762 245.042 568.2 248.401 568.2H266.162C269.521 568.2 281.198 568.762 281.198 561.08C281.198 552.122 273.922 540.679 273.839 528.2C273.761 521.721 274.401 512.2 281.282 512.2C287.761 512.2 288.881 521.637 289.042 528.2C289.282 539.637 284.563 550.361 284.563 561.08C284.563 568.762 296.24 568.2 299.599 568.2H314.563C317.922 568.2 326.719 568.762 326.719 561.08C326.719 552.518 319.443 542.919 319.443 528.2V512.2C319.443 497.559 313.443 487.002 298.959 487.002C284.881 487.002 276.719 496.518 274.719 496.518C273.683 496.518 273.282 495.96 273.042 495.08C271.36 488.919 268.401 487.002 265.443 487.002C263.36 487.002 254.563 489.559 250.641 490.601C243.443 492.518 235.683 493.96 235.683 499.481Z" fill="#272324"/>
<path d="M359.442 569.398C371.119 569.398 374.083 566.122 384 566.122C390.958 566.122 394.161 568.2 400.161 568.2C402.239 568.2 411.041 568.763 411.041 561.08C411.041 548.362 403.76 550.679 403.76 509.002C403.76 487.002 411.041 472.679 411.041 460.122C411.041 452.44 402.239 453.002 398.88 453.002H379.838C376.479 453.002 367.682 452.44 367.682 460.122C367.682 472.039 374.562 483.002 374.562 492.601C374.562 495.398 374.718 495.961 373.838 495.961C372.161 495.961 366.718 487.002 354.239 487.002C339.041 487.002 329.521 500.841 329.521 528.2C329.521 554.841 341.521 569.398 359.442 569.398ZM360.323 528.362C360.323 516.278 363.203 508.278 367.442 508.278C371.682 508.278 374.562 516.278 374.562 528.362C374.562 540.362 371.682 548.362 367.442 548.362C363.203 548.362 360.323 540.362 360.323 528.362Z" fill="#272324"/>
<path d="M419.601 473.481C419.601 482.84 427.361 496.439 431.361 508.2C435.762 521.158 434.721 531.799 439.84 531.799C444.96 531.799 443.918 521.158 448.319 508.2C452.319 496.439 460.002 482.84 460.002 473.481C460.002 461.32 453.2 451.799 440.002 451.799C426.403 451.799 419.601 461.32 419.601 473.481ZM439.918 569.398C445.361 569.398 464.002 558.762 464.002 546.439C464.002 539.002 458.559 533.882 452.403 533.882C446.721 533.882 442.642 537.882 439.918 541.32C437.2 537.882 433.122 533.882 427.439 533.882C421.278 533.882 415.84 539.002 415.84 546.439C415.84 558.762 434.481 569.398 439.918 569.398Z" fill="#272324"/>
</g>
<defs>
<clipPath id="clip0_444_38">
<rect width="535" height="569" fill="white"/>
</clipPath>
</defs>
</svg>
