<svg width="270" height="266" viewBox="0 0 270 266" fill="none" xmlns="http://www.w3.org/2000/svg">
<path d="M269.13 146.97C268.925 196.877 230.671 245.814 179.568 260.514C176.306 261.475 173.011 262.293 169.684 262.964C166.355 263.637 163.006 264.161 159.637 264.538C156.268 264.916 152.89 265.145 149.501 265.225C146.113 265.305 142.728 265.236 139.346 265.018C135.962 264.8 132.595 264.434 129.242 263.919C125.89 263.406 122.563 262.744 119.263 261.937C115.961 261.129 112.7 260.178 109.477 259.085C106.253 257.99 103.079 256.755 99.9528 255.383C96.5029 253.85 92.8518 253.186 89.2959 252.118C87.7097 251.642 86.1319 251.134 84.5626 250.592C82.9954 250.047 81.4389 249.472 79.895 248.864C78.349 248.255 76.8157 247.615 75.2951 246.94C73.7745 246.267 72.2666 245.563 70.7735 244.826C69.2805 244.088 67.8022 243.317 66.3388 242.518C64.8754 241.718 63.4268 240.887 61.9952 240.026C60.5635 239.164 59.1488 238.271 57.7532 237.349C56.3555 236.427 54.9768 235.477 53.6171 234.497C52.2554 233.518 50.9148 232.509 49.5933 231.472C48.2718 230.435 46.9714 229.371 45.6923 228.278C44.411 227.185 43.153 226.066 41.9162 224.919C40.6794 223.776 39.4659 222.603 38.2735 221.406C37.0833 220.208 35.9143 218.987 34.7707 217.741C33.6249 216.495 32.5067 215.224 31.4118 213.929C30.3148 212.634 29.2453 211.317 28.2012 209.978C27.1571 208.638 26.1406 207.277 25.1473 205.893C24.1562 204.511 23.1926 203.108 22.2544 201.684C21.3162 200.26 20.4077 198.816 19.5266 197.355C18.6456 195.893 17.7922 194.412 16.9683 192.912C16.1424 191.415 15.3482 189.898 14.5816 188.368C13.817 186.835 13.08 185.287 12.3748 183.724C11.6696 182.16 10.994 180.583 10.348 178.99C9.70422 177.398 9.09006 175.792 8.50766 174.175C7.92526 172.556 7.37463 170.925 6.85364 169.284C6.33478 167.642 5.84556 165.99 5.39023 164.328C4.9349 162.667 4.51134 160.994 4.11954 159.315C3.72775 157.634 3.36984 155.946 3.04369 154.251C2.71755 152.556 2.42529 150.855 2.1648 149.147C1.90431 147.439 1.6777 145.726 1.48286 144.007C1.29014 142.29 1.12919 140.569 1.00212 138.845C0.875052 137.119 0.779749 135.393 0.720451 133.665C0.659034 131.937 0.631503 130.209 0.637856 128.479C0.644209 126.748 0.684448 125.02 0.756454 123.292C0.830577 121.564 0.936468 119.838 1.07624 118.115C1.21602 116.391 1.38968 114.672 1.59511 112.957C1.80054 111.24 2.03985 109.53 2.31305 107.824C2.58625 106.118 2.89121 104.419 3.22794 102.727C3.56679 101.032 3.93741 99.3482 4.34191 97.6712C4.7443 95.9943 5.18057 94.3262 5.64861 92.667C6.11453 91.0077 6.61433 89.3596 7.1459 87.7226C7.67747 86.0856 8.24081 84.4598 8.83592 82.845C9.42891 81.2324 10.0558 79.6309 10.7123 78.045C11.3667 76.4569 12.055 74.8843 12.7708 73.3273C13.4888 71.7703 14.2342 70.2265 15.0115 68.7006C15.7887 67.1747 16.5935 65.6665 17.43 64.1739C18.2644 62.6813 19.1285 61.2086 20.0201 59.7538C20.9117 58.2967 21.8308 56.8618 22.7796 55.4447C23.7263 54.0298 24.7005 52.6327 25.7022 51.2578C26.7039 49.8829 27.7311 48.5302 28.7857 47.1975C29.8404 45.867 30.9184 44.5588 32.0239 43.2727C33.1273 41.9867 34.2561 40.7251 35.4103 39.4879C36.5624 38.2507 37.7399 37.0379 38.9407 35.8496C40.1393 34.6613 41.3634 33.4996 42.6066 32.3646C43.8519 31.2274 45.1183 30.119 46.406 29.0373C47.6957 27.9556 49.0024 26.9005 50.3324 25.8744C51.6603 24.8482 53.0093 23.8487 54.3753 22.8802C55.7434 21.9096 57.1285 20.97 58.5326 20.0594C59.9367 19.1487 61.3556 18.2691 62.7936 17.4184C64.2316 16.5677 65.6844 15.7481 67.1542 14.9596C68.624 14.1711 70.1085 13.4136 71.6058 12.6873C73.1052 11.9632 74.6174 11.268 76.1422 10.6061C77.6691 9.9464 79.2067 9.31559 80.7548 8.72032C82.305 8.12282 83.8659 7.56087 85.4373 7.03001C87.0087 6.50137 88.5907 6.00383 90.1812 5.54183C97.0831 3.52279 104.099 2.15678 111.234 1.44823C118.367 0.737455 125.504 0.693032 132.645 1.31274C139.158 1.82805 145.585 2.89865 151.928 4.5312C158.269 6.16154 164.44 8.32717 170.44 11.0303C171.677 11.5901 172.952 12.0387 174.261 12.3719C210.649 21.6875 237.681 43.6414 255.356 78.2338C264.687 96.5651 269.071 116.291 269.13 146.97Z" fill="#231F20"/>
<path d="M122.757 252.881L122.77 252.881C187.942 253.157 241.27 197.366 241.09 128.654C240.916 62.5015 190.616 5.27193 122.763 5.14264L122.759 5.14263C120.826 5.13386 118.895 5.17549 116.963 5.2654C115.032 5.35526 113.103 5.49552 111.179 5.68618C109.257 5.87683 107.338 6.11795 105.423 6.40741C103.511 6.69667 101.605 7.03639 99.7093 7.42441L99.709 7.42447C97.811 7.81251 95.924 8.24868 94.0479 8.73511L94.0463 8.73553C92.1709 9.21959 90.307 9.75428 88.4545 10.3354C86.6039 10.9188 84.7664 11.548 82.9441 12.2253C81.1217 12.9026 79.3178 13.626 77.5305 14.3955L122.757 252.881ZM122.757 252.881C59.949 253.159 4.63096 200.184 4.66448 128.83L4.66446 128.825M122.757 252.881L4.66446 128.825M4.66446 128.825C4.65818 126.795 4.69797 124.768 4.78589 122.742C4.87381 120.716 5.00987 118.694 5.19408 116.674C5.37837 114.655 5.60867 112.642 5.88704 110.636L5.88707 110.635M4.66446 128.825L5.88707 110.635M5.88707 110.635C6.1654 108.627 6.49195 106.629 6.8647 104.637C7.2374 102.648 7.65601 100.668 8.12257 98.7016L8.123 98.6998M5.88707 110.635L8.123 98.6998M8.123 98.6998C8.58742 96.7317 9.10012 94.776 9.657 92.835C10.216 90.8917 10.8189 88.9662 11.4678 87.054C12.1167 85.144 12.8094 83.252 13.548 81.3781L13.5482 81.3775M8.123 98.6998L13.5482 81.3775M13.5482 81.3775C14.287 79.5007 15.0677 77.648 15.8924 75.8128C16.7194 73.9771 17.5858 72.1663 18.4958 70.3781L18.4962 70.3775M13.5482 81.3775L18.4962 70.3775M18.4962 70.3775C19.4063 68.5869 20.3582 66.8227 21.3519 65.085L21.3523 65.0843M18.4962 70.3775L21.3523 65.0843M21.3523 65.0843C22.3465 63.3435 23.3803 61.6294 24.4536 59.9442M21.3523 65.0843L24.4536 59.9442M26.5684 54.1052C27.7354 52.4571 28.9404 50.8379 30.1835 49.252M26.5684 54.1052C25.4036 55.7533 24.277 57.4303 23.1884 59.1384M26.5684 54.1052L27.7926 54.972C27.7927 54.9719 27.7929 54.9717 27.793 54.9716M26.5684 54.1052L27.7934 54.971C27.7932 54.9712 27.7931 54.9714 27.793 54.9716M30.1835 49.252L23.1884 59.1384M30.1835 49.252C31.4246 47.6661 32.7037 46.1135 34.0189 44.592L30.1835 49.252ZM23.1884 59.1384L24.4536 59.9442M23.1884 59.1384L24.4534 59.9446C24.4534 59.9444 24.4535 59.9443 24.4536 59.9442M27.793 54.9716C28.9461 53.3429 30.1365 51.7434 31.3641 50.1774L31.3648 50.1764C32.5904 48.6103 33.854 47.0766 35.1537 45.573L27.793 54.9716ZM42.3292 35.8961C40.8764 37.2733 39.4575 38.6859 38.0724 40.1363L42.3292 35.8961ZM42.3292 35.8961C43.7799 34.519 45.2645 33.1797 46.7787 31.8803L42.3292 35.8961ZM39.1572 41.1723L39.1564 41.1731C37.7877 42.6042 36.4556 44.0715 35.1537 45.5729L39.1572 41.1723ZM39.1572 41.1723C40.5248 39.7401 41.9261 38.345 43.3611 36.9848L43.3619 36.984M39.1572 41.1723L43.3619 36.984M43.3619 36.984C44.7943 35.6244 46.2602 34.3018 47.7556 33.0186C49.254 31.7347 50.7783 30.4891 52.3327 29.2861L52.3337 29.2853M43.3619 36.984L52.3337 29.2853M52.3337 29.2853C53.89 28.0787 55.4707 26.9143 57.0801 25.7919C58.6906 24.6688 60.3256 23.5877 61.9853 22.5508L61.9865 22.55M52.3337 29.2853L61.9865 22.55M61.9865 22.55C63.6467 21.5106 65.3291 20.5155 67.0359 19.5667L67.0378 19.5656M61.9865 22.55L67.0378 19.5656M67.0378 19.5656C68.7439 18.614 70.4726 17.7064 72.222 16.8449M67.0378 19.5656L72.222 16.8449M72.222 16.8449C73.9717 15.9832 75.7404 15.1675 77.5303 14.3956L72.222 16.8449Z" fill="#FFE9DE" stroke="black" stroke-width="3"/>
<path d="M193.455 251.67C193.532 247.072 192.498 242.796 191.171 238.706L191.171 238.706C190.875 237.792 190.891 237.325 191.001 237.016C191.114 236.697 191.401 236.339 192.144 235.812L193.455 251.67ZM193.455 251.67C193.58 251.629 193.704 251.57 193.829 251.491L193.889 251.452L193.955 251.423C203.238 247.246 211.859 241.898 219.818 235.374L219.819 235.373C228.681 228.123 236.418 219.734 243.034 210.207L193.455 251.67Z" fill="#F68D4D" stroke="black" stroke-width="2"/>
<path d="M247.029 204.549C246.84 204.389 246.703 204.194 246.616 203.958M247.029 204.549C247.215 204.707 247.427 204.805 247.664 204.845M247.029 204.549L247.083 204.486M247.029 204.549L247.082 204.485L246.813 204.319C246.93 204.13 247.047 203.942 247.164 203.756C247.185 203.723 247.206 203.689 247.227 203.656C247.261 203.602 247.294 203.549 247.328 203.496C247.36 203.444 247.393 203.392 247.425 203.34M246.616 203.958L259.863 178.753C257.105 186.955 253.577 194.776 249.28 202.217C248.922 202.84 248.538 203.45 248.162 204.048C247.993 204.316 247.827 204.581 247.664 204.845M246.616 203.958C245.082 200.858 243.231 197.977 241.063 195.322L246.616 203.958ZM247.664 204.845L247.083 204.486M247.664 204.845L247.83 203.858C247.77 203.848 247.724 203.828 247.676 203.787L247.083 204.486M247.083 204.486L247.675 203.786C247.617 203.737 247.581 203.685 247.554 203.612L247.536 203.563L247.512 203.515C247.483 203.457 247.454 203.399 247.425 203.34M247.425 203.34C245.876 200.239 244.013 197.353 241.837 194.69C239.624 191.976 237.141 189.562 234.395 187.446C233.776 186.957 233.604 186.659 233.554 186.451C233.504 186.243 233.521 185.892 233.862 185.161L233.863 185.16C239.008 174.09 242.544 162.482 244.467 150.339C245.18 145.907 245.563 141.449 245.942 137.03C245.975 136.646 246.007 136.262 246.041 135.879L246.041 135.876C246.09 135.282 246.15 134.694 246.209 134.107C252.85 137.058 258.718 141.049 263.325 146.9M247.425 203.34C247.763 202.804 248.095 202.271 248.413 201.718L248.414 201.717C252.678 194.334 256.178 186.574 258.915 178.434L258.915 178.434C261.651 170.296 263.566 161.949 264.659 153.396L264.659 153.395C264.999 150.736 264.8 148.774 263.325 146.9M263.325 146.9L264.109 146.283L263.325 146.9C263.325 146.9 263.325 146.9 263.325 146.9Z" fill="#F68D4D" stroke="black" stroke-width="2"/>
<path d="M255.697 87.2791L255.692 87.2643C255.327 86.3027 254.847 85.414 254.249 84.5974C253.651 83.7817 252.961 83.0695 252.175 82.4564C246.842 78.368 240.851 75.7611 234.197 73.5716C236.063 77.6557 237.714 81.8322 239.153 86.101L255.697 87.2791ZM255.697 87.2791L255.703 87.2937M255.697 87.2791L255.703 87.2937M255.703 87.2937C258.589 94.2294 260.85 101.381 262.485 108.751C264.12 116.122 265.103 123.587 265.433 131.145L265.433 131.153M255.703 87.2937L265.433 131.153M265.433 131.153L265.434 131.16M265.433 131.153L265.434 131.16M265.434 131.16C265.654 134.911 265.696 138.663 265.565 142.417M265.434 131.16L265.565 142.417M246.104 127.204L246.104 127.205C246.112 128.089 246.271 128.591 246.505 128.935C246.743 129.283 247.146 129.6 247.91 129.939C247.91 129.939 247.911 129.939 247.911 129.939L247.505 130.853L246.104 127.204ZM246.104 127.204C246.055 122.543 245.764 117.895 245.229 113.266M246.104 127.204L245.229 113.266M265.565 142.417C265.544 142.392 265.523 142.367 265.501 142.342L265.565 142.417ZM245.229 113.266C244.693 108.636 243.919 104.051 242.903 99.5097M245.229 113.266L242.903 99.5097M242.903 99.5097C241.887 94.9691 240.639 90.4996 239.154 86.1014L242.903 99.5097Z" fill="#F68D4D" stroke="black" stroke-width="2"/>
<path d="M179.808 243.535C182.027 242.329 184.202 241.037 186.344 239.712L186.344 239.712C186.593 239.558 186.752 239.498 186.84 239.478C186.84 239.478 186.84 239.478 186.841 239.478C186.847 239.486 186.854 239.496 186.862 239.509C186.924 239.604 187.003 239.775 187.087 240.056L187.091 240.071L187.096 240.086C188.253 243.582 188.87 247.179 188.947 250.879C188.939 251.699 188.922 252.264 188.866 252.691C188.811 253.109 188.728 253.303 188.647 253.421C188.569 253.536 188.429 253.672 188.083 253.854C187.723 254.043 187.227 254.239 186.489 254.515L186.487 254.515C178.256 257.602 169.8 259.684 161.121 260.763L161.117 260.763C153.615 261.725 146.095 261.926 138.557 261.362L138.557 261.362C131.721 260.853 124.987 259.724 118.351 257.978C118.574 257.983 118.797 257.988 119.021 257.994C119.489 258.005 119.957 258.016 120.427 258.026C123.029 258.083 125.645 258.118 128.27 257.999C132.754 257.806 137.213 257.353 141.649 256.646L141.65 256.645C146.086 255.935 150.472 254.972 154.806 253.756C159.139 252.539 163.398 251.076 167.578 249.367C171.758 247.66 175.834 245.716 179.808 243.535ZM179.808 243.535C179.807 243.536 179.807 243.536 179.806 243.536L179.329 242.658L179.81 243.534C179.809 243.535 179.809 243.535 179.808 243.535ZM116.031 258.381L116.159 257.932C116.159 257.932 116.159 257.932 116.158 257.932L116.031 258.381ZM114.397 257.911C113.966 257.784 113.537 257.652 113.109 257.513C113 257.477 112.916 257.355 112.807 257.196C112.748 257.11 112.681 257.013 112.598 256.913C112.834 256.911 113.07 256.909 113.306 256.909L113.109 257.513L113.309 256.909C113.722 256.908 114.134 256.909 114.546 256.912C115.068 257.068 115.595 257.218 116.129 257.369C116.187 257.386 116.245 257.402 116.304 257.419L114.397 257.911ZM186.808 239.44C186.808 239.44 186.809 239.44 186.81 239.441C186.809 239.44 186.808 239.44 186.808 239.44Z" fill="#F68D4D" stroke="black" stroke-width="2"/>
<path d="M249.213 74.74C243.957 72.1548 238.517 70.0711 232.892 68.4908L232.89 68.4903C231.659 68.1469 231.173 67.3524 230.452 66.0038C224.6 55.0392 217.372 45.1794 208.765 36.4299L208.764 36.429C203.57 31.1624 197.989 26.4069 192.021 22.163C216.829 33.1928 235.831 50.5083 249.213 74.74Z" fill="#F68D4D" stroke="black" stroke-width="2"/>
</svg>
