<svg width="270" height="266" viewBox="0 0 270 266" fill="none" xmlns="http://www.w3.org/2000/svg">
<path d="M269.13 146.97C268.925 196.877 230.67 245.814 179.568 260.514C176.306 261.475 173.011 262.293 169.684 262.964C166.355 263.637 163.006 264.161 159.637 264.538C156.267 264.916 152.889 265.145 149.501 265.225C146.112 265.305 142.728 265.236 139.346 265.018C135.962 264.8 132.594 264.434 129.242 263.919C125.889 263.406 122.562 262.744 119.263 261.937C115.961 261.129 112.7 260.178 109.476 259.085C106.253 257.99 103.078 256.755 99.9525 255.383C96.5026 253.85 92.8515 253.186 89.2957 252.118C87.7095 251.642 86.1317 251.134 84.5624 250.592C82.9952 250.047 81.4386 249.472 79.8947 248.864C78.3487 248.255 76.8154 247.615 75.2948 246.94C73.7742 246.267 72.2663 245.563 70.7733 244.826C69.2802 244.088 67.802 243.317 66.3386 242.518C64.8752 241.718 63.4266 240.887 61.9949 240.026C60.5633 239.164 59.1486 238.271 57.753 237.349C56.3552 236.427 54.9765 235.477 53.6169 234.497C52.2551 233.518 50.9145 232.509 49.593 231.472C48.2715 230.435 46.9712 229.371 45.692 228.278C44.4107 227.185 43.1527 226.066 41.9159 224.919C40.6791 223.776 39.4656 222.603 38.2733 221.406C37.0831 220.208 35.9141 218.987 34.7704 217.741C33.6247 216.495 32.5065 215.224 31.4116 213.929C30.3146 212.634 29.2451 211.317 28.201 209.978C27.1569 208.638 26.1403 207.277 25.1471 205.893C24.1559 204.511 23.1923 203.108 22.2541 201.684C21.316 200.26 20.4074 198.816 19.5264 197.355C18.6454 195.893 17.7919 194.412 16.9681 192.912C16.1421 191.415 15.348 189.898 14.5813 188.368C13.8168 186.835 13.0798 185.287 12.3745 183.724C11.6693 182.16 10.9937 180.583 10.3478 178.99C9.70398 177.398 9.08981 175.792 8.50741 174.175C7.92501 172.556 7.37438 170.925 6.8534 169.284C6.33453 167.642 5.84532 165.99 5.38999 164.328C4.93466 162.667 4.5111 160.994 4.1193 159.315C3.7275 157.634 3.36959 155.946 3.04345 154.251C2.71731 152.556 2.42505 150.855 2.16456 149.147C1.90407 147.439 1.67746 145.726 1.48262 144.007C1.2899 142.29 1.12895 140.569 1.00188 138.845C0.874808 137.119 0.779505 135.393 0.720207 133.665C0.65879 131.937 0.631259 130.209 0.637612 128.479C0.643965 126.748 0.684204 125.02 0.75621 123.292C0.830333 121.564 0.936224 119.838 1.076 118.115C1.21578 116.391 1.38944 114.672 1.59486 112.957C1.80029 111.24 2.03961 109.53 2.3128 107.824C2.586 106.118 2.89097 104.419 3.2277 102.727C3.56655 101.032 3.93717 99.3482 4.34167 97.6712C4.74406 95.9943 5.18033 94.3262 5.64836 92.667C6.11428 91.0077 6.61409 89.3596 7.14566 87.7226C7.67723 86.0856 8.24057 84.4598 8.83567 82.845C9.42866 81.2324 10.0555 79.6309 10.7121 78.045C11.3665 76.4569 12.0548 74.8843 12.7706 73.3273C13.4885 71.7703 14.234 70.2265 15.0112 68.7006C15.7885 67.1747 16.5932 65.6665 17.4298 64.1739C18.2642 62.6813 19.1283 61.2086 20.0199 59.7538C20.9115 58.2967 21.8306 56.8618 22.7794 55.4447C23.726 54.0298 24.7002 52.6327 25.702 51.2578C26.7037 49.8829 27.7308 48.5302 28.7855 47.1975C29.8402 45.867 30.9181 44.5588 32.0236 43.2727C33.127 41.9867 34.2558 40.7251 35.41 39.4879C36.5621 38.2507 37.7396 37.0379 38.9404 35.8496C40.1391 34.6613 41.3632 33.4996 42.6064 32.3646C43.8516 31.2274 45.1181 30.119 46.4057 29.0373C47.6955 27.9556 49.0022 26.9005 50.3321 25.8744C51.66 24.8482 53.0091 23.8487 54.375 22.8802C55.7432 21.9096 57.1282 20.97 58.5323 20.0594C59.9364 19.1487 61.3554 18.2691 62.7934 17.4184C64.2314 16.5677 65.6842 15.7481 67.1539 14.9596C68.6237 14.1711 70.1083 13.4136 71.6056 12.6873C73.105 11.9632 74.6171 11.268 76.142 10.6061C77.6689 9.9464 79.2064 9.31559 80.7546 8.72032C82.3048 8.12282 83.8656 7.56087 85.437 7.03001C87.0085 6.50137 88.5905 6.00383 90.1809 5.54183C97.0829 3.52279 104.099 2.15678 111.234 1.44823C118.367 0.737455 125.504 0.693032 132.645 1.31274C139.158 1.82805 145.585 2.89865 151.928 4.5312C158.269 6.16154 164.44 8.32717 170.44 11.0303C171.677 11.5901 172.952 12.0387 174.26 12.3719C210.649 21.6875 237.68 43.6414 255.356 78.2338C264.687 96.5651 269.071 116.291 269.13 146.97Z" fill="#231F20"/>
<path d="M122.757 252.881L122.77 252.881C187.942 253.157 241.27 197.366 241.09 128.654C240.916 62.5015 190.616 5.27193 122.763 5.14264L122.759 5.14263C120.826 5.13386 118.895 5.17549 116.963 5.2654C115.032 5.35526 113.103 5.49552 111.179 5.68618C109.256 5.87683 107.338 6.11795 105.423 6.40741C103.511 6.69667 101.605 7.03639 99.7091 7.42441L99.7088 7.42447C97.8108 7.81251 95.9237 8.24868 94.0476 8.73511L94.046 8.73553C92.1706 9.21959 90.3067 9.75428 88.4542 10.3354C86.6036 10.9188 84.7662 11.548 82.9439 12.2253C81.1214 12.9026 79.3176 13.626 77.5302 14.3955L122.757 252.881ZM122.757 252.881C59.9488 253.159 4.63071 200.184 4.66423 128.83L4.66422 128.825M122.757 252.881L4.66422 128.825M4.66422 128.825C4.65793 126.795 4.69773 124.768 4.78565 122.742C4.87356 120.716 5.00962 118.694 5.19383 116.674C5.37812 114.655 5.60843 112.642 5.8868 110.636L5.88683 110.635M4.66422 128.825L5.88683 110.635M5.88683 110.635C6.16516 108.627 6.49171 106.629 6.86446 104.637C7.23715 102.648 7.65577 100.668 8.12232 98.7016L8.12276 98.6998M5.88683 110.635L8.12276 98.6998M8.12276 98.6998C8.58717 96.7317 9.09987 94.776 9.65675 92.835C10.2158 90.8917 10.8187 88.9662 11.4676 87.054C12.1165 85.144 12.8092 83.252 13.5478 81.3781L13.548 81.3775M8.12276 98.6998L13.548 81.3775M13.548 81.3775C14.2868 79.5007 15.0675 77.648 15.8921 75.8128C16.7191 73.9771 17.5856 72.1663 18.4956 70.3781L18.4959 70.3775M13.548 81.3775L18.4959 70.3775M18.4959 70.3775C19.4061 68.5869 20.358 66.8227 21.3517 65.085L21.3521 65.0843M18.4959 70.3775L21.3521 65.0843M21.3521 65.0843C22.3463 63.3435 23.38 61.6294 24.4534 59.9442M21.3521 65.0843L24.4534 59.9442M26.5682 54.1052C27.7351 52.4571 28.9401 50.8379 30.1833 49.252M26.5682 54.1052C25.4034 55.7533 24.2767 57.4303 23.1882 59.1384M26.5682 54.1052L27.7924 54.972C27.7925 54.9719 27.7926 54.9717 27.7927 54.9716M26.5682 54.1052L27.7931 54.971C27.793 54.9712 27.7929 54.9714 27.7927 54.9716M30.1833 49.252L23.1882 59.1384M30.1833 49.252C31.4243 47.6661 32.7035 46.1135 34.0187 44.592L30.1833 49.252ZM23.1882 59.1384L24.4534 59.9442M23.1882 59.1384L24.4531 59.9446C24.4532 59.9444 24.4533 59.9443 24.4534 59.9442M27.7927 54.9716C28.9459 53.3429 30.1363 51.7434 31.3638 50.1774L31.3646 50.1764C32.5901 48.6103 33.8538 47.0766 35.1534 45.573L27.7927 54.9716ZM42.329 35.8961C40.8762 37.2733 39.4572 38.6859 38.0722 40.1363L42.329 35.8961ZM42.329 35.8961C43.7797 34.519 45.2643 33.1797 46.7785 31.8803L42.329 35.8961ZM39.157 41.1723L39.1562 41.1731C37.7875 42.6042 36.4554 44.0715 35.1535 45.5729L39.157 41.1723ZM39.157 41.1723C40.5246 39.7401 41.9259 38.345 43.3609 36.9848L43.3617 36.984M39.157 41.1723L43.3617 36.984M43.3617 36.984C44.794 35.6244 46.26 34.3018 47.7553 33.0186C49.2537 31.7347 50.778 30.4891 52.3325 29.2861L52.3335 29.2853M43.3617 36.984L52.3335 29.2853M52.3335 29.2853C53.8897 28.0787 55.4705 26.9143 57.0799 25.7919C58.6903 24.6688 60.3254 23.5877 61.985 22.5508L61.9862 22.55M52.3335 29.2853L61.9862 22.55M61.9862 22.55C63.6464 21.5106 65.3288 20.5155 67.0356 19.5667L67.0376 19.5656M61.9862 22.55L67.0376 19.5656M67.0376 19.5656C68.7436 18.614 70.4724 17.7064 72.2217 16.8449M67.0376 19.5656L72.2217 16.8449M72.2217 16.8449C73.9714 15.9832 75.7402 15.1675 77.5301 14.3956L72.2217 16.8449Z" fill="#FFE9DE" stroke="black" stroke-width="3"/>
<path d="M193.455 251.67C193.532 247.072 192.498 242.796 191.171 238.706L191.171 238.706C190.875 237.792 190.891 237.325 191.001 237.016C191.114 236.697 191.401 236.339 192.144 235.812L193.455 251.67ZM193.455 251.67C193.58 251.629 193.704 251.57 193.829 251.491L193.889 251.452L193.955 251.423C203.238 247.246 211.859 241.898 219.818 235.374L219.819 235.373C228.681 228.123 236.418 219.734 243.034 210.207L193.455 251.67Z" fill="#FECD1A" stroke="black" stroke-width="2"/>
<path d="M247.028 204.549C246.84 204.389 246.702 204.194 246.615 203.958M247.028 204.549C247.215 204.707 247.427 204.805 247.664 204.845M247.028 204.549L247.082 204.486M247.028 204.549L247.082 204.485L246.813 204.319C246.93 204.13 247.047 203.942 247.164 203.756C247.185 203.723 247.206 203.689 247.227 203.656C247.26 203.602 247.294 203.549 247.328 203.496C247.36 203.444 247.393 203.392 247.425 203.34M246.615 203.958L259.862 178.753C257.105 186.955 253.577 194.776 249.28 202.217C248.921 202.84 248.538 203.45 248.162 204.048C247.993 204.316 247.826 204.581 247.664 204.845M246.615 203.958C245.082 200.858 243.231 197.977 241.063 195.322L246.615 203.958ZM247.664 204.845L247.082 204.486M247.664 204.845L247.83 203.858C247.77 203.848 247.724 203.828 247.675 203.787L247.082 204.486M247.082 204.486L247.674 203.786C247.617 203.737 247.58 203.685 247.554 203.612L247.535 203.563L247.512 203.515C247.483 203.457 247.454 203.399 247.425 203.34M247.425 203.34C245.876 200.239 244.013 197.353 241.837 194.69C239.623 191.976 237.141 189.562 234.395 187.446C233.776 186.957 233.604 186.659 233.554 186.451C233.504 186.243 233.521 185.892 233.862 185.161L233.862 185.16C239.008 174.09 242.544 162.482 244.466 150.339C245.18 145.907 245.562 141.449 245.941 137.03C245.974 136.646 246.007 136.262 246.04 135.879L246.041 135.876C246.09 135.282 246.149 134.694 246.209 134.107C252.849 137.058 258.718 141.049 263.325 146.9M247.425 203.34C247.762 202.804 248.095 202.271 248.413 201.718L248.414 201.717C252.677 194.334 256.178 186.574 258.914 178.434L258.915 178.434C261.651 170.296 263.565 161.949 264.658 153.396L264.658 153.395C264.999 150.736 264.8 148.774 263.325 146.9M263.325 146.9L264.109 146.283L263.325 146.9C263.325 146.9 263.325 146.9 263.325 146.9Z" fill="#FECD1A" stroke="black" stroke-width="2"/>
<path d="M255.697 87.2791L255.692 87.2643C255.327 86.3027 254.847 85.414 254.249 84.5974C253.651 83.7817 252.961 83.0695 252.175 82.4564C246.842 78.368 240.851 75.7611 234.197 73.5716C236.063 77.6557 237.714 81.8322 239.153 86.101L255.697 87.2791ZM255.697 87.2791L255.703 87.2937M255.697 87.2791L255.703 87.2937M255.703 87.2937C258.589 94.2294 260.85 101.381 262.485 108.751C264.12 116.122 265.103 123.587 265.433 131.145L265.433 131.153M255.703 87.2937L265.433 131.153M265.433 131.153L265.434 131.16M265.433 131.153L265.434 131.16M265.434 131.16C265.654 134.911 265.696 138.663 265.565 142.417M265.434 131.16L265.565 142.417M246.104 127.204L246.104 127.205C246.112 128.089 246.271 128.591 246.505 128.935C246.743 129.283 247.146 129.6 247.91 129.939C247.91 129.939 247.911 129.939 247.911 129.939L247.505 130.853L246.104 127.204ZM246.104 127.204C246.055 122.543 245.764 117.895 245.229 113.266M246.104 127.204L245.229 113.266M265.565 142.417C265.544 142.392 265.523 142.367 265.501 142.342L265.565 142.417ZM245.229 113.266C244.693 108.636 243.919 104.051 242.903 99.5097M245.229 113.266L242.903 99.5097M242.903 99.5097C241.887 94.9691 240.639 90.4996 239.154 86.1014L242.903 99.5097Z" fill="#FECD1A" stroke="black" stroke-width="2"/>
<path d="M179.808 243.535C182.027 242.329 184.202 241.037 186.343 239.712L186.344 239.712C186.592 239.558 186.752 239.498 186.84 239.478C186.84 239.478 186.84 239.478 186.84 239.478C186.847 239.486 186.854 239.496 186.862 239.509C186.924 239.604 187.003 239.775 187.086 240.056L187.091 240.071L187.096 240.086C188.253 243.582 188.869 247.179 188.947 250.879C188.938 251.699 188.921 252.264 188.865 252.691C188.81 253.109 188.728 253.303 188.647 253.421C188.569 253.536 188.429 253.672 188.083 253.854C187.723 254.043 187.227 254.239 186.488 254.515L186.487 254.515C178.256 257.602 169.8 259.684 161.121 260.763L161.117 260.763C153.615 261.725 146.094 261.926 138.557 261.362L138.556 261.362C131.721 260.853 124.987 259.724 118.351 257.978C118.574 257.983 118.797 257.988 119.02 257.994C119.489 258.005 119.957 258.016 120.426 258.026C123.029 258.083 125.645 258.118 128.27 257.999C132.753 257.806 137.213 257.353 141.649 256.646L141.65 256.645C146.086 255.935 150.471 254.972 154.805 253.756C159.139 252.539 163.398 251.076 167.578 249.367C171.757 247.66 175.834 245.716 179.808 243.535ZM179.808 243.535C179.807 243.536 179.807 243.536 179.806 243.536L179.328 242.658L179.81 243.534C179.809 243.535 179.808 243.535 179.808 243.535ZM116.031 258.381L116.159 257.932C116.159 257.932 116.158 257.932 116.158 257.932L116.031 258.381ZM114.397 257.911C113.966 257.784 113.536 257.652 113.109 257.513C113 257.477 112.916 257.355 112.806 257.196C112.747 257.11 112.681 257.013 112.598 256.913C112.834 256.911 113.07 256.909 113.305 256.909L113.109 257.513L113.309 256.909C113.722 256.908 114.134 256.909 114.546 256.912C115.068 257.068 115.595 257.218 116.129 257.369C116.187 257.386 116.245 257.402 116.303 257.419L114.397 257.911ZM186.808 239.44C186.808 239.44 186.809 239.44 186.81 239.441C186.809 239.44 186.808 239.44 186.808 239.44Z" fill="#FECD1A" stroke="black" stroke-width="2"/>
<path d="M249.213 74.7399C243.958 72.1547 238.517 70.071 232.892 68.4907L232.89 68.4903C231.66 68.1469 231.174 67.3523 230.452 66.0038C224.6 55.0391 217.373 45.1794 208.766 36.4298L208.765 36.4289C203.57 31.1624 197.989 26.4069 192.022 22.163C216.829 33.1928 235.831 50.5083 249.213 74.7399Z" fill="#FECD1A" stroke="black" stroke-width="2"/>
</svg>
