<svg width="736" height="581" viewBox="0 0 736 581" fill="none" xmlns="http://www.w3.org/2000/svg">
<g clip-path="url(#clip0_438_38)">
<path d="M553.776 117.532C555.15 117.569 556.652 117.608 558.027 117.774C559.498 118.852 561.105 119.674 562.324 121.008C565.612 124.603 567.373 129.066 568.883 133.656C573.892 148.082 576.379 163.35 578.488 178.607C581.464 199.085 583.183 219.659 584.532 240.226C584.512 241.006 584.99 241.798 585.482 242.199C604.893 261.294 619.589 283.642 628.685 309.612C637.777 335.578 639.349 361.999 633.268 388.993C629.461 405.524 623.053 420.944 614.786 435.539C601.922 458.586 585.023 477.757 563.359 492.514C543.102 506.14 520.952 515.429 497.751 521.828C465.975 530.599 433.337 533.892 400.644 534.455C380.48 534.829 360.226 533.771 340.102 532.461C322.73 531.221 305.389 528.939 288.333 525.241C268.166 520.807 248.297 514.433 229.763 504.974C210.73 495.377 193.647 483.101 179.54 466.874C165.919 451.44 155.356 433.877 147.467 414.57C141.339 399.723 137.603 384.422 136.521 368.282C136.335 365.679 136.156 362.946 135.85 360.34C136.115 354.888 136.384 349.306 136.525 343.855C136.66 343.47 136.795 343.082 136.805 342.694C137.791 333.624 139.642 324.965 142.37 316.333C151.107 288.238 166.119 264.471 186.312 243.828C186.824 243.321 187.225 242.422 187.369 241.646C187.998 231.787 188.378 221.925 189.512 211.95C191.033 196.788 192.8 181.633 194.941 166.617C196.341 156.128 198.482 145.92 201.866 136.134C203.492 131.239 205.243 126.481 208.604 122.412C210.544 119.994 212.955 118.757 216.205 118.973C220.206 119.212 223.921 120.737 227.256 122.515C236.649 127.184 245.252 133.519 253.473 139.972C274.09 156.112 293.278 174.163 311.82 192.972C312.672 193.904 313.42 194.057 314.548 193.954C324.615 192.014 334.557 190.068 344.613 188.516C353.916 187.074 363.336 185.893 372.742 185.233C385.031 184.391 397.537 184.982 409.779 186.086C426.02 187.426 442.361 189.678 458.44 192.444C458.938 192.587 459.82 192.351 460.204 191.97C464.316 187.921 468.432 183.742 472.544 179.693C487.57 165.023 502.842 150.485 519.577 137.674C530.313 129.126 540.789 120.958 553.776 117.532Z" fill="#DE813B"/>
<path d="M637.168 63.7445L682.433 56.3663L660.565 98.2766L681.375 140.798L636.153 132.062L603.605 165.89L597.691 118.568L556.937 96.9587L598.408 76.3588L605.507 29.3813L637.168 63.7445Z" fill="#F4D43B"/>
<path d="M673.035 211.519L703.18 231.937L669.182 244.419L659.735 280.549L637.844 250.736L601.736 252.636L622.315 221.868L609.322 186.832L644.104 197.498L672.254 173.946L673.035 211.519Z" fill="#F4D43B"/>
<path d="M241.814 392.382C241.789 393.348 241.706 394.312 241.564 395.267C241.425 396.226 241.228 397.175 240.973 398.116C240.721 399.057 240.411 399.984 240.047 400.899C239.679 401.814 239.259 402.712 238.789 403.589C238.316 404.471 237.791 405.328 237.212 406.165C236.637 407.002 236.011 407.811 235.338 408.599C234.665 409.384 233.946 410.138 233.179 410.867C232.412 411.592 231.606 412.286 230.757 412.944C229.907 413.606 229.022 414.23 228.098 414.818C227.169 415.409 226.213 415.958 225.221 416.469C224.229 416.979 223.209 417.446 222.16 417.875C221.111 418.304 220.038 418.686 218.944 419.026C217.846 419.366 216.731 419.663 215.599 419.911C214.467 420.163 213.322 420.368 212.163 420.524C211.004 420.683 209.839 420.793 208.668 420.857C207.493 420.921 206.319 420.936 205.143 420.905C203.967 420.873 202.796 420.797 201.629 420.671C200.459 420.544 199.302 420.373 198.152 420.152C197.003 419.935 195.87 419.669 194.752 419.358C193.635 419.051 192.537 418.695 191.462 418.297C190.383 417.899 189.331 417.461 188.306 416.977C187.281 416.493 186.286 415.972 185.322 415.41C184.358 414.848 183.431 414.249 182.538 413.609C181.645 412.973 180.79 412.304 179.976 411.597C179.162 410.895 178.393 410.159 177.664 409.394C176.94 408.626 176.26 407.835 175.625 407.016C174.994 406.193 174.411 405.352 173.879 404.485C173.348 403.619 172.869 402.735 172.441 401.83C172.014 400.928 171.641 400.009 171.325 399.076C171.008 398.143 170.746 397.201 170.54 396.248C170.333 395.295 170.186 394.336 170.097 393.372C170.008 392.411 169.975 391.443 170 390.478C170.025 389.512 170.108 388.552 170.247 387.593C170.385 386.638 170.582 385.688 170.837 384.748C171.092 383.807 171.402 382.88 171.767 381.965C172.132 381.05 172.551 380.152 173.025 379.271C173.498 378.393 174.023 377.532 174.598 376.699C175.173 375.862 175.799 375.049 176.472 374.264C177.149 373.479 177.868 372.722 178.631 371.997C179.398 371.272 180.204 370.578 181.054 369.916C181.903 369.253 182.792 368.63 183.716 368.042C184.641 367.454 185.597 366.905 186.589 366.395C187.581 365.885 188.602 365.414 189.65 364.989C190.699 364.56 191.772 364.178 192.87 363.834C193.964 363.494 195.079 363.2 196.211 362.949C197.343 362.697 198.488 362.496 199.647 362.336C200.806 362.18 201.971 362.067 203.146 362.007C204.317 361.943 205.491 361.924 206.667 361.955C207.843 361.987 209.014 362.067 210.184 362.193C211.351 362.316 212.508 362.491 213.658 362.708C214.807 362.928 215.94 363.19 217.058 363.502C218.175 363.813 219.274 364.165 220.352 364.563C221.427 364.964 222.479 365.403 223.504 365.887C224.529 366.367 225.524 366.891 226.488 367.453C227.453 368.015 228.379 368.614 229.276 369.251C230.169 369.887 231.02 370.556 231.834 371.262C232.648 371.969 233.417 372.704 234.146 373.469C234.874 374.234 235.554 375.028 236.185 375.848C236.816 376.667 237.399 377.512 237.931 378.378C238.466 379.241 238.945 380.129 239.373 381.03C239.797 381.935 240.169 382.855 240.489 383.787C240.806 384.72 241.068 385.663 241.27 386.616C241.477 387.569 241.624 388.527 241.713 389.488C241.805 390.453 241.839 391.417 241.814 392.382Z" fill="#F5A3BF"/>
<path d="M572.233 401.145C572.208 402.111 572.124 403.075 571.986 404.03C571.844 404.989 571.647 405.939 571.395 406.879C571.14 407.82 570.83 408.747 570.465 409.662C570.101 410.577 569.681 411.475 569.208 412.353C568.734 413.234 568.21 414.091 567.634 414.928C567.055 415.765 566.433 416.574 565.757 417.363C565.084 418.148 564.364 418.901 563.597 419.63C562.834 420.355 562.024 421.049 561.179 421.708C560.329 422.37 559.441 422.993 558.516 423.581C557.592 424.173 556.631 424.722 555.639 425.232C554.651 425.742 553.631 426.209 552.578 426.638C551.53 427.067 550.46 427.449 549.362 427.789C548.265 428.129 547.154 428.427 546.018 428.674C544.886 428.926 543.74 429.131 542.585 429.287C541.426 429.447 540.261 429.556 539.086 429.62C537.915 429.684 536.741 429.699 535.565 429.668C534.389 429.637 533.214 429.56 532.048 429.434C530.882 429.308 529.72 429.136 528.575 428.916C527.425 428.699 526.292 428.433 525.174 428.122C524.053 427.814 522.959 427.458 521.88 427.06C520.805 426.663 519.753 426.224 518.728 425.74C517.703 425.257 516.708 424.736 515.744 424.174C514.78 423.612 513.849 423.013 512.957 422.373C512.064 421.736 511.212 421.067 510.398 420.361C509.584 419.658 508.811 418.922 508.087 418.158C507.359 417.389 506.679 416.599 506.047 415.779C505.412 414.956 504.833 414.115 504.298 413.249C503.767 412.382 503.287 411.498 502.86 410.593C502.432 409.691 502.06 408.772 501.743 407.84C501.426 406.907 501.165 405.964 500.958 405.011C500.756 404.058 500.608 403.1 500.516 402.135C500.427 401.174 500.393 400.207 500.418 399.241C500.443 398.275 500.527 397.315 500.665 396.356C500.807 395.401 501.004 394.452 501.256 393.511C501.511 392.571 501.821 391.643 502.185 390.728C502.55 389.813 502.969 388.915 503.443 388.034C503.917 387.156 504.441 386.295 505.016 385.462C505.595 384.625 506.221 383.812 506.894 383.028C507.567 382.243 508.287 381.486 509.054 380.76C509.817 380.035 510.626 379.341 511.476 378.679C512.325 378.017 513.21 377.393 514.135 376.805C515.059 376.218 516.019 375.669 517.011 375.158C518.003 374.648 519.024 374.177 520.072 373.752C521.121 373.323 522.194 372.941 523.288 372.597C524.386 372.257 525.497 371.963 526.633 371.712C527.765 371.461 528.91 371.259 530.069 371.099C531.225 370.944 532.394 370.83 533.565 370.77C534.736 370.706 535.913 370.688 537.089 370.719C538.265 370.75 539.437 370.83 540.603 370.956C541.773 371.079 542.931 371.254 544.08 371.471C545.225 371.692 546.359 371.954 547.476 372.265C548.598 372.576 549.692 372.928 550.771 373.326C551.849 373.728 552.897 374.166 553.922 374.65C554.951 375.13 555.946 375.655 556.907 376.217C557.871 376.778 558.801 377.378 559.694 378.014C560.587 378.65 561.442 379.319 562.256 380.026C563.067 380.732 563.84 381.468 564.564 382.233C565.292 382.998 565.972 383.792 566.603 384.611C567.238 385.431 567.818 386.275 568.353 387.142C568.884 388.004 569.363 388.892 569.791 389.793C570.219 390.699 570.591 391.618 570.908 392.551C571.225 393.484 571.486 394.426 571.693 395.379C571.895 396.332 572.043 397.291 572.135 398.252C572.224 399.216 572.258 400.18 572.233 401.145Z" fill="#F5A3BF"/>
<path d="M583.969 276.463C583.919 278.409 583.869 280.356 583.818 282.306C583.037 283.453 582.377 284.737 581.471 285.88C580.703 286.64 579.814 287.004 578.922 287.631C572.799 292.019 570.25 298.708 567.94 305.662C566.85 309.14 566.008 312.625 564.917 316.108C563.536 321.005 562.163 325.778 560.658 330.676C559.291 335.186 557.914 339.958 556.422 344.464C554.651 350.006 552.139 355.136 549.01 359.862C544.306 367.532 538.14 373.607 530.875 378.482C525.652 381.98 520.203 384.564 514.39 386.62C509.086 388.427 503.539 389.969 498.137 390.605C492.984 391.378 487.845 391.634 482.715 391.498C476.586 391.335 470.591 390.784 464.619 389.329C459.392 388.018 454.296 386.586 449.335 384.765C444.128 382.809 439.184 380.338 434.506 377.353C428.841 373.695 423.701 369.142 419.328 363.829C413.993 357.19 409.547 349.928 405.869 342.161C402.426 334.925 399.866 327.321 397.433 319.72C395.938 314.613 394.691 309.642 393.071 304.531C391.918 300.605 390.13 297.18 387.583 293.993C386.246 292.397 384.545 290.404 382.414 290.607C378.028 290.62 373.683 289.207 369.157 289.996C366.015 290.43 363.853 291.803 362.156 294.486C358.627 300.24 356.953 306.822 355.034 313.269C353.812 317.003 353.091 320.625 351.744 324.226C350.135 328.471 348.024 332.573 345.919 336.546C342.77 342.047 339.372 347.545 335.857 352.778C331.957 358.393 327.445 363.47 322.444 368.016C318.598 371.551 314.513 374.562 310.064 377.172C305.868 379.659 301.311 381.619 296.522 382.789C291.487 383.828 286.698 384.998 281.673 385.645C277.659 386.059 273.519 386.338 269.394 386.099C262.638 385.92 256.016 385.352 249.27 384.785C247.647 384.613 245.902 384.308 244.285 383.873C240.183 382.726 236.081 381.708 231.986 380.298C228.634 379.171 225.536 377.92 222.444 376.408C217.998 374.08 213.556 371.626 209.638 368.144C205.718 364.791 202.312 360.931 200.177 356.328C197.92 351.718 196.293 346.87 194.41 342.141C192.894 337.813 191.502 333.489 189.99 329.161C188.71 325.357 187.557 321.431 186.402 317.76C185.368 314.225 184.455 310.693 183.673 307.036C182.871 304.153 182.447 301.285 181.645 298.407C180.965 295.657 180.408 292.915 179.475 290.292C177.484 284.913 173.46 280.907 170.189 276.662C167.764 273.611 165.47 270.302 165.456 266.014C165.466 265.622 165.099 265.224 164.984 264.83C165.146 258.599 165.3 252.626 165.458 246.521C166.465 246.289 167.344 246.183 168.354 245.821C171.372 245.38 174.517 244.813 177.66 244.246C180.428 243.802 183.196 243.225 185.961 242.777C188.225 242.449 190.488 241.988 192.754 241.53C195.27 241.076 197.668 240.36 200.184 239.909C202.824 239.458 205.34 239.003 207.981 238.556C211.123 238.118 214.268 237.422 217.411 236.988C220.428 236.547 223.567 236.109 226.581 235.8C231.856 235.16 237.005 234.517 242.266 234.398C255.418 234.226 268.418 234.958 281.381 237.254C288.855 238.62 296.092 239.592 303.573 240.829C304.947 240.998 306.439 241.297 307.806 241.721C311.535 242.729 315.394 243.611 319.126 244.49C321.615 245.077 324.104 245.661 326.593 246.248C330.944 247.402 335.417 248.822 339.897 249.85C344.75 251.017 349.607 252.055 354.591 252.967C360.074 253.892 365.695 254.433 371.444 254.715C375.947 254.964 380.706 254.831 385.219 254.689C389.978 254.556 394.623 254.158 399.263 253.764C404.915 253.134 410.694 252.378 416.349 251.485C419.868 251.061 423.391 250.375 426.911 249.818C431.312 249.025 435.714 248.233 440.116 247.44C444.016 246.764 448.037 246.22 451.934 245.543C453.318 245.321 454.571 245.225 455.958 244.87C459.101 244.436 462.374 243.743 465.513 243.305C469.406 242.891 473.428 242.347 477.439 242.062C481.453 241.78 485.347 241.362 489.354 241.21C491.736 241.144 494.245 240.948 496.495 241.14C501.748 241.28 506.875 241.545 512.122 241.943C516.369 242.314 520.72 243.472 524.96 244.102C529.945 245.014 535.061 245.671 539.914 246.838C544.145 247.859 548.496 249.013 552.719 250.297C556.327 251.302 559.809 252.174 563.282 253.434C568.246 255.126 572.968 256.419 578.081 257.334C579.202 257.493 580.192 257.912 581.055 258.456C582.792 259.019 583.493 260.986 584.456 262.441C584.413 264.129 584.366 265.947 584.319 267.768C583.12 270.593 583.168 273.581 583.969 276.463Z" fill="black"/>
<path d="M583.97 276.463C583.171 273.451 583.12 270.593 584.201 267.502C584.121 270.619 584.044 273.604 583.97 276.463Z" fill="black"/>
<path d="M329.077 474.606C289.167 473.548 273.632 440.133 271.202 422.657C270.562 418.352 273.546 414.402 277.698 413.603C281.847 412.934 285.646 416.024 286.415 420.203C286.62 421.898 292.581 457.786 329.736 458.771C359.263 459.554 365.817 423.998 366.103 422.575C366.965 418.31 370.798 415.426 375.035 416.185C379.144 417.074 381.923 420.917 381.182 425.315C377.981 442.642 363.235 475.512 329.077 474.606Z" fill="black"/>
<path d="M427.29 477.211C387.38 476.152 371.844 442.738 369.414 425.261C368.774 420.957 371.758 417.007 375.911 416.208C380.06 415.538 383.859 418.629 384.627 422.808C384.836 424.373 390.794 460.39 427.952 461.376C457.475 462.159 464.03 426.603 464.316 425.18C465.178 420.915 469.01 418.03 473.247 418.79C477.484 419.552 480.135 423.522 479.394 427.919C476.068 445.243 461.448 478.117 427.29 477.211Z" fill="black"/>
<path d="M594.384 164.215C593.882 164.202 593.263 164.056 592.764 163.914C590.656 163.078 589.325 161.353 589.002 159.268L583.512 115.072L545.224 94.8258C543.375 93.7382 542.168 91.8878 542.229 89.5497C542.286 87.3447 543.461 85.4243 545.368 84.4363L584.175 65.1962L590.947 21.1964C591.253 18.9981 592.674 17.2173 594.82 16.6237C596.965 15.9007 598.952 16.6039 600.414 18.2024L630.001 50.559L672.497 43.4992C674.635 43.1679 676.616 44.0003 677.822 45.8507C679.024 47.701 679.088 50.0424 678.165 51.8364L657.753 90.9244L677.256 130.683C678.209 132.527 678.021 134.991 676.849 136.649C675.556 138.304 673.4 139.285 671.41 138.844L629.179 130.705L598.813 162.385C597.405 163.515 596.011 164.258 594.384 164.215ZM560.126 89.7657L591.005 106.045C592.608 106.997 593.692 108.586 593.898 110.409L598.357 146.132L622.927 120.667C624.217 119.271 625.982 118.797 627.851 119.109L661.989 125.599L646.167 93.478C645.335 91.7668 645.385 89.8165 646.305 88.1518L662.903 56.3696L628.574 62.0862C626.816 62.2983 624.953 61.7315 623.609 60.3948L599.621 34.2926L594.572 69.7594C594.275 71.57 593.107 73.2281 591.585 73.9676L560.126 89.7657Z" fill="black"/>
<path d="M659.529 273.916C657.902 273.873 656.42 273.058 655.332 271.599L635.132 244.167L602.036 245.887C599.907 245.96 597.934 244.869 596.98 242.896C595.903 241.045 596.087 238.714 597.263 236.923L616.148 208.58L604.334 176.432C603.509 174.462 604.071 172.138 605.488 170.486C606.906 168.964 609.18 168.248 611.039 168.944L642.833 178.884L668.68 157.223C670.343 155.836 672.603 155.638 674.459 156.463C676.311 157.425 677.517 159.275 677.706 161.62L678.443 196.069L706.126 214.866C707.847 216.079 708.797 218.185 708.615 220.387C708.43 222.592 707.009 224.373 704.857 225.225L673.513 236.739L664.766 269.897C664.21 272.093 662.543 273.608 660.526 274.076C660.404 273.94 659.906 273.926 659.529 273.916ZM637.933 232.676C639.56 232.719 641.291 233.545 642.13 234.997L657.251 255.538L663.904 230.637C664.324 228.83 665.614 227.433 667.51 226.704L691.021 218.102L670.226 204.037C668.751 202.96 667.794 201.245 667.717 199.425L667.132 173.551L647.808 189.801C646.397 191.061 644.387 191.399 642.773 190.835L618.924 183.446L627.814 207.721C628.522 209.429 628.215 211.498 627.299 213.034L613.226 234.36L638.176 233.074C637.684 232.669 637.809 232.672 637.933 232.676Z" fill="black"/>
<path d="M220.172 231.86C219.047 231.831 217.929 231.542 216.818 230.862C213.487 228.955 212.227 224.505 214.318 221.053C215.234 219.518 222.713 206.203 233.089 202.062C242.832 198.029 252.562 199.329 253.434 199.482C257.18 199.969 259.837 203.68 259.363 207.563C258.885 211.45 255.308 214.212 251.567 213.725C251.567 213.725 244.578 212.76 238.122 215.575C233.569 217.406 228.234 225.059 226.392 228.518C225.089 230.564 222.675 231.927 220.172 231.86Z" fill="black"/>
<path d="M520.232 238.258C517.979 238.199 516.005 237.108 514.678 235.125C512.273 231.291 506.688 224.52 502.222 222.971C495.641 220.848 488.72 222.221 488.596 222.217C484.817 223.026 481.129 220.463 480.478 216.547C479.703 212.627 482.182 208.797 485.954 208.117C487.089 207.885 496.65 206.061 506.579 209.444C517.128 212.973 525.431 225.926 526.269 227.375C528.439 230.681 527.446 235.205 524.26 237.327C522.994 237.944 521.606 238.295 520.232 238.258Z" fill="black"/>
<path d="M354.184 535.48C342.8 535.178 330.921 534.605 316.55 533.573C298.303 532.309 280.591 529.762 263.781 526.197C241.249 521.312 221.644 514.424 203.726 505.374C182.595 494.678 165.528 481.622 151.664 465.794C137.922 450.094 126.752 431.868 118.506 411.772C112.028 396.007 108.191 379.794 106.983 363.521C106.906 361.697 106.704 359.873 106.626 358.052L106.447 355.191L107.16 337.409L107.433 336.503C107.436 336.374 107.564 336.248 107.567 336.119C108.681 326.923 110.543 317.876 113.277 308.986C121.88 281.275 136.922 256.338 158.142 234.683C158.347 231.569 158.552 228.459 158.757 225.345C159.175 218.987 159.467 212.501 160.261 205.895C161.934 189.695 163.697 174.802 165.697 160.3C167.248 148.78 169.645 138.317 172.905 128.528C174.538 123.504 176.689 117.713 180.825 112.756C184.061 108.687 188.618 106.727 193.616 107.118C198.863 107.52 203.322 109.328 207.027 111.374C217.165 116.322 226.256 123.057 234.349 129.64C256.677 147.252 276.96 166.629 292.215 181.848C293.848 181.632 295.613 181.158 297.25 180.813C305.053 179.331 312.981 177.719 321.023 176.506C332.208 174.851 341.251 173.793 349.654 173.236C355.174 172.862 361.058 172.759 367.316 172.925C374.823 173.124 382.07 173.575 387.564 174.242C401.928 175.532 417.4 177.502 434.735 180.172C436.406 178.527 438.204 176.753 440.002 174.982C441.804 173.082 443.855 171.189 445.657 169.285C459.272 156.004 475.575 140.454 493.205 126.758L493.969 126.261C504.571 118.097 515.435 109.548 529.176 105.883L530.058 105.648L537.06 105.963L538.532 107.174C538.899 107.442 539.394 107.714 539.758 108.115C540.991 108.928 542.47 109.877 543.807 111.339C547.946 115.869 550.058 121.38 551.685 126.232C556.921 141.702 559.515 157.494 561.514 172.228C564.159 191.008 566.027 210.809 567.456 232.935C587.474 252.826 602.146 276.083 611.37 301.926C620.934 329.073 622.59 357.055 616.23 385.08C612.685 401.227 606.26 417.172 597.077 433.427C583.298 458.01 565.382 477.805 543.721 492.432C524.349 505.561 502.186 515.499 476.213 522.476C446.832 530.66 414.675 534.745 377.476 535.318C370.077 535.773 362.317 535.696 354.184 535.48ZM118.851 354.869L118.919 357.081C118.997 358.902 119.199 360.855 119.28 362.546C120.271 377.386 123.772 392.16 129.785 406.612C137.556 425.528 147.887 442.434 160.905 457.072C173.924 471.71 189.508 483.818 209.285 493.697C226.213 502.333 244.956 508.677 266.491 513.407C282.674 516.951 299.763 519.486 317.513 520.607C331.634 521.499 343.385 522.202 354.519 522.498C362.528 522.71 370.164 522.779 377.425 522.713C413.371 522.236 444.652 518.132 473.022 510.305C497.736 503.558 518.508 494.232 536.856 481.857C557.116 468.231 573.227 450.336 586.222 427.163C594.755 411.928 600.516 397.267 604.031 382.417C609.822 356.976 608.223 331.596 599.599 306.811C591.09 282.417 577.007 260.606 557.963 241.779C556.376 240.177 555.187 237.806 555.123 235.336C553.821 213.084 551.836 193.021 549.191 174.37C547.179 160.154 544.813 145.147 539.8 130.726C538.524 126.922 537.122 122.985 534.559 120.448C534.192 120.05 533.454 119.51 532.841 119.105L531.215 119.062C520.114 122.275 510.917 129.309 501.205 136.976L500.44 137.477C483.319 150.794 467.282 165.83 454.043 178.995C452.245 180.766 450.191 182.789 448.393 184.559C446.079 186.838 443.897 188.99 441.583 191.268C440.041 192.783 437.768 193.632 435.514 193.573C435.141 193.563 434.763 193.553 434.393 193.413C416.441 190.339 400.72 188.362 386.231 187.069C380.856 186.668 373.864 185.961 366.606 185.769C360.601 185.609 355.091 185.726 349.948 186.107C341.919 186.674 333.132 187.612 322.318 189.403C314.525 190.626 306.603 191.976 299.053 193.465C296.789 193.793 294.648 194.387 292.509 194.718C289.363 195.414 286.507 194.429 284.311 192.165C269.178 177.079 249.029 157.443 226.449 139.824C218.716 133.771 210.491 127.447 201.343 122.917C198.625 121.544 195.658 120.168 192.408 119.953L192.155 119.946C191.279 119.923 190.778 120.039 189.875 121.053C187.164 124.23 185.673 128.608 184.316 132.73C181.326 141.746 179.073 151.43 177.542 162.174C175.543 176.676 173.91 191.314 172.245 207.381C171.706 213.606 171.168 219.956 170.751 226.313C170.532 229.944 170.32 233.317 170.102 236.948C169.917 239.283 168.856 241.594 167.31 243.243C147.256 263.501 132.998 287.159 124.816 313.058C122.227 321.176 120.506 329.576 119.658 338.129C119.645 338.649 119.504 339.292 119.369 339.681L118.851 354.869Z" fill="black"/>
<path d="M127.223 345.297C126.472 345.277 125.973 345.135 125.354 344.989L97.7091 334.38C94.3612 333.123 92.8319 329.313 94.0406 326.096C95.256 322.62 98.9305 321.029 102.026 322.279L129.67 332.888C133.018 334.148 134.548 337.955 133.339 341.172C132.268 343.871 129.85 345.367 127.223 345.297Z" fill="black"/>
<path d="M97.1701 374.516C94.294 374.44 91.7275 372.032 91.3028 369.031C90.8951 365.512 93.1075 362.193 96.499 361.761L125.661 357.209C129.053 356.781 132.249 359.073 132.661 362.591C133.068 366.11 130.856 369.433 127.464 369.86L98.302 374.413C98.0458 374.539 97.672 374.529 97.1701 374.516Z" fill="black"/>
<path d="M608.912 348.067C606.285 347.997 603.954 346.117 603.273 343.371C602.364 339.839 604.33 336.38 607.611 335.429L635.985 327.477C639.39 326.529 642.717 328.565 643.63 331.967C644.54 335.499 642.573 338.954 639.293 339.906L610.919 347.861C610.161 348.1 609.41 348.08 608.912 348.067Z" fill="black"/>
<path d="M636.003 380.098C635.625 380.088 635.127 380.075 634.753 379.936L606.148 372.55C602.791 371.681 600.753 368.249 601.598 364.635C602.436 361.149 605.747 359.027 609.229 359.899L637.833 367.285C641.191 368.154 643.233 371.586 642.388 375.2C641.559 378.169 638.879 380.175 636.003 380.098Z" fill="black"/>
</g>
<defs>
<clipPath id="clip0_438_38">
<rect width="720.59" height="560.77" fill="white" transform="matrix(0.999649 0.0265117 -0.0258464 0.999666 15.2744 0.473633)"/>
</clipPath>
</defs>
</svg>
