<svg width="485" height="463" viewBox="0 0 485 463" fill="none" xmlns="http://www.w3.org/2000/svg">
<g clip-path="url(#clip0_477_1041)">
<path d="M45.3301 110.392C45.3301 118.267 53.0436 117.694 56.4863 117.694H98.6582C126.221 117.694 135.33 98.5796 135.33 84.3036C135.33 56.5744 112.768 55.6734 112.768 52.8817C112.768 52.1421 113.585 51.6525 114.82 51.3244C128.846 47.5484 133.439 36.2307 133.439 26.8765C133.439 10.4702 121.299 -0.441207 104.481 -0.441207H57.7988C54.3561 -0.441207 45.3301 -1.01933 45.3301 6.85567C45.3301 19.7359 52.7936 22.7723 52.7936 56.9859C52.7936 91.1942 45.3301 96.4442 45.3301 110.392ZM83.8092 87.9963C83.8092 86.2723 83.9707 80.6109 83.9707 78.9703C83.9707 77.2463 83.8092 71.59 83.8092 69.8661C83.8092 65.1057 85.6947 63.9598 88.7311 63.9598C99.3926 63.9598 101.856 73.6369 101.856 78.9703C101.856 84.2203 99.3926 93.9026 88.7311 93.9026C85.6947 93.9026 83.8092 92.7515 83.8092 87.9963ZM83.8092 40.4963V27.5328C83.8092 24.1682 85.6947 23.2671 88.7311 23.2671C99.3926 23.2671 101.856 30.2411 101.856 34.0119C101.856 37.8713 99.3926 44.7619 88.7311 44.7619C85.6947 44.7619 83.8092 43.8557 83.8092 40.4963Z" fill="#272324"/>
<path d="M136.551 110.392C136.551 118.267 145.572 117.694 149.02 117.694H170.187C173.629 117.694 182.655 118.267 182.655 110.392C182.655 97.3505 175.192 99.7255 175.192 56.9859C175.192 22.7723 182.655 19.6578 182.655 6.85567C182.655 -1.01933 173.629 -0.441207 170.187 -0.441207H149.02C145.572 -0.441207 136.551 -1.01933 136.551 6.85567C136.551 19.6578 144.015 22.7723 144.015 56.9859C144.015 99.7255 136.551 97.3505 136.551 110.392Z" fill="#272324"/>
<path d="M224.408 118.923C249.022 118.923 263.293 102.022 263.293 76.59C263.293 51.3244 249.022 34.4233 224.408 34.4233C199.799 34.4233 185.522 51.3244 185.522 76.59C185.522 102.022 199.799 118.923 224.408 118.923ZM217.106 76.7567C217.106 64.366 220.059 56.1629 224.408 56.1629C228.757 56.1629 231.71 64.366 231.71 76.7567C231.71 89.064 228.757 97.2671 224.408 97.2671C220.059 97.2671 217.106 89.064 217.106 76.7567Z" fill="#272324"/>
<path d="M267.39 76.6733C267.39 97.7567 282.895 118.923 311.692 118.923C334.905 118.923 345.327 110.559 345.327 103.09C345.327 98.3348 342.207 89.965 334.744 89.965C327.853 89.965 324.572 97.1838 314.645 97.1838C307.754 97.1838 298.645 93.2463 298.645 76.9181C298.645 68.965 304.145 56.1629 312.02 56.1629C316.041 56.1629 316.202 60.5119 316.202 64.6942C316.202 72.491 318.994 80.366 330.968 80.366C341.718 80.366 347.379 70.5223 347.379 61.3348C347.379 44.1056 333.103 34.4233 312.426 34.4233C290.03 34.4233 267.39 47.5483 267.39 76.6733Z" fill="#272324"/>
<path d="M350.243 110.392C350.243 118.267 359.264 117.694 362.711 117.694H380.347C383.795 117.694 395.774 118.267 395.774 110.392C395.774 102.679 388.305 96.2828 388.305 81.5953C388.305 76.6734 391.258 76.6734 392.571 76.6734C397.821 76.6734 401.764 85.8609 401.764 94.8036C401.764 101.038 400.451 104.486 400.451 110.637C400.451 115.481 405.206 117.694 409.8 117.694H427.602C439.253 117.694 442.123 115.314 442.123 108.668C442.123 90.1265 419.316 66.0067 396.758 66.0067C394.54 66.0067 391.998 67.2411 391.998 64.1213C391.998 60.2671 397.493 59.6109 401.514 59.6109C411.034 59.6109 418.909 65.7619 430.394 65.7619C441.139 65.7619 439.748 57.2307 439.748 49.439C439.748 39.2619 438.68 34.34 425.555 34.34C401.024 34.34 391.915 50.5015 389.29 50.5015C387.899 50.5015 388.472 48.288 388.472 45.4182C388.472 34.4234 395.279 19.8192 395.279 6.85567C395.279 -1.01933 387.159 -0.441207 383.711 -0.441207H362.711C359.264 -0.441207 350.243 -1.01933 350.243 6.85567C350.243 19.6578 357.706 34.4234 357.706 56.9859C357.706 99.7255 350.243 97.3505 350.243 110.392Z" fill="#272324"/>
<path d="M0.44458 230.626C0.44458 263.85 10.0435 290.923 48.5227 290.923C87.0019 290.923 96.5956 263.85 96.5956 230.626C96.5956 197.397 87.0019 170.324 48.5227 170.324C10.0435 170.324 0.44458 197.397 0.44458 230.626ZM32.3612 230.626C32.3612 211.1 34.8196 195.267 48.5227 195.267C62.2206 195.267 64.6842 211.1 64.6842 230.626C64.6842 250.069 62.2206 265.902 48.5227 265.902C34.8196 265.902 32.3612 250.069 32.3612 230.626Z" fill="#272324"/>
<path d="M96.5903 263.934C96.5903 279.684 103.559 290.924 124.481 290.924C131.21 290.924 140.398 287.153 142.366 283.377C144.168 287.887 147.533 289.694 153.606 289.694H168.7C172.148 289.694 179.856 290.267 179.856 282.392C179.856 274.679 172.392 266.559 172.392 251.872C172.392 233.58 179.695 222.668 179.695 214.955C179.695 207.08 170.668 207.653 167.226 207.653H149.502C146.059 207.653 138.84 207.08 138.84 214.955C138.84 222.668 141.543 229.069 141.543 243.752C141.543 254.83 138.674 269.267 131.21 269.267C128.007 269.267 126.694 265.413 126.694 261.554C126.694 254.335 132.684 245.476 132.684 228.741C132.684 220.372 130.715 207.653 121.444 207.653H104.872C102.575 207.653 96.6685 209.377 96.6685 215.283C96.6685 224.471 100.033 229.148 100.033 238.83C100.033 248.674 96.5903 252.122 96.5903 263.934Z" fill="#272324"/>
<path d="M208.81 290.923C217.508 290.923 228.17 286.824 228.17 279.522C228.17 273.038 216.685 273.944 216.685 248.673V216.762H220.05C222.675 216.762 224.477 214.954 224.477 212.329V212.085C224.477 209.46 222.675 207.652 220.05 207.652H216.685V186.158C216.685 183.204 216.112 179.184 212.909 179.184C210.04 179.184 203.066 186.897 195.685 193.788C187.399 201.501 181.571 207.163 181.571 211.345C181.571 214.71 183.295 216.762 187.889 216.762C190.269 216.762 192.399 215.939 193.878 215.939C195.357 215.939 196.175 216.678 196.175 219.548C196.175 228.491 181.493 243.751 181.493 263.277C181.493 280.918 193.55 290.923 208.81 290.923Z" fill="#272324"/>
<path d="M288.299 290.923C296.997 290.923 307.658 286.824 307.658 279.522C307.658 273.038 296.174 273.944 296.174 248.673V216.762H299.538C302.163 216.762 303.965 214.954 303.965 212.329V212.085C303.965 209.46 302.163 207.652 299.538 207.652H296.174V186.158C296.174 183.204 295.601 179.184 292.398 179.184C289.528 179.184 282.554 186.897 275.174 193.788C266.887 201.501 261.059 207.163 261.059 211.345C261.059 214.71 262.783 216.762 267.377 216.762C269.757 216.762 271.887 215.939 273.366 215.939C274.846 215.939 275.663 216.678 275.663 219.548C275.663 228.491 260.981 243.751 260.981 263.277C260.981 280.918 273.038 290.923 288.299 290.923Z" fill="#272324"/>
<path d="M316.761 228.985C316.761 271.725 309.297 269.35 309.297 282.392C309.297 290.267 318.318 289.694 321.766 289.694H339.157C342.605 289.694 354.579 290.267 354.579 282.392C354.579 274.678 347.115 268.282 347.115 253.595V243.178C347.115 238.418 349.74 232.267 356.547 232.267C363.032 232.267 365.49 238.418 365.49 243.178V253.595C365.49 268.282 358.027 274.678 358.027 282.392C358.027 290.267 370.006 289.694 373.448 289.694H391.662C395.11 289.694 404.131 290.267 404.131 282.392C404.131 274.678 396.667 268.282 396.667 253.595V232.267C396.667 217.251 390.516 206.423 375.667 206.423C358.521 206.423 349.823 215.61 348.099 215.61C347.198 215.61 347.36 215.037 347.36 212.168C347.36 202.241 354.5 190.918 354.5 178.855C354.5 170.98 345.474 171.558 342.027 171.558H321.766C318.318 171.558 309.297 170.98 309.297 178.855C309.297 191.657 316.761 206.423 316.761 228.985Z" fill="#272324"/>
<path d="M406.995 248.673C406.995 269.756 422.5 290.923 451.297 290.923C474.511 290.923 484.933 282.558 484.933 275.09C484.933 270.334 481.813 261.965 474.349 261.965C467.459 261.965 464.177 269.183 452.443 269.183C449.078 269.183 443.912 268.116 443.912 265.491C443.912 264.506 444.651 264.345 446.047 264.345C448.506 264.345 452.938 265.001 458.677 263.194C470.74 259.423 483.703 251.381 483.703 232.267C483.703 215.037 468.115 206.423 451.297 206.423C420.943 206.423 406.995 227.834 406.995 248.673ZM438.662 239.975C441.448 232.84 445.964 228.162 450.063 228.162C454.167 228.162 455.068 232.84 452.282 239.975C449.49 247.032 444.896 251.709 440.792 251.709C436.693 251.709 435.87 247.032 438.662 239.975Z" fill="#272324"/>
<path d="M28.7155 402.627C28.7155 437.819 21.252 440.939 21.252 454.231C21.252 462.267 30.278 461.694 33.7207 461.694H47.5072C50.9499 461.694 59.9759 462.267 59.9759 454.231C59.9759 441.184 52.7572 437.903 52.5072 404.267L80.403 457.184C82.3717 462.106 89.429 461.694 92.3822 461.694H106.247C109.689 461.694 118.715 462.267 118.715 454.231C118.715 440.939 111.252 437.819 111.252 402.627C111.252 367.429 118.715 364.314 118.715 351.022C118.715 342.981 109.689 343.559 106.247 343.559H92.3822C88.9342 343.559 79.9082 342.981 79.9082 351.022C79.9082 364.069 87.1322 367.351 87.377 401.069L59.403 347.825V347.903C57.3509 343.147 50.4603 343.559 47.5072 343.559H33.7207C30.278 343.559 21.252 342.981 21.252 351.022C21.252 364.314 28.7155 367.429 28.7155 402.627Z" fill="#272324"/>
<path d="M161.283 462.923C185.898 462.923 200.169 446.022 200.169 420.59C200.169 395.324 185.898 378.423 161.283 378.423C136.674 378.423 122.398 395.324 122.398 420.59C122.398 446.022 136.674 462.923 161.283 462.923ZM153.981 420.756C153.981 408.366 156.934 400.162 161.283 400.162C165.632 400.162 168.585 408.366 168.585 420.756C168.585 433.063 165.632 441.267 161.283 441.267C156.934 441.267 153.981 433.063 153.981 420.756Z" fill="#272324"/>
<path d="M211.072 420.673C211.072 435.689 203.692 445.616 203.692 454.392C203.692 462.267 211.4 461.694 214.848 461.694H238.64C242.083 461.694 249.796 462.267 249.796 454.392C249.796 447.257 242.333 434.783 242.333 420.673C242.333 414.605 242.249 404.022 242.249 395.241C242.249 382.116 237.655 378.423 233.551 378.423C231.421 378.423 222.395 381.048 218.374 382.116C210.989 384.085 203.036 385.559 203.036 391.22C203.036 399.918 211.072 402.626 211.072 420.673ZM226.494 373.501C231.338 373.501 247.661 364.147 247.661 353.319C247.661 346.84 242.905 342.324 237.489 342.324C232.484 342.324 228.958 345.855 226.494 348.809C224.119 345.855 220.588 342.324 215.588 342.324C210.171 342.324 205.411 346.84 205.411 353.319C205.411 364.147 221.739 373.501 226.494 373.501Z" fill="#272324"/>
<path d="M300.002 442.084C300.002 444.793 298.028 446.35 294.996 446.433C283.507 446.433 277.767 433.225 264.887 433.225C257.668 433.225 252.825 437.902 252.825 445.287C252.825 459.23 270.793 462.923 289.09 462.923C308.694 462.923 326.991 455.215 326.991 434.293C326.991 403.855 278.752 408.86 278.752 399.261C278.752 396.636 281.293 396.142 283.179 396.142C291.877 396.142 297.127 406.319 312.226 406.319C319.194 406.319 324.366 402.709 324.366 395.735C324.366 381.543 301.231 378.423 287.939 378.423C269.481 378.423 252.663 386.871 252.663 404.267C252.663 438.725 300.002 430.355 300.002 442.084Z" fill="#272324"/>
<path d="M331.085 420.673C331.085 441.756 346.59 462.923 375.387 462.923C398.601 462.923 409.022 454.558 409.022 447.09C409.022 442.334 405.903 433.965 398.439 433.965C391.549 433.965 388.267 441.183 376.533 441.183C373.168 441.183 368.002 440.116 368.002 437.491C368.002 436.506 368.741 436.345 370.137 436.345C372.595 436.345 377.028 437.001 382.767 435.194C394.83 431.423 407.793 423.381 407.793 404.267C407.793 387.037 392.205 378.423 375.387 378.423C345.033 378.423 331.085 399.834 331.085 420.673ZM362.752 411.975C365.538 404.84 370.054 400.162 374.153 400.162C378.257 400.162 379.158 404.84 376.371 411.975C373.58 419.032 368.986 423.709 364.882 423.709C360.783 423.709 359.96 419.032 362.752 411.975Z" fill="#272324"/>
<path d="M417.382 364.559C417.382 374.158 425.34 388.105 429.439 400.163C433.955 413.454 432.887 424.366 438.137 424.366C443.387 424.366 442.319 413.454 446.835 400.163C450.934 388.105 458.814 374.158 458.814 364.559C458.814 352.09 451.84 342.324 438.304 342.324C424.356 342.324 417.382 352.09 417.382 364.559ZM438.221 462.923C443.799 462.923 462.913 452.012 462.913 439.382C462.913 431.751 457.335 426.501 451.017 426.501C445.195 426.501 441.007 430.6 438.221 434.126C435.429 430.6 431.247 426.501 425.424 426.501C419.106 426.501 413.528 431.751 413.528 439.382C413.528 452.012 432.642 462.923 438.221 462.923Z" fill="#272324"/>
</g>
<defs>
<clipPath id="clip0_477_1041">
<rect width="485" height="463" fill="white"/>
</clipPath>
</defs>
</svg>
