<svg width="248" height="285" viewBox="0 0 248 285" fill="none" xmlns="http://www.w3.org/2000/svg">
<path d="M16.5368 50.4386C16.5368 65.4256 13.4102 67.7255 13.4102 73.8353C13.4102 77.2842 16.6402 77.0332 18.0817 77.0332H46.3528C48.3794 77.0332 49.7544 75.5965 49.7544 73.4762V63.1971C49.7544 61.2912 49.7194 59.0646 47.3144 59.0646C43.2261 59.0646 39.9628 67.0071 31.6164 67.0071C29.6581 67.0071 29.5898 64.9582 29.5898 62.0462C29.5898 58.0933 30.2764 56.5832 34.2263 56.7628C37.3179 56.9076 38.8296 57.7708 40.9946 57.7708C42.8145 57.7708 43.4679 56.2241 43.4679 54.8588V47.6347C43.4679 46.2694 42.8145 44.7246 40.9946 44.7246C38.8296 44.7246 37.3179 45.5511 34.2263 45.7307C30.1399 45.9817 29.5898 44.2573 29.5898 40.2677C29.5898 37.3576 29.6581 35.3087 31.6164 35.3087C39.9628 35.3087 43.2261 43.2512 47.3144 43.2512C49.7194 43.2512 49.7544 41.0227 49.7544 39.1187V28.8397C49.7544 26.7194 48.3794 25.2807 46.3528 25.2807H18.6317C17.1884 25.2807 13.4102 25.0297 13.4102 28.4805C13.4102 34.1231 16.5368 35.4516 16.5368 50.4386Z" fill="#272324"/>
<path d="M64.4892 77.5719C69.5041 77.5719 70.7758 76.0985 75.0339 76.0985C78.0221 76.0985 79.3972 77.0332 81.9739 77.0332C82.8672 77.0332 86.6454 77.2842 86.6454 73.8353C86.6454 68.1194 83.5187 69.1622 83.5187 50.4386C83.5187 40.5554 86.6454 34.1231 86.6454 28.4805C86.6454 25.0297 82.8672 25.2807 81.4238 25.2807H73.2491C71.8057 25.2807 68.0275 25.0297 68.0275 28.4805C68.0275 33.8353 70.9807 38.7576 70.9807 43.0716C70.9807 44.3287 71.049 44.5798 70.6724 44.5798C69.9508 44.5798 67.6141 40.5554 62.2559 40.5554C55.7294 40.5554 51.6411 46.7734 51.6411 59.0646C51.6411 71.0314 56.7944 77.5719 64.4892 77.5719ZM64.8658 59.1361C64.8658 53.7098 66.1024 50.1142 67.9242 50.1142C69.744 50.1142 70.9807 53.7098 70.9807 59.1361C70.9807 64.5257 69.744 68.1194 67.9242 68.1194C66.1024 68.1194 64.8658 64.5257 64.8658 59.1361Z" fill="#272324"/>
<path d="M90.6972 59.0646C90.6972 65.6399 87.6056 69.9886 87.6056 73.8353C87.6056 77.2842 90.8338 77.0332 92.2771 77.0332H102.239C103.682 77.0332 106.91 77.2842 106.91 73.8353C106.91 70.707 103.785 65.246 103.785 59.0646C103.785 56.4036 103.75 51.7691 103.75 47.9224C103.75 42.1717 101.827 40.5554 100.109 40.5554C99.2152 40.5554 95.437 41.7044 93.7537 42.1717C90.6621 43.0349 87.3306 43.6818 87.3306 46.1613C87.3306 49.9713 90.6972 51.1569 90.6972 59.0646ZM97.1554 38.3984C99.182 38.3984 106.017 34.3026 106.017 29.558C106.017 26.7194 104.025 24.7419 101.759 24.7419C99.6619 24.7419 98.1853 26.2868 97.1554 27.5806C96.1587 26.2868 94.6821 24.7419 92.5872 24.7419C90.3188 24.7419 88.3273 26.7194 88.3273 29.558C88.3273 34.3026 95.162 38.3984 97.1554 38.3984Z" fill="#272324"/>
<path d="M119.037 77.572C122.676 77.572 127.143 75.7761 127.143 72.5763C127.143 69.7376 122.333 70.1335 122.333 59.0647V45.0838H123.741C124.841 45.0838 125.596 44.292 125.596 43.1431V43.0349C125.596 41.8859 124.841 41.0942 123.741 41.0942H122.333V31.6784C122.333 30.3845 122.093 28.6234 120.753 28.6234C119.551 28.6234 116.632 32.0028 113.54 35.021C110.07 38.3984 107.632 40.8779 107.632 42.7124C107.632 44.1858 108.353 45.0838 110.277 45.0838C111.272 45.0838 112.165 44.7246 112.783 44.7246C113.402 44.7246 113.745 45.0471 113.745 46.3061C113.745 50.2223 107.597 56.9077 107.597 65.4603C107.597 73.1884 112.647 77.572 119.037 77.572Z" fill="#272324"/>
<path d="M141.225 73.7619C141.225 77.2842 145.003 77.0331 146.446 77.0331H152.218C154.484 77.0331 157.439 76.9617 157.439 73.7619C157.439 68.0479 154.416 66.6112 154.313 51.8753L162.558 68.2275C162.901 68.9478 163.416 69.307 164.102 69.307C164.756 69.307 165.442 68.9111 165.717 68.1927L174.924 51.1569C174.924 66.5745 172.552 67.9398 172.552 73.7619C172.552 76.9617 175.507 77.0331 177.774 77.0331H186.637C188.078 77.0331 191.859 77.2842 191.859 73.7619C191.859 67.9398 188.732 66.5745 188.732 51.1569C188.732 35.7393 191.859 34.3741 191.859 28.5519C191.859 25.0297 188.078 25.2807 186.637 25.2807H176.744C175.3 25.3174 173.241 25.6051 172.691 27.5091C170.149 32.5415 168.156 38.2903 166.096 42.8186C165.786 43.5022 165.442 43.8266 165.064 43.8266C164.686 43.8266 164.342 43.4655 164.034 42.7838L157.198 27.15V27.1867C156.511 25.5684 154.621 25.3174 153.248 25.2807H146.446C145.003 25.2807 141.225 25.0297 141.225 28.5519C141.225 34.3741 144.351 35.7393 144.351 51.1569C144.351 66.5745 141.225 67.9398 141.225 73.7619Z" fill="#272324"/>
<path d="M192.2 84.9042C192.2 89.9346 194.81 93.7446 200.65 93.7446C205.15 93.7446 211.986 91.2651 214.803 79.4779C215.868 75.021 218.925 67.9765 221.638 62.0114C227.238 49.7202 230.193 47.7081 230.193 44.2573C230.193 42.3513 228.818 41.0942 226.998 41.0942H219.028C217.105 41.0942 214.596 41.5982 214.596 44.3654C214.596 45.9102 215.49 47.4551 215.49 49.4673C215.49 52.1997 214.185 55.218 213.051 58.7402C211.918 55.218 210.611 52.1997 210.611 49.4673C210.611 47.4551 211.505 45.9102 211.505 44.3654C211.505 41.5982 208.998 41.0942 207.073 41.0942H196.117C194.295 41.0942 192.922 42.3513 192.922 44.2573C192.922 49.3244 196.46 50.9774 201.475 62.0114C204.188 67.9765 205.218 73.8701 207.966 77.5719C207.52 79.5493 205.836 80.5187 203.81 80.5187C200.718 80.5187 199.552 78.3984 196.117 78.3984C193.265 78.3984 192.2 82.4961 192.2 84.9042Z" fill="#272324"/>
<path d="M16.3662 153.626C16.3662 157.148 20.1444 156.897 21.5878 156.897H30.451C31.8925 156.897 35.6726 157.148 35.6726 153.626C35.6726 148.991 32.8892 144.822 32.8892 138.929C32.8892 138.282 33.1642 137.598 34.0575 137.598C40.4124 137.598 55.4237 136.447 55.4237 120.85C55.4237 110.932 48.8621 105.145 37.0107 105.145H21.5878C20.1444 105.145 16.3662 104.894 16.3662 108.416C16.3662 114.238 19.4929 115.603 19.4929 131.021C19.4929 146.439 16.3662 147.804 16.3662 153.626ZM35.7741 115.532C40.9624 115.711 41.9573 118.587 41.9573 120.24C41.9573 121.93 40.9624 125.056 35.7741 124.948C34.2624 124.911 32.9243 124.552 32.9243 123.078V117.401C32.9243 115.928 34.2624 115.495 35.7741 115.532Z" fill="#272324"/>
<path d="M55.4219 126.025C55.4219 129.692 58.7885 131.596 58.7885 141.084C58.7885 147.518 55.6969 150.32 55.6969 153.699C55.6969 157.148 58.9251 156.897 60.3684 156.897H70.3298C71.7732 156.897 75.0014 157.148 75.0014 153.699C75.0014 150.32 71.8766 147.518 71.8766 141.084C71.9098 137.886 71.8766 131.739 75.4148 131.739C79.1248 131.739 75.9298 138.929 82.1813 138.929C87.0595 138.929 90.1161 136.772 90.1161 129.907C90.1161 123.976 86.0278 120.419 81.4947 120.419C77.7847 120.419 74.1782 122.397 71.5665 124.409C70.9482 121.354 69.5066 120.419 68.1999 120.419C67.3065 120.419 63.5283 121.568 61.845 122.036C58.7534 122.899 55.4219 123.546 55.4219 126.025Z" fill="#272324"/>
<path d="M107.6 157.436C117.905 157.436 123.881 150.032 123.881 138.892C123.881 127.823 117.905 120.419 107.6 120.419C97.2952 120.419 91.3169 127.823 91.3169 138.892C91.3169 150.032 97.2952 157.436 107.6 157.436ZM104.542 138.963C104.542 133.537 105.778 129.943 107.6 129.943C109.42 129.943 110.656 133.537 110.656 138.963C110.656 144.355 109.42 147.949 107.6 147.949C105.778 147.949 104.542 144.355 104.542 138.963Z" fill="#272324"/>
<path d="M126.937 124.948H128.656L128.689 130.303C128.689 149.026 125.564 147.983 125.564 153.699C125.564 157.148 129.342 156.897 130.786 156.897H139.682C141.124 156.897 144.904 157.148 144.904 153.699C144.904 147.983 141.742 149.026 141.777 130.303C141.777 128.074 141.777 126.278 141.777 126.278C141.777 125.846 141.777 125.487 141.777 124.948H144.49C145.59 124.948 146.345 124.156 146.345 123.007V122.899C146.345 121.75 145.59 120.958 144.49 120.958H140.369C138.961 117.975 136.967 115.352 136.967 113.34C136.967 112.118 137.724 111.075 138.857 111.075C140.301 111.075 141.709 112.62 142.567 114.526C143.289 116.107 143.839 119.342 146.414 119.342C149.919 119.342 153.319 116.789 153.319 113.087C153.319 107.84 146.724 104.606 140.952 104.606C132.777 104.606 128.656 110.753 128.656 116.969V120.958H126.937C125.839 120.958 125.083 121.75 125.083 122.899V123.007C125.083 124.156 125.839 124.948 126.937 124.948Z" fill="#272324"/>
<path d="M157.371 138.929C157.371 145.504 154.28 149.853 154.28 153.699C154.28 157.148 157.508 156.897 158.951 156.897H168.913C170.356 156.897 173.584 157.148 173.584 153.699C173.584 150.571 170.46 145.11 170.46 138.929C170.46 136.268 170.425 131.633 170.425 127.786C170.425 122.036 168.501 120.419 166.783 120.419C165.89 120.419 162.111 121.568 160.428 122.036C157.336 122.899 154.005 123.546 154.005 126.025C154.005 129.835 157.371 131.021 157.371 138.929ZM163.83 118.262C165.856 118.262 172.691 114.167 172.691 109.422C172.691 106.583 170.7 104.606 168.433 104.606C166.336 104.606 164.86 106.151 163.83 107.445C162.833 106.151 161.356 104.606 159.262 104.606C156.993 104.606 155.002 106.583 155.002 109.422C155.002 114.167 161.836 118.262 163.83 118.262Z" fill="#272324"/>
<path d="M174.271 153.699C174.271 157.148 178.049 156.897 179.493 156.897H188.356C189.797 156.897 193.575 157.148 193.575 153.699C193.575 147.983 190.451 149.026 190.451 130.303C190.451 115.316 193.575 113.95 193.575 108.344C193.575 104.894 189.797 105.145 188.356 105.145H179.493C178.049 105.145 174.271 104.894 174.271 108.344C174.271 113.95 177.398 115.316 177.398 130.303C177.398 149.026 174.271 147.983 174.271 153.699Z" fill="#272324"/>
<path d="M194.778 138.929C194.778 148.165 201.271 157.436 213.327 157.436C223.049 157.436 227.412 153.771 227.412 150.499C227.412 148.416 226.105 144.751 222.981 144.751C220.096 144.751 218.721 147.912 213.809 147.912C212.401 147.912 210.236 147.445 210.236 146.296C210.236 145.863 210.546 145.792 211.129 145.792C212.159 145.792 214.014 146.079 216.419 145.289C221.469 143.636 226.895 140.114 226.895 131.739C226.895 124.193 220.369 120.419 213.327 120.419C200.618 120.419 194.778 129.798 194.778 138.929ZM208.038 135.119C209.206 131.992 211.094 129.943 212.812 129.943C214.531 129.943 214.907 131.992 213.739 135.119C212.573 138.208 210.649 140.257 208.931 140.257C207.213 140.257 206.869 138.208 208.038 135.119Z" fill="#272324"/>
<path d="M12.4683 233.49C12.4683 237.012 16.2465 236.761 17.6898 236.761H26.553C27.9945 236.761 31.7746 237.012 31.7746 233.49C31.7746 228.855 28.9912 224.686 28.9912 218.793C28.9912 218.146 29.2663 217.462 30.1596 217.462C36.5144 217.462 51.5258 216.311 51.5258 200.714C51.5258 190.796 44.9642 185.009 33.1128 185.009H17.6898C16.2465 185.009 12.4683 184.758 12.4683 188.28C12.4683 194.102 15.5949 195.467 15.5949 210.885C15.5949 226.302 12.4683 227.668 12.4683 233.49ZM31.8761 195.396C37.0645 195.575 38.0593 198.451 38.0593 200.104C38.0593 201.793 37.0645 204.92 31.8761 204.812C30.3645 204.775 29.0263 204.416 29.0263 202.942V197.265C29.0263 195.792 30.3645 195.359 31.8761 195.396Z" fill="#272324"/>
<path d="M54.8905 218.793C54.8905 225.368 51.7989 229.717 51.7989 233.563C51.7989 237.012 55.0271 236.761 56.4705 236.761H66.4319C67.8753 236.761 71.1034 237.012 71.1034 233.563C71.1034 230.435 67.9786 224.974 67.9786 218.793C67.9786 216.132 67.9435 211.497 67.9435 207.65C67.9435 201.9 66.0203 200.283 64.3019 200.283C63.4086 200.283 59.6304 201.432 57.9471 201.9C54.8555 202.763 51.5239 203.41 51.5239 205.889C51.5239 209.699 54.8905 210.885 54.8905 218.793ZM61.3488 198.126C63.3754 198.126 70.2101 194.031 70.2101 189.286C70.2101 186.447 68.2186 184.47 65.952 184.47C63.8553 184.47 62.3787 186.015 61.3488 187.309C60.3521 186.015 58.8755 184.47 56.7806 184.47C54.5122 184.47 52.5206 186.447 52.5206 189.286C52.5206 194.031 59.3554 198.126 61.3488 198.126Z" fill="#272324"/>
<path d="M72.3052 218.793C72.3052 228.029 78.7985 237.3 90.8548 237.3C100.576 237.3 104.94 233.635 104.94 230.363C104.94 228.28 103.633 224.615 100.508 224.615C97.6231 224.615 96.248 227.776 92.0914 227.776C89.2065 227.776 85.3933 226.051 85.3933 218.899C85.3933 215.413 87.6949 209.807 90.9932 209.807C92.6765 209.807 92.7448 211.711 92.7448 213.544C92.7448 216.958 93.9131 220.409 98.928 220.409C103.428 220.409 105.798 216.097 105.798 212.071C105.798 204.524 99.8213 200.283 91.1649 200.283C81.7867 200.283 72.3052 206.034 72.3052 218.793Z" fill="#272324"/>
<path d="M118.438 237.3C122.078 237.3 126.545 235.504 126.545 232.304C126.545 229.466 121.735 229.861 121.735 218.793V204.812H123.143C124.243 204.812 124.998 204.02 124.998 202.871V202.763C124.998 201.614 124.243 200.822 123.143 200.822H121.735V191.406C121.735 190.112 121.495 188.351 120.155 188.351C118.953 188.351 116.033 191.731 112.942 194.749C109.472 198.126 107.034 200.606 107.034 202.44C107.034 203.914 107.755 204.812 109.679 204.812C110.673 204.812 111.567 204.453 112.185 204.453C112.803 204.453 113.147 204.775 113.147 206.034C113.147 209.95 106.999 216.636 106.999 225.188C106.999 232.916 112.048 237.3 118.438 237.3Z" fill="#272324"/>
<path d="M127.23 225.476C127.23 232.376 130.15 237.3 138.91 237.3C141.727 237.3 145.573 235.647 146.398 233.994C147.153 235.971 148.562 236.761 151.105 236.761H157.425C158.868 236.761 162.096 237.012 162.096 233.563C162.096 230.184 158.972 226.627 158.972 220.193C158.972 212.179 162.028 207.399 162.028 204.02C162.028 200.571 158.25 200.822 156.806 200.822H149.387C147.943 200.822 144.922 200.571 144.922 204.02C144.922 207.399 146.055 210.203 146.055 216.636C146.055 221.486 144.852 227.812 141.727 227.812C140.387 227.812 139.837 226.123 139.837 224.433C139.837 221.272 142.345 217.391 142.345 210.058C142.345 206.393 141.52 200.822 137.639 200.822H130.7C129.739 200.822 127.266 201.577 127.266 204.165C127.266 208.189 128.674 210.238 128.674 214.479C128.674 218.793 127.23 220.301 127.23 225.476Z" fill="#272324"/>
<path d="M162.782 205.889C162.782 209.556 166.149 211.46 166.149 220.948C166.149 227.382 163.057 230.184 163.057 233.563C163.057 237.012 166.285 236.761 167.729 236.761H177.69C179.134 236.761 182.362 237.012 182.362 233.563C182.362 230.184 179.237 227.382 179.237 220.948C179.27 217.75 179.237 211.603 182.775 211.603C186.485 211.603 183.29 218.793 189.542 218.793C194.42 218.793 197.476 216.636 197.476 209.771C197.476 203.84 193.388 200.283 188.855 200.283C185.145 200.283 181.539 202.261 178.927 204.273C178.309 201.218 176.867 200.283 175.56 200.283C174.667 200.283 170.889 201.432 169.205 201.9C166.114 202.763 162.782 203.41 162.782 205.889Z" fill="#272324"/>
<path d="M198.677 218.793C198.677 228.029 205.171 237.3 217.227 237.3C226.948 237.3 231.312 233.635 231.312 230.363C231.312 228.28 230.005 224.615 226.88 224.615C223.995 224.615 222.62 227.776 217.709 227.776C216.3 227.776 214.135 227.309 214.135 226.16C214.135 225.727 214.445 225.656 215.029 225.656C216.058 225.656 217.913 225.943 220.318 225.153C225.368 223.5 230.795 219.978 230.795 211.603C230.795 204.057 224.268 200.283 217.227 200.283C204.517 200.283 198.677 209.662 198.677 218.793ZM211.937 214.983C213.105 211.856 214.994 209.807 216.712 209.807C218.43 209.807 218.807 211.856 217.638 214.983C216.472 218.072 214.549 220.121 212.83 220.121C211.112 220.121 210.769 218.072 211.937 214.983Z" fill="#272324"/>
</svg>
