<svg width="270" height="253" viewBox="0 0 270 253" fill="none" xmlns="http://www.w3.org/2000/svg">
<path d="M18.2508 64.2134C18.2508 83.5822 14.2925 86.5547 14.2925 94.4519C14.2925 98.9107 18.3822 98.5849 20.2088 98.5849H56.0156C58.5818 98.5849 60.3235 96.7277 60.3235 93.986V80.7024C60.3235 78.2411 60.2791 75.3614 57.2341 75.3614C52.0573 75.3614 47.9232 85.6271 37.3514 85.6271C34.8702 85.6271 34.7833 82.9782 34.7833 79.2161C34.7833 74.1081 35.6542 72.1559 40.6571 72.3889C44.573 72.5744 46.4865 73.6896 49.2285 73.6896C51.534 73.6896 52.3604 71.6921 52.3604 69.9276V60.5916C52.3604 58.8249 51.534 56.8295 49.2285 56.8295C46.4865 56.8295 44.573 57.8973 40.6571 58.1281C35.4804 58.4539 34.7833 56.2256 34.7833 51.07C34.7833 47.3059 34.8702 44.6591 37.3514 44.6591C47.9232 44.6591 52.0573 54.9248 57.2341 54.9248C60.2791 54.9248 60.3235 52.0451 60.3235 49.5838V36.2981C60.3235 33.5585 58.5818 31.7012 56.0156 31.7012H20.9059C19.0772 31.7012 14.2925 31.3755 14.2925 35.8343C14.2925 43.1275 18.2508 44.8446 18.2508 64.2134Z" fill="#272324"/>
<path d="M60.1851 58.6868C60.1851 63.6094 64.4485 65.1431 64.4485 75.3614C64.4485 83.9079 60.4902 89.4819 60.4902 94.4519C60.4902 98.9107 65.2769 98.5849 67.1036 98.5849H76.762C78.5886 98.5849 84.9413 98.9107 84.9413 94.4519C84.9413 89.2489 80.983 82.6072 80.9385 75.3614C80.8961 71.5994 81.2436 66.0707 84.9858 66.0707C88.5097 66.0707 89.1179 71.5519 89.2048 75.3614C89.3361 82.0032 86.7679 88.2265 86.7679 94.4519C86.7679 98.9107 93.1207 98.5849 94.9493 98.5849H103.084C104.911 98.5849 109.698 98.9107 109.698 94.4519C109.698 89.4819 105.739 83.9079 105.739 75.3614V66.0707C105.739 57.5716 102.476 51.4411 94.5997 51.4411C86.9437 51.4411 82.5045 56.9676 81.4174 56.9676C80.8516 56.9676 80.6334 56.6419 80.5041 56.1328C79.5908 52.5563 77.9804 51.4411 76.37 51.4411C75.2385 51.4411 70.4537 52.9273 68.322 53.5313C64.4061 54.6466 60.1851 55.4814 60.1851 58.6868Z" fill="#272324"/>
<path d="M109.341 75.3614C109.341 89.6674 117.26 99.2817 126.918 99.2817C132.924 99.2817 133.75 96.5422 136.274 96.5422C138.622 96.5422 138.361 99.2817 141.929 99.2817C148.064 99.2817 152.938 96.4494 152.938 92.3142C152.938 88.1337 149.63 85.9982 149.63 75.3614C149.63 65.4689 152.588 61.0079 152.588 56.6419C152.588 52.1832 148.803 51.4411 146.977 51.4411C144.932 51.4411 143.364 52.1379 138.884 52.1379C136.708 52.1379 135.011 51.3937 129.4 51.4411C123.047 51.4864 109.341 55.9926 109.341 75.3614ZM129.747 63.7022C132.053 63.7022 133.619 68.3486 133.619 75.3614C133.619 82.3289 132.053 86.9732 129.747 86.9732C127.442 86.9732 125.876 82.3289 125.876 75.3614C125.876 68.3486 127.442 63.7022 129.747 63.7022Z" fill="#272324"/>
<path d="M151.885 94.4519C151.885 98.9107 156.672 98.5849 158.499 98.5849C161.762 98.5849 164.286 97.3769 168.07 97.3769C173.465 97.3769 175.076 99.2817 181.428 99.2817C191.174 99.2817 197.7 90.8279 197.7 75.3614C197.7 59.4763 192.521 51.4411 184.255 51.4411C177.468 51.4411 174.51 56.6419 173.596 56.6419C173.118 56.6419 173.204 56.3183 173.204 54.6918C173.204 49.1178 176.989 42.7543 176.989 35.8343C176.989 31.3755 172.204 31.7012 170.378 31.7012H159.196C157.367 31.7012 152.582 31.3755 152.582 35.8343C152.582 43.1275 156.541 51.4411 156.541 64.2134C155.846 88.412 151.885 87.0659 151.885 94.4519ZM173.204 75.4541C173.204 68.4413 174.77 63.7949 177.076 63.7949C179.383 63.7949 180.949 68.4413 180.949 75.4541C180.949 82.4216 179.383 87.0659 177.076 87.0659C174.77 87.0659 173.204 82.4216 173.204 75.4541Z" fill="#272324"/>
<path d="M197.344 94.4519C197.344 98.9107 202.131 98.5849 203.957 98.5849H215.184C217.01 98.5849 221.795 98.9107 221.795 94.4519C221.795 87.0659 217.837 88.412 217.837 64.2134C217.837 44.8446 221.795 43.0801 221.795 35.8343C221.795 31.3755 217.01 31.7012 215.184 31.7012H203.957C202.131 31.7012 197.344 31.3755 197.344 35.8343C197.344 43.0801 201.304 44.8446 201.304 64.2134C201.304 88.412 197.344 87.0659 197.344 94.4519Z" fill="#272324"/>
<path d="M221.443 75.3614C221.443 87.2989 229.667 99.2817 244.939 99.2817C257.25 99.2817 262.777 94.5447 262.777 90.3167C262.777 87.6225 261.124 82.8854 257.163 82.8854C253.51 82.8854 251.768 86.9732 245.547 86.9732C243.763 86.9732 241.023 86.3692 241.023 84.8829C241.023 84.3264 241.415 84.2336 242.154 84.2336C243.46 84.2336 245.808 84.6046 248.855 83.5822C255.25 81.4466 262.124 76.8929 262.124 66.0707C262.124 56.3183 253.858 51.4411 244.939 51.4411C228.841 51.4411 221.443 63.5641 221.443 75.3614ZM238.239 70.4367C239.718 66.3964 242.11 63.7496 244.286 63.7496C246.46 63.7496 246.939 66.3964 245.46 70.4367C243.981 74.4317 241.544 77.0806 239.37 77.0806C237.194 77.0806 236.759 74.4317 238.239 70.4367Z" fill="#272324"/>
<path d="M60.8085 201.889H97.3549C102.576 201.889 102.097 200.821 102.097 194.318C102.097 190.418 102.053 184.24 102.053 180.663C102.053 179.315 101.053 178.666 100.095 178.666C96.6578 178.666 93.7866 188.931 82.5622 188.931C80.9518 188.931 76.4701 189.395 76.4701 187.119C76.4701 180.197 104.316 176.483 104.316 155.302C104.316 143.319 94.4837 134.309 80.9093 134.309C70.1194 134.309 56.0662 138.998 56.0662 150.239C56.0662 156.928 60.1559 163.059 66.4197 163.337C76.4277 163.803 72.1198 147.407 80.8204 147.407C85.781 147.407 86.2599 152.004 86.2599 153.723C86.2599 168.355 55.1953 168.355 55.1953 191.949C55.1953 196.455 56.5875 201.889 60.8085 201.889Z" fill="#272324"/>
<path d="M121.927 167.518C121.927 186.886 117.968 189.859 117.968 197.756C117.968 202.215 122.058 201.889 123.885 201.889H136.024C137.851 201.889 141.941 202.215 141.941 197.756C141.941 192.413 138.459 187.257 138.459 181.453C138.459 176.342 140.722 175.46 144.333 175.693C148.249 175.926 150.162 176.994 152.904 176.994C155.21 176.994 156.036 174.996 156.036 173.232V163.896C156.036 162.129 155.21 160.134 152.904 160.134C150.162 160.134 148.249 161.202 144.333 161.432C139.156 161.758 138.459 159.53 138.459 154.374C138.459 150.61 138.546 147.963 141.027 147.963C151.599 147.963 155.733 158.229 160.91 158.229C163.955 158.229 163.999 155.349 163.999 152.888V139.602C163.999 136.863 162.258 135.005 159.691 135.005H124.582C122.753 135.005 117.968 134.68 117.968 139.139C117.968 146.432 121.927 148.149 121.927 167.518Z" fill="#272324"/>
<path d="M169.734 201.889H183.353C185.353 201.889 187.572 201.1 187.572 198.776C187.572 194.736 186.137 194.876 185.44 189.348C185.353 188.513 185.224 187.676 185.18 186.886H196.317C196.404 187.769 196.448 188.558 196.448 189.348C196.448 194.922 194.883 194.736 194.883 198.776C194.883 201.1 197.101 201.889 199.102 201.889H215.113C218.028 201.889 220.552 201.378 220.552 198.731C220.552 194.458 217.244 194.225 214.81 185.726C209.631 167.61 209.283 165.009 204.497 146.71C201.278 134.354 200.146 135.005 195.751 135.005H184.006C180.395 135.005 180.437 138.071 180.482 139.046C180.656 143.412 181.264 143.319 179.393 150.472C174.608 168.773 175.216 167.61 170.039 185.726C167.603 194.225 164.297 194.458 164.297 198.731C164.297 201.378 166.821 201.889 169.734 201.889ZM185.267 171.001C185.485 169.375 187.311 157.996 188.704 157.763C189.314 157.67 189.922 159.297 190.488 161.387C191.446 164.964 192.272 168.169 193.011 171.001H185.267Z" fill="#272324"/>
</svg>
