<svg xmlns="http://www.w3.org/2000/svg" xmlns:xlink="http://www.w3.org/1999/xlink" width="1024" zoomAndPan="magnify" viewBox="0 0 768 576" height="768" preserveAspectRatio="xMidYMid meet" version="1.0"><defs><g/></defs><g fill="#000000" fill-opacity="1"><g transform="translate(94.572085, 368.408876)"><g><path d="M 45.449219 -40.46875 L 87.042969 -40.46875 C 83.929688 -28.515625 80.691406 -22.164062 80.691406 -11.332031 C 80.691406 0.871094 94.386719 0 99.617188 0 L 127.011719 0 C 132.242188 0 145.941406 0.871094 145.941406 -11.332031 C 145.941406 -22.289062 142.578125 -28.515625 139.589844 -40.46875 L 148.429688 -40.46875 C 156.773438 -40.46875 155.527344 -47.441406 155.527344 -59.273438 C 155.527344 -69.734375 155.777344 -75.585938 149.054688 -75.585938 L 134.734375 -75.585938 C 134.609375 -77.949219 134.609375 -87.164062 134.609375 -89.65625 C 134.609375 -143.574219 145.941406 -147.808594 145.941406 -167.980469 C 145.941406 -180.183594 132.242188 -179.3125 127.011719 -179.3125 L 98.496094 -179.3125 C 96.878906 -179.3125 94.761719 -179.4375 92.519531 -179.3125 C 87.539062 -179.0625 82.433594 -177.816406 82.433594 -171.839844 C 82.433594 -162.378906 87.164062 -160.261719 87.164062 -134.109375 C 87.164062 -123.152344 87.289062 -93.144531 87.289062 -89.65625 C 87.289062 -87.164062 87.289062 -77.828125 87.164062 -75.585938 L 52.300781 -75.585938 C 26.773438 -75.585938 71.847656 -104.472656 71.847656 -144.320312 C 71.847656 -154.40625 68.363281 -179.3125 54.167969 -179.3125 L 38.976562 -179.3125 C 23.410156 -179.3125 8.964844 -181.179688 8.964844 -171.09375 C 8.964844 -158.269531 21.292969 -148.058594 21.292969 -127.511719 C 21.292969 -89.28125 1.246094 -78.945312 1.246094 -57.15625 C 1.246094 -42.335938 12.078125 -39.972656 25.402344 -39.972656 C 31.878906 -39.972656 38.851562 -40.46875 45.449219 -40.46875 Z M 45.449219 -40.46875 "/></g></g></g><g fill="#000000" fill-opacity="1"><g transform="translate(262.966971, 368.408876)"><g><path d="M 70.976562 1.867188 C 118.546875 1.867188 143.199219 -39.101562 143.199219 -89.65625 C 143.199219 -140.210938 118.546875 -181.179688 70.976562 -181.179688 C 22.914062 -181.179688 -1.246094 -140.210938 -1.246094 -89.65625 C -1.246094 -39.101562 22.914062 1.867188 70.976562 1.867188 Z M 47.320312 -89.90625 C 47.320312 -120.539062 54.539062 -145.191406 71.101562 -145.191406 C 87.664062 -145.191406 95.011719 -120.164062 95.011719 -89.53125 C 95.011719 -58.898438 87.664062 -34.242188 71.101562 -34.242188 C 54.664062 -34.242188 47.320312 -59.273438 47.320312 -89.90625 Z M 47.320312 -89.90625 "/></g></g></g><g fill="#000000" fill-opacity="1"><g transform="translate(417.671904, 368.408876)"><g><path d="M 45.449219 -40.46875 L 87.042969 -40.46875 C 83.929688 -28.515625 80.691406 -22.164062 80.691406 -11.332031 C 80.691406 0.871094 94.386719 0 99.617188 0 L 127.011719 0 C 132.242188 0 145.941406 0.871094 145.941406 -11.332031 C 145.941406 -22.289062 142.578125 -28.515625 139.589844 -40.46875 L 148.429688 -40.46875 C 156.773438 -40.46875 155.527344 -47.441406 155.527344 -59.273438 C 155.527344 -69.734375 155.777344 -75.585938 149.054688 -75.585938 L 134.734375 -75.585938 C 134.609375 -77.949219 134.609375 -87.164062 134.609375 -89.65625 C 134.609375 -143.574219 145.941406 -147.808594 145.941406 -167.980469 C 145.941406 -180.183594 132.242188 -179.3125 127.011719 -179.3125 L 98.496094 -179.3125 C 96.878906 -179.3125 94.761719 -179.4375 92.519531 -179.3125 C 87.539062 -179.0625 82.433594 -177.816406 82.433594 -171.839844 C 82.433594 -162.378906 87.164062 -160.261719 87.164062 -134.109375 C 87.164062 -123.152344 87.289062 -93.144531 87.289062 -89.65625 C 87.289062 -87.164062 87.289062 -77.828125 87.164062 -75.585938 L 52.300781 -75.585938 C 26.773438 -75.585938 71.847656 -104.472656 71.847656 -144.320312 C 71.847656 -154.40625 68.363281 -179.3125 54.167969 -179.3125 L 38.976562 -179.3125 C 23.410156 -179.3125 8.964844 -181.179688 8.964844 -171.09375 C 8.964844 -158.269531 21.292969 -148.058594 21.292969 -127.511719 C 21.292969 -89.28125 1.246094 -78.945312 1.246094 -57.15625 C 1.246094 -42.335938 12.078125 -39.972656 25.402344 -39.972656 C 31.878906 -39.972656 38.851562 -40.46875 45.449219 -40.46875 Z M 45.449219 -40.46875 "/></g></g></g><g fill="#000000" fill-opacity="1"><g transform="translate(586.06679, 368.408876)"><g><path d="M 12.078125 -147.433594 C 12.078125 -132.867188 24.15625 -111.695312 30.382812 -93.390625 C 37.230469 -73.21875 35.613281 -56.65625 43.582031 -56.65625 C 51.550781 -56.65625 49.933594 -73.21875 56.78125 -93.390625 C 63.007812 -111.695312 74.960938 -132.867188 74.960938 -147.433594 C 74.960938 -166.363281 64.378906 -181.179688 43.832031 -181.179688 C 22.664062 -181.179688 12.078125 -166.363281 12.078125 -147.433594 Z M 43.707031 1.867188 C 52.175781 1.867188 81.1875 -14.695312 81.1875 -33.871094 C 81.1875 -45.449219 72.722656 -53.421875 63.132812 -53.421875 C 54.292969 -53.421875 47.941406 -47.195312 43.707031 -41.839844 C 39.472656 -47.195312 33.121094 -53.421875 24.28125 -53.421875 C 14.695312 -53.421875 6.226562 -45.449219 6.226562 -33.871094 C 6.226562 -14.695312 35.238281 1.867188 43.707031 1.867188 Z M 43.707031 1.867188 "/></g></g></g></svg>