<svg width="75" height="78" viewBox="0 0 75 78" fill="none" xmlns="http://www.w3.org/2000/svg">
<path d="M37.7955 4.3945C30.9696 4.3945 26.9889 4.77273 33.978 28.3072L35.8374 33.9107L37.7955 33.6081L39.7544 33.9107L41.613 28.3072C48.6028 4.77483 44.6221 4.3945 37.7955 4.3945Z" fill="#458858"/>
<mask id="mask0_370_134" style="mask-type:luminance" maskUnits="userSpaceOnUse" x="29" y="4" width="17" height="31">
<path d="M30.4908 4.67807H45.0586V33.7034H30.4908V4.67807Z" fill="white" stroke="white"/>
</mask>
<g mask="url(#mask0_370_134)">
<path d="M39.8874 34.1229L37.7954 33.8L35.7042 34.1229L33.7926 28.3612C31.7794 21.5831 30.6211 16.5358 30.2527 12.9321C29.9078 9.56158 30.2262 7.36573 31.2564 6.023C31.8788 5.2105 32.7509 4.7111 34.0001 4.45194C35.0947 4.225 36.3674 4.20609 37.7969 4.20609C39.2263 4.20609 40.4983 4.225 41.5937 4.45194C42.8428 4.7111 43.7163 5.2105 44.338 6.023C45.3661 7.36573 45.6852 9.56158 45.3411 12.9321C44.9726 16.5358 43.8143 21.5831 41.8011 28.3612V28.3668L39.8874 34.1229ZM37.7954 33.4176L39.6219 33.6991L41.4284 28.2519C43.4359 21.4976 44.5884 16.4734 44.9547 12.8935C45.2846 9.66735 44.9819 7.49461 44.0283 6.24924C42.8414 4.69919 40.7902 4.58362 37.7962 4.58362C34.8028 4.58362 32.7516 4.69989 31.5648 6.24924C30.6104 7.49461 30.307 9.66735 30.6383 12.8935C31.0046 16.4734 32.1578 21.4976 34.1639 28.2519L35.9697 33.6991L37.7954 33.4176Z" fill="black"/>
</g>
<path d="M59.0501 11.1586C53.5285 7.22704 50.0786 5.24272 41.613 28.3058L39.7543 33.9107L41.5207 34.7946L42.9236 36.1668L47.7921 32.7031C67.5666 17.6901 64.5726 15.0908 59.0501 11.1586Z" fill="#458858"/>
<path d="M42.9044 36.414L41.4055 34.948L39.5204 34.0052L41.432 28.2428C43.8702 21.5992 45.9614 16.8496 47.8258 13.7215C49.5693 10.7965 51.1447 9.20367 52.7823 8.70987C53.7739 8.41078 54.7784 8.50884 55.9467 9.01876C56.9683 9.46493 58.0093 10.1829 59.1661 11.0059C60.3222 11.8289 61.341 12.5769 62.0901 13.3901C62.9457 14.3196 63.3514 15.2253 63.3671 16.2416C63.3943 17.9205 62.334 19.8796 60.0325 22.4082C57.5721 25.1119 53.6065 28.5279 47.9102 32.8516L47.9052 32.8551L42.9044 36.414ZM39.989 33.8154L41.6352 34.6384L42.9437 35.9181L47.6741 32.5532C53.3504 28.2435 57.2981 24.8443 59.7427 22.156C61.9456 19.7368 63.0044 17.8043 62.9793 16.2472C62.9493 14.3105 61.3582 13.0336 58.9372 11.312C56.5154 9.58961 54.7862 8.50114 52.8954 9.07129C51.3765 9.52937 49.8276 11.1123 48.1592 13.912C46.3062 17.0198 44.2258 21.7477 41.7962 28.3675L39.989 33.8154Z" fill="black"/>
<path d="M71.9489 28.949L71.9489 28.9491C72.4794 30.5479 72.9125 31.9385 72.8997 33.1541C72.8934 33.7551 72.7775 34.3057 72.513 34.8125C72.2484 35.3193 71.8282 35.7958 71.1939 36.2384C69.9174 37.129 67.792 37.8701 64.3993 38.4333C61.0133 38.9955 56.3925 39.3764 50.1478 39.566H44.3489L44.0711 37.8581L44.0647 37.8186L44.0463 37.783L43.2478 36.2444L47.934 32.909C53.1003 29.4667 57.0673 27.1143 60.1439 25.6195C63.2263 24.1218 65.3905 23.4973 66.9583 23.4828C68.5019 23.4686 69.4717 24.0448 70.1947 24.999C70.9348 25.9756 71.4187 27.3504 71.9489 28.949Z" fill="#458858" stroke="black" stroke-width="0.5"/>
<path d="M72.1862 50.7623C74.296 44.4031 75.1581 40.5753 50.1481 39.816H44.1342L43.8223 41.7345L42.9237 43.466L47.7922 46.9296C68.4796 60.7141 70.0772 57.1216 72.1862 50.7623Z" fill="#458858"/>
<path d="M67.0058 56.5906C65.5857 56.5906 63.8121 56.1178 61.5678 55.1519C58.1824 53.6943 53.6409 51.0558 47.682 47.0858L47.677 47.0823L42.6776 43.5241L43.637 41.6749L43.9711 39.6276H50.1567C57.3597 39.8461 62.6181 40.3266 66.231 41.0971C69.61 41.8171 71.6425 42.7921 72.6284 44.1657C73.2251 44.9971 73.439 45.9637 73.3059 47.2076C73.1907 48.2975 72.813 49.4889 72.3716 50.8205C71.9294 52.1527 71.5188 53.3322 70.9593 54.2813C70.3218 55.3655 69.5678 56.024 68.5862 56.3525C68.1126 56.5108 67.5889 56.5906 67.0058 56.5906ZM47.901 46.7748C53.839 50.7315 58.3606 53.3581 61.7224 54.8059C64.7522 56.1101 66.9557 56.4988 68.4596 55.9952C70.3311 55.3676 71.0773 53.4926 72.0031 50.7021C72.9289 47.9137 73.449 45.9665 72.3115 44.3814C71.3979 43.108 69.3818 42.154 66.1473 41.4648C62.558 40.6999 57.3246 40.2222 50.1467 40.0037H44.2995L44.0083 41.7919L43.1705 43.4064L47.901 46.7748Z" fill="black"/>
<path d="M59.0501 68.4741C64.5726 64.5419 67.5666 61.9433 47.79 46.9303L42.9236 43.4666L41.5207 44.8395L39.7543 45.7227L41.613 51.3269C50.0786 74.3886 53.5285 72.4035 59.0501 68.4741Z" fill="#458858"/>
<path d="M53.9077 71.0903C53.5235 71.0903 53.1487 71.0342 52.7824 70.9222C51.144 70.4284 49.5694 68.8356 47.8259 65.9106C45.9614 62.7825 43.8702 58.0328 41.432 51.3892V51.3836L39.5219 45.6268L41.4077 44.6833L42.9066 43.218L47.9081 46.7797C53.6037 51.1042 57.5693 54.5202 60.0304 57.2238C62.3312 59.7517 63.3915 61.7115 63.365 63.3904C63.3485 64.4061 62.9429 65.3124 62.0872 66.2412C61.3382 67.0551 60.3194 67.8031 59.1633 68.6262C58.0071 69.4492 56.9662 70.1664 55.9446 70.6133C55.2148 70.9313 54.5466 71.0903 53.9077 71.0903ZM41.7962 51.2646C44.2272 57.8836 46.307 62.6123 48.1592 65.7194C49.8276 68.5169 51.3765 70.1027 52.8954 70.5607C53.2288 70.6616 53.57 70.712 53.9185 70.712C55.4395 70.712 56.9562 69.7293 58.9358 68.3187C61.3575 66.5949 62.95 65.3201 62.9787 63.3827C63.003 61.8264 61.9442 59.8932 59.7421 57.4739C57.2974 54.7898 53.3497 51.3871 47.6735 47.0788L42.9423 43.7125L41.6338 44.9915L39.9876 45.8152L41.7962 51.2646Z" fill="black"/>
<path d="M37.7955 75.2382C44.6221 75.2382 48.6028 74.8579 41.613 51.3255L39.7544 45.722L37.7955 46.0239L35.8374 45.722L33.978 51.3255C26.9889 74.8579 30.9696 75.2382 37.7955 75.2382Z" fill="#458858"/>
<path d="M37.7954 75.4273C36.3674 75.4273 35.094 75.4084 33.9994 75.1815C32.7495 74.9223 31.876 74.4229 31.255 73.6104C30.2262 72.2677 29.9078 70.0718 30.2512 66.7013C30.6197 63.0976 31.7779 58.0503 33.7919 51.2722V51.2666L35.7014 45.5098L37.7933 45.8327L39.8845 45.5098L41.7983 51.2715C43.8122 58.0496 44.9705 63.0969 45.3389 66.7006C45.6838 70.0711 45.3654 72.267 44.3352 73.609C43.7128 74.4222 42.8406 74.9216 41.5915 75.1808C40.4976 75.4084 39.2234 75.4273 37.7954 75.4273ZM34.1625 51.3815C32.1557 58.1358 31.0031 63.16 30.6368 66.7399C30.3063 69.966 30.6097 72.1388 31.5626 73.3842C32.7502 74.9342 34.8014 75.0498 37.7947 75.0498C40.7888 75.0498 42.8399 74.9335 44.0268 73.3842C44.9812 72.1388 45.2838 69.9653 44.9533 66.7399C44.587 63.16 43.4337 58.1358 41.427 51.3815L39.6198 45.9343L37.794 46.2158L35.9682 45.9343L34.1625 51.3815Z" fill="black"/>
<path d="M16.5408 68.4741C22.0632 72.4057 25.513 74.39 33.978 51.3269L35.8374 45.7227L34.071 44.8395L32.6673 43.4666L27.8017 46.9303C8.02503 61.9426 11.0191 64.5419 16.5408 68.4741Z" fill="#458858"/>
<path d="M21.6839 71.0902C21.0436 71.0902 20.3768 70.9326 19.6464 70.6133C18.6248 70.1664 17.5845 69.4491 16.4277 68.6261C15.2708 67.8031 14.252 67.0551 13.5037 66.2433C12.6481 65.3138 12.2424 64.4081 12.2259 63.3918C12.1995 61.7136 13.259 59.7538 15.5606 57.2259C18.0216 54.5222 21.9866 51.1055 27.6828 46.7818L27.6878 46.7783L32.6873 43.2187L34.1861 44.684L36.0712 45.6275L34.1596 51.3899C31.7214 58.0335 29.6302 62.7831 27.7658 65.9113C26.0223 68.8363 24.4469 70.429 22.8093 70.9228C22.443 71.0342 22.0674 71.0902 21.6839 71.0902ZM27.9168 47.0809C22.2405 51.3906 18.2935 54.7898 15.8489 57.4753C13.6461 59.8953 12.5872 61.8277 12.6123 63.3841C12.6423 65.3215 14.2327 66.5977 16.6545 68.32C18.6348 69.7293 20.1522 70.7134 21.6718 70.7134C22.0209 70.7141 22.3615 70.6637 22.6948 70.5621C24.2137 70.104 25.7626 68.5211 27.431 65.7207C29.284 62.6136 31.3644 57.8857 33.7947 51.2659L35.6012 45.818L33.955 44.9943L32.6465 43.7153L27.9168 47.0809Z" fill="black"/>
<path d="M3.40685 50.7623C5.51594 57.1216 7.11564 60.7141 27.803 46.9296L32.6694 43.466L31.7708 41.7345L31.4574 39.816H25.4414C0.434956 40.5753 1.29562 44.4031 3.40685 50.7623Z" fill="#458858"/>
<path d="M8.58589 56.5906C8.00281 56.5906 7.47911 56.5108 7.00621 56.3525C6.02464 56.024 5.26987 55.3655 4.63313 54.2813C4.07438 53.3322 3.66301 52.1527 3.22159 50.8205C2.77945 49.4889 2.40314 48.2975 2.28795 47.2076C2.15345 45.9637 2.3688 44.9971 2.96546 44.1657C3.95133 42.7921 5.98387 41.8171 9.36284 41.0971C12.9758 40.3266 18.2342 39.8461 25.4371 39.6276H31.6206L31.9533 41.6749L32.9127 43.5241L27.9089 47.0858C21.9501 51.0558 17.4079 53.6943 14.0224 55.1519C11.7796 56.1178 10.0067 56.5906 8.58589 56.5906ZM3.5886 50.7049C4.51437 53.494 5.25985 55.369 7.13142 55.9973C8.63668 56.5016 10.8388 56.1108 13.8686 54.808C17.2319 53.3609 21.752 50.7336 27.69 46.7776L32.4212 43.4127L31.582 41.7933L31.2922 40.0051H25.445C18.2664 40.2236 13.0337 40.7013 9.4444 41.4662C6.21066 42.1554 4.19529 43.1094 3.28025 44.3828C2.142 45.9679 2.66284 47.9151 3.5886 50.7049Z" fill="black"/>
<path d="M3.40685 28.8704C1.29562 35.2296 0.434956 39.0574 25.4414 39.816H31.4575L31.7687 37.8982L32.6672 36.1667L27.8016 32.7031C7.11207 18.9186 5.51451 22.5111 3.40685 28.8704Z" fill="#458858"/>
<path d="M31.6206 40.0051H25.4357C18.2328 39.7866 12.9751 39.3061 9.36217 38.5356C5.98319 37.8177 3.94994 36.8406 2.96407 35.467C2.36741 34.6349 2.15349 33.669 2.28656 32.4244C2.40246 31.3352 2.77949 30.1438 3.22163 28.8115C3.66305 27.48 4.07442 26.3005 4.63317 25.3507C5.27062 24.2671 6.02469 23.6087 7.00626 23.2802C8.62742 22.736 10.8581 23.1184 14.0239 24.4808C17.4093 25.9384 21.9509 28.5769 27.9097 32.5469L27.9147 32.5504L32.9141 36.1086L31.9548 37.9571L31.6206 40.0051ZM25.445 39.6276H31.2923L31.582 37.8387L32.4191 36.2249L27.6901 32.86C21.752 28.9033 17.2305 26.2767 13.8687 24.8289C10.8388 23.5247 8.63529 23.1352 7.13146 23.6396C5.25989 24.265 4.5137 26.1401 3.58865 28.9278C2.66216 31.7169 2.14204 33.6634 3.27958 35.2492C4.1939 36.5219 6.20998 37.4766 9.44373 38.1658C13.0338 38.9314 18.2664 39.4091 25.445 39.6276Z" fill="black"/>
<path d="M16.5408 11.1586C11.0191 15.0908 8.02503 17.6901 27.8017 32.7031L32.6673 36.1668L34.071 34.7946L35.8374 33.9107L33.978 28.3072C25.513 5.24343 22.0632 7.22915 16.5408 11.1586Z" fill="#458858"/>
<path d="M32.6873 36.414L27.6835 32.8523C21.9866 28.5286 18.0216 25.1126 15.5606 22.4089C13.259 19.881 12.1995 17.9212 12.2259 16.2423C12.2424 15.226 12.6481 14.3203 13.5037 13.3909C14.2528 12.5776 15.2715 11.8296 16.4277 11.0066C17.5838 10.1836 18.6248 9.46633 19.6464 9.01946C20.8125 8.50955 21.8177 8.41149 22.8115 8.71057C24.4491 9.20437 26.0245 10.7972 27.768 13.7222C29.6317 16.8503 31.7236 21.5999 34.1618 28.2435L34.1632 28.2491L36.0734 34.0059L34.1875 34.9487L32.6873 36.414ZM27.9168 32.5518L32.6479 35.9167L33.9564 34.6377L35.6026 33.814L33.7955 28.3682C31.3644 21.7491 29.2847 17.0205 27.4324 13.9127C25.764 11.113 24.2144 9.53007 22.6956 9.07339C20.8047 8.50324 19.0762 9.59101 16.6545 11.3141C14.2327 13.0378 12.6423 14.3112 12.6123 16.2479C12.5872 17.805 13.6461 19.7375 15.8489 22.1567C18.2935 24.845 22.242 28.2428 27.9168 32.5518Z" fill="black"/>
<path d="M48.9605 39.816C48.9605 40.1746 48.9426 40.5319 48.9069 40.8884C48.8711 41.2449 48.8174 41.5986 48.7459 41.9502C48.6744 42.3011 48.5856 42.6486 48.4798 42.9911C48.3732 43.3336 48.2508 43.6705 48.1106 44.0018C47.9704 44.3324 47.8144 44.656 47.642 44.9719C47.4696 45.2878 47.2821 45.5946 47.0789 45.8923C46.8758 46.1899 46.6583 46.4771 46.4265 46.7545C46.194 47.0312 45.9486 47.2966 45.6903 47.5495C45.432 47.803 45.1609 48.0433 44.8783 48.2702C44.5957 48.4979 44.3024 48.7108 43.9983 48.9097C43.6942 49.1086 43.3809 49.2929 43.0589 49.4617C42.7363 49.6305 42.4065 49.7832 42.0681 49.9204C41.7304 50.057 41.3863 50.1782 41.0364 50.2819C40.6866 50.3855 40.3324 50.4731 39.974 50.5424C39.6156 50.6125 39.2543 50.665 38.8901 50.7C38.526 50.735 38.1611 50.7525 37.7955 50.7525C37.4299 50.7525 37.0651 50.735 36.7016 50.7C36.3375 50.665 35.9762 50.6125 35.6177 50.5424C35.2593 50.4731 34.9045 50.3855 34.5546 50.2819C34.2048 50.1782 33.8614 50.057 33.523 49.9204C33.1853 49.7832 32.8555 49.6305 32.5328 49.4617C32.2102 49.2929 31.8968 49.1086 31.5927 48.9097C31.2894 48.7108 30.9954 48.4979 30.7128 48.2702C30.4302 48.0433 30.1597 47.803 29.9015 47.5495C29.6425 47.2966 29.3971 47.0312 29.1653 46.7545C28.9335 46.4771 28.716 46.1899 28.5128 45.8923C28.3096 45.5946 28.1222 45.2878 27.9498 44.9719C27.7773 44.656 27.6207 44.3324 27.4812 44.0018C27.3409 43.6705 27.2179 43.3336 27.112 42.9911C27.0061 42.6486 26.9174 42.3011 26.8459 41.9502C26.7743 41.5986 26.7207 41.2449 26.6849 40.8884C26.6491 40.5319 26.6312 40.1746 26.6312 39.816C26.6312 39.4581 26.6491 39.1009 26.6849 38.7444C26.7207 38.3878 26.7743 38.0341 26.8459 37.6825C26.9174 37.3316 27.0061 36.9842 27.112 36.6417C27.2179 36.2992 27.3409 35.9622 27.4812 35.6309C27.6207 35.3003 27.7773 34.9767 27.9498 34.6608C28.1222 34.345 28.3096 34.0382 28.5128 33.7405C28.716 33.4428 28.9335 33.1549 29.1653 32.8782C29.3971 32.6016 29.6425 32.3361 29.9015 32.0833C30.1597 31.8297 30.4302 31.5895 30.7128 31.3625C30.9954 31.1349 31.2894 30.9219 31.5927 30.723C31.8968 30.5241 32.2102 30.3399 32.5328 30.1711C32.8555 30.0023 33.1853 29.8496 33.523 29.7123C33.8614 29.575 34.2048 29.4545 34.5546 29.3509C34.9045 29.2465 35.2593 29.1597 35.6177 29.0903C35.9762 29.0203 36.3375 28.9677 36.7016 28.9327C37.0651 28.8977 37.4299 28.8802 37.7955 28.8802C38.1611 28.8802 38.526 28.8977 38.8901 28.9327C39.2543 28.9677 39.6156 29.0203 39.974 29.0903C40.3324 29.1597 40.6866 29.2465 41.0364 29.3509C41.3863 29.4545 41.7304 29.575 42.0681 29.7123C42.4065 29.8496 42.7363 30.0023 43.0589 30.1711C43.3809 30.3399 43.6942 30.5241 43.9983 30.723C44.3024 30.9219 44.5957 31.1349 44.8783 31.3625C45.1609 31.5895 45.432 31.8297 45.6903 32.0833C45.9486 32.3361 46.194 32.6016 46.4265 32.8782C46.6583 33.1549 46.8758 33.4428 47.0789 33.7405C47.2821 34.0382 47.4696 34.345 47.642 34.6608C47.8144 34.9767 47.9704 35.3003 48.1106 35.6309C48.2508 35.9622 48.3732 36.2992 48.4798 36.6417C48.5856 36.9842 48.6744 37.3316 48.7459 37.6825C48.8174 38.0341 48.8711 38.3878 48.9069 38.7444C48.9426 39.1009 48.9605 39.4581 48.9605 39.816Z" fill="#FECD1A"/>
<path d="M37.7955 50.9416C37.5787 50.9416 37.3619 50.936 37.1459 50.9234C36.9291 50.9115 36.713 50.8933 36.4977 50.8688C36.2823 50.8443 36.0677 50.8142 35.8538 50.7777C35.6406 50.7413 35.4281 50.6993 35.2171 50.651C35.0053 50.6026 34.7957 50.5487 34.5882 50.4885C34.38 50.4289 34.174 50.3631 33.9693 50.2916C33.7654 50.2202 33.5637 50.1425 33.3634 50.0598C33.1638 49.9772 32.967 49.8882 32.7724 49.7943C32.5778 49.7005 32.3861 49.601 32.1979 49.4967C32.0091 49.3916 31.8238 49.2816 31.6413 49.1668C31.4589 49.0519 31.28 48.9314 31.1048 48.806C30.9295 48.6814 30.7585 48.5511 30.5904 48.4166C30.423 48.2814 30.2591 48.142 30.0996 47.9984C29.94 47.8541 29.7855 47.7064 29.6345 47.5537C29.4836 47.401 29.3376 47.2441 29.196 47.083C29.0543 46.9226 28.917 46.758 28.7853 46.5892C28.653 46.4204 28.5263 46.2488 28.404 46.073C28.2824 45.8971 28.1658 45.7185 28.0542 45.5357C27.9426 45.3536 27.8367 45.1687 27.7358 44.9803C27.6349 44.7926 27.5398 44.6013 27.4503 44.408C27.3609 44.2147 27.2772 44.0186 27.1992 43.8204C27.1212 43.6221 27.049 43.4218 26.9824 43.2194C26.9159 43.0177 26.8558 42.8131 26.8014 42.6079C26.7471 42.402 26.6984 42.1954 26.6562 41.9866C26.614 41.7786 26.5782 41.5692 26.5475 41.3584C26.5174 41.1482 26.4938 40.9374 26.4759 40.7259C26.4588 40.5136 26.4466 40.3014 26.4416 40.0892C26.4366 39.8769 26.4373 39.6647 26.4444 39.4525C26.4516 39.2402 26.4645 39.028 26.4838 38.8165C26.5038 38.605 26.5296 38.3941 26.5611 38.184C26.5925 37.9739 26.6312 37.7644 26.6748 37.5564C26.7192 37.3484 26.7693 37.1418 26.8251 36.9365C26.8816 36.732 26.9431 36.5282 27.0111 36.3265C27.0797 36.1247 27.1534 35.9251 27.2328 35.7276C27.313 35.5301 27.3981 35.3346 27.489 35.142C27.5805 34.9494 27.6771 34.7589 27.7794 34.5719C27.8817 34.3842 27.9891 34.1999 28.1021 34.0185C28.2151 33.8378 28.3332 33.6592 28.457 33.4848C28.58 33.3104 28.7088 33.1388 28.8419 32.9714C28.9756 32.804 29.1137 32.6408 29.2568 32.4811C29.3999 32.3214 29.5473 32.1652 29.6989 32.0139C29.8513 31.8626 30.008 31.7155 30.1683 31.5726C30.3292 31.4304 30.4938 31.2925 30.6626 31.1587C30.8315 31.0256 31.0039 30.8967 31.1799 30.7727C31.3566 30.6495 31.5362 30.5304 31.7193 30.4169C31.9025 30.3034 32.0892 30.1949 32.2788 30.0919C32.4684 29.9883 32.6608 29.8909 32.8561 29.7984C33.0514 29.706 33.2489 29.6191 33.4492 29.5379C33.6495 29.4566 33.852 29.381 34.0573 29.3109C34.262 29.2409 34.4687 29.1772 34.6769 29.1183C34.8858 29.0602 35.0954 29.0077 35.3072 28.9614C35.519 28.9145 35.7314 28.8739 35.9454 28.8395C36.1593 28.8045 36.3746 28.7765 36.59 28.7534C36.806 28.731 37.0221 28.7149 37.2381 28.7044C37.4549 28.6939 37.6717 28.6897 37.8885 28.6911C38.1052 28.6932 38.322 28.7009 38.5388 28.7149C38.7549 28.7289 38.9709 28.7485 39.1863 28.7744C39.4009 28.8003 39.6155 28.8325 39.8287 28.8704C40.0419 28.9089 40.2544 28.9523 40.4654 29.0027C40.6758 29.0525 40.8854 29.1085 41.0929 29.1702C41.3004 29.2318 41.5057 29.299 41.7096 29.3719C41.9128 29.4454 42.1145 29.5246 42.3134 29.6086C42.5123 29.6934 42.7083 29.783 42.9022 29.879C43.0961 29.9742 43.2864 30.0751 43.4745 30.1816C43.662 30.2873 43.8466 30.3987 44.0283 30.5157C44.2093 30.632 44.3874 30.7538 44.5613 30.8806C44.7359 31.0067 44.9061 31.1384 45.0721 31.2742C45.2388 31.4101 45.4012 31.5509 45.5593 31.6959C45.7181 31.8416 45.872 31.9908 46.0215 32.1449C46.171 32.299 46.3155 32.4566 46.4565 32.6184C46.5967 32.7809 46.7319 32.9462 46.8628 33.1157C46.993 33.2859 47.119 33.4589 47.2391 33.6354C47.3593 33.8119 47.4752 33.9919 47.5847 34.1747C47.6949 34.3582 47.7993 34.5439 47.8988 34.733C47.9975 34.9221 48.0912 35.1133 48.1792 35.308C48.2665 35.502 48.3488 35.6989 48.4253 35.8971C48.5019 36.096 48.572 36.297 48.6371 36.4995C48.7015 36.7026 48.7601 36.9071 48.8131 37.113C48.8653 37.319 48.9125 37.5263 48.9526 37.735C48.9934 37.9438 49.0277 38.1532 49.0563 38.364C49.0842 38.5748 49.1064 38.7857 49.1229 38.9979C49.1386 39.2094 49.1479 39.4217 49.1515 39.6346C49.1551 39.8468 49.1529 40.0591 49.1436 40.2713C49.135 40.4835 49.12 40.695 49.0985 40.9066C49.0771 41.1181 49.0499 41.3289 49.0163 41.5391C48.9826 41.7485 48.9433 41.9572 48.8975 42.1652C48.8517 42.3726 48.7995 42.5792 48.7415 42.7837C48.6843 42.9883 48.6199 43.1914 48.5505 43.3924C48.4811 43.5934 48.4053 43.7923 48.3237 43.9899C48.2429 44.1867 48.1556 44.3807 48.0626 44.5733C47.9703 44.7652 47.8716 44.9544 47.7678 45.1407C47.6641 45.3277 47.5554 45.5112 47.4409 45.6912C47.3264 45.8719 47.2062 46.0484 47.0817 46.2221C46.9565 46.3959 46.8271 46.5661 46.6918 46.7328C46.5573 46.8988 46.4178 47.0613 46.2733 47.2203C46.1288 47.3786 45.98 47.5327 45.8269 47.6832C45.3003 48.2016 44.728 48.6638 44.1077 49.0708C43.4881 49.4777 42.8335 49.821 42.1446 50.1004C41.4549 50.3799 40.7445 50.5907 40.0126 50.7322C39.2807 50.8737 38.5417 50.9438 37.7955 50.9416ZM37.7955 29.0686C31.7458 29.0686 26.8243 33.8904 26.8243 39.816C26.8243 45.7423 31.7458 50.5634 37.7955 50.5634C43.8459 50.5634 48.7673 45.7423 48.7673 39.816C48.7673 33.8904 43.8459 29.0686 37.7955 29.0686Z" fill="black"/>
<path d="M37.7955 50.9416C37.5787 50.9416 37.3619 50.936 37.1459 50.9234C36.9291 50.9115 36.713 50.8933 36.4977 50.8688C36.2823 50.8443 36.0677 50.8142 35.8538 50.7777C35.6406 50.7413 35.4281 50.6993 35.2171 50.651C35.0053 50.6026 34.7957 50.5487 34.5882 50.4885C34.38 50.4289 34.174 50.3631 33.9693 50.2916C33.7654 50.2202 33.5637 50.1425 33.3634 50.0598C33.1638 49.9772 32.967 49.8882 32.7724 49.7943C32.5778 49.7005 32.3861 49.601 32.1979 49.4967C32.0091 49.3916 31.8238 49.2816 31.6413 49.1668C31.4589 49.0519 31.28 48.9314 31.1048 48.806C30.9295 48.6814 30.7585 48.5511 30.5904 48.4166C30.423 48.2814 30.2591 48.142 30.0996 47.9984C29.94 47.8541 29.7855 47.7064 29.6345 47.5537C29.4836 47.401 29.3376 47.2441 29.196 47.083C29.0543 46.9226 28.917 46.758 28.7853 46.5892C28.653 46.4204 28.5263 46.2488 28.404 46.073C28.2824 45.8971 28.1658 45.7185 28.0542 45.5357C27.9426 45.3536 27.8367 45.1687 27.7358 44.9803C27.6349 44.7926 27.5398 44.6013 27.4503 44.408C27.3609 44.2147 27.2772 44.0186 27.1992 43.8204C27.1212 43.6221 27.049 43.4218 26.9824 43.2194C26.9159 43.0177 26.8558 42.8131 26.8014 42.6079C26.7471 42.402 26.6984 42.1954 26.6562 41.9866C26.614 41.7786 26.5782 41.5692 26.5475 41.3584C26.5174 41.1482 26.4938 40.9374 26.4759 40.7259C26.4588 40.5136 26.4466 40.3014 26.4416 40.0892C26.4366 39.8769 26.4373 39.6647 26.4444 39.4525C26.4516 39.2402 26.4645 39.028 26.4838 38.8165C26.5038 38.605 26.5296 38.3941 26.5611 38.184C26.5925 37.9739 26.6312 37.7644 26.6748 37.5564C26.7192 37.3484 26.7693 37.1418 26.8251 36.9365C26.8816 36.732 26.9431 36.5282 27.0111 36.3265C27.0797 36.1247 27.1534 35.9251 27.2328 35.7276C27.313 35.5301 27.3981 35.3346 27.489 35.142C27.5805 34.9494 27.6771 34.7589 27.7794 34.5719C27.8817 34.3842 27.9891 34.1999 28.1021 34.0185C28.2151 33.8378 28.3332 33.6592 28.457 33.4848C28.58 33.3104 28.7088 33.1388 28.8419 32.9714C28.9756 32.804 29.1137 32.6408 29.2568 32.4811C29.3999 32.3214 29.5473 32.1652 29.6989 32.0139C29.8513 31.8626 30.008 31.7155 30.1683 31.5726C30.3292 31.4304 30.4938 31.2925 30.6626 31.1587C30.8315 31.0256 31.0039 30.8967 31.1799 30.7727C31.3566 30.6495 31.5362 30.5304 31.7193 30.4169C31.9025 30.3034 32.0892 30.1949 32.2788 30.0919C32.4684 29.9883 32.6608 29.8909 32.8561 29.7984C33.0514 29.706 33.2489 29.6191 33.4492 29.5379C33.6495 29.4566 33.852 29.381 34.0573 29.3109C34.262 29.2409 34.4687 29.1772 34.6769 29.1183C34.8858 29.0602 35.0954 29.0077 35.3072 28.9614C35.519 28.9145 35.7314 28.8739 35.9454 28.8395C36.1593 28.8045 36.3746 28.7765 36.59 28.7534C36.806 28.731 37.0221 28.7149 37.2381 28.7044C37.4549 28.6939 37.6717 28.6897 37.8885 28.6911C38.1052 28.6932 38.322 28.7009 38.5388 28.7149C38.7549 28.7289 38.9709 28.7485 39.1863 28.7744C39.4009 28.8003 39.6155 28.8325 39.8287 28.8704C40.0419 28.9089 40.2544 28.9523 40.4654 29.0027C40.6758 29.0525 40.8854 29.1085 41.0929 29.1702C41.3004 29.2318 41.5057 29.299 41.7096 29.3719C41.9128 29.4454 42.1145 29.5246 42.3134 29.6086C42.5123 29.6934 42.7083 29.783 42.9022 29.879C43.0961 29.9742 43.2864 30.0751 43.4745 30.1816C43.662 30.2873 43.8466 30.3987 44.0283 30.5157C44.2093 30.632 44.3874 30.7538 44.5613 30.8806C44.7359 31.0067 44.9061 31.1384 45.0721 31.2742C45.2388 31.4101 45.4012 31.5509 45.5593 31.6959C45.7181 31.8416 45.872 31.9908 46.0215 32.1449C46.171 32.299 46.3155 32.4566 46.4565 32.6184C46.5967 32.7809 46.7319 32.9462 46.8628 33.1157C46.993 33.2859 47.119 33.4589 47.2391 33.6354C47.3593 33.8119 47.4752 33.9919 47.5847 34.1747C47.6949 34.3582 47.7993 34.5439 47.8988 34.733C47.9975 34.9221 48.0912 35.1133 48.1792 35.308C48.2665 35.502 48.3488 35.6989 48.4253 35.8971C48.5019 36.096 48.572 36.297 48.6371 36.4995C48.7015 36.7026 48.7601 36.9071 48.8131 37.113C48.8653 37.319 48.9125 37.5263 48.9526 37.735C48.9934 37.9438 49.0277 38.1532 49.0563 38.364C49.0842 38.5748 49.1064 38.7857 49.1229 38.9979C49.1386 39.2094 49.1479 39.4217 49.1515 39.6346C49.1551 39.8468 49.1529 40.0591 49.1436 40.2713C49.135 40.4835 49.12 40.695 49.0985 40.9066C49.0771 41.1181 49.0499 41.3289 49.0163 41.5391C48.9826 41.7485 48.9433 41.9572 48.8975 42.1652C48.8517 42.3726 48.7995 42.5792 48.7415 42.7837C48.6843 42.9883 48.6199 43.1914 48.5505 43.3924C48.4811 43.5934 48.4053 43.7923 48.3237 43.9899C48.2429 44.1867 48.1556 44.3807 48.0626 44.5733C47.9703 44.7652 47.8716 44.9544 47.7678 45.1407C47.6641 45.3277 47.5554 45.5112 47.4409 45.6912C47.3264 45.8719 47.2062 46.0484 47.0817 46.2221C46.9565 46.3959 46.8271 46.5661 46.6918 46.7328C46.5573 46.8988 46.4178 47.0613 46.2733 47.2203C46.1288 47.3786 45.98 47.5327 45.8269 47.6832C45.3003 48.2016 44.728 48.6638 44.1077 49.0708C43.4881 49.4777 42.8335 49.821 42.1446 50.1004C41.4549 50.3799 40.7445 50.5907 40.0126 50.7322C39.2807 50.8737 38.5417 50.9438 37.7955 50.9416ZM37.7955 29.0686C31.7458 29.0686 26.8243 33.8904 26.8243 39.816C26.8243 45.7423 31.7458 50.5634 37.7955 50.5634C43.8459 50.5634 48.7673 45.7423 48.7673 39.816C48.7673 33.8904 43.8459 29.0686 37.7955 29.0686Z" fill="black"/>
<path d="M45.1129 39.4301C45.1129 39.4784 45.1072 39.5253 45.0943 39.5723C45.0821 39.6199 45.0642 39.6654 45.0399 39.7095C45.0156 39.7537 44.9863 39.7957 44.9512 39.8356C44.9162 39.8756 44.8761 39.912 44.8317 39.9463C44.7867 39.9799 44.738 40.01 44.6858 40.0366C44.6328 40.0633 44.5778 40.0857 44.5191 40.1039C44.4611 40.1221 44.401 40.1361 44.3388 40.1459C44.2773 40.155 44.2143 40.1599 44.1514 40.1599C44.0884 40.1599 44.0254 40.155 43.9639 40.1459C43.9017 40.1361 43.8416 40.1221 43.7829 40.1039C43.725 40.0857 43.6692 40.0633 43.6169 40.0366C43.5647 40.01 43.5161 39.9799 43.471 39.9463C43.4266 39.912 43.3866 39.8756 43.3515 39.8356C43.3165 39.7957 43.2871 39.7537 43.2628 39.7095C43.2385 39.6654 43.2206 39.6199 43.2077 39.5723C43.1955 39.5253 43.1898 39.4784 43.1898 39.4301C43.1898 39.3824 43.1955 39.3348 43.2077 39.2879C43.2206 39.241 43.2385 39.1954 43.2628 39.1513C43.2871 39.1072 43.3165 39.0652 43.3515 39.0252C43.3866 38.9853 43.4266 38.9482 43.471 38.9146C43.5161 38.8809 43.5647 38.8508 43.6169 38.8242C43.6692 38.7976 43.725 38.7752 43.7829 38.7563C43.8416 38.7381 43.9017 38.724 43.9639 38.7149C44.0254 38.7058 44.0884 38.7009 44.1514 38.7009C44.2143 38.7009 44.2773 38.7058 44.3388 38.7149C44.401 38.724 44.4611 38.7381 44.5191 38.7563C44.5778 38.7752 44.6328 38.7976 44.6858 38.8242C44.738 38.8508 44.7867 38.8809 44.8317 38.9146C44.8761 38.9482 44.9162 38.9853 44.9512 39.0252C44.9863 39.0652 45.0156 39.1072 45.0399 39.1513C45.0642 39.1954 45.0821 39.241 45.0943 39.2879C45.1072 39.3348 45.1129 39.3824 45.1129 39.4301Z" fill="#F76161"/>
<path d="M32.4311 39.4301C32.4311 39.4784 32.4254 39.5253 32.4125 39.5723C32.4004 39.6199 32.3825 39.6654 32.3581 39.7095C32.3338 39.7537 32.3045 39.7957 32.2694 39.8356C32.2344 39.8756 32.1943 39.912 32.1492 39.9463C32.1049 39.9799 32.0562 40.01 32.004 40.0366C31.9511 40.0633 31.896 40.0857 31.8373 40.1039C31.7794 40.1221 31.7193 40.1361 31.657 40.1459C31.5955 40.155 31.5325 40.1599 31.4696 40.1599C31.4066 40.1599 31.3437 40.155 31.2821 40.1459C31.2199 40.1361 31.1598 40.1221 31.1011 40.1039C31.0432 40.0857 30.9874 40.0633 30.9352 40.0366C30.8829 40.01 30.8343 39.9799 30.7892 39.9463C30.7448 39.912 30.7048 39.8756 30.6697 39.8356C30.6347 39.7957 30.6053 39.7537 30.581 39.7095C30.5567 39.6654 30.5388 39.6199 30.5259 39.5723C30.5138 39.5253 30.5073 39.4784 30.5073 39.4301C30.5073 39.3824 30.5138 39.3348 30.5259 39.2879C30.5388 39.241 30.5567 39.1954 30.581 39.1513C30.6053 39.1072 30.6347 39.0652 30.6697 39.0252C30.7048 38.9853 30.7448 38.9482 30.7892 38.9146C30.8343 38.8809 30.8829 38.8508 30.9352 38.8242C30.9874 38.7976 31.0432 38.7752 31.1011 38.7563C31.1598 38.7381 31.2199 38.724 31.2821 38.7149C31.3437 38.7058 31.4066 38.7009 31.4696 38.7009C31.5325 38.7009 31.5955 38.7058 31.657 38.7149C31.7193 38.724 31.7794 38.7381 31.8373 38.7563C31.896 38.7752 31.9511 38.7976 32.004 38.8242C32.0562 38.8508 32.1049 38.8809 32.1492 38.9146C32.1943 38.9482 32.2344 38.9853 32.2694 39.0252C32.3045 39.0652 32.3338 39.1072 32.3581 39.1513C32.3825 39.1954 32.4004 39.241 32.4125 39.2879C32.4254 39.3348 32.4311 39.3824 32.4311 39.4301Z" fill="#F76161"/>
<path d="M37.7954 47.4297C34.435 47.4297 31.7 44.7506 31.7 41.4585C31.7 41.4333 31.705 41.4095 31.715 41.3864C31.725 41.3633 31.7386 41.343 31.7565 41.3247C31.7751 41.3072 31.7958 41.2939 31.8194 41.2841C31.843 41.2743 31.8674 41.2694 31.8931 41.2694C31.9189 41.2694 31.9432 41.2743 31.9668 41.2841C31.9904 41.2939 32.0119 41.3072 32.0298 41.3247C32.0477 41.343 32.062 41.3633 32.0713 41.3864C32.0813 41.4095 32.0863 41.4333 32.0863 41.4585C32.0863 44.5425 34.6475 47.0515 37.7954 47.0515C40.944 47.0515 43.5053 44.5425 43.5053 41.4585C43.5053 41.4333 43.5103 41.4095 43.5196 41.3864C43.5296 41.3633 43.5439 41.343 43.5618 41.3247C43.5797 41.3072 43.6004 41.2939 43.624 41.2841C43.6476 41.2743 43.6727 41.2694 43.6984 41.2694C43.7235 41.2694 43.7485 41.2743 43.7721 41.2841C43.7957 41.2939 43.8165 41.3072 43.8344 41.3247C43.853 41.343 43.8666 41.3633 43.8766 41.3864C43.8859 41.4095 43.8909 41.4333 43.8909 41.4585C43.8909 44.7506 41.1565 47.4297 37.7954 47.4297Z" fill="black"/>
<path d="M33.8728 33.9107C33.2103 33.9107 32.6573 34.7673 32.5257 35.9083L33.4042 36.1668L32.5013 36.648C32.5614 37.9375 33.1524 38.951 33.8728 38.951C34.6333 38.951 35.25 37.8226 35.25 36.4308C35.25 35.0391 34.6333 33.9107 33.8728 33.9107Z" fill="black"/>
<path d="M41.7132 33.9107C41.0507 33.9107 40.4977 34.7673 40.366 35.9083L41.2446 36.1668L40.3431 36.648C40.4032 37.9375 40.9942 38.951 41.7146 38.951C42.4758 38.951 43.0918 37.8226 43.0918 36.4308C43.0918 35.0391 42.4737 33.9107 41.7132 33.9107Z" fill="black"/>
<path d="M32.771 41.6H31.2206C31.1949 41.6 31.1706 41.5951 31.1469 41.586C31.1233 41.5762 31.1019 41.5622 31.084 41.5447C31.0661 41.5272 31.0518 41.5068 31.0425 41.483C31.0325 41.4599 31.0275 41.4361 31.0275 41.4109C31.0275 41.3857 31.0325 41.3619 31.0425 41.3387C31.0518 41.3156 31.0661 41.2953 31.084 41.2771C31.1019 41.2596 31.1233 41.2463 31.1469 41.2365C31.1706 41.2267 31.1949 41.2218 31.2206 41.2218H32.771C32.7967 41.2218 32.8218 41.2267 32.8454 41.2365C32.869 41.2463 32.8897 41.2596 32.9076 41.2771C32.9262 41.2953 32.9398 41.3156 32.9498 41.3387C32.9591 41.3619 32.9641 41.3857 32.9641 41.4109C32.9641 41.4361 32.9591 41.4599 32.9498 41.483C32.9398 41.5068 32.9262 41.5272 32.9076 41.5447C32.8897 41.5622 32.869 41.5762 32.8454 41.586C32.8218 41.5951 32.7967 41.6 32.771 41.6Z" fill="black"/>
<path d="M44.3709 41.6H42.8199C42.7949 41.6 42.7698 41.5951 42.7462 41.586C42.7226 41.5762 42.7018 41.5622 42.684 41.5447C42.6654 41.5272 42.6518 41.5068 42.6418 41.483C42.6317 41.4599 42.6274 41.4361 42.6274 41.4109C42.6274 41.3857 42.6317 41.3619 42.6418 41.3387C42.6518 41.3156 42.6654 41.2953 42.684 41.2771C42.7018 41.2596 42.7226 41.2463 42.7462 41.2365C42.7698 41.2267 42.7949 41.2218 42.8199 41.2218H44.3709C44.3967 41.2218 44.421 41.2267 44.4446 41.2365C44.4682 41.2463 44.489 41.2596 44.5076 41.2771C44.5255 41.2953 44.5391 41.3156 44.5491 41.3387C44.5591 41.3619 44.5641 41.3857 44.5641 41.4109C44.5641 41.4361 44.5591 41.4599 44.5491 41.483C44.5391 41.5068 44.5255 41.5272 44.5076 41.5447C44.489 41.5622 44.4682 41.5762 44.4446 41.586C44.421 41.5951 44.3967 41.6 44.3709 41.6Z" fill="black"/>
</svg>
