<svg width="76" height="69" viewBox="0 0 76 69" fill="none" xmlns="http://www.w3.org/2000/svg">
<path d="M37.3378 12.9887L38.1795 14.3001L39.0211 12.9887C43.8356 5.48627 52.7388 3.76725 60.2588 6.205C67.778 8.64247 73.5712 15.1111 72.3969 23.7074C70.3938 38.3695 61.4156 47.2307 38.1794 64.4266C14.9399 47.2308 5.96508 38.3696 3.96197 23.7073C2.78772 15.1111 8.58088 8.64247 16.1001 6.205C23.6201 3.76725 32.5233 5.48627 37.3378 12.9887Z" fill="#DC4D30" stroke="black" stroke-width="2"/>
<path fill-rule="evenodd" clip-rule="evenodd" d="M53.7239 12.294C53.9585 11.1735 56.909 12.1012 58.718 13.7476C60.5246 15.3973 61.492 17.9388 60.2707 18.2589C59.0481 18.5801 59.0445 16.3414 57.3395 14.8779C55.6357 13.4155 53.4929 13.4155 53.7239 12.294Z" fill="black"/>
<path fill-rule="evenodd" clip-rule="evenodd" d="M17.6779 17.1426C16.621 16.9477 17.5485 14.7024 19.1375 13.3468C20.7228 11.99 23.1437 11.2942 23.4254 12.235C23.7108 13.1758 21.5922 13.1388 20.1798 14.4215C18.7674 15.7009 18.73 17.3386 17.6779 17.1426Z" fill="black"/>
<path d="M53.5864 37.1566C52.7411 40.2513 50.7785 42.9484 48.1073 44.879C45.3877 46.8423 41.9341 48.0183 38.1794 48.0183C34.4247 48.0183 30.9711 46.8423 28.2516 44.879C25.5791 42.9484 23.6141 40.2513 22.7713 37.1566C22.5065 37.0989 22.2658 36.9889 22.059 36.8387C21.7325 36.6035 21.5016 36.2768 21.4073 35.899C21.3456 35.6355 21.533 35.3763 21.8244 35.3186C22.1171 35.2598 22.4049 35.4286 22.4702 35.691C22.5065 35.8467 22.602 35.9839 22.7374 36.0786C22.8668 36.1734 23.0337 36.2278 23.2126 36.2278C23.3965 36.2278 23.5633 36.1734 23.6915 36.0786C23.8282 35.9839 23.9225 35.8467 23.96 35.691C24.0253 35.4286 24.3131 35.2598 24.6057 35.3186C24.8971 35.3763 25.0846 35.6355 25.0229 35.899C24.931 36.2768 24.6964 36.6035 24.3711 36.8387C24.2212 36.9465 24.0555 37.0347 23.8753 37.0957C24.6831 39.9061 26.4897 42.3561 28.9311 44.1179C31.4633 45.9472 34.6787 47.0416 38.1794 47.0416C41.6802 47.0416 44.8956 45.9472 47.4277 44.1179C49.8692 42.3561 51.6758 39.9061 52.4835 37.0957C52.3034 37.0347 52.1365 36.9465 51.9878 36.8387C51.6613 36.6035 51.4279 36.2768 51.336 35.899C51.2743 35.6355 51.4581 35.3763 51.7532 35.3186C52.0458 35.2598 52.3336 35.4286 52.3989 35.691C52.4364 35.8467 52.5307 35.9839 52.6661 36.0786C52.7955 36.1734 52.9624 36.2278 53.1426 36.2278C53.3252 36.2278 53.4921 36.1734 53.6202 36.0786C53.7569 35.9839 53.8512 35.8467 53.8887 35.691C53.954 35.4286 54.2418 35.2598 54.5344 35.3186C54.8258 35.3763 55.0133 35.6355 54.9516 35.899C54.8597 36.2768 54.6263 36.6035 54.2998 36.8387C54.093 36.9889 53.8512 37.0989 53.5864 37.1566Z" fill="black"/>
<path d="M29.2432 19.8008C31.1211 19.8008 32.8213 20.489 34.0547 21.5942C35.2833 22.6994 36.0439 24.2336 36.0439 25.9225C36.0439 27.6114 35.2833 29.1424 34.0547 30.2476C32.8213 31.3561 31.1211 32.041 29.2432 32.041C27.3652 32.041 25.665 31.3561 24.4352 30.2476C23.203 29.1424 22.4424 27.6114 22.4424 25.9225C22.4424 24.2336 23.203 22.6994 24.4352 21.5942C25.665 20.489 27.3652 19.8008 29.2432 19.8008Z" fill="black"/>
<path d="M33.6134 21.9916C32.496 20.9833 30.9506 20.3605 29.2432 20.3605C27.5357 20.3605 25.9903 20.9833 24.873 21.9916C23.7532 22.9967 23.064 24.3861 23.064 25.9225C23.064 27.4557 23.7532 28.8484 24.873 29.8534C25.9903 30.8585 27.5357 31.4813 29.2432 31.4813C30.9506 31.4813 32.496 30.8585 33.6134 29.8534C34.7295 28.8484 35.4224 27.4557 35.4224 25.9225C35.4224 24.3861 34.7295 22.9967 33.6134 21.9916Z" fill="#FEFEFE"/>
<path fill-rule="evenodd" clip-rule="evenodd" d="M31.6265 31.3528C29.2189 30.5013 27.5187 28.3899 27.5187 25.9225C27.5187 23.454 29.2189 21.3437 31.6265 20.489C34.0304 21.3437 35.7343 23.454 35.7343 25.9225C35.7343 28.3899 34.0304 30.5013 31.6265 31.3528Z" fill="black"/>
<path d="M47.1157 19.8008C48.9937 19.8008 50.6939 20.489 51.9261 21.5942C53.1559 22.6994 53.9165 24.2336 53.9165 25.9225C53.9165 27.6114 53.1559 29.1424 51.9261 30.2476C50.6939 31.3561 48.9937 32.041 47.1157 32.041C45.2378 32.041 43.5364 31.3561 42.3078 30.2476C41.0756 29.1424 40.3149 27.6114 40.3149 25.9225C40.3149 24.2336 41.0756 22.6994 42.3078 21.5942C43.5364 20.489 45.2378 19.8008 47.1157 19.8008Z" fill="black"/>
<path d="M51.4847 21.9916C50.3686 20.9833 48.8232 20.3605 47.1157 20.3605C45.4083 20.3605 43.8629 20.9833 42.7455 21.9916C41.6258 22.9967 40.9365 24.3861 40.9365 25.9225C40.9365 27.4557 41.6258 28.8484 42.7455 29.8534C43.8629 30.8585 45.4083 31.4813 47.1157 31.4813C48.8232 31.4813 50.3686 30.8585 51.4847 29.8534C52.6021 28.8484 53.295 27.4557 53.295 25.9225C53.295 24.3861 52.6021 22.9967 51.4847 21.9916Z" fill="#FEFEFE"/>
<path fill-rule="evenodd" clip-rule="evenodd" d="M49.4992 31.3528C47.0916 30.5013 45.3914 28.3899 45.3914 25.9225C45.3914 23.454 47.0916 21.3437 49.4992 20.489C51.9031 21.3437 53.6069 23.454 53.6069 25.9225C53.6069 28.3899 51.9031 30.5013 49.4992 31.3528Z" fill="black"/>
</svg>
