<svg width="78" height="74" viewBox="0 0 78 74" fill="none" xmlns="http://www.w3.org/2000/svg">
<path d="M71.7737 58.3702L44.7214 74.0002L39.989 65.796L67.0413 50.166L71.7737 58.3702Z" fill="black"/>
<path d="M67.0116 50.3162L39.9844 65.9337L6.36128 51.3075C3.42194 50.5182 1.67744 47.4959 2.46513 44.5534C3.25282 41.6125 6.27359 39.8665 9.21293 40.6541L18.6511 43.1863L18.2095 42.419L0.739423 12.1361C-0.782707 9.49902 0.120862 6.12591 2.75484 4.60378C5.39038 3.08008 8.76036 3.98522 10.2809 6.62232L19.4983 22.5984C17.9761 19.9613 18.8797 16.5882 21.5152 15.0661C24.1492 13.5439 27.5192 14.4475 29.0413 17.0846L31.0301 20.5345C29.5096 17.8974 30.4116 14.5242 33.0471 13.0021C35.6826 11.48 39.0526 12.3836 40.5732 15.0207L42.5635 18.4705C41.0414 15.8334 41.945 12.4603 44.5805 10.9382C47.2145 9.41602 50.5845 10.3196 52.1066 12.9567L56.3802 20.3638L58.9374 24.7986L65.2311 35.7088L67.0116 50.3162Z" fill="black"/>
<g clip-path="url(#clip0_433_324)">
<path d="M64.2575 43.6811L39.5422 57.9627L8.79517 44.5876C6.10726 43.8658 4.51198 41.102 5.23229 38.4112C5.9526 35.7219 8.71498 34.1252 11.4029 34.8455L20.0337 37.1611L19.6299 36.4594L3.6542 8.76689C2.26227 6.35536 3.08855 3.27078 5.49722 1.87886C7.90731 0.485496 10.989 1.31321 12.3795 3.72474L20.8084 18.3343C19.4165 15.9227 20.2428 12.8381 22.6529 11.4462C25.0615 10.0543 28.1433 10.8806 29.5352 13.2921L31.3539 16.4468C29.9634 14.0353 30.7882 10.9507 33.1983 9.5588C35.6084 8.16688 38.6901 8.99315 40.0806 11.4047L41.9007 14.5594C40.5088 12.1479 41.3351 9.06332 43.7452 7.6714C46.1538 6.27947 49.2355 7.10575 50.6275 9.51728L54.5355 16.2908L56.874 20.3462L62.6293 30.3232L64.2575 43.6811Z" fill="#FFF6EB"/>
<path d="M68.6078 51.1703L43.8696 65.4634L39.542 57.961L64.2802 43.668L68.6078 51.1703Z" fill="#458858"/>
<mask id="mask0_433_324" style="mask-type:luminance" maskUnits="userSpaceOnUse" x="-16" y="-18" width="86" height="85">
<path d="M-15.1985 -17.9277H69.7607V66.4815H-15.1985V-17.9277Z" fill="white"/>
</mask>
<g mask="url(#mask0_433_324)">
<path d="M2.33662 -2.60083C1.9915 -2.60083 1.6564 -2.78126 1.47167 -3.1006L-4.88652 -14.1243C-5.1629 -14.6026 -4.99821 -15.2141 -4.52135 -15.489C-4.04305 -15.7669 -3.43444 -15.6022 -3.15663 -15.1239L3.20156 -4.10016C3.47651 -3.62186 3.31326 -3.01182 2.83496 -2.73544C2.67744 -2.64379 2.50703 -2.60083 2.33662 -2.60083ZM-1.81339 2.81079C-1.37233 2.81079 -0.968497 2.51723 -0.849638 2.07044C-0.706436 1.53772 -1.02291 0.989259 -1.55563 0.846056L-13.8395 -2.4476C-14.3737 -2.59367 -14.9193 -2.27433 -15.0625 -1.74161C-15.2057 -1.2089 -14.8892 -0.660434 -14.3565 -0.517232L-2.07259 2.77642C-1.98523 2.80077 -1.89788 2.81079 -1.81339 2.81079ZM-1.42245 7.71118L-12.4362 14.0737C-12.9144 14.35 -13.0777 14.9615 -12.8027 15.4398C-12.6166 15.7606 -12.2815 15.9396 -11.9364 15.9396C-11.7674 15.9396 -11.5956 15.8966 -11.438 15.805L-0.424327 9.4425C0.0539693 9.16612 0.21722 8.55464 -0.0591608 8.07635C-0.335541 7.59948 -0.945584 7.43337 -1.42245 7.71118ZM14.5045 0.661325C14.6735 0.661325 14.8468 0.618364 15.0029 0.526714L26.0166 -5.8372C26.4949 -6.11215 26.6581 -6.72363 26.3832 -7.20192C26.1068 -7.68022 25.4939 -7.8449 25.0185 -7.56852L19.5116 -4.38656L14.0048 -1.2046C13.5265 -0.928223 13.3632 -0.316748 13.6396 0.161548C13.8243 0.482321 14.1594 0.661325 14.5045 0.661325ZM8.83658 -3.52592C8.9225 -3.503 9.00985 -3.49155 9.09577 -3.49155C9.53684 -3.49155 9.94067 -3.78654 10.0595 -4.23334L13.3517 -16.5273C13.495 -17.06 13.1785 -17.607 12.6458 -17.7502C12.1116 -17.8977 11.5646 -17.5769 11.4228 -17.0442L8.13059 -4.7503C7.98882 -4.21758 8.30386 -3.66912 8.83658 -3.52592ZM69.1062 52.0352L44.3694 66.3297C44.2162 66.417 44.0429 66.4629 43.8696 66.4629C43.7837 66.4629 43.6963 66.4514 43.6119 66.4285C43.3555 66.3598 43.1379 66.1922 43.0047 65.9631L38.8418 58.7457L8.46138 45.531C6.93771 45.1028 5.66464 44.1118 4.8713 42.7371C4.06507 41.3394 3.85027 39.7112 4.26842 38.1517C5.12906 34.9354 8.4485 33.0208 11.6605 33.88L17.9629 35.5712L2.7877 9.26493C1.12512 6.38083 2.11609 2.67762 4.99732 1.01217C7.87998 -0.654706 11.5803 0.339119 13.2443 3.22465L19.4321 13.9491C19.8761 12.5772 20.8083 11.3571 22.153 10.581C24.8008 9.05013 28.1388 9.76327 29.9532 12.1261C30.4057 10.6712 31.3738 9.45825 32.6984 8.69212C34.0946 7.88589 35.72 7.67109 37.2794 8.08924C38.5783 8.43722 39.6996 9.19046 40.5029 10.2416C40.9383 8.84105 41.8791 7.59376 43.2453 6.80471C46.1236 5.1407 49.8254 6.13023 51.4909 9.01576L63.4941 29.8231C63.5614 29.9391 63.6044 30.0679 63.6201 30.2011L65.2154 43.2913L69.4728 50.6705C69.7477 51.1488 69.5845 51.7603 69.1062 52.0352ZM9.19315 43.6708L39.479 56.844L63.1862 43.1452L61.664 30.6451L49.7624 10.0153C48.6483 8.08637 46.1738 7.41905 44.2434 8.53603C42.3144 9.65014 41.6514 12.1275 42.7655 14.0593C42.7741 14.0751 42.7727 14.0923 42.7813 14.108L45.6267 19.0414C45.9031 19.5197 45.7398 20.1311 45.2616 20.4075C45.104 20.4977 44.9322 20.5407 44.7632 20.5407C44.4181 20.5407 44.083 20.3617 43.8968 20.0409L39.4504 12.3309C39.4418 12.3166 39.4418 12.298 39.4332 12.2822L39.2155 11.9041C38.1029 9.97378 35.6283 9.30932 33.6965 10.4234C32.7628 10.9633 32.0941 11.8354 31.8148 12.8779C31.5356 13.9204 31.6788 15.0073 32.2158 15.9425L32.2187 15.9468C32.223 15.9553 32.223 15.9639 32.2273 15.9725L36.9057 24.0807C37.1806 24.559 37.0174 25.1704 36.5391 25.4468C36.383 25.537 36.2112 25.58 36.0407 25.58C35.6956 25.58 35.3605 25.4024 35.1758 25.0802L29.6954 15.583C29.6912 15.5744 29.6912 15.5644 29.6869 15.5558L28.6687 13.7916C27.556 11.8598 25.08 11.1953 23.1511 12.3123C21.2236 13.425 20.5591 15.8995 21.6704 17.8299L21.6718 17.8342L28.1847 29.1214C28.4596 29.5997 28.2964 30.2097 27.8181 30.4861C27.662 30.5778 27.4887 30.6193 27.3197 30.6193C26.9746 30.6193 26.6395 30.4417 26.4548 30.1195L19.9419 18.8337L11.5145 4.22277C10.4003 2.2924 7.92438 1.62937 5.99544 2.74349C4.0665 3.8576 3.40347 6.33644 4.51759 8.26681L20.8985 36.661C21.1004 37.0104 21.0718 37.4486 20.8255 37.7679C20.5792 38.0902 20.1653 38.2319 19.7744 38.126L11.1436 35.8104C10.7956 35.7173 10.4447 35.6729 10.0996 35.6729C8.31532 35.6729 6.67995 36.8658 6.19592 38.6687C5.91668 39.7126 6.05988 40.8024 6.59975 41.7375C7.13963 42.6726 8.0103 43.3414 9.05281 43.6206C9.1015 43.6335 9.14733 43.6507 9.19315 43.6708ZM67.2431 50.8037L63.9137 45.034L40.9068 58.3275L44.2362 64.0986L67.2431 50.8037Z" fill="black"/>
</g>
<mask id="mask1_433_324" style="mask-type:luminance" maskUnits="userSpaceOnUse" x="-16" y="-18" width="86" height="85">
<path d="M-15.1985 -17.9277H69.7607V66.4815H-15.1985V-17.9277Z" fill="white"/>
</mask>
<g mask="url(#mask1_433_324)">
<path d="M2.33662 -2.60083C1.9915 -2.60083 1.6564 -2.78126 1.47167 -3.1006L-4.88652 -14.1243C-5.1629 -14.6026 -4.99821 -15.2141 -4.52135 -15.489C-4.04305 -15.7669 -3.43444 -15.6022 -3.15663 -15.1239L3.20156 -4.10016C3.47651 -3.62186 3.31326 -3.01182 2.83496 -2.73544C2.67744 -2.64379 2.50703 -2.60083 2.33662 -2.60083ZM-1.81339 2.81079C-1.37233 2.81079 -0.968497 2.51723 -0.849638 2.07044C-0.706436 1.53772 -1.02291 0.989259 -1.55563 0.846056L-13.8395 -2.4476C-14.3737 -2.59367 -14.9193 -2.27433 -15.0625 -1.74161C-15.2057 -1.2089 -14.8892 -0.660434 -14.3565 -0.517232L-2.07259 2.77642C-1.98523 2.80077 -1.89788 2.81079 -1.81339 2.81079ZM-1.42245 7.71118L-12.4362 14.0737C-12.9144 14.35 -13.0777 14.9615 -12.8027 15.4398C-12.6166 15.7606 -12.2815 15.9396 -11.9364 15.9396C-11.7674 15.9396 -11.5956 15.8966 -11.438 15.805L-0.424327 9.4425C0.0539693 9.16612 0.21722 8.55464 -0.0591608 8.07635C-0.335541 7.59948 -0.945584 7.43337 -1.42245 7.71118ZM15.0029 -0.517232C15.1719 -0.517232 14.8468 0.618364 15.0029 0.526714L26.0166 -5.8372C26.4949 -6.11215 26.6581 -6.72363 26.3832 -7.20192C26.1068 -7.68022 25.4939 -7.8449 25.0185 -7.56852L19.5116 -4.38656L14.0048 -1.2046C13.5265 -0.928223 13.3632 -0.316748 13.6396 0.161548C13.8243 0.482321 14.6578 -0.517232 15.0029 -0.517232ZM8.83658 -3.52592C8.9225 -3.503 9.00985 -3.49155 9.09577 -3.49155C9.53684 -3.49155 9.94067 -3.78654 10.0595 -4.23334L13.3517 -16.5273C13.495 -17.06 13.1785 -17.607 12.6458 -17.7502C12.1116 -17.8977 11.5646 -17.5769 11.4228 -17.0442L8.13059 -4.7503C7.98882 -4.21758 8.30386 -3.66912 8.83658 -3.52592ZM69.1062 52.0352L44.3694 66.3297C44.2162 66.417 44.0429 66.4629 43.8696 66.4629C43.7837 66.4629 43.6963 66.4514 43.6119 66.4285C43.3555 66.3598 43.1379 66.1922 43.0047 65.9631L38.8418 58.7457L8.46138 45.531C6.93771 45.1028 5.66464 44.1118 4.8713 42.7371C4.06507 41.3394 3.85027 39.7112 4.26842 38.1517C5.12906 34.9354 8.4485 33.0208 11.6605 33.88L17.9629 35.5712L2.7877 9.26493C1.12512 6.38083 2.11609 2.67762 4.99732 1.01217C7.87998 -0.654706 11.5803 0.339119 13.2443 3.22465L19.4321 13.9491C19.8761 12.5772 20.8083 11.3571 22.153 10.581C24.8008 9.05013 28.1388 9.76327 29.9532 12.1261C30.4057 10.6712 31.3738 9.45825 32.6984 8.69212C34.0946 7.88589 35.72 7.67109 37.2794 8.08924C38.5783 8.43722 39.6996 9.19046 40.5029 10.2416C40.9383 8.84105 41.8791 7.59376 43.2453 6.80471C46.1236 5.1407 49.8254 6.13023 51.4909 9.01576L63.4941 29.8231C63.5614 29.9391 63.6044 30.0679 63.6201 30.2011L65.2154 43.2913L69.4728 50.6705C69.7477 51.1488 69.5845 51.7603 69.1062 52.0352ZM9.19315 43.6708L39.479 56.844L63.1862 43.1452L61.664 30.6451L49.7624 10.0153C48.6483 8.08637 46.1738 7.41905 44.2434 8.53603C42.3144 9.65014 41.6514 12.1275 42.7655 14.0593C42.7741 14.0751 42.7727 14.0923 42.7813 14.108L45.6267 19.0414C45.9031 19.5197 45.7398 20.1311 45.2616 20.4075C45.104 20.4977 44.9322 20.5407 44.7632 20.5407C44.4181 20.5407 44.083 20.3617 43.8968 20.0409L39.4504 12.3309C39.4418 12.3166 39.4418 12.298 39.4332 12.2822L39.2155 11.9041C38.1029 9.97378 35.6283 9.30932 33.6965 10.4234C32.7628 10.9633 32.0941 11.8354 31.8148 12.8779C31.5356 13.9204 31.6788 15.0073 32.2158 15.9425L32.2187 15.9468C32.223 15.9553 32.223 15.9639 32.2273 15.9725L36.9057 24.0807C37.1806 24.559 37.0174 25.1704 36.5391 25.4468C36.383 25.537 36.2112 25.58 36.0407 25.58C35.6956 25.58 35.3605 25.4024 35.1758 25.0802L29.6954 15.583C29.6912 15.5744 29.6912 15.5644 29.6869 15.5558L28.6687 13.7916C27.556 11.8598 25.08 11.1953 23.1511 12.3123C21.2236 13.425 20.5591 15.8995 21.6704 17.8299L21.6718 17.8342L28.1847 29.1214C28.4596 29.5997 28.2964 30.2097 27.8181 30.4861C27.662 30.5778 27.4887 30.6193 27.3197 30.6193C26.9746 30.6193 26.6395 30.4417 26.4548 30.1195L19.9419 18.8337L11.5145 4.22277C10.4003 2.2924 7.92438 1.62937 5.99544 2.74349C4.0665 3.8576 3.40347 6.33644 4.51759 8.26681L20.8985 36.661C21.1004 37.0104 21.0718 37.4486 20.8255 37.7679C20.5792 38.0902 20.1653 38.2319 19.7744 38.126L11.1436 35.8104C10.7956 35.7173 10.4447 35.6729 10.0996 35.6729C8.31532 35.6729 6.67995 36.8658 6.19592 38.6687C5.91668 39.7126 6.05988 40.8024 6.59975 41.7375C7.13963 42.6726 8.0103 43.3414 9.05281 43.6206C9.1015 43.6335 9.14733 43.6507 9.19315 43.6708ZM67.2431 50.8037L63.9137 45.034L40.9068 58.3275L44.2362 64.0986L67.2431 50.8037Z" fill="black"/>
</g>
<rect x="13.4819" width="3.02444" height="1.09979" fill="#F5F5F5"/>
</g>
<defs>
<clipPath id="clip0_433_324">
<rect width="75.6886" height="66.5376" fill="white" transform="translate(2.20898)"/>
</clipPath>
</defs>
</svg>
