<svg width="433" height="429" viewBox="0 0 433 429" fill="none" xmlns="http://www.w3.org/2000/svg">
<g clip-path="url(#clip0_470_38)">
<path d="M7.07194 59.1465C7.07194 94.3444 -0.391602 97.4642 -0.391602 110.756C-0.391602 118.792 8.63444 118.219 12.0771 118.219H33.2438C36.6917 118.219 45.7178 118.792 45.7178 110.756C45.7178 97.4642 38.249 94.3444 38.249 59.1465C38.249 23.9537 45.7178 20.834 45.7178 7.54229C45.7178 -0.494172 36.6917 0.0787456 33.2438 0.0787456H12.0771C8.63444 0.0787456 -0.391602 -0.494172 -0.391602 7.54229C-0.391602 20.834 7.07194 23.9537 7.07194 59.1465Z" fill="black"/>
<path d="M48.1802 47.7456C48.1802 56.4435 56.2166 59.1466 56.2166 77.1987C56.2166 92.2925 48.7531 102.141 48.7531 110.917C48.7531 118.792 57.7791 118.22 61.2218 118.22H79.4354C82.8833 118.22 94.8625 118.792 94.8625 110.917C94.8625 101.73 87.3937 89.9956 87.3104 77.1987C87.2323 70.5529 87.8885 60.7873 94.9406 60.7873C101.586 60.7873 102.737 70.4696 102.899 77.1987C103.149 88.9279 98.3052 99.9227 98.3052 110.917C98.3052 118.792 110.284 118.22 113.732 118.22H129.071C132.519 118.22 141.545 118.792 141.545 110.917C141.545 102.141 134.076 92.2925 134.076 77.1987V60.7873C134.076 45.7769 127.925 34.9487 113.076 34.9487C98.6333 34.9487 90.2635 44.7091 88.2166 44.7091C87.1489 44.7091 86.7375 44.1362 86.4927 43.23C84.7687 36.9175 81.7323 34.9487 78.6958 34.9487C76.5656 34.9487 67.5396 37.5737 63.5187 38.6362C56.1333 40.605 48.1802 42.0841 48.1802 47.7456Z" fill="black"/>
<path d="M191.754 98.6102C191.754 101.319 189.785 102.876 186.748 102.959C175.264 102.959 169.519 89.7508 156.639 89.7508C149.42 89.7508 144.576 94.4279 144.576 101.813C144.576 115.756 162.545 119.449 180.842 119.449C200.451 119.449 218.743 111.74 218.743 90.8185C218.743 60.381 170.504 65.3862 170.504 55.7873C170.504 53.1623 173.045 52.6675 174.936 52.6675C183.629 52.6675 188.884 62.8394 203.978 62.8394C210.951 62.8394 216.118 59.23 216.118 52.256C216.118 38.0633 192.983 34.9487 179.691 34.9487C161.233 34.9487 144.415 43.3966 144.415 60.7873C144.415 95.2456 191.754 86.881 191.754 98.6102Z" fill="black"/>
<path d="M222.848 77.1987C222.848 98.2821 238.353 119.449 267.15 119.449C290.368 119.449 300.785 111.084 300.785 103.615C300.785 98.855 297.671 90.4904 290.202 90.4904C283.311 90.4904 280.03 97.7091 268.301 97.7091C264.936 97.7091 259.764 96.6414 259.764 94.0164C259.764 93.0321 260.504 92.8706 261.9 92.8706C264.358 92.8706 268.79 93.5269 274.535 91.7196C286.592 87.9435 299.556 79.9071 299.556 60.7873C299.556 43.5581 283.967 34.9487 267.15 34.9487C236.796 34.9487 222.848 56.3602 222.848 77.1987ZM254.514 68.5008C257.306 61.3654 261.816 56.6883 265.921 56.6883C270.02 56.6883 270.926 61.3654 268.134 68.5008C265.342 75.5581 260.749 80.2352 256.65 80.2352C252.546 80.2352 251.728 75.5581 254.514 68.5008Z" fill="black"/>
<path d="M302.021 47.7456C302.021 56.1154 310.057 60.4591 310.057 82.1206C310.057 96.8081 302.677 103.204 302.677 110.917C302.677 118.792 310.385 118.22 313.833 118.22H337.625C341.073 118.22 348.781 118.792 348.781 110.917C348.781 103.204 341.317 96.8081 341.317 82.1206C341.401 74.8185 341.317 60.7873 349.765 60.7873C358.63 60.7873 351 77.1987 365.927 77.1987C377.578 77.1987 384.88 72.2769 384.88 56.605C384.88 43.0685 375.119 34.9487 364.286 34.9487C355.427 34.9487 346.812 39.4591 340.578 44.0529C339.104 37.0789 335.656 34.9487 332.536 34.9487C330.406 34.9487 321.38 37.5737 317.359 38.6362C309.974 40.605 302.021 42.0841 302.021 47.7456Z" fill="black"/>
<path d="M413.842 119.449C422.54 119.449 433.207 115.35 433.207 108.048C433.207 101.563 421.717 102.469 421.717 77.1986V45.2819H425.082C427.707 45.2819 429.514 43.4798 429.514 40.8548V40.6048C429.514 37.9798 427.707 36.1777 425.082 36.1777H421.717V14.6829C421.717 11.7298 421.144 7.70898 417.946 7.70898C415.071 7.70898 408.097 15.4173 400.717 22.3132C392.431 30.0215 386.603 35.6829 386.603 39.8704C386.603 43.2298 388.326 45.2819 392.92 45.2819C395.3 45.2819 397.436 44.4642 398.91 44.4642C400.389 44.4642 401.207 45.2038 401.207 48.0736C401.207 57.0163 386.524 72.2767 386.524 91.8027C386.524 109.443 398.582 119.449 413.842 119.449Z" fill="black"/>
<path d="M103.221 273.075H172.137C181.981 273.075 181.08 271.189 181.08 259.7C181.08 252.809 180.997 241.898 180.997 235.58C180.997 233.2 179.111 232.054 177.304 232.054C170.825 232.054 165.408 250.184 144.241 250.184C141.205 250.184 132.757 251.007 132.757 246.986C132.757 234.762 185.262 228.2 185.262 190.788C185.262 169.617 166.721 153.705 141.127 153.705C120.778 153.705 94.2778 161.992 94.2778 181.846C94.2778 193.658 101.991 204.486 113.804 204.981C132.674 205.799 124.554 176.84 140.96 176.84C150.314 176.84 151.215 184.96 151.215 187.997C151.215 213.84 92.6372 213.84 92.6372 255.518C92.6372 263.476 95.2622 273.075 103.221 273.075Z" fill="black"/>
<path d="M190.514 200.137H194.618L194.701 212.361C194.701 255.106 187.232 252.726 187.232 265.773C187.232 273.648 196.258 273.075 199.701 273.075H220.951C224.399 273.075 233.425 273.648 233.425 265.773C233.425 252.726 225.873 255.106 225.956 212.361C225.956 207.278 225.956 203.174 225.956 203.174C225.956 202.189 225.956 201.372 225.956 200.137H232.441C235.066 200.137 236.868 198.335 236.868 195.71V195.46C236.868 192.835 235.066 191.033 232.441 191.033H222.592C219.227 184.221 214.472 178.231 214.472 173.637C214.472 170.851 216.274 168.471 218.982 168.471C222.43 168.471 225.795 171.997 227.842 176.346C229.566 179.955 230.878 187.34 237.034 187.34C245.399 187.34 253.524 181.518 253.524 173.064C253.524 161.085 237.769 153.705 223.987 153.705C204.461 153.705 194.618 167.731 194.618 181.924V191.033H190.514C187.889 191.033 186.086 192.835 186.086 195.46V195.71C186.086 198.335 187.889 200.137 190.514 200.137Z" fill="black"/>
<path d="M256.396 232.054C256.396 257.325 271.328 274.304 289.541 274.304C300.864 274.304 302.422 269.466 307.177 269.466C311.609 269.466 311.119 274.304 317.843 274.304C329.411 274.304 338.604 269.299 338.604 261.997C338.604 254.617 332.364 250.841 332.364 232.054C332.364 214.58 337.942 206.7 337.942 198.992C337.942 191.117 330.807 189.804 327.359 189.804C323.505 189.804 320.552 191.033 312.104 191.033C308 191.033 304.802 189.721 294.218 189.804C282.239 189.882 256.396 197.841 256.396 232.054ZM294.875 211.46C299.218 211.46 302.177 219.663 302.177 232.054C302.177 244.361 299.218 252.565 294.875 252.565C290.526 252.565 287.573 244.361 287.573 232.054C287.573 219.663 290.526 211.46 294.875 211.46Z" fill="black"/>
<path d="M94.5218 429.16C125.126 429.16 135.215 412.587 135.215 398.806C135.215 386.743 124.715 378.457 115.444 378.457C109.537 378.457 104.532 382.15 104.532 390.847C104.532 400.363 102.808 404.222 94.5218 404.222C80.8187 404.222 76.8812 388.384 76.8812 368.858C76.8812 349.332 80.8187 333.499 94.5218 333.499C102.808 333.499 104.532 337.358 104.532 346.874C104.532 355.571 109.537 359.259 115.444 359.259C124.715 359.259 135.215 350.972 135.215 338.915C135.215 325.129 125.126 308.561 94.5218 308.561C56.0426 308.561 44.7197 335.634 44.7197 368.858C44.7197 402.087 56.0426 429.16 94.5218 429.16Z" fill="black"/>
<path d="M178.614 429.16C203.229 429.16 217.505 412.259 217.505 386.827C217.505 361.556 203.229 344.66 178.614 344.66C154.005 344.66 139.729 361.556 139.729 386.827C139.729 412.259 154.005 429.16 178.614 429.16ZM171.312 386.993C171.312 374.603 174.265 366.4 178.614 366.4C182.963 366.4 185.917 374.603 185.917 386.993C185.917 399.296 182.963 407.504 178.614 407.504C174.265 407.504 171.312 399.296 171.312 386.993Z" fill="black"/>
<path d="M252.29 429.16C264.269 429.16 267.305 425.795 277.477 425.795C284.613 425.795 287.899 427.931 294.05 427.931C296.186 427.931 305.206 428.504 305.206 420.629C305.206 407.582 297.743 409.962 297.743 367.217C297.743 344.66 305.206 329.972 305.206 317.092C305.206 309.217 296.186 309.79 292.738 309.79H273.212C269.764 309.79 260.743 309.217 260.743 317.092C260.743 329.316 267.795 340.556 267.795 350.399C267.795 353.269 267.962 353.847 267.061 353.847C265.337 353.847 259.758 344.66 246.956 344.66C231.368 344.66 221.607 358.853 221.607 386.91C221.607 414.228 233.915 429.16 252.29 429.16ZM253.191 387.071C253.191 374.686 256.144 366.483 260.493 366.483C264.842 366.483 267.795 374.686 267.795 387.071C267.795 399.379 264.842 407.582 260.493 407.582C256.144 407.582 253.191 399.379 253.191 387.071Z" fill="black"/>
<path d="M308.081 386.91C308.081 407.993 323.586 429.16 352.383 429.16C375.601 429.16 386.018 420.796 386.018 413.327C386.018 408.566 382.903 400.202 375.435 400.202C368.544 400.202 365.263 407.421 353.534 407.421C350.169 407.421 344.997 406.353 344.997 403.728C344.997 402.743 345.737 402.582 347.133 402.582C349.591 402.582 354.023 403.238 359.768 401.431C371.825 397.655 384.789 389.618 384.789 370.499C384.789 353.27 369.2 344.66 352.383 344.66C322.028 344.66 308.081 366.072 308.081 386.91ZM339.747 378.212C342.539 371.077 347.049 366.4 351.153 366.4C355.252 366.4 356.159 371.077 353.367 378.212C350.575 385.27 345.982 389.947 341.883 389.947C337.778 389.947 336.961 385.27 339.747 378.212Z" fill="black"/>
</g>
<defs>
<clipPath id="clip0_470_38">
<rect width="433" height="429" fill="white"/>
</clipPath>
</defs>
</svg>
