<svg width="75" height="60" viewBox="0 0 75 60" fill="none" xmlns="http://www.w3.org/2000/svg">
<g clip-path="url(#clip0_202_115)">
<path d="M56.5204 12.3165C56.6588 12.3202 56.8102 12.3242 56.9486 12.341C57.0968 12.45 57.2587 12.5333 57.3815 12.6682C57.7126 13.0321 57.89 13.4839 58.042 13.9485C58.5465 15.4088 58.7968 16.9543 59.0091 18.4989C59.3086 20.5718 59.4815 22.6544 59.6172 24.7365C59.6151 24.8154 59.6633 24.8956 59.7128 24.9362C61.668 26.8689 63.1482 29.1311 64.0641 31.7599C64.9797 34.3883 65.1377 37.0629 64.5249 39.7955C64.1411 41.4691 63.4954 43.0301 62.6623 44.5077C61.3662 46.841 59.6636 48.7818 57.481 50.276C55.4402 51.6556 53.2087 52.5962 50.8714 53.2443C47.6703 54.1326 44.3823 54.4664 41.0889 54.5238C39.0576 54.562 37.0172 54.4551 34.99 54.3228C33.24 54.1974 31.4931 53.9666 29.775 53.5926C27.7434 53.1439 25.7421 52.4989 23.8751 51.5417C21.9578 50.5705 20.2371 49.3279 18.8162 47.6854C17.4443 46.1232 16.3804 44.3455 15.5858 42.3911C14.9688 40.8882 14.5926 39.3393 14.4837 37.7055C14.4651 37.442 14.4471 37.1654 14.4163 36.9015C14.4431 36.3496 14.4703 35.7846 14.4845 35.2327C14.4981 35.1938 14.5117 35.1545 14.5127 35.1152C14.6121 34.1971 14.7988 33.3205 15.0736 32.4466C15.9542 29.6024 17.4668 27.1963 19.5012 25.1063C19.5528 25.055 19.5931 24.964 19.6077 24.8854C19.6712 23.8874 19.7096 22.889 19.824 21.8792C19.9774 20.3443 20.1556 18.8102 20.3714 17.2901C20.5126 16.2282 20.7284 15.1949 21.0695 14.2042C21.2333 13.7087 21.4098 13.2269 21.7484 12.815C21.9438 12.5702 22.1868 12.445 22.5142 12.4668C22.9173 12.4909 23.2915 12.6453 23.6273 12.8252C24.5736 13.2978 25.4401 13.9388 26.2682 14.592C28.3449 16.2257 30.2777 18.0527 32.1453 19.9565C32.2311 20.0508 32.3064 20.0663 32.4201 20.0558C33.4342 19.8594 34.4358 19.6622 35.4489 19.505C36.386 19.3588 37.3349 19.2392 38.2826 19.1723C39.5206 19.0869 40.7803 19.1465 42.0136 19.2582C43.6496 19.3936 45.2958 19.6213 46.9155 19.9011C46.9657 19.9155 47.0546 19.8917 47.0932 19.8531C47.5075 19.4431 47.9221 19.0201 48.3364 18.6102C49.8503 17.1249 51.389 15.653 53.075 14.356C54.1566 13.4904 55.2121 12.6635 56.5204 12.3165Z" fill="#DE813B"/>
<path d="M64.9219 6.87044L69.4818 6.12295L67.2784 10.3658L69.3742 14.67L64.8188 13.7863L61.5395 17.2111L60.9443 12.4207L56.8391 10.2338L61.0171 8.1479L61.7328 3.39225L64.9219 6.87044Z" fill="#F4D43B"/>
<path d="M68.5332 21.8293L71.5696 23.8958L68.1446 25.1598L67.1924 28.8174L64.9876 25.7997L61.3501 25.9925L63.4236 22.8776L62.1152 19.3311L65.6189 20.4103L68.455 18.0258L68.5332 21.8293Z" fill="#F4D43B"/>
<path d="M25.0905 40.1438C25.088 40.2416 25.0796 40.3391 25.0652 40.4358C25.0513 40.5329 25.0314 40.629 25.0057 40.7242C24.9803 40.8194 24.9491 40.9134 24.9124 41.006C24.8753 41.0986 24.833 41.1895 24.7857 41.2783C24.7379 41.3676 24.6851 41.4544 24.6267 41.5391C24.5688 41.6238 24.5057 41.7057 24.4379 41.7856C24.3701 41.865 24.2976 41.9413 24.2204 42.0151C24.1431 42.0885 24.0619 42.1588 23.9763 42.2254C23.8908 42.2925 23.8016 42.3556 23.7085 42.4151C23.6149 42.475 23.5186 42.5306 23.4186 42.5823C23.3187 42.6339 23.2159 42.6813 23.1102 42.7247C23.0046 42.7681 22.8965 42.8068 22.7863 42.8413C22.6757 42.8757 22.5634 42.9058 22.4493 42.9309C22.3353 42.9564 22.2199 42.9772 22.1031 42.993C21.9864 43.0091 21.869 43.0203 21.751 43.0268C21.6327 43.0333 21.5144 43.0347 21.396 43.0316C21.2775 43.0285 21.1595 43.0207 21.042 43.008C20.9242 42.9952 20.8075 42.9779 20.6918 42.9555C20.576 42.9336 20.4618 42.9067 20.3492 42.8752C20.2367 42.8441 20.1261 42.8081 20.0178 42.7678C19.9091 42.7276 19.8032 42.6832 19.6999 42.6342C19.5966 42.5853 19.4964 42.5326 19.3993 42.4757C19.3022 42.4188 19.2088 42.3582 19.1189 42.2934C19.029 42.229 18.9428 42.1613 18.8608 42.0898C18.7788 42.0187 18.7013 41.9442 18.628 41.8668C18.555 41.789 18.4865 41.709 18.4226 41.626C18.359 41.5427 18.3002 41.4576 18.2467 41.3699C18.1932 41.2822 18.145 41.1927 18.1019 41.1011C18.0588 41.0098 18.0213 40.9168 17.9894 40.8224C17.9575 40.7279 17.9312 40.6325 17.9104 40.5361C17.8896 40.4396 17.8748 40.3425 17.8659 40.2449C17.8569 40.1476 17.8536 40.0497 17.8561 39.9519C17.8586 39.8542 17.867 39.757 17.881 39.6599C17.8949 39.5632 17.9148 39.4671 17.9405 39.3719C17.9662 39.2767 17.9975 39.1828 18.0342 39.0902C18.071 38.9975 18.1132 38.9066 18.1609 38.8174C18.2087 38.7285 18.2615 38.6414 18.3195 38.557C18.3774 38.4723 18.4405 38.39 18.5083 38.3106C18.5765 38.2311 18.649 38.1545 18.7259 38.081C18.8031 38.0076 18.8843 37.9373 18.9699 37.8703C19.0555 37.8032 19.145 37.7401 19.2381 37.6806C19.3313 37.6211 19.4276 37.5655 19.5276 37.5138C19.6275 37.4622 19.7303 37.4145 19.836 37.3714C19.9416 37.328 20.0497 37.2893 20.1603 37.2545C20.2705 37.22 20.3828 37.1903 20.4969 37.1648C20.6109 37.1393 20.7263 37.1189 20.8431 37.1028C20.9598 37.087 21.0772 37.0755 21.1956 37.0694C21.3135 37.0629 21.4318 37.061 21.5503 37.0641C21.6687 37.0673 21.7867 37.0754 21.9046 37.0882C22.0221 37.1005 22.1387 37.1182 22.2545 37.1402C22.3702 37.1625 22.4844 37.189 22.597 37.2205C22.7096 37.252 22.8202 37.2877 22.9288 37.3279C23.0371 37.3685 23.1431 37.4129 23.2463 37.4619C23.3496 37.5104 23.4498 37.5635 23.5469 37.6204C23.6441 37.6773 23.7374 37.7379 23.8277 37.8023C23.9176 37.8667 24.0034 37.9345 24.0854 38.006C24.1674 38.0774 24.2449 38.1519 24.3182 38.2293C24.3916 38.3068 24.46 38.3871 24.5236 38.4701C24.5872 38.553 24.646 38.6385 24.6995 38.7262C24.7534 38.8135 24.8016 38.9034 24.8447 38.9946C24.8874 39.0863 24.9249 39.1793 24.9572 39.2738C24.9891 39.3682 25.0154 39.4636 25.0358 39.5601C25.0566 39.6565 25.0714 39.7536 25.0804 39.8508C25.0897 39.9485 25.093 40.046 25.0905 40.1438Z" fill="#F5A3BF"/>
<path d="M58.376 41.0266C58.3735 41.1243 58.3651 41.2219 58.3511 41.3186C58.3368 41.4157 58.317 41.5118 58.2916 41.607C58.2659 41.7022 58.2346 41.7961 58.1979 41.8887C58.1611 41.9814 58.1189 42.0723 58.0712 42.1611C58.0234 42.2504 57.9706 42.3371 57.9126 42.4219C57.8543 42.5066 57.7916 42.5885 57.7234 42.6683C57.6556 42.7478 57.5831 42.8241 57.5059 42.8979C57.429 42.9713 57.3474 43.0416 57.2622 43.1082C57.1766 43.1753 57.0871 43.2384 56.994 43.2979C56.9008 43.3578 56.8041 43.4134 56.7042 43.4651C56.6046 43.5167 56.5018 43.5641 56.3958 43.6075C56.2901 43.6509 56.1824 43.6896 56.0718 43.724C55.9612 43.7585 55.8493 43.7886 55.7349 43.8137C55.6208 43.8392 55.5054 43.86 55.389 43.8758C55.2723 43.8919 55.1549 43.9031 55.0366 43.9095C54.9186 43.916 54.8003 43.9175 54.6819 43.9144C54.5634 43.9112 54.445 43.9035 54.3275 43.8907C54.2101 43.878 54.093 43.8606 53.9777 43.8383C53.8619 43.8164 53.7477 43.7895 53.6351 43.758C53.5222 43.7269 53.4119 43.6908 53.3033 43.6506C53.195 43.6104 53.0891 43.566 52.9858 43.517C52.8825 43.4681 52.7823 43.4154 52.6852 43.3585C52.588 43.3016 52.4943 43.241 52.4044 43.1762C52.3145 43.1118 52.2287 43.0441 52.1467 42.9726C52.0647 42.9015 51.9868 42.827 51.9139 42.7496C51.8405 42.6718 51.7721 42.5918 51.7085 42.5088C51.6445 42.4255 51.5861 42.3404 51.5323 42.2527C51.4788 42.165 51.4305 42.0755 51.3874 41.9839C51.3444 41.8926 51.3069 41.7996 51.275 41.7051C51.2431 41.6107 51.2167 41.5153 51.1959 41.4188C51.1755 41.3224 51.1607 41.2253 51.1514 41.1277C51.1425 41.0304 51.1391 40.9325 51.1416 40.8347C51.1441 40.737 51.1526 40.6398 51.1665 40.5427C51.1808 40.446 51.2007 40.3499 51.226 40.2547C51.2518 40.1595 51.283 40.0655 51.3197 39.9729C51.3565 39.8803 51.3987 39.7894 51.4465 39.7002C51.4942 39.6113 51.547 39.5241 51.605 39.4398C51.6633 39.3551 51.7264 39.2728 51.7942 39.1933C51.862 39.1139 51.9345 39.0372 52.0118 38.9638C52.0886 38.8904 52.1702 38.8201 52.2558 38.7531C52.3414 38.686 52.4305 38.6229 52.5237 38.5634C52.6168 38.5039 52.7135 38.4483 52.8135 38.3966C52.9134 38.345 53.0162 38.2972 53.1219 38.2542C53.2275 38.2108 53.3356 38.1721 53.4458 38.1373C53.5564 38.1028 53.6684 38.0731 53.7828 38.0476C53.8968 38.0221 54.0122 38.0017 54.129 37.9855C54.2454 37.9698 54.3631 37.9583 54.4811 37.9521C54.5991 37.9456 54.7177 37.9438 54.8362 37.9469C54.9546 37.9501 55.0726 37.9582 55.1901 37.9709C55.308 37.9833 55.4246 38.001 55.5404 38.023C55.6558 38.0453 55.7699 38.0718 55.8825 38.1033C55.9954 38.1348 56.1057 38.1705 56.2143 38.2107C56.323 38.2513 56.4286 38.2957 56.5318 38.3447C56.6355 38.3932 56.7357 38.4463 56.8324 38.5032C56.9296 38.5601 57.0233 38.6207 57.1132 38.6851C57.2032 38.7495 57.2893 38.8173 57.3713 38.8887C57.4529 38.9602 57.5308 39.0347 57.6038 39.1121C57.6771 39.1895 57.7456 39.2699 57.8092 39.3529C57.8731 39.4358 57.9315 39.5213 57.9854 39.609C58.0389 39.6963 58.0872 39.7862 58.1302 39.8774C58.1733 39.9691 58.2108 40.0621 58.2427 40.1565C58.2746 40.251 58.3009 40.3464 58.3217 40.4428C58.3421 40.5393 58.357 40.6363 58.3663 40.7336C58.3752 40.8313 58.3786 40.9288 58.376 41.0266Z" fill="#F5A3BF"/>
<path d="M59.56 28.4047C59.5549 28.6018 59.5498 28.7988 59.5447 28.9962C59.466 29.1124 59.3994 29.2423 59.3082 29.3581C59.2309 29.435 59.1413 29.4719 59.0513 29.5354C58.4345 29.9796 58.1777 30.6568 57.9449 31.3608C57.835 31.7129 57.7501 32.0657 57.6402 32.4183C57.501 32.9141 57.3626 33.3972 57.2109 33.893C57.0732 34.3496 56.9344 34.8327 56.7841 35.2889C56.6056 35.8499 56.3524 36.3693 56.0372 36.8477C55.5632 37.6242 54.942 38.2393 54.2101 38.7329C53.6839 39.0871 53.1349 39.3487 52.5493 39.5569C52.015 39.7399 51.4562 39.8961 50.9119 39.9606C50.3928 40.0389 49.8751 40.0648 49.3584 40.0511C48.7409 40.0347 48.137 39.979 47.5355 39.8317C47.0089 39.6992 46.4956 39.5542 45.9958 39.37C45.4713 39.172 44.9733 38.9219 44.502 38.6198C43.9314 38.2496 43.4137 37.7888 42.9733 37.251C42.4359 36.579 41.9881 35.8439 41.6176 35.0577C41.2709 34.3252 41.0131 33.5555 40.7682 32.7861C40.6175 32.2691 40.4921 31.7659 40.3289 31.2486C40.2128 30.8512 40.0327 30.5044 39.7762 30.1818C39.6415 30.0204 39.4702 29.8187 39.2555 29.8391C38.8137 29.8405 38.376 29.6976 37.9201 29.7775C37.6035 29.8215 37.3857 29.9605 37.2147 30.2321C36.8591 30.8146 36.6904 31.481 36.497 32.1337C36.3739 32.5117 36.3012 32.8783 36.1655 33.2429C36.0033 33.6726 35.7906 34.0879 35.5785 34.4901C35.2612 35.047 34.9189 35.6037 34.5646 36.1334C34.1717 36.7018 33.7171 37.2158 33.2132 37.6762C32.8258 38.034 32.4142 38.3389 31.966 38.6032C31.5433 38.855 31.0842 39.0535 30.6018 39.172C30.0945 39.2772 29.6121 39.3957 29.1058 39.4612C28.7014 39.5032 28.2845 39.5315 27.8688 39.5073C27.1883 39.4893 26.5212 39.4319 25.8417 39.3746C25.6781 39.3572 25.5024 39.3264 25.3395 39.2824C24.9263 39.1663 24.5131 39.0633 24.1005 38.9206C23.7629 38.8065 23.4508 38.68 23.1393 38.527C22.6915 38.2913 22.244 38.043 21.8494 37.6906C21.4545 37.3512 21.1115 36.9605 20.8965 36.4945C20.6692 36.0279 20.5053 35.5372 20.3157 35.0585C20.163 34.6204 20.0229 34.1827 19.8706 33.7446C19.7417 33.3595 19.6257 32.9621 19.5093 32.5905C19.4052 32.2326 19.3132 31.8751 19.2345 31.5049C19.1538 31.2131 19.1111 30.9228 19.0303 30.6314C18.9618 30.3531 18.9059 30.0755 18.8119 29.8099C18.6114 29.2655 18.206 28.86 17.8766 28.4303C17.6323 28.1215 17.4013 27.7865 17.3999 27.3524C17.4009 27.3128 17.3639 27.2725 17.3524 27.2326C17.3687 26.6018 17.3844 25.9972 17.4003 25.3791C17.5018 25.3556 17.5903 25.3449 17.6921 25.3083C17.9961 25.2636 18.313 25.2062 18.6295 25.1487C18.9085 25.1037 19.1873 25.0453 19.4659 24.9999C19.6939 24.9667 19.9219 24.9199 20.1502 24.8736C20.4037 24.8276 20.6452 24.755 20.8987 24.7094C21.1647 24.6637 21.4181 24.6176 21.6841 24.5723C22.0007 24.528 22.3175 24.4574 22.6341 24.4134C22.9381 24.3687 23.2543 24.3244 23.558 24.2931C24.0893 24.2283 24.608 24.1631 25.138 24.151C26.4629 24.1333 27.7725 24.2073 29.0784 24.4395C29.8312 24.5777 30.5603 24.676 31.3138 24.8011C31.4523 24.8183 31.6026 24.8485 31.7403 24.8914C32.1159 24.9934 32.5047 25.0827 32.8806 25.1716C33.1313 25.231 33.3821 25.29 33.6328 25.3494C34.0711 25.4662 34.5217 25.6098 34.9729 25.7139C35.4618 25.832 35.9511 25.937 36.4532 26.0292C37.0055 26.1228 37.5718 26.1775 38.1509 26.206C38.6045 26.2311 39.0839 26.2176 39.5386 26.2031C40.018 26.1896 40.4858 26.1493 40.9534 26.1093C41.5227 26.0455 42.1049 25.9689 42.6745 25.8784C43.0291 25.8355 43.384 25.7659 43.7385 25.7095C44.182 25.6292 44.6254 25.5489 45.0688 25.4686C45.4617 25.4001 45.8668 25.345 46.2594 25.2765C46.3988 25.254 46.525 25.2442 46.6648 25.2083C46.9814 25.1643 47.3112 25.0941 47.6274 25.0497C48.0196 25.0077 48.4247 24.9526 48.8287 24.9237C49.2332 24.8951 49.6254 24.8528 50.0291 24.8373C50.269 24.8305 50.5218 24.8107 50.7484 24.8302C51.2777 24.8442 51.794 24.871 52.3226 24.9112C52.7505 24.9487 53.1888 25.0659 53.616 25.1296C54.1181 25.2218 54.6334 25.2883 55.1223 25.4064C55.5485 25.5097 55.9868 25.6265 56.4123 25.7564C56.7756 25.8581 57.1264 25.9463 57.4762 26.0738C57.9763 26.245 58.452 26.3758 58.967 26.4684C59.08 26.4845 59.1797 26.5268 59.2666 26.5819C59.4416 26.6389 59.5122 26.838 59.6092 26.9853C59.6048 27.1562 59.6001 27.3402 59.5953 27.5245C59.4745 27.8105 59.4792 28.113 59.56 28.4047Z" fill="black"/>
<path d="M59.56 28.4047C59.4796 28.0999 59.4745 27.8105 59.5835 27.4976C59.5753 27.8132 59.5675 28.1153 59.56 28.4047Z" fill="black"/>
<path d="M33.8802 48.4662C29.8597 48.3596 28.2951 44.9772 28.0506 43.2081C27.9861 42.7724 28.2867 42.3725 28.7051 42.2915C29.1231 42.2237 29.5057 42.5365 29.5831 42.9595C29.6038 43.1311 30.2038 46.7639 33.9467 46.8632C36.9212 46.9421 37.5819 43.3426 37.6107 43.1986C37.6976 42.7669 38.0837 42.4748 38.5106 42.5516C38.9245 42.6415 39.2043 43.0306 39.1297 43.4757C38.807 45.2298 37.3211 48.5575 33.8802 48.4662Z" fill="black"/>
<path d="M43.7738 48.7286C39.7534 48.622 38.1888 45.2396 37.9442 43.4705C37.8798 43.0347 38.1804 42.6349 38.5988 42.5539C39.0168 42.4861 39.3994 42.7989 39.4768 43.2219C39.4978 43.3804 40.0975 47.0263 43.8408 47.1256C46.8148 47.2045 47.4756 43.605 47.5044 43.461C47.5913 43.0293 47.9774 42.7372 48.4042 42.814C48.831 42.8912 49.098 43.293 49.0234 43.7381C48.6881 45.4919 47.2148 48.8199 43.7738 48.7286Z" fill="black"/>
<path d="M60.6105 17.0417C60.56 17.0404 60.4976 17.0256 60.4474 17.0112C60.235 16.9266 60.101 16.7521 60.0684 16.5409L59.5159 12.067L55.6591 10.018C55.4728 9.90794 55.3514 9.72064 55.3575 9.48395C55.3633 9.26074 55.4817 9.06632 55.6737 8.96628L59.5833 7.01808L60.2661 2.56388C60.297 2.34133 60.4402 2.16104 60.6563 2.10092C60.8724 2.0277 61.0726 2.09887 61.2199 2.26067L64.1999 5.53576L68.481 4.82053C68.6964 4.78696 68.8959 4.8712 69.0174 5.05851C69.1385 5.2458 69.1449 5.48282 69.0519 5.66443L66.9951 9.6216L68.9593 13.6461C69.0553 13.8328 69.0363 14.0822 68.9182 14.2501C68.788 14.4176 68.5708 14.517 68.3703 14.4724L64.1161 13.649L61.0567 16.8564C60.9149 16.9708 60.7744 17.046 60.6105 17.0417ZM57.1604 9.50558L60.2708 11.1532C60.4323 11.2495 60.5416 11.4103 60.5623 11.5949L61.011 15.2111L63.4864 12.6329C63.6164 12.4916 63.7942 12.4435 63.9825 12.4751L67.4214 13.1317L65.8279 9.88026C65.7441 9.70704 65.7493 9.50962 65.8419 9.34108L67.5143 6.12353L64.056 6.70268C63.8789 6.72417 63.6913 6.66682 63.5559 6.53152L61.1397 3.8895L60.6306 7.47988C60.6008 7.66317 60.483 7.83104 60.3297 7.90592L57.1604 9.50558Z" fill="black"/>
<path d="M67.1717 28.146C67.0078 28.1416 66.8585 28.0591 66.749 27.9114L64.7144 25.1347L61.3803 25.3093C61.1659 25.3167 60.9671 25.2063 60.8711 25.0066C60.7625 24.8192 60.7812 24.5833 60.8996 24.402L62.8024 21.5325L61.6127 18.2783C61.5296 18.0789 61.5863 17.8436 61.7291 17.6764C61.872 17.5223 62.101 17.4498 62.2883 17.5202L65.491 18.526L68.095 16.3329C68.2626 16.1925 68.4903 16.1724 68.6773 16.2559C68.8638 16.3533 68.9853 16.5406 69.0043 16.7779L69.0781 20.2652L71.8665 22.1676C72.0399 22.2905 72.1356 22.5036 72.1173 22.7265C72.0986 22.9498 71.9554 23.1301 71.7386 23.2164L68.5809 24.3823L67.6993 27.7391C67.6433 27.9613 67.4754 28.1148 67.2721 28.1621C67.2599 28.1483 67.2097 28.147 67.1717 28.146ZM64.9968 23.9715C65.1606 23.9758 65.335 24.0594 65.4195 24.2064L66.9424 26.2856L67.613 23.7647C67.6554 23.5818 67.7853 23.4404 67.9763 23.3665L70.3449 22.4954L68.2502 21.072C68.1016 20.9629 68.0053 20.7893 67.9975 20.6051L67.9389 17.9859L65.9921 19.6311C65.8499 19.7586 65.6474 19.7929 65.4848 19.7358L63.0824 18.9882L63.9777 21.4454C64.0489 21.6183 64.018 21.8278 63.9257 21.9832L62.5078 24.1423L65.0212 24.0118C64.9717 23.9708 64.9842 23.9711 64.9968 23.9715Z" fill="black"/>
<path d="M22.9123 23.8944C22.799 23.8913 22.6864 23.8622 22.5744 23.7934C22.2389 23.6004 22.112 23.1499 22.3227 22.8004C22.415 22.645 23.1686 21.297 24.214 20.8776C25.1955 20.4693 26.1756 20.6008 26.2635 20.6162C26.6408 20.6655 26.9085 21.0411 26.8606 21.4342C26.8124 21.8277 26.4521 22.1073 26.0752 22.0581C26.0752 22.0581 25.3712 21.9604 24.7208 22.2455C24.2621 22.4309 23.7246 23.2057 23.539 23.5559C23.4077 23.7631 23.1644 23.901 22.9123 23.8944Z" fill="black"/>
<path d="M53.1397 24.5381C52.9127 24.5321 52.7139 24.4217 52.5802 24.221C52.338 23.8329 51.7755 23.1475 51.3256 22.9908C50.6627 22.776 49.9654 22.915 49.9529 22.9147C49.5722 22.9967 49.2007 22.7373 49.1352 22.3408C49.0572 21.944 49.307 21.5562 49.6869 21.4874C49.8013 21.4638 50.7645 21.2791 51.7647 21.6214C52.8273 21.9785 53.6635 23.2896 53.748 23.4363C53.9665 23.771 53.8664 24.2289 53.5454 24.4438C53.4179 24.5062 53.2781 24.5418 53.1397 24.5381Z" fill="black"/>
<path d="M36.8913 54.9255C35.7446 54.895 34.5479 54.8371 33.1002 54.7329C31.262 54.6052 29.4777 54.3476 27.7844 53.9869C25.5147 53.4927 23.5398 52.7956 21.7349 51.8797C19.6063 50.7973 17.8872 49.4758 16.4908 47.8737C15.1066 46.2846 13.9817 44.4397 13.1512 42.4055C12.4988 40.8096 12.1124 39.1684 11.991 37.5211C11.9833 37.3365 11.9629 37.1518 11.9551 36.9676L11.9371 36.6779L12.0092 34.8778L12.0366 34.7861C12.037 34.773 12.0499 34.7603 12.0502 34.7472C12.1625 33.8163 12.3502 32.9005 12.6257 32.0004C13.4927 29.1952 15.0084 26.6705 17.1463 24.4782C17.167 24.1629 17.1877 23.8481 17.2084 23.5328C17.2505 22.8892 17.2801 22.2326 17.3601 21.5639C17.5288 19.9239 17.7067 18.4163 17.9083 16.9482C18.0647 15.782 18.3063 14.7228 18.6348 13.7318C18.7994 13.2232 19.0162 12.637 19.4329 12.1351C19.7589 11.7232 20.218 11.5247 20.7215 11.5642C21.2501 11.6048 21.6993 11.7877 22.0725 11.9948C23.0937 12.4956 24.0094 13.1773 24.8246 13.8436C27.0736 15.6262 29.1167 17.5875 30.6532 19.1278C30.8177 19.106 30.9955 19.058 31.1604 19.0231C31.9465 18.8729 32.7452 18.7096 33.5554 18.5867C34.6821 18.419 35.5931 18.3119 36.4396 18.2554C36.9957 18.2174 37.5884 18.2069 38.2188 18.2236C38.9751 18.2437 39.7052 18.2892 40.2585 18.3566C41.7056 18.4871 43.2642 18.6863 45.0104 18.9564C45.1787 18.7898 45.3599 18.6102 45.5411 18.4309C45.7226 18.2385 45.9292 18.0468 46.1108 17.8541C47.4825 16.5095 49.1251 14.9352 50.9012 13.5485L50.9782 13.4982C52.0463 12.6715 53.1409 11.8059 54.5252 11.4348L54.6141 11.411L55.3194 11.4428L55.4677 11.5653C55.5046 11.5925 55.5545 11.62 55.5911 11.6607C55.7153 11.7429 55.8643 11.8389 55.999 11.9869C56.4159 12.4454 56.6286 13.0033 56.7925 13.4945C57.3196 15.0604 57.5808 16.659 57.7819 18.1505C58.0482 20.0516 58.2361 22.0561 58.3798 24.2958C60.3961 26.3091 61.8739 28.6632 62.8027 31.2793C63.7658 34.0272 63.9323 36.8599 63.2912 39.697C62.9339 41.3315 62.2865 42.9457 61.3612 44.5914C59.9728 47.0801 58.1677 49.0841 55.9854 50.5652C54.0338 51.8944 51.801 52.9008 49.1844 53.6074C46.2246 54.4363 42.9851 54.8502 39.2378 54.9087C38.4924 54.9548 37.7107 54.9472 36.8913 54.9255ZM13.1867 36.6451L13.1935 36.8691C13.2013 37.0534 13.2216 37.2511 13.2298 37.4223C13.3294 38.9246 13.6819 40.4201 14.2875 41.883C15.0701 43.7977 16.1106 45.509 17.4218 46.9907C18.7331 48.4723 20.3028 49.6978 22.2951 50.6976C24.0002 51.5716 25.8883 52.2136 28.0576 52.6921C29.6878 53.0507 31.4093 53.307 33.1973 53.4203C34.6199 53.5104 35.8036 53.5814 36.9253 53.6112C37.7321 53.6326 38.5013 53.6395 39.2327 53.6327C42.8539 53.584 46.0051 53.168 48.8632 52.3754C51.3529 51.692 53.4456 50.7478 55.294 49.4947C57.3352 48.1151 58.9584 46.3034 60.2677 43.9574C61.1275 42.4151 61.7081 40.9309 62.0624 39.4275C62.6461 36.852 62.4853 34.2829 61.6169 31.7739C60.76 29.3046 59.3416 27.0968 57.4234 25.1913C57.2636 25.0291 57.1438 24.7891 57.1374 24.539C57.0065 22.2865 56.8068 20.2555 56.5405 18.3675C56.338 16.9284 56.0999 15.4094 55.5951 13.9495C55.4666 13.5644 55.3255 13.1659 55.0673 12.9092C55.0303 12.8689 54.956 12.8142 54.8942 12.7732L54.7304 12.7689C53.6121 13.0943 52.6855 13.8065 51.707 14.5827L51.63 14.6334C49.905 15.9818 48.2893 17.504 46.9555 18.837C46.7743 19.0162 46.5674 19.221 46.3862 19.4003C46.1531 19.631 45.9332 19.8489 45.7001 20.0795C45.5447 20.2329 45.3158 20.3189 45.0888 20.3129C45.0511 20.3119 45.0131 20.3109 44.9758 20.2968C43.1674 19.9858 41.5837 19.7859 40.1241 19.6552C39.5826 19.6146 38.8783 19.5432 38.1471 19.5238C37.5422 19.5077 36.9872 19.5196 36.4691 19.5582C35.6602 19.6157 34.7751 19.7109 33.6856 19.8922C32.9005 20.0162 32.1025 20.1529 31.3419 20.3038C31.1139 20.337 30.8981 20.3971 30.6826 20.4307C30.3658 20.5012 30.0781 20.4016 29.8568 20.1723C28.3325 18.6454 26.3031 16.6579 24.0286 14.8746C23.2497 14.262 22.4212 13.6219 21.4997 13.1635C21.2259 13.0245 20.927 12.8852 20.5996 12.8635L20.5742 12.8628C20.4859 12.8605 20.4354 12.8722 20.3445 12.9749C20.0713 13.2966 19.921 13.7397 19.7843 14.157C19.4829 15.0698 19.2559 16.0501 19.1015 17.1378C18.8999 18.6059 18.7353 20.0876 18.5673 21.7141C18.513 22.3443 18.4587 22.9871 18.4166 23.6307C18.3945 23.9983 18.3731 24.3397 18.351 24.7073C18.3324 24.9436 18.2255 25.1776 18.0698 25.3445C16.0493 27.3956 14.6127 29.7906 13.7881 32.4125C13.5272 33.2344 13.3537 34.0847 13.2682 34.9505C13.2668 35.0032 13.2526 35.0683 13.239 35.1076L13.1867 36.6451Z" fill="black"/>
<path d="M13.5474 35.3788C13.4718 35.3768 13.4215 35.3624 13.3591 35.3477L10.5744 34.274C10.2371 34.1469 10.0831 33.7611 10.2049 33.4355C10.3274 33.0837 10.6976 32.9225 11.0094 33.049L13.7941 34.1226C14.1314 34.2501 14.2854 34.6355 14.1636 34.9612C14.0557 35.2344 13.8121 35.3859 13.5474 35.3788Z" fill="black"/>
<path d="M10.5195 38.3371C10.2298 38.3294 9.97129 38.0857 9.92855 37.7819C9.88753 37.4257 10.1104 37.0896 10.4521 37.0459L13.3899 36.5847C13.7316 36.5414 14.0535 36.7733 14.0949 37.1294C14.1359 37.4856 13.913 37.8221 13.5714 37.8654L10.6336 38.3266C10.6077 38.3394 10.5701 38.3384 10.5195 38.3371Z" fill="black"/>
<path d="M62.0717 35.6529C61.807 35.6459 61.5723 35.4556 61.5037 35.1776C61.4122 34.8201 61.6103 34.4699 61.9408 34.3736L64.7992 33.5682C65.1422 33.4722 65.4774 33.6783 65.5694 34.0227C65.6609 34.3802 65.4628 34.73 65.1323 34.8264L62.2739 35.6321C62.1975 35.6562 62.1219 35.6542 62.0717 35.6529Z" fill="black"/>
<path d="M64.8004 38.8951C64.7624 38.8941 64.7122 38.8928 64.6745 38.8787L61.793 38.1314C61.4548 38.0435 61.2495 37.6961 61.3347 37.3302C61.4192 36.9773 61.7527 36.7624 62.1035 36.8507L64.985 37.598C65.3232 37.6859 65.5288 38.0333 65.4436 38.3992C65.3602 38.6997 65.0901 38.9028 64.8004 38.8951Z" fill="black"/>
</g>
<defs>
<clipPath id="clip0_202_115">
<rect width="72.5906" height="56.7672" fill="white" transform="matrix(0.999649 0.0265117 -0.0258464 0.999666 2.27429 0.473633)"/>
</clipPath>
</defs>
</svg>
