<svg width="150" height="45" viewBox="0 0 150 45" fill="none" xmlns="http://www.w3.org/2000/svg">
<g clip-path="url(#clip0_202_57)">
<path d="M37.8496 9.05989C37.9437 9.06277 38.0466 9.06593 38.1407 9.07879C38.2415 9.16201 38.3516 9.22555 38.4352 9.32849C38.6604 9.60601 38.7813 9.95047 38.8849 10.3047C39.2285 11.4179 39.3995 12.596 39.5447 13.7733C39.7494 15.3533 39.868 16.9407 39.9614 18.5275C39.96 18.5877 39.9928 18.6488 40.0265 18.6798C41.3566 20.1541 42.364 21.879 42.9881 23.8831C43.6119 25.8869 43.7207 27.9254 43.3056 30.0077C43.0455 31.2829 42.6074 32.4722 42.0419 33.5978C41.1621 35.3752 40.0057 36.8534 38.5228 37.9907C37.1362 39.0409 35.6197 39.7564 34.0312 40.2489C31.8556 40.9238 29.6206 41.1761 27.3818 41.2178C26.001 41.2456 24.6139 41.1629 23.2358 41.0608C22.0461 40.9641 20.8584 40.7871 19.6903 40.501C18.309 40.1578 16.9481 39.6649 15.6785 38.9342C14.3746 38.1928 13.2042 37.2447 12.2375 35.992C11.304 34.8006 10.5798 33.445 10.0387 31.955C9.61839 30.8092 9.36183 29.6285 9.28699 28.3832C9.27416 28.1824 9.2618 27.9716 9.24069 27.7705C9.25863 27.3498 9.2768 26.9192 9.28621 26.4986C9.29541 26.469 9.30461 26.439 9.30528 26.4091C9.3724 25.7094 9.49882 25.0415 9.6852 24.3756C10.2823 22.2085 11.3092 20.3757 12.6911 18.7842C12.7261 18.745 12.7535 18.6757 12.7634 18.6158C12.806 17.8552 12.8316 17.0944 12.9088 16.3248C13.0123 15.1552 13.1326 13.986 13.2785 12.8276C13.374 12.0184 13.5201 11.2311 13.7514 10.4762C13.8626 10.0987 13.9822 9.73164 14.2122 9.4179C14.3449 9.23148 14.51 9.13617 14.7326 9.15297C15.0066 9.17165 15.2611 9.28951 15.4895 9.42683C16.133 9.78761 16.7224 10.2767 17.2857 10.7751C18.6982 12.0214 20.0131 13.4151 21.2837 14.8673C21.3421 14.9392 21.3933 14.951 21.4706 14.9431C22.1599 14.794 22.8406 14.6444 23.5292 14.5252C24.1662 14.4144 24.8112 14.3238 25.4553 14.2734C26.2969 14.2091 27.1533 14.2553 27.9917 14.3412C29.1039 14.4455 30.2231 14.6201 31.3243 14.8343C31.3584 14.8454 31.4188 14.8273 31.4451 14.7978C31.7265 14.4857 32.0082 14.1635 32.2896 13.8514C33.3179 12.7203 34.3631 11.5995 35.5085 10.6121C36.2433 9.95308 36.9604 9.32349 37.8496 9.05989Z" fill="#DE813B"/>
<path d="M43.5579 4.91455L46.6574 4.34774L45.1617 7.58L46.5888 10.8617L43.4915 10.1853L41.2642 12.7934L40.857 9.14211L38.0652 7.47278L40.9042 5.88569L41.3882 2.2617L43.5579 4.91455Z" fill="#FFB1AF"/>
<path d="M46.0208 16.3175L48.0861 17.8944L45.7584 18.8556L45.1131 21.6425L43.6126 19.3413L41.1401 19.4859L42.5479 17.1132L41.6566 14.4094L44.0389 15.2341L45.9656 13.4186L46.0208 16.3175Z" fill="#FFB1AF"/>
<path d="M16.4986 30.2483C16.497 30.3228 16.4913 30.3971 16.4816 30.4708C16.4722 30.5448 16.4587 30.618 16.4413 30.6906C16.4241 30.7631 16.4029 30.8347 16.378 30.9052C16.3528 30.9758 16.3242 31.045 16.292 31.1127C16.2596 31.1807 16.2237 31.2468 16.1841 31.3114C16.1448 31.3759 16.1019 31.4383 16.0559 31.4991C16.0098 31.5596 15.9606 31.6177 15.9081 31.6739C15.8556 31.7298 15.8005 31.7833 15.7423 31.834C15.6842 31.8851 15.6236 31.9331 15.5603 31.9784C15.4968 32.024 15.4313 32.0664 15.3634 32.1057C15.2955 32.145 15.2256 32.181 15.1538 32.214C15.0821 32.247 15.0086 32.2765 14.9337 32.3026C14.8585 32.3288 14.7822 32.3517 14.7047 32.3707C14.6272 32.3901 14.5487 32.4059 14.4694 32.4178C14.39 32.4301 14.3102 32.4385 14.23 32.4434C14.1496 32.4482 14.0692 32.4493 13.9887 32.4468C13.9081 32.4444 13.8279 32.4384 13.748 32.4286C13.6679 32.4188 13.5886 32.4055 13.5099 32.3884C13.4312 32.3716 13.3536 32.351 13.277 32.327C13.2005 32.3032 13.1253 32.2757 13.0516 32.2449C12.9778 32.2142 12.9057 32.1803 12.8355 32.1429C12.7653 32.1055 12.6971 32.0653 12.631 32.0219C12.565 31.9785 12.5015 31.9322 12.4403 31.8828C12.3792 31.8337 12.3206 31.782 12.2648 31.7274C12.209 31.6732 12.1563 31.6164 12.1064 31.5573C12.0567 31.498 12.0102 31.437 11.9666 31.3737C11.9234 31.3102 11.8834 31.2452 11.847 31.1784C11.8105 31.1115 11.7777 31.0433 11.7484 30.9734C11.719 30.9039 11.6935 30.8329 11.6718 30.7609C11.65 30.689 11.6321 30.6162 11.6179 30.5427C11.6037 30.4692 11.5936 30.3952 11.5875 30.3207C11.5813 30.2466 11.579 30.172 11.5806 30.0975C11.5823 30.023 11.588 29.9489 11.5974 29.8749C11.6069 29.8013 11.6203 29.728 11.6377 29.6555C11.6552 29.5829 11.6764 29.5114 11.7013 29.4408C11.7262 29.3702 11.7549 29.301 11.7873 29.233C11.8197 29.1653 11.8556 29.0989 11.8949 29.0347C11.9343 28.9701 11.9771 28.9074 12.0231 28.8469C12.0694 28.7864 12.1187 28.7281 12.1709 28.6721C12.2234 28.6162 12.2786 28.5627 12.3367 28.5117C12.3948 28.4606 12.4557 28.4126 12.5189 28.3673C12.5822 28.322 12.6477 28.2797 12.7156 28.2404C12.7835 28.2011 12.8534 28.1648 12.9252 28.132C12.997 28.099 13.0704 28.0696 13.1456 28.0431C13.2205 28.0169 13.2968 27.9943 13.3744 27.975C13.4519 27.9556 13.5303 27.9401 13.6097 27.9279C13.689 27.916 13.7688 27.9072 13.8493 27.9027C13.9295 27.8978 14.0098 27.8964 14.0904 27.8989C14.1709 27.9014 14.2511 27.9076 14.3312 27.9174C14.4111 27.9269 14.4904 27.9405 14.5691 27.9573C14.6478 27.9744 14.7255 27.9947 14.802 28.0188C14.8786 28.0428 14.9538 28.0701 15.0277 28.1008C15.1013 28.1318 15.1733 28.1657 15.2436 28.2031C15.3138 28.2402 15.3819 28.2807 15.448 28.3241C15.514 28.3675 15.5775 28.4138 15.639 28.4629C15.7001 28.5121 15.7585 28.5638 15.8143 28.6183C15.87 28.6728 15.9227 28.7296 15.9726 28.7887C16.0225 28.8477 16.0691 28.9091 16.1124 28.9723C16.1557 29.0356 16.1956 29.1008 16.2321 29.1676C16.2687 29.2342 16.3016 29.3027 16.3309 29.3723C16.36 29.4422 16.3855 29.5131 16.4075 29.5851C16.4293 29.6571 16.4472 29.7298 16.4611 29.8033C16.4753 29.8769 16.4855 29.9508 16.4916 30.025C16.498 30.0994 16.5003 30.1738 16.4986 30.2483Z" fill="#F5A3BF"/>
<path d="M39.1263 30.942C39.1246 31.0165 39.119 31.0909 39.1095 31.1646C39.0998 31.2385 39.0864 31.3118 39.0692 31.3843C39.0518 31.4569 39.0306 31.5284 39.0057 31.599C38.9807 31.6695 38.9521 31.7388 38.9197 31.8065C38.8873 31.8745 38.8514 31.9406 38.812 32.0051C38.7724 32.0697 38.7298 32.132 38.6835 32.1928C38.6375 32.2534 38.5882 32.3114 38.5358 32.3676C38.4835 32.4236 38.4281 32.477 38.3702 32.5278C38.3121 32.5789 38.2513 32.6269 38.188 32.6722C38.1247 32.7178 38.059 32.7601 37.9911 32.7994C37.9234 32.8387 37.8535 32.8747 37.7815 32.9077C37.7097 32.9408 37.6365 32.9702 37.5613 32.9964C37.4862 33.0226 37.4101 33.0455 37.3323 33.0645C37.2548 33.0838 37.1764 33.0996 37.0973 33.1116C37.0179 33.1238 36.9381 33.1322 36.8577 33.1371C36.7775 33.142 36.6971 33.1431 36.6166 33.1406C36.536 33.1381 36.4556 33.1321 36.3757 33.1223C36.2958 33.1126 36.2163 33.0993 36.1378 33.0822C36.0591 33.0654 35.9815 33.0448 35.9049 33.0207C35.8281 32.997 35.7532 32.9694 35.6793 32.9387C35.6057 32.908 35.5336 32.874 35.4634 32.8367C35.3932 32.7993 35.325 32.7591 35.259 32.7156C35.1929 32.6722 35.1291 32.626 35.068 32.5765C35.0068 32.5274 34.9485 32.4757 34.8927 32.4212C34.8369 32.3669 34.7839 32.3101 34.7343 32.2511C34.6844 32.1917 34.6378 32.1307 34.5945 32.0675C34.551 32.0039 34.5113 31.939 34.4746 31.8721C34.4382 31.8053 34.4053 31.7371 34.376 31.6672C34.3467 31.5976 34.3212 31.5267 34.2994 31.4547C34.2777 31.3827 34.2597 31.31 34.2455 31.2364C34.2316 31.1629 34.2215 31.089 34.2151 31.0145C34.209 30.9404 34.2066 30.8657 34.2083 30.7912C34.21 30.7167 34.2156 30.6427 34.2251 30.5687C34.2348 30.495 34.2482 30.4218 34.2654 30.3492C34.2828 30.2767 34.304 30.2051 34.3289 30.1346C34.3539 30.064 34.3825 29.9947 34.4149 29.9267C34.4473 29.8591 34.4832 29.7927 34.5226 29.7284C34.5622 29.6639 34.605 29.6012 34.651 29.5407C34.6971 29.4802 34.7464 29.4218 34.7988 29.3659C34.851 29.31 34.9065 29.2565 34.9646 29.2054C35.0227 29.1544 35.0833 29.1064 35.1466 29.061C35.2099 29.0157 35.2756 28.9734 35.3435 28.9341C35.4114 28.8948 35.4813 28.8585 35.5531 28.8258C35.6249 28.7928 35.6984 28.7633 35.7733 28.7369C35.8484 28.7107 35.9245 28.6881 36.0023 28.6687C36.0798 28.6494 36.1582 28.6339 36.2376 28.6217C36.3167 28.6097 36.3967 28.601 36.4769 28.5964C36.5571 28.5915 36.6377 28.5902 36.7183 28.5927C36.7988 28.5951 36.879 28.6014 36.9589 28.6112C37.039 28.6207 37.1183 28.6343 37.197 28.6511C37.2755 28.6682 37.3531 28.6884 37.4297 28.7125C37.5065 28.7366 37.5814 28.7638 37.6553 28.7946C37.7292 28.8256 37.801 28.8595 37.8712 28.8969C37.9417 28.934 38.0098 28.9745 38.0756 29.0179C38.1417 29.0613 38.2054 29.1076 38.2666 29.1567C38.3278 29.2058 38.3864 29.2575 38.4422 29.3121C38.4977 29.3666 38.5506 29.4234 38.6003 29.4824C38.6502 29.5415 38.6968 29.6028 38.7401 29.6661C38.7836 29.7293 38.8233 29.7945 38.86 29.8614C38.8964 29.928 38.9293 29.9965 38.9586 30.0661C38.9879 30.1359 39.0134 30.2069 39.0352 30.2788C39.0569 30.3508 39.0749 30.4236 39.089 30.4971C39.103 30.5706 39.1131 30.6446 39.1195 30.7187C39.1256 30.7932 39.128 30.8675 39.1263 30.942Z" fill="#F5A3BF"/>
<path d="M39.9244 21.3232C39.9211 21.4733 39.9177 21.6235 39.9144 21.774C39.8609 21.8624 39.8158 21.9614 39.7538 22.0496C39.7012 22.1082 39.6404 22.1363 39.5793 22.1846C39.1602 22.5228 38.986 23.0387 38.8281 23.5751C38.7535 23.8434 38.6961 24.1122 38.6215 24.3808C38.5272 24.7586 38.4333 25.1267 38.3305 25.5045C38.2371 25.8524 38.143 26.2205 38.0411 26.5681C37.92 26.9956 37.7482 27.3912 37.5342 27.7556C37.2124 28.3472 36.7904 28.8156 36.2931 29.1913C35.9356 29.4609 35.5626 29.6599 35.1646 29.8182C34.8014 29.9574 34.4217 30.076 34.0517 30.1249C33.6989 30.1842 33.347 30.2036 32.9957 30.1929C32.5759 30.18 32.1654 30.1372 31.7564 30.0245C31.3983 29.9232 31.0493 29.8124 30.7095 29.6716C30.3528 29.5204 30.0141 29.3295 29.6936 29.099C29.3055 28.8165 28.9533 28.4649 28.6537 28.0548C28.288 27.5423 27.9832 26.9818 27.7309 26.3823C27.4949 25.8239 27.3192 25.2371 27.1523 24.6505C27.0496 24.2565 26.964 23.8729 26.8528 23.4785C26.7737 23.1755 26.6511 22.9112 26.4766 22.6651C26.3849 22.542 26.2684 22.3881 26.1224 22.4036C25.8221 22.4044 25.5245 22.2952 25.2146 22.3558C24.9994 22.3891 24.8514 22.495 24.7353 22.7018C24.4939 23.1456 24.3796 23.6533 24.2484 24.1506C24.1649 24.4386 24.1157 24.718 24.0237 24.9958C23.9136 25.3232 23.7692 25.6395 23.6253 25.9459C23.4099 26.3702 23.1775 26.7942 22.937 27.1977C22.6702 27.6307 22.3614 28.0222 22.0191 28.3727C21.7559 28.6452 21.4763 28.8773 21.1718 29.0784C20.8845 29.27 20.5726 29.421 20.2446 29.5111C19.8999 29.5909 19.572 29.6809 19.2279 29.7305C18.953 29.7623 18.6696 29.7836 18.387 29.7649C17.9243 29.7507 17.4709 29.7066 17.0089 29.6625C16.8977 29.6491 16.7782 29.6255 16.6675 29.5919C16.3865 29.5031 16.1056 29.4244 15.825 29.3154C15.5955 29.2282 15.3832 29.1316 15.1714 29.0148C14.8669 28.8349 14.5625 28.6453 14.2941 28.3765C14.0255 28.1176 13.7921 27.8196 13.6457 27.4644C13.4909 27.1086 13.3793 26.7345 13.2501 26.3695C13.1461 26.0355 13.0506 25.7018 12.9468 25.3679C12.859 25.0743 12.7799 24.7714 12.7006 24.488C12.6296 24.2153 12.5669 23.9427 12.5132 23.6605C12.4582 23.4381 12.429 23.2168 12.374 22.9947C12.3273 22.7825 12.2891 22.5709 12.225 22.3685C12.0884 21.9534 11.8126 21.6441 11.5885 21.3164C11.4223 21.0809 11.265 20.8255 11.2639 20.4946C11.2646 20.4644 11.2394 20.4337 11.2315 20.4033C11.2423 19.9225 11.2526 19.4618 11.2631 18.9907C11.3321 18.9729 11.3923 18.9647 11.4614 18.9369C11.6681 18.903 11.8835 18.8595 12.0986 18.8159C12.2882 18.7818 12.4777 18.7374 12.6671 18.703C12.822 18.6778 12.977 18.6423 13.1322 18.6072C13.3045 18.5723 13.4686 18.5171 13.6409 18.4825C13.8217 18.4478 13.994 18.4129 14.1748 18.3785C14.3899 18.3449 14.6053 18.2913 14.8205 18.258C15.0271 18.2241 15.242 18.1905 15.4484 18.1669C15.8096 18.1178 16.1622 18.0685 16.5224 18.0596C17.4231 18.047 18.3134 18.1042 19.2012 18.282C19.7131 18.3878 20.2088 18.4631 20.7211 18.559C20.8152 18.5721 20.9174 18.5952 21.011 18.628C21.2664 18.706 21.5308 18.7743 21.7863 18.8423C21.9568 18.8877 22.1273 18.9329 22.2978 18.9783C22.5958 19.0676 22.9022 19.1773 23.209 19.2569C23.5414 19.3472 23.874 19.4276 24.2154 19.4982C24.5909 19.5699 24.9759 19.6119 25.3696 19.634C25.678 19.6534 26.0039 19.6434 26.3129 19.6326C26.6388 19.6227 26.9568 19.5922 27.2746 19.562C27.6616 19.5137 28.0573 19.4557 28.4445 19.3872C28.6855 19.3547 28.9268 19.3019 29.1677 19.2591C29.4691 19.1982 29.7705 19.1373 30.0719 19.0764C30.339 19.0244 30.6144 18.9826 30.8812 18.9306C30.9759 18.9136 31.0617 18.9062 31.1567 18.8789C31.3719 18.8456 31.5961 18.7923 31.811 18.7587C32.0776 18.727 32.3529 18.6852 32.6276 18.6634C32.9025 18.6419 33.1691 18.6099 33.4436 18.5983C33.6066 18.5933 33.7784 18.5783 33.9325 18.5933C34.2923 18.6044 34.6434 18.6251 35.0027 18.6561C35.2936 18.685 35.5916 18.7745 35.882 18.8233C36.2234 18.894 36.5738 18.9449 36.9062 19.0353C37.1959 19.1143 37.494 19.2035 37.7832 19.3028C38.0303 19.3805 38.2688 19.448 38.5067 19.5454C38.8467 19.6762 39.1701 19.7762 39.5203 19.8471C39.5971 19.8594 39.665 19.8917 39.724 19.9338C39.8431 19.9773 39.8911 20.1291 39.9572 20.2415C39.9543 20.3717 39.9511 20.5119 39.948 20.6524C39.866 20.8703 39.8694 21.1008 39.9244 21.3232Z" fill="black"/>
<path d="M39.9244 21.3232C39.8697 21.0908 39.8661 20.8703 39.9399 20.6319C39.9345 20.8724 39.9294 21.1026 39.9244 21.3232Z" fill="black"/>
<path d="M22.4782 36.5966C19.7451 36.5128 18.6797 33.934 18.5125 32.5855C18.4685 32.2534 18.6726 31.9488 18.9569 31.8874C19.2411 31.8359 19.5014 32.0746 19.5542 32.397C19.5683 32.5278 19.9782 35.2969 22.5226 35.3749C24.5446 35.4369 24.9919 32.6941 25.0114 32.5843C25.0702 32.2553 25.3326 32.033 25.6228 32.0918C25.9042 32.1606 26.0946 32.4573 26.0441 32.7965C25.8257 34.1331 24.8174 36.6683 22.4782 36.5966Z" fill="black"/>
<path d="M29.204 36.8028C26.4708 36.719 25.4055 34.1402 25.2383 32.7917C25.1942 32.4596 25.3984 32.155 25.6827 32.0936C25.9668 32.0421 26.2271 32.2808 26.2799 32.6032C26.2943 32.724 26.7039 35.5031 29.2486 35.5811C31.2704 35.6431 31.7177 32.9003 31.7372 32.7905C31.796 32.4615 32.0583 32.2392 32.3485 32.298C32.6387 32.3571 32.8204 32.6635 32.7699 33.0027C32.5429 34.3391 31.5432 36.8745 29.204 36.8028Z" fill="black"/>
<path d="M40.6326 12.6637C40.5982 12.6626 40.5558 12.6514 40.5216 12.6403C40.3772 12.5757 40.286 12.4426 40.2637 12.2817L39.8858 8.87166L37.2629 7.30759C37.1362 7.22358 37.0535 7.08075 37.0576 6.90037C37.0614 6.73026 37.1418 6.58216 37.2723 6.50603L39.9289 5.02371L40.3907 1.62944C40.4116 1.45984 40.5088 1.32253 40.6557 1.27685C40.8026 1.22118 40.9387 1.27554 41.0389 1.39895L43.0665 3.89689L45.9763 3.35449C46.1227 3.32904 46.2584 3.39336 46.3411 3.53619C46.4235 3.67901 46.428 3.85966 46.3649 3.99801L44.9688 7.01262L46.3062 10.0811C46.3715 10.2234 46.3587 10.4135 46.2786 10.5413C46.1901 10.6689 46.0425 10.7445 45.9062 10.7104L43.0138 10.0802L40.9358 12.5227C40.8394 12.6099 40.744 12.6671 40.6326 12.6637ZM38.2832 6.91799L40.3985 8.17564C40.5083 8.24915 40.5827 8.37177 40.5969 8.5125L40.9038 11.2688L42.5852 9.30545C42.6735 9.1978 42.7943 9.1613 42.9223 9.18547L45.2604 9.68802L44.1755 7.20901C44.1184 7.07694 44.1218 6.92648 44.1847 6.79809L45.3199 4.34694L42.9693 4.78615C42.8489 4.80242 42.7213 4.75859 42.6292 4.65539L40.9853 2.64029L40.6411 5.37632C40.6209 5.516 40.541 5.64386 40.4368 5.70083L38.2832 6.91799Z" fill="black"/>
<path d="M45.0987 21.1308C44.9873 21.1274 44.8857 21.0644 44.8112 20.9518L43.4266 18.8343L41.1603 18.9652C41.0145 18.9707 40.8793 18.8865 40.8139 18.7342C40.74 18.5913 40.7526 18.4115 40.833 18.2734L42.125 16.0877L41.3145 13.6068C41.2579 13.4548 41.2963 13.2755 41.3933 13.1481C41.4903 13.0308 41.646 12.9757 41.7733 13.0295L43.9511 13.798L45.7201 12.1282C45.8339 12.0213 45.9887 12.0061 46.1158 12.0699C46.2427 12.1442 46.3254 12.2871 46.3384 12.468L46.3905 15.1257L48.287 16.5774C48.4049 16.6712 48.4701 16.8337 48.4578 17.0036C48.4452 17.1737 48.3479 17.311 48.2006 17.3766L46.0546 18.2633L45.4571 20.821C45.4192 20.9904 45.3051 21.1072 45.1669 21.1432C45.1586 21.1326 45.1245 21.1316 45.0987 21.1308ZM43.618 17.9479C43.7294 17.9513 43.8479 18.0151 43.9054 18.1272L44.9418 19.7128L45.3963 17.792C45.425 17.6525 45.5133 17.5449 45.6431 17.4887L47.2528 16.8263L45.8281 15.7401C45.727 15.6569 45.6614 15.5246 45.656 15.3841L45.6148 13.3879L44.2923 14.6405C44.1957 14.7377 44.058 14.7637 43.9475 14.7201L42.314 14.1487L42.9239 16.0221C42.9724 16.1539 42.9515 16.3135 42.8888 16.4319L41.9261 18.0765L43.6346 17.9786C43.6009 17.9474 43.6094 17.9476 43.618 17.9479Z" fill="black"/>
<path d="M15.0093 17.8626C14.9323 17.8602 14.8557 17.8379 14.7796 17.7854C14.5514 17.6381 14.4649 17.2947 14.6079 17.0285C14.6706 16.9101 15.1821 15.8832 15.8925 15.5643C16.5596 15.2536 17.2259 15.3545 17.2857 15.3663C17.5422 15.4041 17.7243 15.6906 17.692 15.9901C17.6595 16.29 17.4147 16.5029 17.1584 16.4651C17.1584 16.4651 16.6798 16.3902 16.2378 16.6071C15.9261 16.7481 15.5611 17.3383 15.4351 17.605C15.346 17.7629 15.1807 17.8679 15.0093 17.8626Z" fill="black"/>
<path d="M35.5579 18.3723C35.4036 18.3675 35.2684 18.2833 35.1774 18.1302C35.0125 17.8343 34.6298 17.3116 34.3239 17.1918C33.8731 17.0277 33.3992 17.1333 33.3907 17.133C33.132 17.1952 32.8793 16.9973 32.8346 16.6951C32.7813 16.3926 32.9509 16.0972 33.2092 16.045C33.2869 16.0271 33.9416 15.887 34.6217 16.1485C35.3442 16.4213 35.9134 17.4211 35.9709 17.5329C36.1196 17.7881 36.0518 18.1371 35.8337 18.3006C35.747 18.3481 35.652 18.3752 35.5579 18.3723Z" fill="black"/>
<path d="M24.5286 41.5213C23.749 41.4974 22.9355 41.4525 21.9513 41.3721C20.7017 41.2736 19.4886 41.0762 18.3373 40.8002C16.7941 40.4221 15.4512 39.8896 14.2237 39.1905C12.7762 38.3642 11.6069 37.356 10.6567 36.134C9.71494 34.9221 8.94924 33.5153 8.38359 31.9644C7.93928 30.7477 7.67576 29.4967 7.59236 28.2412C7.58697 28.1004 7.57305 27.9597 7.56765 27.8192L7.55526 27.5984L7.60327 26.2266L7.62191 26.1567C7.62213 26.1468 7.63088 26.1371 7.63111 26.1271C7.70698 25.4177 7.83406 24.7198 8.02089 24.0341C8.60876 21.8966 9.63775 19.9734 11.0899 18.3039C11.1038 18.0637 11.1177 17.8237 11.1316 17.5835C11.1599 17.093 11.1797 16.5926 11.2337 16.083C11.3476 14.8332 11.4677 13.6843 11.6039 12.5656C11.7097 11.6769 11.8733 10.8698 12.0961 10.1147C12.2077 9.72714 12.3548 9.28053 12.6378 8.89827C12.8592 8.58455 13.1711 8.43357 13.5134 8.46402C13.8728 8.49529 14.1782 8.63497 14.4321 8.79303C15.1265 9.17533 15.7494 9.69543 16.3039 10.2038C17.8337 11.5638 19.2236 13.0598 20.2689 14.2348C20.3808 14.2182 20.5016 14.1817 20.6137 14.1552C21.148 14.0413 21.6908 13.9173 22.2415 13.8242C23.0074 13.6971 23.6266 13.616 24.202 13.5735C24.58 13.5448 24.9829 13.5372 25.4115 13.5504C25.9256 13.5661 26.4219 13.6013 26.7982 13.6531C27.7819 13.7534 28.8415 13.9062 30.0288 14.1131C30.1431 13.9863 30.2662 13.8495 30.3892 13.713C30.5125 13.5665 30.6529 13.4205 30.7762 13.2737C31.708 12.2498 32.8237 11.051 34.0304 9.99529L34.0827 9.95698C34.8084 9.32765 35.552 8.66865 36.4928 8.38668L36.5532 8.36857L37.0327 8.39325L37.1336 8.48674C37.1587 8.50747 37.1926 8.52847 37.2175 8.55946C37.302 8.62222 37.4033 8.69547 37.4949 8.80835C37.7786 9.15809 37.9235 9.58342 38.0352 9.95783C38.3944 11.1517 38.5728 12.3702 38.7103 13.507C38.8923 14.956 39.0211 16.4838 39.12 18.1909C40.4917 19.7266 41.4975 21.5217 42.1303 23.5161C42.7865 25.6109 42.9011 27.7699 42.4669 29.9318C42.2249 31.1773 41.7856 32.4071 41.1575 33.6608C40.215 35.5566 38.989 37.0828 37.5062 38.2102C36.1803 39.222 34.663 39.9876 32.8846 40.5245C30.873 41.1543 28.671 41.4678 26.1237 41.51C25.617 41.5447 25.0856 41.5384 24.5286 41.5213ZM8.4047 27.5743L8.40942 27.745C8.41481 27.8854 8.42877 28.0361 8.43439 28.1666C8.50293 29.3116 8.74333 30.4516 9.15576 31.5669C9.68879 33.0267 10.397 34.3316 11.2892 35.4617C12.1813 36.5917 13.2491 37.5267 14.6039 38.2899C15.7635 38.9571 17.0474 39.4476 18.5223 39.8136C19.6307 40.0879 20.8011 40.2844 22.0166 40.3718C22.9837 40.4414 23.7885 40.4963 24.551 40.5197C25.0994 40.5365 25.6223 40.5422 26.1196 40.5375C28.5811 40.5026 30.7231 40.1876 32.6656 39.5854C34.3577 39.0661 35.7798 38.3478 37.0357 37.3939C38.4225 36.3437 39.525 34.964 40.4138 33.1769C40.9975 32.002 41.3914 30.8712 41.6314 29.7256C42.0268 27.7631 41.9162 25.805 41.3245 23.8923C40.7406 22.0098 39.7752 20.3263 38.4703 18.8728C38.3615 18.7491 38.28 18.5661 38.2755 18.3755C38.1853 16.6587 38.0485 15.1107 37.8665 13.6716C37.7281 12.5747 37.5654 11.4168 37.2215 10.3039C37.1339 10.0103 37.0377 9.70653 36.8621 9.51066C36.8369 9.47996 36.7864 9.4382 36.7444 9.40697L36.633 9.40356C35.873 9.65086 35.2434 10.193 34.5787 10.784L34.5263 10.8226C33.3545 11.8492 32.2569 13.0083 31.3509 14.0233C31.2279 14.1599 31.0873 14.3158 30.9642 14.4523C30.8059 14.628 30.6566 14.7939 30.4982 14.9696C30.3927 15.0864 30.237 15.1517 30.0827 15.147C30.0571 15.1462 30.0313 15.1454 30.0059 15.1347C28.7765 14.8965 27.6997 14.7432 26.7075 14.6426C26.3393 14.6114 25.8605 14.5565 25.3635 14.5412C24.9522 14.5286 24.5749 14.5373 24.2228 14.5664C23.6729 14.6097 23.0712 14.6817 22.3308 14.8192C21.7971 14.9132 21.2547 15.0169 20.7377 15.1314C20.5827 15.1566 20.4361 15.2023 20.2897 15.2277C20.0743 15.2813 19.8786 15.2051 19.7281 15.0303C18.6911 13.8656 17.3105 12.3496 15.7634 10.989C15.2335 10.5217 14.67 10.0333 14.0433 9.68333C13.8571 9.57724 13.6539 9.47093 13.4313 9.45413L13.414 9.4536C13.354 9.45176 13.3197 9.46068 13.2579 9.53891C13.0724 9.78388 12.9704 10.1215 12.8777 10.4395C12.6734 11.135 12.5196 11.8819 12.4152 12.7108C12.2789 13.8295 12.1678 14.9587 12.0544 16.1983C12.0178 16.6785 11.9813 17.1684 11.953 17.6588C11.9382 17.939 11.9238 18.1992 11.909 18.4793C11.8965 18.6594 11.8239 18.8377 11.7181 18.9648C10.3457 20.5267 9.37041 22.3511 8.81127 24.3489C8.63432 24.975 8.51688 25.623 8.45919 26.2828C8.45829 26.323 8.44865 26.3726 8.43944 26.4025L8.4047 27.5743Z" fill="black"/>
<path d="M8.64926 26.6094C8.59782 26.6078 8.56367 26.5968 8.52124 26.5855L6.62762 25.7655C6.3983 25.6684 6.2934 25.3743 6.37603 25.1262C6.45911 24.8581 6.71067 24.7355 6.92268 24.8322L8.81629 25.6521C9.04561 25.7496 9.15051 26.0434 9.06788 26.2915C8.99468 26.4997 8.82916 26.6149 8.64926 26.6094Z" fill="black"/>
<path d="M6.59252 28.8621C6.39555 28.856 6.21969 28.6702 6.19047 28.4386C6.1624 28.1671 6.31375 27.9111 6.54598 27.878L8.54284 27.5283C8.77506 27.4955 8.99406 27.6725 9.02239 27.944C9.05046 28.2154 8.89911 28.4717 8.66688 28.5045L6.67002 28.8542C6.65248 28.8639 6.62689 28.8631 6.59252 28.8621Z" fill="black"/>
<path d="M41.6357 26.8489C41.4558 26.8433 41.2961 26.6982 41.2494 26.4863C41.187 26.2138 41.3215 25.947 41.5461 25.8737L43.4888 25.2618C43.7219 25.1888 43.9499 25.3461 44.0126 25.6086C44.075 25.8811 43.9405 26.1476 43.7159 26.2209L41.7732 26.8331C41.7213 26.8515 41.6699 26.8499 41.6357 26.8489Z" fill="black"/>
<path d="M43.4924 29.3216C43.4666 29.3208 43.4324 29.3198 43.4068 29.309L41.4476 28.7377C41.2176 28.6704 41.0779 28.4055 41.1356 28.1267C41.1929 27.8578 41.4195 27.6943 41.658 27.7618L43.6172 28.3331C43.8472 28.4003 43.9871 28.6652 43.9294 28.9441C43.8728 29.173 43.6894 29.3276 43.4924 29.3216Z" fill="black"/>
</g>
<g clip-path="url(#clip1_202_57)">
<path d="M136.615 9.05989C136.709 9.06277 136.812 9.06593 136.906 9.07879C137.007 9.16201 137.117 9.22555 137.201 9.32849C137.426 9.60601 137.547 9.95047 137.65 10.3047C137.994 11.4179 138.165 12.596 138.31 13.7733C138.515 15.3533 138.634 16.9407 138.727 18.5275C138.726 18.5877 138.758 18.6488 138.792 18.6798C140.122 20.1541 141.13 21.879 141.754 23.8831C142.377 25.8869 142.486 27.9254 142.071 30.0077C141.811 31.2829 141.373 32.4722 140.807 33.5978C139.928 35.3752 138.771 36.8534 137.288 37.9907C135.902 39.0409 134.385 39.7564 132.797 40.2489C130.621 40.9238 128.386 41.1761 126.147 41.2178C124.767 41.2456 123.379 41.1629 122.001 41.0608C120.812 40.9641 119.624 40.7871 118.456 40.501C117.075 40.1578 115.714 39.6649 114.444 38.9342C113.14 38.1928 111.97 37.2447 111.003 35.992C110.07 34.8006 109.345 33.445 108.804 31.955C108.384 30.8092 108.127 29.6285 108.053 28.3832C108.04 28.1824 108.027 27.9716 108.006 27.7705C108.024 27.3498 108.042 26.9192 108.052 26.4986C108.061 26.469 108.07 26.439 108.071 26.4091C108.138 25.7094 108.264 25.0415 108.451 24.3756C109.048 22.2085 110.075 20.3757 111.457 18.7842C111.492 18.745 111.519 18.6757 111.529 18.6158C111.572 17.8552 111.597 17.0944 111.674 16.3248C111.778 15.1552 111.898 13.986 112.044 12.8276C112.139 12.0184 112.286 11.2311 112.517 10.4762C112.628 10.0987 112.748 9.73164 112.978 9.4179C113.11 9.23148 113.276 9.13617 113.498 9.15297C113.772 9.17165 114.027 9.28951 114.255 9.42683C114.899 9.78761 115.488 10.2767 116.051 10.7751C117.464 12.0214 118.779 13.4151 120.049 14.8673C120.108 14.9392 120.159 14.951 120.236 14.9431C120.925 14.794 121.606 14.6444 122.295 14.5252C122.932 14.4144 123.577 14.3238 124.221 14.2734C125.062 14.2091 125.919 14.2553 126.757 14.3412C127.869 14.4455 128.989 14.6201 130.09 14.8343C130.124 14.8454 130.184 14.8273 130.211 14.7978C130.492 14.4857 130.774 14.1635 131.055 13.8514C132.083 12.7203 133.129 11.5995 134.274 10.6121C135.009 9.95308 135.726 9.32349 136.615 9.05989Z" fill="#DE813B"/>
<path d="M142.323 4.91455L145.423 4.34774L143.927 7.58L145.354 10.8617L142.257 10.1853L140.03 12.7934L139.622 9.14211L136.831 7.47278L139.67 5.88569L140.154 2.2617L142.323 4.91455Z" fill="#FFB1AF"/>
<path d="M144.786 16.3175L146.852 17.8944L144.524 18.8556L143.879 21.6425L142.378 19.3413L139.906 19.4859L141.313 17.1132L140.422 14.4094L142.804 15.2341L144.731 13.4186L144.786 16.3175Z" fill="#FFB1AF"/>
<path d="M115.264 30.2483C115.263 30.3228 115.257 30.3971 115.247 30.4708C115.238 30.5448 115.224 30.618 115.207 30.6906C115.19 30.7631 115.168 30.8347 115.144 30.9052C115.118 30.9758 115.09 31.045 115.058 31.1127C115.025 31.1807 114.989 31.2468 114.95 31.3114C114.91 31.3759 114.867 31.4383 114.821 31.4991C114.775 31.5596 114.726 31.6177 114.674 31.6739C114.621 31.7298 114.566 31.7833 114.508 31.834C114.45 31.8851 114.389 31.9331 114.326 31.9784C114.262 32.024 114.197 32.0664 114.129 32.1057C114.061 32.145 113.991 32.181 113.919 32.214C113.848 32.247 113.774 32.2765 113.699 32.3026C113.624 32.3288 113.548 32.3517 113.47 32.3707C113.393 32.3901 113.314 32.4059 113.235 32.4178C113.156 32.4301 113.076 32.4385 112.996 32.4434C112.915 32.4482 112.835 32.4493 112.754 32.4468C112.674 32.4444 112.593 32.4384 112.514 32.4286C112.433 32.4188 112.354 32.4055 112.275 32.3884C112.197 32.3716 112.119 32.351 112.043 32.327C111.966 32.3032 111.891 32.2757 111.817 32.2449C111.743 32.2142 111.671 32.1803 111.601 32.1429C111.531 32.1055 111.463 32.0653 111.397 32.0219C111.331 31.9785 111.267 31.9322 111.206 31.8828C111.145 31.8337 111.086 31.782 111.03 31.7274C110.975 31.6732 110.922 31.6164 110.872 31.5573C110.822 31.498 110.776 31.437 110.732 31.3737C110.689 31.3102 110.649 31.2452 110.612 31.1784C110.576 31.1115 110.543 31.0433 110.514 30.9734C110.485 30.9039 110.459 30.8329 110.437 30.7609C110.416 30.689 110.398 30.6162 110.383 30.5427C110.369 30.4692 110.359 30.3952 110.353 30.3207C110.347 30.2466 110.345 30.172 110.346 30.0975C110.348 30.023 110.354 29.9489 110.363 29.8749C110.372 29.8013 110.386 29.728 110.403 29.6555C110.421 29.5829 110.442 29.5114 110.467 29.4408C110.492 29.3702 110.52 29.301 110.553 29.233C110.585 29.1653 110.621 29.0989 110.66 29.0347C110.7 28.9701 110.743 28.9074 110.789 28.8469C110.835 28.7864 110.884 28.7281 110.936 28.6721C110.989 28.6162 111.044 28.5627 111.102 28.5117C111.16 28.4606 111.221 28.4126 111.284 28.3673C111.348 28.322 111.413 28.2797 111.481 28.2404C111.549 28.2011 111.619 28.1648 111.691 28.132C111.763 28.099 111.836 28.0696 111.911 28.0431C111.986 28.0169 112.062 27.9943 112.14 27.975C112.217 27.9556 112.296 27.9401 112.375 27.9279C112.455 27.916 112.534 27.9072 112.615 27.9027C112.695 27.8978 112.775 27.8964 112.856 27.8989C112.936 27.9014 113.017 27.9076 113.097 27.9174C113.177 27.9269 113.256 27.9405 113.335 27.9573C113.413 27.9744 113.491 27.9947 113.568 28.0188C113.644 28.0428 113.719 28.0701 113.793 28.1008C113.867 28.1318 113.939 28.1657 114.009 28.2031C114.079 28.2402 114.147 28.2807 114.214 28.3241C114.28 28.3675 114.343 28.4138 114.404 28.4629C114.466 28.5121 114.524 28.5638 114.58 28.6183C114.636 28.6728 114.688 28.7296 114.738 28.7887C114.788 28.8477 114.835 28.9091 114.878 28.9723C114.921 29.0356 114.961 29.1008 114.998 29.1676C115.034 29.2342 115.067 29.3027 115.096 29.3723C115.126 29.4422 115.151 29.5131 115.173 29.5851C115.195 29.6571 115.213 29.7298 115.227 29.8033C115.241 29.8769 115.251 29.9508 115.257 30.025C115.263 30.0994 115.266 30.1738 115.264 30.2483Z" fill="#F5A3BF"/>
<path d="M137.892 30.942C137.89 31.0165 137.884 31.0909 137.875 31.1646C137.865 31.2385 137.852 31.3118 137.835 31.3843C137.817 31.4569 137.796 31.5284 137.771 31.599C137.746 31.6695 137.718 31.7388 137.685 31.8065C137.653 31.8745 137.617 31.9406 137.578 32.0051C137.538 32.0697 137.495 32.132 137.449 32.1928C137.403 32.2534 137.354 32.3114 137.301 32.3676C137.249 32.4236 137.194 32.477 137.136 32.5278C137.078 32.5789 137.017 32.6269 136.954 32.6722C136.89 32.7178 136.825 32.7601 136.757 32.7994C136.689 32.8387 136.619 32.8747 136.547 32.9077C136.475 32.9408 136.402 32.9702 136.327 32.9964C136.252 33.0226 136.176 33.0455 136.098 33.0645C136.02 33.0838 135.942 33.0996 135.863 33.1116C135.783 33.1238 135.704 33.1322 135.623 33.1371C135.543 33.142 135.463 33.1431 135.382 33.1406C135.302 33.1381 135.221 33.1321 135.141 33.1223C135.061 33.1126 134.982 33.0993 134.903 33.0822C134.825 33.0654 134.747 33.0448 134.67 33.0207C134.594 32.997 134.519 32.9694 134.445 32.9387C134.371 32.908 134.299 32.874 134.229 32.8367C134.159 32.7993 134.091 32.7591 134.024 32.7156C133.958 32.6722 133.895 32.626 133.834 32.5765C133.772 32.5274 133.714 32.4757 133.658 32.4212C133.602 32.3669 133.549 32.3101 133.5 32.2511C133.45 32.1917 133.403 32.1307 133.36 32.0675C133.317 32.0039 133.277 31.939 133.24 31.8721C133.204 31.8053 133.171 31.7371 133.142 31.6672C133.112 31.5976 133.087 31.5267 133.065 31.4547C133.043 31.3827 133.025 31.31 133.011 31.2364C132.997 31.1629 132.987 31.089 132.981 31.0145C132.975 30.9404 132.972 30.8657 132.974 30.7912C132.975 30.7167 132.981 30.6427 132.991 30.5687C133 30.495 133.014 30.4218 133.031 30.3492C133.048 30.2767 133.07 30.2051 133.094 30.1346C133.119 30.064 133.148 29.9947 133.18 29.9267C133.213 29.8591 133.249 29.7927 133.288 29.7284C133.328 29.6639 133.371 29.6012 133.417 29.5407C133.463 29.4802 133.512 29.4218 133.564 29.3659C133.617 29.31 133.672 29.2565 133.73 29.2054C133.788 29.1544 133.849 29.1064 133.912 29.061C133.975 29.0157 134.041 28.9734 134.109 28.9341C134.177 28.8948 134.247 28.8585 134.319 28.8258C134.39 28.7928 134.464 28.7633 134.539 28.7369C134.614 28.7107 134.69 28.6881 134.768 28.6687C134.845 28.6494 134.924 28.6339 135.003 28.6217C135.082 28.6097 135.162 28.601 135.242 28.5964C135.323 28.5915 135.403 28.5902 135.484 28.5927C135.564 28.5951 135.645 28.6014 135.724 28.6112C135.805 28.6207 135.884 28.6343 135.963 28.6511C136.041 28.6682 136.119 28.6884 136.195 28.7125C136.272 28.7366 136.347 28.7638 136.421 28.7946C136.495 28.8256 136.567 28.8595 136.637 28.8969C136.707 28.934 136.775 28.9745 136.841 29.0179C136.907 29.0613 136.971 29.1076 137.032 29.1567C137.093 29.2058 137.152 29.2575 137.208 29.3121C137.263 29.3666 137.316 29.4234 137.366 29.4824C137.416 29.5415 137.462 29.6028 137.506 29.6661C137.549 29.7293 137.589 29.7945 137.626 29.8614C137.662 29.928 137.695 29.9965 137.724 30.0661C137.753 30.1359 137.779 30.2069 137.801 30.2788C137.822 30.3508 137.84 30.4236 137.855 30.4971C137.869 30.5706 137.879 30.6446 137.885 30.7187C137.891 30.7932 137.893 30.8675 137.892 30.942Z" fill="#F5A3BF"/>
<path d="M138.69 21.3232C138.687 21.4733 138.683 21.6235 138.68 21.774C138.626 21.8624 138.581 21.9614 138.519 22.0496C138.467 22.1082 138.406 22.1363 138.345 22.1846C137.926 22.5228 137.751 23.0387 137.594 23.5751C137.519 23.8434 137.462 24.1122 137.387 24.3808C137.293 24.7586 137.199 25.1267 137.096 25.5045C137.003 25.8524 136.909 26.2205 136.807 26.5681C136.686 26.9956 136.514 27.3912 136.3 27.7556C135.978 28.3472 135.556 28.8156 135.059 29.1913C134.701 29.4609 134.328 29.6599 133.93 29.8182C133.567 29.9574 133.187 30.076 132.817 30.1249C132.464 30.1842 132.112 30.2036 131.761 30.1929C131.341 30.18 130.931 30.1372 130.522 30.0245C130.164 29.9232 129.815 29.8124 129.475 29.6716C129.118 29.5204 128.78 29.3295 128.459 29.099C128.071 28.8165 127.719 28.4649 127.419 28.0548C127.054 27.5423 126.749 26.9818 126.496 26.3823C126.26 25.8239 126.085 25.2371 125.918 24.6505C125.815 24.2565 125.73 23.8729 125.618 23.4785C125.539 23.1755 125.417 22.9112 125.242 22.6651C125.15 22.542 125.034 22.3881 124.888 22.4036C124.588 22.4044 124.29 22.2952 123.98 22.3558C123.765 22.3891 123.617 22.495 123.501 22.7018C123.259 23.1456 123.145 23.6533 123.014 24.1506C122.93 24.4386 122.881 24.718 122.789 24.9958C122.679 25.3232 122.535 25.6395 122.391 25.9459C122.175 26.3702 121.943 26.7942 121.702 27.1977C121.436 27.6307 121.127 28.0222 120.785 28.3727C120.521 28.6452 120.242 28.8773 119.937 29.0784C119.65 29.27 119.338 29.421 119.01 29.5111C118.665 29.5909 118.338 29.6809 117.993 29.7305C117.719 29.7623 117.435 29.7836 117.153 29.7649C116.69 29.7507 116.236 29.7066 115.774 29.6625C115.663 29.6491 115.544 29.6255 115.433 29.5919C115.152 29.5031 114.871 29.4244 114.591 29.3154C114.361 29.2282 114.149 29.1316 113.937 29.0148C113.632 28.8349 113.328 28.6453 113.06 28.3765C112.791 28.1176 112.558 27.8196 112.411 27.4644C112.256 27.1086 112.145 26.7345 112.016 26.3695C111.912 26.0355 111.816 25.7018 111.712 25.3679C111.625 25.0743 111.545 24.7714 111.466 24.488C111.395 24.2153 111.332 23.9427 111.279 23.6605C111.224 23.4381 111.195 23.2168 111.14 22.9947C111.093 22.7825 111.055 22.5709 110.991 22.3685C110.854 21.9534 110.578 21.6441 110.354 21.3164C110.188 21.0809 110.031 20.8255 110.029 20.4946C110.03 20.4644 110.005 20.4337 109.997 20.4033C110.008 19.9225 110.018 19.4618 110.029 18.9907C110.098 18.9729 110.158 18.9647 110.227 18.9369C110.434 18.903 110.649 18.8595 110.864 18.8159C111.054 18.7818 111.243 18.7374 111.433 18.703C111.588 18.6778 111.743 18.6423 111.898 18.6072C112.07 18.5723 112.234 18.5171 112.406 18.4825C112.587 18.4478 112.759 18.4129 112.94 18.3785C113.155 18.3449 113.371 18.2913 113.586 18.258C113.793 18.2241 114.008 18.1905 114.214 18.1669C114.575 18.1178 114.928 18.0685 115.288 18.0596C116.189 18.047 117.079 18.1042 117.967 18.282C118.479 18.3878 118.974 18.4631 119.487 18.559C119.581 18.5721 119.683 18.5952 119.777 18.628C120.032 18.706 120.296 18.7743 120.552 18.8423C120.722 18.8877 120.893 18.9329 121.063 18.9783C121.361 19.0676 121.668 19.1773 121.974 19.2569C122.307 19.3472 122.64 19.4276 122.981 19.4982C123.356 19.5699 123.741 19.6119 124.135 19.634C124.444 19.6534 124.769 19.6434 125.078 19.6326C125.404 19.6227 125.722 19.5922 126.04 19.562C126.427 19.5137 126.823 19.4557 127.21 19.3872C127.451 19.3547 127.692 19.3019 127.933 19.2591C128.235 19.1982 128.536 19.1373 128.837 19.0764C129.105 19.0244 129.38 18.9826 129.647 18.9306C129.741 18.9136 129.827 18.9062 129.922 18.8789C130.137 18.8456 130.362 18.7923 130.577 18.7587C130.843 18.727 131.118 18.6852 131.393 18.6634C131.668 18.6419 131.935 18.6099 132.209 18.5983C132.372 18.5933 132.544 18.5783 132.698 18.5933C133.058 18.6044 133.409 18.6251 133.768 18.6561C134.059 18.685 134.357 18.7745 134.648 18.8233C134.989 18.894 135.339 18.9449 135.672 19.0353C135.961 19.1143 136.259 19.2035 136.549 19.3028C136.796 19.3805 137.034 19.448 137.272 19.5454C137.612 19.6762 137.936 19.7762 138.286 19.8471C138.363 19.8594 138.43 19.8917 138.49 19.9338C138.609 19.9773 138.657 20.1291 138.723 20.2415C138.72 20.3717 138.717 20.5119 138.714 20.6524C138.632 20.8703 138.635 21.1008 138.69 21.3232Z" fill="black"/>
<path d="M138.69 21.3232C138.635 21.0908 138.632 20.8703 138.705 20.6319C138.7 20.8724 138.695 21.1026 138.69 21.3232Z" fill="black"/>
<path d="M121.244 36.5966C118.511 36.5128 117.445 33.934 117.278 32.5855C117.234 32.2534 117.438 31.9488 117.722 31.8874C118.007 31.8359 118.267 32.0746 118.32 32.397C118.334 32.5278 118.744 35.2969 121.288 35.3749C123.31 35.4369 123.757 32.6941 123.777 32.5843C123.836 32.2553 124.098 32.033 124.388 32.0918C124.67 32.1606 124.86 32.4573 124.81 32.7965C124.591 34.1331 123.583 36.6683 121.244 36.5966Z" fill="black"/>
<path d="M127.969 36.8028C125.236 36.719 124.171 34.1402 124.004 32.7917C123.96 32.4596 124.164 32.155 124.448 32.0936C124.732 32.0421 124.993 32.2808 125.045 32.6032C125.06 32.724 125.469 35.5031 128.014 35.5811C130.036 35.6431 130.483 32.9003 130.503 32.7905C130.562 32.4615 130.824 32.2392 131.114 32.298C131.404 32.3571 131.586 32.6635 131.535 33.0027C131.308 34.3391 130.309 36.8745 127.969 36.8028Z" fill="black"/>
<path d="M139.398 12.6637C139.364 12.6626 139.321 12.6514 139.287 12.6403C139.143 12.5757 139.052 12.4426 139.029 12.2817L138.651 8.87166L136.028 7.30759C135.902 7.22358 135.819 7.08075 135.823 6.90037C135.827 6.73026 135.907 6.58216 136.038 6.50603L138.694 5.02371L139.156 1.62944C139.177 1.45984 139.274 1.32253 139.421 1.27685C139.568 1.22118 139.704 1.27554 139.804 1.39895L141.832 3.89689L144.742 3.35449C144.888 3.32904 145.024 3.39336 145.107 3.53619C145.189 3.67901 145.194 3.85966 145.13 3.99801L143.734 7.01262L145.072 10.0811C145.137 10.2234 145.124 10.4135 145.044 10.5413C144.956 10.6689 144.808 10.7445 144.672 10.7104L141.779 10.0802L139.701 12.5227C139.605 12.6099 139.509 12.6671 139.398 12.6637ZM137.049 6.91799L139.164 8.17564C139.274 8.24915 139.348 8.37177 139.362 8.5125L139.669 11.2688L141.351 9.30545C141.439 9.1978 141.56 9.1613 141.688 9.18547L144.026 9.68802L142.941 7.20901C142.884 7.07694 142.887 6.92648 142.95 6.79809L144.085 4.34694L141.735 4.78615C141.614 4.80242 141.487 4.75859 141.395 4.65539L139.751 2.64029L139.407 5.37632C139.386 5.516 139.307 5.64386 139.202 5.70083L137.049 6.91799Z" fill="black"/>
<path d="M143.864 21.1308C143.753 21.1274 143.651 21.0644 143.577 20.9518L142.192 18.8343L139.926 18.9652C139.78 18.9707 139.645 18.8865 139.579 18.7342C139.506 18.5913 139.518 18.4115 139.599 18.2734L140.891 16.0877L140.08 13.6068C140.023 13.4548 140.062 13.2755 140.159 13.1481C140.256 13.0308 140.412 12.9757 140.539 13.0295L142.717 13.798L144.486 12.1282C144.599 12.0213 144.754 12.0061 144.881 12.0699C145.008 12.1442 145.091 12.2871 145.104 12.468L145.156 15.1257L147.053 16.5774C147.17 16.6712 147.236 16.8337 147.223 17.0036C147.211 17.1737 147.113 17.311 146.966 17.3766L144.82 18.2633L144.223 20.821C144.185 20.9904 144.071 21.1072 143.932 21.1432C143.924 21.1326 143.89 21.1316 143.864 21.1308ZM142.383 17.9479C142.495 17.9513 142.613 18.0151 142.671 18.1272L143.707 19.7128L144.162 17.792C144.191 17.6525 144.279 17.5449 144.409 17.4887L146.018 16.8263L144.594 15.7401C144.493 15.6569 144.427 15.5246 144.422 15.3841L144.38 13.3879L143.058 14.6405C142.961 14.7377 142.824 14.7637 142.713 14.7201L141.079 14.1487L141.689 16.0221C141.738 16.1539 141.717 16.3135 141.654 16.4319L140.692 18.0765L142.4 17.9786C142.366 17.9474 142.375 17.9476 142.383 17.9479Z" fill="black"/>
<path d="M113.775 17.8626C113.698 17.8602 113.621 17.8379 113.545 17.7854C113.317 17.6381 113.23 17.2947 113.373 17.0285C113.436 16.9101 113.948 15.8832 114.658 15.5643C115.325 15.2536 115.991 15.3545 116.051 15.3663C116.308 15.4041 116.49 15.6906 116.458 15.9901C116.425 16.29 116.18 16.5029 115.924 16.4651C115.924 16.4651 115.445 16.3902 115.003 16.6071C114.692 16.7481 114.327 17.3383 114.201 17.605C114.112 17.7629 113.946 17.8679 113.775 17.8626Z" fill="black"/>
<path d="M134.323 18.3723C134.169 18.3675 134.034 18.2833 133.943 18.1302C133.778 17.8343 133.395 17.3116 133.089 17.1918C132.639 17.0277 132.165 17.1333 132.156 17.133C131.897 17.1952 131.645 16.9973 131.6 16.6951C131.547 16.3926 131.716 16.0972 131.975 16.045C132.052 16.0271 132.707 15.887 133.387 16.1485C134.11 16.4213 134.679 17.4211 134.736 17.5329C134.885 17.7881 134.817 18.1371 134.599 18.3006C134.513 18.3481 134.418 18.3752 134.323 18.3723Z" fill="black"/>
<path d="M123.294 41.5213C122.515 41.4974 121.701 41.4525 120.717 41.3721C119.467 41.2736 118.254 41.0762 117.103 40.8002C115.56 40.4221 114.217 39.8896 112.989 39.1905C111.542 38.3642 110.372 37.356 109.422 36.134C108.48 34.9221 107.715 33.5153 107.149 31.9644C106.705 30.7477 106.441 29.4967 106.358 28.2412C106.353 28.1004 106.339 27.9597 106.333 27.8192L106.321 27.5984L106.369 26.2266L106.387 26.1567C106.388 26.1468 106.396 26.1371 106.397 26.1271C106.473 25.4177 106.6 24.7198 106.786 24.0341C107.374 21.8966 108.403 19.9734 109.855 18.3039C109.869 18.0637 109.883 17.8237 109.897 17.5835C109.925 17.093 109.945 16.5926 109.999 16.083C110.113 14.8332 110.233 13.6843 110.369 12.5656C110.475 11.6769 110.639 10.8698 110.862 10.1147C110.973 9.72714 111.12 9.28053 111.403 8.89827C111.625 8.58455 111.937 8.43357 112.279 8.46402C112.638 8.49529 112.944 8.63497 113.198 8.79303C113.892 9.17533 114.515 9.69543 115.069 10.2038C116.599 11.5638 117.989 13.0598 119.034 14.2348C119.146 14.2182 119.267 14.1817 119.379 14.1552C119.914 14.0413 120.456 13.9173 121.007 13.8242C121.773 13.6971 122.392 13.616 122.968 13.5735C123.346 13.5448 123.748 13.5372 124.177 13.5504C124.691 13.5661 125.187 13.6013 125.564 13.6531C126.547 13.7534 127.607 13.9062 128.794 14.1131C128.909 13.9863 129.032 13.8495 129.155 13.713C129.278 13.5665 129.418 13.4205 129.542 13.2737C130.474 12.2498 131.589 11.051 132.796 9.99529L132.848 9.95698C133.574 9.32765 134.318 8.66865 135.258 8.38668L135.319 8.36857L135.798 8.39325L135.899 8.48674C135.924 8.50747 135.958 8.52847 135.983 8.55946C136.068 8.62222 136.169 8.69547 136.26 8.80835C136.544 9.15809 136.689 9.58342 136.801 9.95783C137.16 11.1517 137.338 12.3702 137.476 13.507C137.658 14.956 137.787 16.4838 137.886 18.1909C139.257 19.7266 140.263 21.5217 140.896 23.5161C141.552 25.6109 141.667 27.7699 141.232 29.9318C140.99 31.1773 140.551 32.4071 139.923 33.6608C138.98 35.5566 137.755 37.0828 136.272 38.2102C134.946 39.222 133.428 39.9876 131.65 40.5245C129.638 41.1543 127.437 41.4678 124.889 41.51C124.382 41.5447 123.851 41.5384 123.294 41.5213ZM107.17 27.5743L107.175 27.745C107.18 27.8854 107.194 28.0361 107.2 28.1666C107.268 29.3116 107.509 30.4516 107.921 31.5669C108.454 33.0267 109.163 34.3316 110.055 35.4617C110.947 36.5917 112.015 37.5267 113.369 38.2899C114.529 38.9571 115.813 39.4476 117.288 39.8136C118.396 40.0879 119.567 40.2844 120.782 40.3718C121.749 40.4414 122.554 40.4963 123.317 40.5197C123.865 40.5365 124.388 40.5422 124.885 40.5375C127.347 40.5026 129.489 40.1876 131.431 39.5854C133.123 39.0661 134.545 38.3478 135.801 37.3939C137.188 36.3437 138.29 34.964 139.179 33.1769C139.763 32.002 140.157 30.8712 140.397 29.7256C140.792 27.7631 140.682 25.805 140.09 23.8923C139.506 22.0098 138.541 20.3263 137.236 18.8728C137.127 18.7491 137.046 18.5661 137.041 18.3755C136.951 16.6587 136.814 15.1107 136.632 13.6716C136.494 12.5747 136.331 11.4168 135.987 10.3039C135.899 10.0103 135.803 9.70653 135.628 9.51066C135.602 9.47996 135.552 9.4382 135.51 9.40697L135.399 9.40356C134.639 9.65086 134.009 10.193 133.344 10.784L133.292 10.8226C132.12 11.8492 131.022 13.0083 130.116 14.0233C129.993 14.1599 129.853 14.3158 129.73 14.4523C129.571 14.628 129.422 14.7939 129.264 14.9696C129.158 15.0864 129.003 15.1517 128.848 15.147C128.823 15.1462 128.797 15.1454 128.771 15.1347C127.542 14.8965 126.465 14.7432 125.473 14.6426C125.105 14.6114 124.626 14.5565 124.129 14.5412C123.718 14.5286 123.34 14.5373 122.988 14.5664C122.438 14.6097 121.837 14.6817 121.096 14.8192C120.563 14.9132 120.02 15.0169 119.503 15.1314C119.348 15.1566 119.202 15.2023 119.055 15.2277C118.84 15.2813 118.644 15.2051 118.494 15.0303C117.457 13.8656 116.076 12.3496 114.529 10.989C113.999 10.5217 113.435 10.0333 112.809 9.68333C112.623 9.57724 112.419 9.47093 112.197 9.45413L112.18 9.4536C112.12 9.45176 112.085 9.46068 112.023 9.53891C111.838 9.78388 111.736 10.1215 111.643 10.4395C111.439 11.135 111.285 11.8819 111.181 12.7108C111.044 13.8295 110.933 14.9587 110.82 16.1983C110.783 16.6785 110.747 17.1684 110.719 17.6588C110.704 17.939 110.689 18.1992 110.675 18.4793C110.662 18.6594 110.589 18.8377 110.484 18.9648C109.111 20.5267 108.136 22.3511 107.577 24.3489C107.4 24.975 107.282 25.623 107.225 26.2828C107.224 26.323 107.214 26.3726 107.205 26.4025L107.17 27.5743Z" fill="black"/>
<path d="M107.415 26.6094C107.363 26.6078 107.329 26.5968 107.287 26.5855L105.393 25.7655C105.164 25.6684 105.059 25.3743 105.142 25.1262C105.225 24.8581 105.476 24.7355 105.688 24.8322L107.582 25.6521C107.811 25.7496 107.916 26.0434 107.833 26.2915C107.76 26.4997 107.595 26.6149 107.415 26.6094Z" fill="black"/>
<path d="M105.358 28.8621C105.161 28.856 104.985 28.6702 104.956 28.4386C104.928 28.1671 105.079 27.9111 105.312 27.878L107.308 27.5283C107.541 27.4955 107.76 27.6725 107.788 27.944C107.816 28.2154 107.665 28.4717 107.432 28.5045L105.436 28.8542C105.418 28.8639 105.392 28.8631 105.358 28.8621Z" fill="black"/>
<path d="M140.401 26.8489C140.221 26.8433 140.062 26.6982 140.015 26.4863C139.952 26.2138 140.087 25.947 140.312 25.8737L142.254 25.2618C142.487 25.1888 142.715 25.3461 142.778 25.6086C142.841 25.8811 142.706 26.1476 142.481 26.2209L140.539 26.8331C140.487 26.8515 140.435 26.8499 140.401 26.8489Z" fill="black"/>
<path d="M142.258 29.3216C142.232 29.3208 142.198 29.3198 142.172 29.309L140.213 28.7377C139.983 28.6704 139.843 28.4055 139.901 28.1267C139.958 27.8578 140.185 27.6943 140.424 27.7618L142.383 28.3331C142.613 28.4003 142.753 28.6652 142.695 28.9441C142.638 29.173 142.455 29.3276 142.258 29.3216Z" fill="black"/>
</g>
<g clip-path="url(#clip2_202_57)">
<path d="M88.1468 9.05989C88.2409 9.06277 88.3438 9.06593 88.4379 9.07879C88.5387 9.16201 88.6488 9.22555 88.7323 9.32849C88.9576 9.60601 89.0785 9.95047 89.182 10.3047C89.5257 11.4179 89.6967 12.596 89.8419 13.7733C90.0466 15.3533 90.1652 16.9407 90.2585 18.5275C90.2572 18.5877 90.29 18.6488 90.3237 18.6798C91.6538 20.1541 92.6612 21.879 93.2853 23.8831C93.9091 25.8869 94.0179 27.9254 93.6027 30.0077C93.3427 31.2829 92.9046 32.4722 92.3391 33.5978C91.4593 35.3752 90.3029 36.8534 88.8199 37.9907C87.4334 39.0409 85.9169 39.7564 84.3284 40.2489C82.1528 40.9238 79.9178 41.1761 77.679 41.2178C76.2982 41.2456 74.9111 41.1629 73.533 41.0608C72.3433 40.9641 71.1556 40.7871 69.9875 40.501C68.6062 40.1578 67.2453 39.6649 65.9756 38.9342C64.6718 38.1928 63.5014 37.2447 62.5346 35.992C61.6012 34.8006 60.877 33.445 60.3359 31.955C59.9156 30.8092 59.659 29.6285 59.5842 28.3832C59.5713 28.1824 59.559 27.9716 59.5379 27.7705C59.5558 27.3498 59.574 26.9192 59.5834 26.4986C59.5926 26.469 59.6018 26.439 59.6025 26.4091C59.6696 25.7094 59.796 25.0415 59.9824 24.3756C60.5794 22.2085 61.6064 20.3757 62.9883 18.7842C63.0233 18.745 63.0507 18.6757 63.0606 18.6158C63.1032 17.8552 63.1288 17.0944 63.206 16.3248C63.3095 15.1552 63.4298 13.986 63.5757 12.8276C63.6711 12.0184 63.8173 11.2311 64.0486 10.4762C64.1597 10.0987 64.2794 9.73164 64.5094 9.4179C64.6421 9.23148 64.8072 9.13617 65.0298 9.15297C65.3038 9.17165 65.5583 9.28951 65.7867 9.42683C66.4302 9.78761 67.0195 10.2767 67.5829 10.7751C68.9954 12.0214 70.3103 13.4151 71.5809 14.8673C71.6393 14.9392 71.6905 14.951 71.7678 14.9431C72.457 14.794 73.1378 14.6444 73.8264 14.5252C74.4633 14.4144 75.1084 14.3238 75.7525 14.2734C76.5941 14.2091 77.4505 14.2553 78.2889 14.3412C79.4011 14.4455 80.5203 14.6201 81.6215 14.8343C81.6556 14.8454 81.716 14.8273 81.7423 14.7978C82.0237 14.4857 82.3053 14.1635 82.5867 13.8514C83.6151 12.7203 84.6603 11.5995 85.8057 10.6121C86.5405 9.95308 87.2576 9.32349 88.1468 9.05989Z" fill="#DE813B"/>
<path d="M93.8551 4.91455L96.9546 4.34774L95.4589 7.58L96.886 10.8617L93.7887 10.1853L91.5613 12.7934L91.1541 9.14211L88.3623 7.47278L91.2014 5.88569L91.6854 2.2617L93.8551 4.91455Z" fill="#FFB1AF"/>
<path d="M96.318 16.3175L98.3832 17.8944L96.0556 18.8556L95.4103 21.6425L93.9098 19.3413L91.4372 19.4859L92.8451 17.1132L91.9537 14.4094L94.3361 15.2341L96.2628 13.4186L96.318 16.3175Z" fill="#FFB1AF"/>
<path d="M66.7958 30.2483C66.7942 30.3228 66.7885 30.3971 66.7788 30.4708C66.7694 30.5448 66.7559 30.618 66.7385 30.6906C66.7213 30.7631 66.7001 30.8347 66.6752 30.9052C66.65 30.9758 66.6213 31.045 66.5892 31.1127C66.5568 31.1807 66.5209 31.2468 66.4813 31.3114C66.4419 31.3759 66.3991 31.4383 66.3531 31.4991C66.307 31.5596 66.2578 31.6177 66.2053 31.6739C66.1528 31.7298 66.0976 31.7833 66.0395 31.834C65.9814 31.8851 65.9208 31.9331 65.8575 31.9784C65.794 32.024 65.7285 32.0664 65.6606 32.1057C65.5927 32.145 65.5228 32.181 65.451 32.214C65.3792 32.247 65.3058 32.2765 65.2309 32.3026C65.1557 32.3288 65.0794 32.3517 65.0019 32.3707C64.9243 32.3901 64.8459 32.4059 64.7666 32.4178C64.6872 32.4301 64.6074 32.4385 64.5272 32.4434C64.4468 32.4482 64.3664 32.4493 64.2858 32.4468C64.2053 32.4444 64.1251 32.4384 64.0452 32.4286C63.9651 32.4188 63.8858 32.4055 63.8071 32.3884C63.7284 32.3716 63.6507 32.351 63.5742 32.327C63.4977 32.3032 63.4224 32.2757 63.3488 32.2449C63.2749 32.2142 63.2029 32.1803 63.1327 32.1429C63.0624 32.1055 62.9943 32.0653 62.9282 32.0219C62.8622 31.9785 62.7987 31.9322 62.7375 31.8828C62.6763 31.8337 62.6177 31.782 62.562 31.7274C62.5062 31.6732 62.4535 31.6164 62.4036 31.5573C62.3539 31.498 62.3073 31.437 62.2638 31.3737C62.2205 31.3102 62.1806 31.2452 62.1441 31.1784C62.1077 31.1115 62.0749 31.0433 62.0455 30.9734C62.0162 30.9039 61.9907 30.8329 61.9689 30.7609C61.9472 30.689 61.9292 30.6162 61.9151 30.5427C61.9009 30.4692 61.8907 30.3952 61.8846 30.3207C61.8785 30.2466 61.8762 30.172 61.8778 30.0975C61.8795 30.023 61.8852 29.9489 61.8946 29.8749C61.904 29.8013 61.9175 29.728 61.9349 29.6555C61.9524 29.5829 61.9735 29.5114 61.9985 29.4408C62.0234 29.3702 62.0521 29.301 62.0845 29.233C62.1169 29.1653 62.1527 29.0989 62.1921 29.0347C62.2314 28.9701 62.2743 28.9074 62.3203 28.8469C62.3666 28.7864 62.4159 28.7281 62.4681 28.6721C62.5206 28.6162 62.5757 28.5627 62.6339 28.5117C62.692 28.4606 62.7528 28.4126 62.8161 28.3673C62.8794 28.322 62.9449 28.2797 63.0128 28.2404C63.0807 28.2011 63.1506 28.1648 63.2224 28.132C63.2942 28.099 63.3676 28.0696 63.4428 28.0431C63.5177 28.0169 63.594 27.9943 63.6715 27.975C63.7491 27.9556 63.8275 27.9401 63.9068 27.9279C63.9862 27.916 64.066 27.9072 64.1464 27.9027C64.2266 27.8978 64.307 27.8964 64.3876 27.8989C64.4681 27.9014 64.5483 27.9076 64.6284 27.9174C64.7083 27.9269 64.7876 27.9405 64.8663 27.9573C64.945 27.9744 65.0226 27.9947 65.0992 28.0188C65.1757 28.0428 65.2509 28.0701 65.3248 28.1008C65.3985 28.1318 65.4705 28.1657 65.5407 28.2031C65.611 28.2402 65.6791 28.2807 65.7452 28.3241C65.8112 28.3675 65.8747 28.4138 65.9361 28.4629C65.9973 28.5121 66.0557 28.5638 66.1114 28.6183C66.1672 28.6728 66.2199 28.7296 66.2698 28.7887C66.3197 28.8477 66.3663 28.9091 66.4096 28.9723C66.4529 29.0356 66.4928 29.1008 66.5292 29.1676C66.5659 29.2342 66.5988 29.3027 66.6281 29.3723C66.6572 29.4422 66.6827 29.5131 66.7047 29.5851C66.7264 29.6571 66.7444 29.7298 66.7583 29.8033C66.7725 29.8769 66.7826 29.9508 66.7888 30.025C66.7951 30.0994 66.7975 30.1738 66.7958 30.2483Z" fill="#F5A3BF"/>
<path d="M89.4235 30.942C89.4218 31.0165 89.4161 31.0909 89.4067 31.1646C89.397 31.2385 89.3836 31.3118 89.3664 31.3843C89.3489 31.4569 89.3278 31.5284 89.3028 31.599C89.2779 31.6695 89.2492 31.7388 89.2168 31.8065C89.1844 31.8745 89.1486 31.9406 89.1092 32.0051C89.0696 32.0697 89.027 32.132 88.9807 32.1928C88.9347 32.2534 88.8854 32.3114 88.8329 32.3676C88.7807 32.4236 88.7253 32.477 88.6674 32.5278C88.6093 32.5789 88.5485 32.6269 88.4852 32.6722C88.4219 32.7178 88.3562 32.7601 88.2882 32.7994C88.2206 32.8387 88.1507 32.8747 88.0787 32.9077C88.0069 32.9408 87.9337 32.9702 87.8585 32.9964C87.7834 33.0226 87.7073 33.0455 87.6295 33.0645C87.552 33.0838 87.4736 33.0996 87.3945 33.1116C87.3151 33.1238 87.2353 33.1322 87.1549 33.1371C87.0747 33.142 86.9943 33.1431 86.9137 33.1406C86.8332 33.1381 86.7527 33.1321 86.6729 33.1223C86.593 33.1126 86.5134 33.0993 86.435 33.0822C86.3563 33.0654 86.2787 33.0448 86.2021 33.0207C86.1253 32.997 86.0504 32.9694 85.9765 32.9387C85.9028 32.908 85.8308 32.874 85.7606 32.8367C85.6903 32.7993 85.6222 32.7591 85.5561 32.7156C85.4901 32.6722 85.4263 32.626 85.3652 32.5765C85.304 32.5274 85.2456 32.4757 85.1899 32.4212C85.1341 32.3669 85.0811 32.3101 85.0315 32.2511C84.9816 32.1917 84.935 32.1307 84.8917 32.0675C84.8482 32.0039 84.8085 31.939 84.7718 31.8721C84.7354 31.8053 84.7025 31.7371 84.6732 31.6672C84.6439 31.5976 84.6183 31.5267 84.5966 31.4547C84.5749 31.3827 84.5569 31.31 84.5427 31.2364C84.5288 31.1629 84.5187 31.089 84.5123 31.0145C84.5062 30.9404 84.5038 30.8657 84.5055 30.7912C84.5071 30.7167 84.5128 30.6427 84.5223 30.5687C84.5319 30.495 84.5454 30.4218 84.5626 30.3492C84.58 30.2767 84.6012 30.2051 84.6261 30.1346C84.651 30.064 84.6797 29.9947 84.7121 29.9267C84.7445 29.8591 84.7804 29.7927 84.8197 29.7284C84.8594 29.6639 84.9022 29.6012 84.9482 29.5407C84.9943 29.4802 85.0435 29.4218 85.096 29.3659C85.1482 29.31 85.2037 29.2565 85.2618 29.2054C85.3199 29.1544 85.3805 29.1064 85.4438 29.061C85.5071 29.0157 85.5728 28.9734 85.6407 28.9341C85.7086 28.8948 85.7785 28.8585 85.8503 28.8258C85.9221 28.7928 85.9955 28.7633 86.0704 28.7369C86.1456 28.7107 86.2217 28.6881 86.2994 28.6687C86.377 28.6494 86.4554 28.6339 86.5348 28.6217C86.6139 28.6097 86.6939 28.601 86.7741 28.5964C86.8543 28.5915 86.9349 28.5902 87.0155 28.5927C87.096 28.5951 87.1762 28.6014 87.2561 28.6112C87.3362 28.6207 87.4155 28.6343 87.4942 28.6511C87.5727 28.6682 87.6503 28.6884 87.7268 28.7125C87.8036 28.7366 87.8786 28.7638 87.9525 28.7946C88.0264 28.8256 88.0982 28.8595 88.1684 28.8969C88.2389 28.934 88.307 28.9745 88.3728 29.0179C88.4389 29.0613 88.5026 29.1076 88.5638 29.1567C88.625 29.2058 88.6836 29.2575 88.7393 29.3121C88.7949 29.3666 88.8478 29.4234 88.8975 29.4824C88.9474 29.5415 88.994 29.6028 89.0372 29.6661C89.0808 29.7293 89.1205 29.7945 89.1571 29.8614C89.1936 29.928 89.2264 29.9965 89.2558 30.0661C89.2851 30.1359 89.3106 30.2069 89.3324 30.2788C89.3541 30.3508 89.3721 30.4236 89.3862 30.4971C89.4001 30.5706 89.4103 30.6446 89.4167 30.7187C89.4228 30.7932 89.4251 30.8675 89.4235 30.942Z" fill="#F5A3BF"/>
<path d="M90.2216 21.3232C90.2183 21.4733 90.2149 21.6235 90.2115 21.774C90.1581 21.8624 90.1129 21.9614 90.051 22.0496C89.9984 22.1082 89.9375 22.1363 89.8765 22.1846C89.4574 22.5228 89.2831 23.0387 89.1253 23.5751C89.0507 23.8434 88.9932 24.1122 88.9187 24.3808C88.8244 24.7586 88.7305 25.1267 88.6277 25.5045C88.5343 25.8524 88.4402 26.2205 88.3382 26.5681C88.2172 26.9956 88.0454 27.3912 87.8314 27.7556C87.5096 28.3472 87.0876 28.8156 86.5903 29.1913C86.2328 29.4609 85.8597 29.6599 85.4618 29.8182C85.0986 29.9574 84.7188 30.076 84.3489 30.1249C83.9961 30.1842 83.6441 30.2036 83.2929 30.1929C82.8731 30.18 82.4625 30.1372 82.0535 30.0245C81.6955 29.9232 81.3465 29.8124 81.0067 29.6716C80.65 29.5204 80.3113 29.3295 79.9908 29.099C79.6027 28.8165 79.2505 28.4649 78.9508 28.0548C78.5852 27.5423 78.2804 26.9818 78.0281 26.3823C77.792 25.8239 77.6164 25.2371 77.4495 24.6505C77.3468 24.2565 77.2612 23.8729 77.15 23.4785C77.0709 23.1755 76.9483 22.9112 76.7738 22.6651C76.6821 22.542 76.5655 22.3881 76.4196 22.4036C76.1193 22.4044 75.8217 22.2952 75.5117 22.3558C75.2966 22.3891 75.1486 22.495 75.0325 22.7018C74.7911 23.1456 74.6768 23.6533 74.5456 24.1506C74.4621 24.4386 74.4129 24.718 74.3208 24.9958C74.2108 25.3232 74.0664 25.6395 73.9225 25.9459C73.7071 26.3702 73.4747 26.7942 73.2341 27.1977C72.9674 27.6307 72.6586 28.0222 72.3163 28.3727C72.0531 28.6452 71.7735 28.8773 71.4689 29.0784C71.1817 29.27 70.8697 29.421 70.5418 29.5111C70.1971 29.5909 69.8692 29.6809 69.5251 29.7305C69.2502 29.7623 68.9667 29.7836 68.6842 29.7649C68.2215 29.7507 67.7681 29.7066 67.3061 29.6625C67.1949 29.6491 67.0754 29.6255 66.9647 29.5919C66.6837 29.5031 66.4027 29.4244 66.1222 29.3154C65.8927 29.2282 65.6804 29.1316 65.4686 29.0148C65.1641 28.8349 64.8597 28.6453 64.5913 28.3765C64.3227 28.1176 64.0893 27.8196 63.9428 27.4644C63.7881 27.1086 63.6764 26.7345 63.5473 26.3695C63.4433 26.0355 63.3478 25.7018 63.244 25.3679C63.1562 25.0743 63.0771 24.7714 62.9978 24.488C62.9268 24.2153 62.8641 23.9427 62.8104 23.6605C62.7554 23.4381 62.7262 23.2168 62.6712 22.9947C62.6244 22.7825 62.5862 22.5709 62.5222 22.3685C62.3856 21.9534 62.1098 21.6441 61.8857 21.3164C61.7194 21.0809 61.5622 20.8255 61.5611 20.4946C61.5617 20.4644 61.5366 20.4337 61.5287 20.4033C61.5395 19.9225 61.5498 19.4618 61.5603 18.9907C61.6292 18.9729 61.6894 18.9647 61.7586 18.9369C61.9652 18.903 62.1806 18.8595 62.3958 18.8159C62.5854 18.7818 62.7749 18.7374 62.9642 18.703C63.1192 18.6778 63.2742 18.6423 63.4294 18.6072C63.6016 18.5723 63.7658 18.5171 63.9381 18.4825C64.1189 18.4478 64.2911 18.4129 64.4719 18.3785C64.6871 18.3449 64.9025 18.2913 65.1176 18.258C65.3243 18.2241 65.5392 18.1905 65.7456 18.1669C66.1068 18.1178 66.4594 18.0685 66.8196 18.0596C67.7203 18.047 68.6106 18.1042 69.4984 18.282C70.0102 18.3878 70.5059 18.4631 71.0183 18.559C71.1124 18.5721 71.2145 18.5952 71.3082 18.628C71.5636 18.706 71.8279 18.7743 72.0835 18.8423C72.254 18.8877 72.4245 18.9329 72.5949 18.9783C72.893 19.0676 73.1993 19.1773 73.5061 19.2569C73.8386 19.3472 74.1712 19.4276 74.5126 19.4982C74.8881 19.5699 75.2731 19.6119 75.6668 19.634C75.9752 19.6534 76.301 19.6434 76.6101 19.6326C76.936 19.6227 77.254 19.5922 77.5718 19.562C77.9588 19.5137 78.3545 19.4557 78.7417 19.3872C78.9827 19.3547 79.2239 19.3019 79.4649 19.2591C79.7663 19.1982 80.0677 19.1373 80.3691 19.0764C80.6362 19.0244 80.9115 18.9826 81.1783 18.9306C81.2731 18.9136 81.3589 18.9062 81.4539 18.8789C81.6691 18.8456 81.8932 18.7923 82.1082 18.7587C82.3748 18.727 82.6501 18.6852 82.9248 18.6634C83.1997 18.6419 83.4663 18.6099 83.7407 18.5983C83.9038 18.5933 84.0756 18.5783 84.2297 18.5933C84.5895 18.6044 84.9405 18.6251 85.2999 18.6561C85.5907 18.685 85.8888 18.7745 86.1792 18.8233C86.5206 18.894 86.8709 18.9449 87.2034 19.0353C87.4931 19.1143 87.7911 19.2035 88.0804 19.3028C88.3275 19.3805 88.566 19.448 88.8039 19.5454C89.1439 19.6762 89.4673 19.7762 89.8175 19.8471C89.8943 19.8594 89.9621 19.8917 90.0212 19.9338C90.1402 19.9773 90.1883 20.1291 90.2543 20.2415C90.2514 20.3717 90.2483 20.5119 90.2452 20.6524C90.1632 20.8703 90.1666 21.1008 90.2216 21.3232Z" fill="black"/>
<path d="M90.2216 21.3232C90.1668 21.0908 90.1632 20.8703 90.2371 20.6319C90.2317 20.8724 90.2265 21.1026 90.2216 21.3232Z" fill="black"/>
<path d="M72.7754 36.5966C70.0423 36.5128 68.9769 33.934 68.8097 32.5855C68.7656 32.2534 68.9698 31.9488 69.2541 31.8874C69.5382 31.8359 69.7985 32.0746 69.8513 32.397C69.8655 32.5278 70.2753 35.2969 72.8198 35.3749C74.8418 35.4369 75.2891 32.6941 75.3086 32.5843C75.3674 32.2553 75.6298 32.033 75.9199 32.0918C76.2014 32.1606 76.3918 32.4573 76.3413 32.7965C76.1229 34.1331 75.1146 36.6683 72.7754 36.5966Z" fill="black"/>
<path d="M79.5011 36.8028C76.768 36.719 75.7026 34.1402 75.5354 32.7917C75.4914 32.4596 75.6956 32.155 75.9799 32.0936C76.264 32.0421 76.5243 32.2808 76.5771 32.6032C76.5915 32.724 77.0011 35.5031 79.5458 35.5811C81.5676 35.6431 82.0148 32.9003 82.0344 32.7905C82.0932 32.4615 82.3555 32.2392 82.6457 32.298C82.9359 32.3571 83.1176 32.6635 83.0671 33.0027C82.8401 34.3391 81.8403 36.8745 79.5011 36.8028Z" fill="black"/>
<path d="M90.9297 12.6637C90.8954 12.6626 90.8529 12.6514 90.8188 12.6403C90.6744 12.5757 90.5832 12.4426 90.5609 12.2817L90.183 8.87166L87.5601 7.30759C87.4334 7.22358 87.3507 7.08075 87.3547 6.90037C87.3585 6.73026 87.4389 6.58216 87.5694 6.50603L90.2261 5.02371L90.6879 1.62944C90.7088 1.45984 90.806 1.32253 90.9529 1.27685C91.0998 1.22118 91.2359 1.27554 91.3361 1.39895L93.3637 3.89689L96.2735 3.35449C96.4199 3.32904 96.5556 3.39336 96.6383 3.53619C96.7207 3.67901 96.7252 3.85966 96.6621 3.99801L95.2659 7.01262L96.6034 10.0811C96.6687 10.2234 96.6559 10.4135 96.5757 10.5413C96.4873 10.6689 96.3397 10.7445 96.2034 10.7104L93.311 10.0802L91.2329 12.5227C91.1366 12.6099 91.0411 12.6671 90.9297 12.6637ZM88.5804 6.91799L90.6957 8.17564C90.8055 8.24915 90.8799 8.37177 90.894 8.5125L91.201 11.2688L92.8824 9.30545C92.9707 9.1978 93.0915 9.1613 93.2195 9.18547L95.5576 9.68802L94.4727 7.20901C94.4156 7.07694 94.419 6.92648 94.4819 6.79809L95.6171 4.34694L93.2664 4.78615C93.1461 4.80242 93.0185 4.75859 92.9264 4.65539L91.2825 2.64029L90.9383 5.37632C90.9181 5.516 90.8382 5.64386 90.734 5.70083L88.5804 6.91799Z" fill="black"/>
<path d="M95.3959 21.1308C95.2845 21.1274 95.1829 21.0644 95.1084 20.9518L93.7238 18.8343L91.4574 18.9652C91.3117 18.9707 91.1765 18.8865 91.1111 18.7342C91.0372 18.5913 91.0498 18.4115 91.1302 18.2734L92.4222 16.0877L91.6117 13.6068C91.5551 13.4548 91.5935 13.2755 91.6905 13.1481C91.7875 13.0308 91.9431 12.9757 92.0705 13.0295L94.2482 13.798L96.0173 12.1282C96.1311 12.0213 96.2859 12.0061 96.413 12.0699C96.5399 12.1442 96.6226 12.2871 96.6356 12.468L96.6876 15.1257L98.5842 16.5774C98.7021 16.6712 98.7673 16.8337 98.7549 17.0036C98.7423 17.1737 98.6451 17.311 98.4978 17.3766L96.3518 18.2633L95.7543 20.821C95.7164 20.9904 95.6023 21.1072 95.4641 21.1432C95.4558 21.1326 95.4217 21.1316 95.3959 21.1308ZM93.9151 17.9479C94.0265 17.9513 94.1451 18.0151 94.2026 18.1272L95.239 19.7128L95.6935 17.792C95.7222 17.6525 95.8105 17.5449 95.9403 17.4887L97.55 16.8263L96.1253 15.7401C96.0242 15.6569 95.9586 15.5246 95.9532 15.3841L95.912 13.3879L94.5894 14.6405C94.4929 14.7377 94.3552 14.7637 94.2447 14.7201L92.6111 14.1487L93.221 16.0221C93.2696 16.1539 93.2487 16.3135 93.186 16.4319L92.2233 18.0765L93.9318 17.9786C93.8981 17.9474 93.9066 17.9476 93.9151 17.9479Z" fill="black"/>
<path d="M65.3065 17.8626C65.2295 17.8602 65.1529 17.8379 65.0767 17.7854C64.8485 17.6381 64.7621 17.2947 64.9051 17.0285C64.9678 16.9101 65.4793 15.8832 66.1897 15.5643C66.8568 15.2536 67.5231 15.3545 67.5829 15.3663C67.8394 15.4041 68.0215 15.6906 67.9892 15.9901C67.9566 16.29 67.7119 16.5029 67.4556 16.4651C67.4556 16.4651 66.977 16.3902 66.535 16.6071C66.2233 16.7481 65.8583 17.3383 65.7323 17.605C65.6432 17.7629 65.4779 17.8679 65.3065 17.8626Z" fill="black"/>
<path d="M85.8551 18.3723C85.7008 18.3675 85.5656 18.2833 85.4746 18.1302C85.3097 17.8343 84.927 17.3116 84.6211 17.1918C84.1703 17.0277 83.6964 17.1333 83.6879 17.133C83.4291 17.1952 83.1765 16.9973 83.1317 16.6951C83.0785 16.3926 83.2481 16.0972 83.5063 16.045C83.5841 16.0271 84.2387 15.887 84.9188 16.1485C85.6414 16.4213 86.2105 17.4211 86.2681 17.5329C86.4168 17.7881 86.3489 18.1371 86.1309 18.3006C86.0442 18.3481 85.9492 18.3752 85.8551 18.3723Z" fill="black"/>
<path d="M74.8257 41.5213C74.0462 41.4974 73.2327 41.4525 72.2485 41.3721C70.9988 41.2736 69.7858 41.0762 68.6345 40.8002C67.0913 40.4221 65.7484 39.8896 64.5209 39.1905C63.0734 38.3642 61.904 37.356 60.9539 36.134C60.0121 34.9221 59.2464 33.5153 58.6808 31.9644C58.2365 30.7477 57.9729 29.4967 57.8895 28.2412C57.8842 28.1004 57.8702 27.9597 57.8648 27.8192L57.8524 27.5984L57.9004 26.2266L57.9191 26.1567C57.9193 26.1468 57.9281 26.1371 57.9283 26.1271C58.0042 25.4177 58.1312 24.7198 58.3181 24.0341C58.9059 21.8966 59.9349 19.9734 61.3871 18.3039C61.401 18.0637 61.4149 17.8237 61.4288 17.5835C61.4571 17.093 61.4768 16.5926 61.5309 16.083C61.6447 14.8332 61.7648 13.6843 61.9011 12.5656C62.0068 11.6769 62.1705 10.8698 62.3933 10.1147C62.5049 9.72714 62.652 9.28053 62.9349 8.89827C63.1564 8.58455 63.4683 8.43357 63.8106 8.46402C64.17 8.49529 64.4754 8.63497 64.7292 8.79303C65.4237 9.17533 66.0465 9.69543 66.6011 10.2038C68.1309 11.5638 69.5208 13.0598 70.5661 14.2348C70.678 14.2182 70.7988 14.1817 70.9109 14.1552C71.4452 14.0413 71.988 13.9173 72.5387 13.8242C73.3046 13.6971 73.9238 13.616 74.4992 13.5735C74.8772 13.5448 75.2801 13.5372 75.7087 13.5504C76.2228 13.5661 76.7191 13.6013 77.0953 13.6531C78.0791 13.7534 79.1387 13.9062 80.326 14.1131C80.4403 13.9863 80.5633 13.8495 80.6864 13.713C80.8097 13.5665 80.9501 13.4205 81.0734 13.2737C82.0052 12.2498 83.1209 11.051 84.3276 9.99529L84.3799 9.95698C85.1055 9.32765 85.8491 8.66865 86.79 8.38668L86.8504 8.36857L87.3299 8.39325L87.4307 8.48674C87.4559 8.50747 87.4898 8.52847 87.5147 8.55946C87.5992 8.62222 87.7005 8.69547 87.7921 8.80835C88.0758 9.15809 88.2207 9.58342 88.3323 9.95783C88.6916 11.1517 88.8699 12.3702 89.0075 13.507C89.1895 14.956 89.3183 16.4838 89.4172 18.1909C90.7889 19.7266 91.7947 21.5217 92.4275 23.5161C93.0837 25.6109 93.1983 27.7699 92.7641 29.9318C92.522 31.1773 92.0828 32.4071 91.4547 33.6608C90.5121 35.5566 89.2861 37.0828 87.8034 38.2102C86.4775 39.222 84.9601 39.9876 83.1818 40.5245C81.1701 41.1543 78.9682 41.4678 76.4208 41.51C75.9141 41.5447 75.3828 41.5384 74.8257 41.5213ZM58.7019 27.5743L58.7066 27.745C58.712 27.8854 58.7259 28.0361 58.7316 28.1666C58.8001 29.3116 59.0405 30.4516 59.4529 31.5669C59.986 33.0267 60.6942 34.3316 61.5864 35.4617C62.4785 36.5917 63.5463 37.5267 64.9011 38.2899C66.0607 38.9571 67.3446 39.4476 68.8195 39.8136C69.9279 40.0879 71.0983 40.2844 72.3138 40.3718C73.2809 40.4414 74.0856 40.4963 74.8481 40.5197C75.3966 40.5365 75.9195 40.5422 76.4167 40.5375C78.8783 40.5026 81.0203 40.1876 82.9628 39.5854C84.6549 39.0661 86.077 38.3478 87.3328 37.3939C88.7197 36.3437 89.8221 34.964 90.711 33.1769C91.2947 32.002 91.6885 30.8712 91.9286 29.7256C92.324 27.7631 92.2134 25.805 91.6217 23.8923C91.0378 22.0098 90.0724 20.3263 88.7674 18.8728C88.6587 18.7491 88.5772 18.5661 88.5727 18.3755C88.4825 16.6587 88.3457 15.1107 88.1637 13.6716C88.0253 12.5747 87.8626 11.4168 87.5186 10.3039C87.4311 10.0103 87.3349 9.70653 87.1593 9.51066C87.1341 9.47996 87.0836 9.4382 87.0416 9.40697L86.9302 9.40356C86.1702 9.65086 85.5406 10.193 84.8759 10.784L84.8235 10.8226C83.6516 11.8492 82.5541 13.0083 81.6481 14.0233C81.5251 14.1599 81.3845 14.3158 81.2614 14.4523C81.1031 14.628 80.9537 14.7939 80.7954 14.9696C80.6898 15.0864 80.5342 15.1517 80.3799 15.147C80.3543 15.1462 80.3285 15.1454 80.3031 15.1347C79.0736 14.8965 77.9969 14.7432 77.0047 14.6426C76.6365 14.6114 76.1577 14.5565 75.6606 14.5412C75.2494 14.5286 74.8721 14.5373 74.5199 14.5664C73.9701 14.6097 73.3684 14.6817 72.6279 14.8192C72.0943 14.9132 71.5519 15.0169 71.0349 15.1314C70.8799 15.1566 70.7333 15.2023 70.5868 15.2277C70.3715 15.2813 70.1758 15.2051 70.0253 15.0303C68.9883 13.8656 67.6076 12.3496 66.0605 10.989C65.5307 10.5217 64.9671 10.0333 64.3405 9.68333C64.1543 9.57724 63.951 9.47093 63.7285 9.45413L63.7112 9.4536C63.6512 9.45176 63.6168 9.46068 63.5551 9.53891C63.3696 9.78388 63.2676 10.1215 63.1749 10.4395C62.9705 11.135 62.8167 11.8819 62.7123 12.7108C62.5761 13.8295 62.465 14.9587 62.3516 16.1983C62.315 16.6785 62.2785 17.1684 62.2502 17.6588C62.2354 17.939 62.221 18.1992 62.2062 18.4793C62.1936 18.6594 62.1211 18.8377 62.0153 18.9648C60.6429 20.5267 59.6676 22.3511 59.1084 24.3489C58.9315 24.975 58.8141 25.623 58.7564 26.2828C58.7555 26.323 58.7458 26.3726 58.7366 26.4025L58.7019 27.5743Z" fill="black"/>
<path d="M58.9464 26.6094C58.895 26.6078 58.8609 26.5968 58.8184 26.5855L56.9248 25.7655C56.6955 25.6684 56.5906 25.3743 56.6732 25.1262C56.7563 24.8581 57.0078 24.7355 57.2199 24.8322L59.1135 25.6521C59.3428 25.7496 59.4477 26.0434 59.3651 26.2915C59.2919 26.4997 59.1263 26.6149 58.9464 26.6094Z" fill="black"/>
<path d="M56.8897 28.8621C56.6927 28.856 56.5169 28.6702 56.4877 28.4386C56.4596 28.1671 56.6109 27.9111 56.8432 27.878L58.84 27.5283C59.0722 27.4955 59.2912 27.6725 59.3196 27.944C59.3476 28.2154 59.1963 28.4717 58.9641 28.5045L56.9672 28.8542C56.9497 28.8639 56.9241 28.8631 56.8897 28.8621Z" fill="black"/>
<path d="M91.9329 26.8489C91.753 26.8433 91.5933 26.6982 91.5466 26.4863C91.4841 26.2138 91.6187 25.947 91.8433 25.8737L93.786 25.2618C94.0191 25.1888 94.2471 25.3461 94.3097 25.6086C94.3722 25.8811 94.2377 26.1476 94.0131 26.2209L92.0704 26.8331C92.0185 26.8515 91.967 26.8499 91.9329 26.8489Z" fill="black"/>
<path d="M93.7896 29.3216C93.7637 29.3208 93.7296 29.3198 93.704 29.309L91.7448 28.7377C91.5148 28.6704 91.3751 28.4055 91.4328 28.1267C91.4901 27.8578 91.7167 27.6943 91.9552 27.7618L93.9144 28.3331C94.1444 28.4003 94.2843 28.6652 94.2266 28.9441C94.17 29.173 93.9865 29.3276 93.7896 29.3216Z" fill="black"/>
</g>
<defs>
<clipPath id="clip0_202_57">
<rect width="49.3532" height="43.2597" fill="white" transform="matrix(0.99953 0.0306454 -0.0223593 0.99975 0.967346 -0.000152588)"/>
</clipPath>
<clipPath id="clip1_202_57">
<rect width="49.3532" height="43.2597" fill="white" transform="matrix(0.99953 0.0306454 -0.0223593 0.99975 99.7329 -0.000152588)"/>
</clipPath>
<clipPath id="clip2_202_57">
<rect width="49.3532" height="43.2597" fill="white" transform="matrix(0.99953 0.0306454 -0.0223593 0.99975 51.2645 -0.000152588)"/>
</clipPath>
</defs>
</svg>
