<svg viewBox="0 0 205 30" fill="none" xmlns="http://www.w3.org/2000/svg">
<path d="M11.2942 10.853C10.4132 11.5814 9.40247 11.873 8.52146 11.873C5.4882 11.8156 4.67263 9.16101 8.39058 8.02287C10.7391 7.29338 14.4571 7.26412 18.1423 7.38118C14.6861 10.0357 14.0657 15.695 11.4893 18.9913C8.94561 22.3179 3.79283 22.0545 3.04269 18.5544C2.87909 17.8835 2.3895 18.0872 2.09624 18.5544C-0.186887 21.9092 -0.317767 28.5603 5.35732 28.5603C9.108 28.5603 12.8272 25.8764 14.9467 19.9831C17.1644 13.8577 18.0781 7.5557 26.7865 7.84727C30.8631 7.96434 33.9933 5.89293 34.2551 1.34256C34.2878 0.525266 33.7655 0.875378 33.2432 1.16696C30.9928 2.47961 23.7205 1.80865 18.3714 1.80865C12.0116 1.80865 5.61908 4.23017 3.76011 10.1821C2.61854 13.8577 4.15153 17.154 8.26091 16.6283C9.53214 16.483 12.2067 15.024 11.7825 10.9983C11.7498 10.7067 11.5547 10.6189 11.2942 10.853Z" fill="#333231"/>
<path d="M29.5578 13.8285C27.0142 13.8285 23.2635 15.7243 21.3064 13.2442C20.8168 12.6611 20.4908 12.7196 20.0666 13.216C19.2523 14.2653 18.8936 16.0744 20.5889 16.7453C20.8822 16.8624 21.2082 16.9209 21.5996 16.9491C21.6323 17.8542 21.1113 18.6704 19.9697 18.6997C19.3492 18.7289 18.7627 18.4666 18.5991 17.8249C18.5664 17.6493 18.404 17.6201 18.2404 17.7079C16.7074 18.4666 16.545 21.2968 19.0232 21.5298C21.8287 21.7629 23.6222 19.1669 23.0672 16.8624C23.7531 16.7453 24.4378 16.5416 24.9916 16.3367C28.0249 15.0826 28.2212 16.7453 26.3622 18.7582C24.8292 20.3917 22.2201 21.3543 21.3391 23.3379C20.1321 26.051 21.9256 28.5603 25.3176 28.5603C29.0367 28.5603 32.9498 24.4175 33.6672 21.2968C33.7981 20.7711 33.8308 20.3039 33.7654 20.0416C33.6999 19.7793 33.4067 19.6915 33.1461 19.9831C32.396 20.8296 31.2544 21.325 30.2753 21.325C28.0249 21.325 28.3193 19.633 29.6887 18.6997C31.2544 17.6201 32.8529 16.1914 32.4929 15.0826C32.2978 14.4702 31.4168 13.7992 29.5578 13.8285Z" fill="#333231"/>
<path d="M32.1024 24.3308C32.1678 27.1891 33.7323 28.5603 35.6567 28.5603C37.2552 28.5603 38.593 27.6856 39.7661 26.5182C39.9624 27.7723 40.875 28.5603 42.2128 28.5603C45.9635 28.5603 49.8451 24.4468 50.5952 21.2968C50.6921 20.7711 50.7576 20.3332 50.6921 20.0416C50.5952 19.8086 50.3334 19.6915 50.0729 20.0124C49.3228 20.8589 48.1485 21.325 47.1705 21.325C45.9962 21.325 45.0825 20.6833 45.377 19.3707C45.9308 17.1248 48.7035 16.133 49.942 14.5862C50.2038 14.2079 49.942 13.9738 49.616 13.9738C49.4209 13.9738 49.2246 14.0908 49.0622 14.2079C47.757 14.9363 46.55 13.9738 45.377 13.9738C44.9528 13.9738 44.8547 14.2946 44.8547 14.6154C44.8874 15.6073 44.7892 16.4245 44.5941 17.1248C44.496 17.4163 44.2669 17.5041 44.2354 17.1248C44.17 15.3449 43.1908 13.9738 41.0386 13.9738C35.9185 13.9738 32.0697 20.0124 32.1024 24.3308ZM38.7227 18.2629C40.9077 18.2629 42.7024 19.1376 42.7024 20.2465C42.7024 21.3543 40.9077 22.2594 38.7227 22.2594C36.5377 22.2594 34.8097 21.3543 34.8097 20.2465C34.8097 19.1376 36.5377 18.2629 38.7227 18.2629Z" fill="#333231"/>
<path d="M56.2705 14.4701C56.4329 14.1786 56.1723 13.9737 55.9118 13.9737C55.6827 13.9737 55.4876 14.0908 55.324 14.2078C54.117 14.907 52.7149 13.9737 51.8012 13.9737C51.3455 13.9737 51.2473 14.2653 51.2473 14.5861C51.3782 18.3203 48.1486 24.9139 45.5395 27.8893C45.279 28.2101 45.1481 28.5603 45.7674 28.5603H51.932C52.584 28.5603 52.7803 28.2687 52.7149 27.7722C52.258 24.5345 52.1599 20.6258 54.8344 18.2628C57.9986 15.4912 61.4887 16.4537 57.509 20.1001C56.2705 21.2382 54.7048 22.346 54.2152 23.5134C53.0082 26.2558 54.443 28.5603 57.8022 28.5603C61.5541 28.5603 65.4672 24.4174 66.1846 21.2968C66.3155 20.7711 66.3482 20.3039 66.2828 20.0416C66.2173 19.7793 65.9241 19.6915 65.6635 19.983C64.9134 20.8296 63.7718 21.325 62.7599 21.325C60.5095 21.325 60.8355 19.6329 62.2061 18.6997C63.7718 17.6201 65.3375 16.1914 65.0103 15.0826C64.7825 14.4701 63.9015 13.7992 62.0425 13.8284C59.9557 13.8284 57.509 14.7032 56.0741 15.8998C55.0962 16.7161 54.346 16.3074 55.5518 15.2571C55.8463 14.9948 56.1396 14.7032 56.2705 14.4701Z" fill="#333231"/>
<path d="M78.4153 20.0416C79.6877 18.4667 80.0464 17.0662 79.4587 15.9281C78.5789 14.2946 75.5783 13.9738 73.7836 13.9738C71.9246 13.9738 69.9359 14.2946 68.6308 14.9363C67.1632 15.6658 65.9235 16.921 66.218 18.4959C66.5113 20.1294 68.4357 20.7126 69.9687 21.209C72.9038 22.2009 71.0775 23.1634 68.8598 22.9011C67.3596 22.7255 65.8581 21.6177 66.218 20.2465C66.3477 19.7793 65.9235 19.9549 65.6302 20.1294C64.0645 21.2676 63.2162 22.8425 63.249 24.3015C63.2817 27.1891 66.3149 28.5603 69.3482 28.5603C72.6747 28.5603 76.0667 27.0721 77.144 24.0967C77.8942 22.1131 76.6217 21.1213 74.4695 20.6541C73.2952 20.3918 71.9246 20.3332 70.8485 20.1002C68.3375 19.517 68.8913 18.2629 71.1417 18.1166C72.4142 18.0288 73.9799 18.2629 74.9578 18.5545C76.1648 18.8753 77.4373 19.517 77.7633 20.1002C77.9584 20.4503 78.1874 20.304 78.4153 20.0416Z" fill="#333231"/>
<path d="M79.6881 22.3461C78.578 26.6645 81.97 28.5603 85.4928 28.5603C90.4505 28.5603 94.0061 25.6727 95.0167 21.2968C95.1476 20.7711 95.1791 20.304 95.1476 20.0416C95.0822 19.7793 94.7562 19.6915 94.4944 19.9831C92.6355 22.0838 88.7539 23.3672 85.6237 22.8425C80.7642 21.996 81.318 18.729 85.917 18.2336C87.9723 18.0288 90.3523 18.4374 91.2988 20.1002C91.4939 20.4503 91.7544 20.3332 91.9508 20.0416C94.2339 16.6869 93.4183 13.9738 89.7658 13.9738C84.71 13.9738 80.7315 18.3789 79.6881 22.3461Z" fill="#333231"/>
<path d="M93.5495 22.3461C92.4395 26.6645 95.8314 28.5603 99.3543 28.5603C104.279 28.5603 107.868 25.6727 108.878 21.2968C108.976 20.7711 109.041 20.304 108.976 20.0416C108.911 19.7793 108.618 19.6915 108.356 19.9831C107.019 21.5006 104.638 22.5802 102.224 22.8718C104.931 22.0838 106.693 19.6048 107.052 17.154C107.28 15.2571 106.138 13.9738 103.627 13.9738C98.5714 13.9738 94.5602 18.3789 93.5495 22.3461ZM99.713 18.2336C101.67 18.2336 103.301 19.1376 103.301 20.2465C103.301 21.3543 101.67 22.2301 99.713 22.2301C97.7231 22.2301 96.1259 21.3543 96.1259 20.2465C96.1259 19.1376 97.7231 18.2336 99.713 18.2336Z" fill="#333231"/>
<path d="M114.553 14.4701C114.716 14.1786 114.455 13.9737 114.195 13.9737C113.966 13.9737 113.771 14.0908 113.607 14.2078C112.4 14.907 110.998 13.9737 110.084 13.9737C109.628 13.9737 109.53 14.2653 109.53 14.5861C109.661 18.3203 106.432 24.9139 103.822 27.8893C103.562 28.2101 103.431 28.5603 104.05 28.5603H110.215C110.867 28.5603 111.063 28.2687 110.998 27.7722C110.541 24.5345 110.443 20.6258 113.117 18.2628C116.282 15.4912 119.772 16.4537 115.792 20.1001C114.553 21.2382 112.988 22.346 112.498 23.5134C111.291 26.2558 112.726 28.5603 116.085 28.5603C119.837 28.5603 123.75 24.4174 124.468 21.2968C124.598 20.7711 124.631 20.3039 124.566 20.0416C124.5 19.7793 124.207 19.6915 123.946 19.983C123.196 20.8296 122.055 21.325 121.043 21.325C118.792 21.325 119.118 19.6329 120.489 18.6997C122.055 17.6201 123.62 16.1914 123.293 15.0826C123.065 14.4701 122.184 13.7992 120.325 13.8284C118.239 13.8284 115.792 14.7032 114.357 15.8998C113.379 16.7161 112.629 16.3074 113.835 15.2571C114.129 14.9948 114.423 14.7032 114.553 14.4701Z" fill="#333231"/>
<path d="M138.166 6.68091C137.645 6.68091 137.448 6.88469 137.383 7.3226C136.959 10.5311 135.883 13.0696 134.644 15.4326C134.155 14.5286 133.241 13.9737 131.872 13.9737C126.719 13.9737 122.87 20.0123 122.903 24.3014C122.935 27.189 124.533 28.5602 126.457 28.5602C128.023 28.5602 129.393 27.7147 130.535 26.4888C130.763 27.7147 131.644 28.5602 133.046 28.5602C136.764 28.5602 140.678 24.4174 141.395 21.2967C141.525 20.771 141.558 20.3039 141.492 20.0415C141.428 19.7792 141.134 19.6914 140.873 19.983C140.123 20.8588 139.014 21.3249 138.069 21.3249C135.067 21.3249 136.6 17.6493 137.286 16.3074C139.08 12.9526 142.634 8.92683 144.298 7.20553C144.624 6.91396 144.429 6.68091 144.005 6.68091H138.166ZM129.556 18.2335C131.741 18.2335 133.503 19.1375 133.503 20.2464C133.503 21.3542 131.741 22.23 129.556 22.23C127.371 22.23 125.577 21.3542 125.577 20.2464C125.577 19.1375 127.371 18.2335 129.556 18.2335Z" fill="#333231"/>
<path d="M139.928 22.3461C138.818 26.6645 142.21 28.5603 145.733 28.5603C150.658 28.5603 154.246 25.6727 155.257 21.2968C155.355 20.7711 155.419 20.304 155.355 20.0416C155.289 19.7793 154.996 19.6915 154.734 19.9831C153.398 21.5006 151.016 22.5802 148.602 22.8718C151.31 22.0838 153.072 19.6048 153.43 17.154C153.658 15.2571 152.517 13.9738 150.006 13.9738C144.95 13.9738 140.939 18.3789 139.928 22.3461ZM146.092 18.2336C148.049 18.2336 149.68 19.1376 149.68 20.2465C149.68 21.3543 148.049 22.2301 146.092 22.2301C144.102 22.2301 142.504 21.3543 142.504 20.2465C142.504 19.1376 144.102 18.2336 146.092 18.2336Z" fill="#333231"/>
<path d="M160.932 14.4701C161.094 14.1786 160.834 13.9737 160.573 13.9737C160.344 13.9737 160.149 14.0908 159.986 14.2078C158.779 14.907 157.377 13.9737 156.463 13.9737C156.007 13.9737 155.909 14.2653 155.909 14.5861C156.04 18.3203 152.81 24.9139 150.201 27.8893C149.941 28.2101 149.81 28.5603 150.429 28.5603H156.594C157.246 28.5603 157.442 28.2687 157.377 27.7722C156.92 24.5345 156.821 20.6258 159.496 18.2628C162.66 15.4912 166.15 16.4537 162.171 20.1001C160.932 21.2382 159.366 22.346 158.877 23.5134C157.67 26.2558 159.105 28.5603 162.464 28.5603C166.216 28.5603 170.129 24.4174 170.846 21.2968C170.977 20.7711 171.01 20.3039 170.944 20.0416C170.879 19.7793 170.586 19.6915 170.325 19.983C169.575 20.8296 168.433 21.325 167.422 21.325C165.171 21.325 165.497 19.6329 166.868 18.6997C168.433 17.6201 169.999 16.1914 169.672 15.0826C169.444 14.4701 168.563 13.7992 166.704 13.8284C164.617 13.8284 162.171 14.7032 160.736 15.8998C159.758 16.7161 159.008 16.3074 160.213 15.2571C160.508 14.9948 160.801 14.7032 160.932 14.4701Z" fill="#333231"/>
<path d="M169.379 22.3461C168.269 26.6645 171.661 28.5603 175.184 28.5603C180.142 28.5603 183.697 25.6727 184.708 21.2968C184.839 20.7711 184.871 20.304 184.839 20.0416C184.774 19.7793 184.448 19.6915 184.186 19.9831C182.327 22.0838 178.445 23.3672 175.315 22.8425C170.456 21.996 171.009 18.729 175.608 18.2336C177.664 18.0288 180.044 18.4374 180.99 20.1002C181.185 20.4503 181.446 20.3332 181.642 20.0416C183.925 16.6869 183.11 13.9738 179.457 13.9738C174.401 13.9738 170.423 18.3789 169.379 22.3461Z" fill="#333231"/>
<path d="M183.241 22.3461C182.131 26.6645 185.523 28.5603 189.046 28.5603C193.971 28.5603 197.559 25.6727 198.57 21.2968C198.668 20.7711 198.732 20.304 198.668 20.0416C198.602 19.7793 198.309 19.6915 198.047 19.9831C196.711 21.5006 194.329 22.5802 191.915 22.8718C194.623 22.0838 196.385 19.6048 196.743 17.154C196.971 15.2571 195.83 13.9738 193.319 13.9738C188.263 13.9738 184.252 18.3789 183.241 22.3461ZM189.404 18.2336C191.362 18.2336 192.993 19.1376 192.993 20.2465C192.993 21.3543 191.362 22.2301 189.404 22.2301C187.415 22.2301 185.817 21.3543 185.817 20.2465C185.817 19.1376 187.415 18.2336 189.404 18.2336Z" fill="#333231"/>
<path d="M201.798 23.455C200.233 23.455 198.603 24.5931 198.146 26.0228C197.722 27.4222 198.634 28.5603 200.233 28.5603C201.798 28.5603 203.429 27.4222 203.854 26.0228C204.309 24.5931 203.364 23.455 201.798 23.455Z" fill="#333231"/>
</svg>
