<svg width="313" height="227" viewBox="0 0 313 227" fill="none" xmlns="http://www.w3.org/2000/svg">
<g clip-path="url(#clip0_140_4376)">
<path d="M41.6166 49.6962C41.6166 70.7855 38.4014 74.0219 38.4014 82.6196C38.4014 87.4728 41.7229 87.1195 43.2052 87.1195H72.277C74.361 87.1195 75.775 85.0978 75.775 82.1141V67.6497C75.775 64.9677 75.7389 61.8346 73.2658 61.8346C69.0618 61.8346 65.7061 73.011 57.1233 73.011C55.1095 73.011 55.0393 70.1279 55.0393 66.0302C55.0393 60.4677 55.7453 58.3428 59.8071 58.5955C62.9862 58.7993 64.5407 60.0139 66.7671 60.0139C68.6385 60.0139 69.3104 57.8373 69.3104 55.9162V45.7506C69.3104 43.8294 68.6385 41.6555 66.7671 41.6555C64.5407 41.6555 62.9862 42.8186 59.8071 43.0713C55.6049 43.4245 55.0393 40.9979 55.0393 35.3839C55.0393 31.2888 55.1095 28.4057 57.1233 28.4057C65.7061 28.4057 69.0618 39.5822 73.2658 39.5822C75.7389 39.5822 75.775 36.4464 75.775 33.7671V19.3026C75.775 16.319 74.361 14.2945 72.277 14.2945H43.7708C42.2866 14.2945 38.4014 13.9413 38.4014 18.7972C38.4014 26.7373 41.6166 28.6068 41.6166 49.6962Z" fill="#272324"/>
<path d="M90.9269 87.8776C96.0837 87.8776 97.3915 85.8043 101.77 85.8043C104.843 85.8043 106.257 87.1195 108.907 87.1195C109.825 87.1195 113.711 87.4728 113.711 82.6196C113.711 74.5762 110.495 76.0436 110.495 49.6962C110.495 35.7888 113.711 26.7373 113.711 18.7972C113.711 13.9413 109.825 14.2945 108.341 14.2945H99.9348C98.4506 14.2945 94.5653 13.9413 94.5653 18.7972C94.5653 26.3324 97.6022 33.2589 97.6022 39.3295C97.6022 41.0985 97.6724 41.4517 97.2852 41.4517C96.5431 41.4517 94.1402 35.7888 88.6303 35.7888C81.9189 35.7888 77.7148 44.5386 77.7148 61.8346C77.7148 78.674 83.0141 87.8776 90.9269 87.8776ZM91.3141 61.9351C91.3141 54.2994 92.5857 49.2397 94.4591 49.2397C96.3305 49.2397 97.6022 54.2994 97.6022 61.9351C97.6022 69.5192 96.3305 74.5762 94.4591 74.5762C92.5857 74.5762 91.3141 69.5192 91.3141 61.9351Z" fill="#272324"/>
<path d="M117.877 61.8345C117.877 71.0871 114.698 77.2066 114.698 82.6195C114.698 87.4727 118.018 87.1195 119.502 87.1195H129.746C131.23 87.1195 134.55 87.4727 134.55 82.6195C134.55 78.2174 131.336 70.5328 131.336 61.8345C131.336 58.09 131.3 51.5684 131.3 46.1554C131.3 38.0632 129.322 35.7887 127.555 35.7887C126.637 35.7887 122.752 37.4056 121.021 38.0632C117.841 39.2778 114.416 40.1881 114.416 43.6772C114.416 49.0385 117.877 50.707 117.877 61.8345ZM124.519 32.7535C126.603 32.7535 133.631 26.99 133.631 20.3134C133.631 16.3189 131.583 13.5364 129.252 13.5364C127.096 13.5364 125.578 15.7103 124.519 17.5309C123.494 15.7103 121.975 13.5364 119.821 13.5364C117.488 13.5364 115.44 16.3189 115.44 20.3134C115.44 26.99 122.469 32.7535 124.519 32.7535Z" fill="#272324"/>
<path d="M147.019 87.8776C150.762 87.8776 155.355 85.3505 155.355 80.8479C155.355 76.8534 150.409 77.4104 150.409 61.8346V42.161H151.857C152.988 42.161 153.765 41.0468 153.765 39.43V39.2779C153.765 37.661 152.988 36.5469 151.857 36.5469H150.409V23.2971C150.409 21.4765 150.162 18.9983 148.784 18.9983C147.549 18.9983 144.546 23.7536 141.367 28.0009C137.799 32.7535 135.291 36.2426 135.291 38.8241C135.291 40.8974 136.034 42.161 138.011 42.161C139.034 42.161 139.953 41.6555 140.589 41.6555C141.225 41.6555 141.578 42.1093 141.578 43.881C141.578 49.3918 135.255 58.7993 135.255 70.8344C135.255 81.7093 140.448 87.8776 147.019 87.8776Z" fill="#272324"/>
<path d="M169.836 82.5162C169.836 87.4727 173.721 87.1194 175.205 87.1194H181.14C183.471 87.1194 186.51 87.0189 186.51 82.5162C186.51 74.4756 183.401 72.4539 183.295 51.7178L191.773 74.7283C192.126 75.7419 192.656 76.2473 193.362 76.2473C194.034 76.2473 194.74 75.6902 195.022 74.6794L204.49 50.7069C204.49 72.4023 202.051 74.3234 202.051 82.5162C202.051 87.0189 205.09 87.1194 207.42 87.1194H216.534C218.017 87.1194 221.904 87.4727 221.904 82.5162C221.904 74.3234 218.689 72.4023 218.689 50.7069C218.689 29.0116 221.904 27.0905 221.904 18.8977C221.904 13.9412 218.017 14.2945 216.534 14.2945H206.361C204.877 14.3461 202.759 14.751 202.193 17.4303C199.58 24.5117 197.53 32.6013 195.412 38.9734C195.093 39.9354 194.74 40.3919 194.351 40.3919C193.961 40.3919 193.608 39.8837 193.291 38.9245L186.261 16.9249V16.9765C185.555 14.6994 183.612 14.3461 182.2 14.2945H175.205C173.721 14.2945 169.836 13.9412 169.836 18.8977C169.836 27.0905 173.051 29.0116 173.051 50.7069C173.051 72.4023 169.836 74.3234 169.836 82.5162Z" fill="#272324"/>
<path d="M222.255 98.1953C222.255 105.274 224.939 110.635 230.944 110.635C235.571 110.635 242.602 107.146 245.498 90.5595C246.593 84.2879 249.736 74.375 252.526 65.9811C258.285 48.6852 261.323 45.8537 261.323 40.9978C261.323 38.3158 259.909 36.5468 258.038 36.5468H249.842C247.865 36.5468 245.285 37.256 245.285 41.15C245.285 43.3238 246.204 45.4977 246.204 48.3292C246.204 52.1743 244.862 56.4215 243.697 61.3779C242.531 56.4215 241.187 52.1743 241.187 48.3292C241.187 45.4977 242.106 43.3238 242.106 41.15C242.106 37.256 239.529 36.5468 237.549 36.5468H226.282C224.409 36.5468 222.997 38.3158 222.997 40.9978C222.997 48.1281 226.635 50.4542 231.792 65.9811C234.582 74.375 235.642 82.6683 238.468 87.8775C238.008 90.6601 236.277 92.0242 234.193 92.0242C231.014 92.0242 229.815 89.0405 226.282 89.0405C223.35 89.0405 222.255 94.8067 222.255 98.1953Z" fill="#272324"/>
<path d="M3.41249 163.09C3.41249 184.785 0.197266 186.706 0.197266 194.899C0.197266 199.856 4.08248 199.502 5.56672 199.502H11.5018C12.9841 199.502 16.8712 199.856 16.8712 194.899C16.8712 186.858 13.7623 184.837 13.656 164.101L25.6666 196.72C26.5131 199.755 29.5518 199.502 30.8235 199.502H36.7927C38.277 199.502 42.1622 199.856 42.1622 194.899C42.1622 186.706 38.947 184.785 38.947 163.09C38.947 141.395 42.1622 139.473 42.1622 131.281C42.1622 126.324 38.277 126.677 36.7927 126.677H30.8235C29.3392 126.677 25.454 126.324 25.454 131.281C25.454 139.321 28.563 141.343 28.6693 162.131L16.6226 129.308V129.359C15.74 126.425 12.7735 126.677 11.5018 126.677H5.56672C4.08248 126.677 0.197266 126.324 0.197266 131.281C0.197266 139.473 3.41249 141.395 3.41249 163.09Z" fill="#272324"/>
<path d="M46.6822 174.217C46.6822 183.47 43.503 189.589 43.503 195.002C43.503 199.856 46.8226 199.502 48.3069 199.502H58.5504C60.0347 199.502 63.3543 199.856 63.3543 195.002C63.3543 190.6 60.1409 182.916 60.1409 174.217C60.1409 170.473 60.1049 163.951 60.1049 158.538C60.1049 150.446 58.1272 148.172 56.3601 148.172C55.4415 148.172 51.5563 149.788 49.8253 150.446C46.6461 151.661 43.2202 152.571 43.2202 156.06C43.2202 161.421 46.6822 163.09 46.6822 174.217ZM53.3233 145.136C55.4073 145.136 62.4356 139.373 62.4356 132.696C62.4356 128.702 60.3877 125.919 58.0569 125.919C55.9008 125.919 54.3824 128.093 53.3233 129.914C52.2984 128.093 50.78 125.919 48.6257 125.919C46.2931 125.919 44.2451 128.702 44.2451 132.696C44.2451 139.373 51.2735 145.136 53.3233 145.136Z" fill="#272324"/>
<path d="M64.5898 174.217C64.5898 187.214 71.267 200.26 83.6648 200.26C93.6616 200.26 98.1485 195.103 98.1485 190.5C98.1485 187.568 96.8047 182.41 93.5914 182.41C90.6248 182.41 89.2108 186.859 84.9365 186.859C81.9699 186.859 78.0486 184.432 78.0486 174.367C78.0486 169.462 80.4154 161.574 83.8072 161.574C85.5381 161.574 85.6084 164.253 85.6084 166.832C85.6084 171.636 86.8098 176.492 91.9667 176.492C96.594 176.492 99.0311 170.424 99.0311 164.758C99.0311 154.139 92.8853 148.172 83.9837 148.172C74.3399 148.172 64.5898 156.264 64.5898 174.217Z" fill="#272324"/>
<path d="M100.266 195.002C100.266 199.856 104.151 199.502 105.636 199.502H113.229C114.714 199.502 119.871 199.856 119.871 195.002C119.871 190.247 116.657 186.304 116.657 177.25C116.657 174.217 117.929 174.217 118.493 174.217C120.753 174.217 122.45 179.88 122.45 185.394C122.45 189.236 121.884 191.361 121.884 195.152C121.884 198.138 123.932 199.502 125.912 199.502H133.576C138.593 199.502 139.828 198.035 139.828 193.94C139.828 182.511 130.008 167.641 120.294 167.641C119.341 167.641 118.246 168.399 118.246 166.478C118.246 164.101 120.613 163.696 122.344 163.696C126.442 163.696 129.831 167.489 134.778 167.489C139.405 167.489 138.805 162.231 138.805 157.427C138.805 151.155 138.346 148.12 132.694 148.12C122.131 148.12 118.21 158.084 117.081 158.084C116.481 158.084 116.728 156.718 116.728 154.949C116.728 148.172 119.658 139.169 119.658 131.18C119.658 126.324 116.162 126.677 114.678 126.677H105.636C104.151 126.677 100.266 126.324 100.266 131.18C100.266 139.068 103.481 148.172 103.481 162.079C103.481 188.426 100.266 186.959 100.266 195.002Z" fill="#272324"/>
<path d="M140.534 156.06C140.534 161.421 143.996 163.09 143.996 174.217C143.996 183.522 140.78 189.589 140.78 195.002C140.78 199.856 144.668 199.502 146.15 199.502H153.992C155.477 199.502 160.634 199.856 160.634 195.002C160.634 189.337 157.418 182.106 157.384 174.217C157.348 170.12 157.631 164.101 160.668 164.101C163.53 164.101 164.023 170.068 164.096 174.217C164.2 181.448 162.116 188.225 162.116 195.002C162.116 199.856 167.275 199.502 168.757 199.502H175.362C176.846 199.502 180.732 199.856 180.732 195.002C180.732 189.589 177.518 183.522 177.518 174.217V164.101C177.518 154.848 174.869 148.172 168.474 148.172C162.258 148.172 158.654 154.191 157.771 154.191C157.312 154.191 157.136 153.835 157.029 153.28C156.289 149.386 154.981 148.172 153.674 148.172C152.755 148.172 148.87 149.788 147.139 150.446C143.96 151.661 140.534 152.571 140.534 156.06Z" fill="#272324"/>
<path d="M181.966 174.217C181.966 189.793 188.395 200.26 196.237 200.26C201.111 200.26 201.783 197.277 203.831 197.277C205.739 197.277 205.528 200.26 208.425 200.26C213.405 200.26 217.36 197.176 217.36 192.676C217.36 188.125 214.677 185.796 214.677 174.217C214.677 163.443 217.079 158.59 217.079 153.835C217.079 148.981 214.005 148.172 212.522 148.172C210.862 148.172 209.59 148.93 205.951 148.93C204.186 148.93 202.808 148.12 198.251 148.172C193.094 148.223 181.966 153.128 181.966 174.217ZM198.534 161.522C200.405 161.522 201.677 166.579 201.677 174.217C201.677 181.801 200.405 186.858 198.534 186.858C196.661 186.858 195.389 181.801 195.389 174.217C195.389 166.579 196.661 161.522 198.534 161.522Z" fill="#272324"/>
<path d="M218.031 156.06C218.031 161.421 221.493 163.09 221.493 174.217C221.493 183.522 218.278 189.589 218.278 195.002C218.278 199.856 222.165 199.502 223.647 199.502H232.691C234.739 199.451 238.131 198.945 238.131 195.002C238.131 188.932 234.845 182.106 234.881 174.217C234.915 170.12 235.305 164.101 238.165 164.101C241.027 164.101 241.52 170.068 241.593 174.217C241.697 181.448 239.613 188.225 239.613 195.002C239.613 198.945 243.005 199.451 245.053 199.502H252.859C255.156 199.502 258.229 199.451 258.229 195.002C258.229 189.994 254.943 182.812 255.015 174.217C255.049 170.068 255.403 164.101 258.265 164.101C261.125 164.101 261.62 170.068 261.691 174.217C261.797 181.448 259.713 188.225 259.713 195.002C259.713 198.945 263.105 199.451 265.153 199.502H272.959C274.443 199.502 278.329 199.856 278.329 195.002C278.329 189.589 275.113 183.522 275.113 174.217V164.101C275.113 154.848 272.464 148.172 266.071 148.172C260.525 148.172 255.156 153.685 254.061 155.807C252.825 151.104 250.211 148.172 245.971 148.172C239.755 148.172 236.151 154.191 235.268 154.191C234.809 154.191 234.633 153.835 234.526 153.28C233.786 149.386 232.478 148.172 231.171 148.172C230.252 148.172 226.367 149.788 224.636 150.446C221.457 151.661 218.031 152.571 218.031 156.06Z" fill="#272324"/>
<path d="M279.562 174.217C279.562 187.214 286.239 200.26 298.637 200.26C308.634 200.26 313.121 195.103 313.121 190.5C313.121 187.568 311.777 182.41 308.564 182.41C305.597 182.41 304.183 186.859 299.132 186.859C297.684 186.859 295.458 186.201 295.458 184.584C295.458 183.975 295.777 183.875 296.376 183.875C297.436 183.875 299.343 184.28 301.816 183.168C307.009 180.842 312.589 175.886 312.589 164.101C312.589 153.481 305.878 148.172 298.637 148.172C285.567 148.172 279.562 161.37 279.562 174.217ZM293.197 168.856C294.399 164.457 296.34 161.574 298.107 161.574C299.874 161.574 300.262 164.457 299.06 168.856C297.861 173.204 295.883 176.087 294.116 176.087C292.349 176.087 291.996 173.204 293.197 168.856Z" fill="#272324"/>
</g>
<defs>
<clipPath id="clip0_140_4376">
<rect width="313" height="227" fill="white"/>
</clipPath>
</defs>
</svg>
