<svg width="560" height="500" viewBox="0 0 560 500" fill="none" xmlns="http://www.w3.org/2000/svg">
<g clip-path="url(#clip0_476_961)">
<path d="M10.2572 117.694H35.9342C39.7103 117.694 43.8926 116.298 43.8926 112.199C43.8926 105.059 41.1842 105.304 39.8717 95.5432C39.7103 94.0692 39.4655 92.5901 39.3822 91.1942H60.3822C60.5488 92.7515 60.6322 94.1474 60.6322 95.5432C60.6322 105.387 57.6738 105.059 57.6738 112.199C57.6738 116.298 61.8613 117.694 65.6322 117.694H95.8249C101.32 117.694 106.08 116.793 106.08 112.116C106.08 104.569 99.8457 104.158 95.252 89.1422C85.4863 57.1474 84.8301 52.5536 75.8092 20.2307C69.7363 -1.59222 67.6009 -0.441179 59.3145 -0.441179H37.1686C30.3561 -0.441179 30.4395 4.97028 30.5228 6.69424C30.8509 14.4078 31.9967 14.2411 28.4707 26.8765C19.4447 59.1994 20.5957 57.1474 10.8301 89.1422C6.23633 104.158 0.00195312 104.569 0.00195312 112.116C0.00195312 116.793 4.76237 117.694 10.2572 117.694ZM39.5436 63.1369C39.9551 60.2672 43.403 40.1682 46.028 39.7567C47.1738 39.5901 48.3249 42.4651 49.3926 46.1578C51.1947 52.4703 52.752 58.1317 54.1478 63.1369H39.5436Z" fill="#272324"/>
<path d="M108.532 47.2202C108.532 55.59 116.568 59.939 116.568 81.5952C116.568 96.2827 109.188 102.679 109.188 110.392C109.188 118.267 116.896 117.694 120.344 117.694H144.136C147.579 117.694 155.292 118.267 155.292 110.392C155.292 102.679 147.829 96.2827 147.829 81.5952C147.907 74.2931 147.829 60.2671 156.277 60.2671C165.136 60.2671 157.506 76.6733 172.438 76.6733C184.089 76.6733 191.391 71.7515 191.391 56.0796C191.391 42.5431 181.625 34.4233 170.797 34.4233C161.938 34.4233 153.323 38.9338 147.089 43.5275C145.61 36.5588 142.167 34.4233 139.047 34.4233C136.917 34.4233 127.891 37.0483 123.87 38.116C116.485 40.0848 108.532 41.5588 108.532 47.2202Z" fill="#272324"/>
<path d="M194.253 76.6733C194.253 97.7567 209.758 118.923 238.555 118.923C261.769 118.923 272.19 110.559 272.19 103.09C272.19 98.3348 269.071 89.965 261.607 89.965C254.716 89.965 251.435 97.1838 239.701 97.1838C236.336 97.1838 231.17 96.1161 231.17 93.491C231.17 92.5067 231.909 92.3452 233.305 92.3452C235.763 92.3452 240.196 93.0015 245.935 91.1942C257.998 87.4233 270.961 79.3817 270.961 60.2671C270.961 43.0379 255.373 34.4233 238.555 34.4233C208.201 34.4233 194.253 55.8348 194.253 76.6733ZM225.92 67.9754C228.706 60.84 233.222 56.1629 237.321 56.1629C241.425 56.1629 242.326 60.84 239.539 67.9754C236.748 75.0327 232.154 79.7098 228.05 79.7098C223.951 79.7098 223.128 75.0327 225.92 67.9754Z" fill="#272324"/>
<path d="M302.94 135.663C302.94 147.147 309.18 155.845 323.123 155.845C333.873 155.845 350.196 150.184 356.925 123.272C359.466 113.1 366.769 97.0221 373.253 83.4023C386.623 55.3451 393.68 50.7513 393.68 42.8711C393.68 38.5273 390.399 35.6523 386.05 35.6523H367.019C362.42 35.6523 356.435 36.8034 356.435 43.1211C356.435 46.6471 358.565 50.1732 358.565 54.7669C358.565 61.0065 355.451 67.8971 352.743 75.9336C350.034 67.8971 346.914 61.0065 346.914 54.7669C346.914 50.1732 349.05 46.6471 349.05 43.1211C349.05 36.8034 343.06 35.6523 338.466 35.6523H312.295C307.946 35.6523 304.664 38.5273 304.664 42.8711C304.664 54.4388 313.118 58.2148 325.091 83.4023C331.576 97.0221 334.034 110.475 340.602 118.923C339.534 123.439 335.513 125.652 330.675 125.652C323.289 125.652 320.498 120.814 312.295 120.814C305.487 120.814 302.94 130.163 302.94 135.663Z" fill="#272324"/>
<path d="M435.427 118.923C460.042 118.923 474.313 102.022 474.313 76.59C474.313 51.3244 460.042 34.4233 435.427 34.4233C410.818 34.4233 396.542 51.3244 396.542 76.59C396.542 102.022 410.818 118.923 435.427 118.923ZM428.125 76.7567C428.125 64.366 431.078 56.1629 435.427 56.1629C439.776 56.1629 442.729 64.366 442.729 76.7567C442.729 89.064 439.776 97.2671 435.427 97.2671C431.078 97.2671 428.125 89.064 428.125 76.7567Z" fill="#272324"/>
<path d="M477.18 91.9336C477.18 107.684 484.149 118.923 505.071 118.923C511.8 118.923 520.987 115.152 522.956 111.376C524.758 115.887 528.123 117.694 534.196 117.694H549.29C552.737 117.694 560.446 118.267 560.446 110.392C560.446 102.678 552.982 94.5586 552.982 79.8711C552.982 61.5794 560.284 50.6679 560.284 42.9544C560.284 35.0794 551.258 35.6523 547.816 35.6523H530.092C526.649 35.6523 519.43 35.0794 519.43 42.9544C519.43 50.6679 522.133 57.069 522.133 71.7513C522.133 82.8294 519.264 97.2669 511.8 97.2669C508.597 97.2669 507.284 93.4127 507.284 89.5534C507.284 82.3346 513.274 73.4752 513.274 56.7409C513.274 48.3711 511.305 35.6523 502.034 35.6523H485.461C483.165 35.6523 477.258 37.3763 477.258 43.2825C477.258 52.47 480.623 57.1471 480.623 66.8294C480.623 76.6731 477.18 80.1211 477.18 91.9336Z" fill="#272324"/>
<path d="M30.8143 216.762H34.9185L34.9966 228.986C34.9966 271.725 27.533 269.35 27.533 282.392C27.533 290.267 36.5591 289.694 40.0018 289.694H61.2518C64.6997 289.694 73.7205 290.267 73.7205 282.392C73.7205 269.35 66.1737 271.725 66.257 228.986C66.257 223.897 66.257 219.798 66.257 219.798C66.257 218.814 66.257 217.991 66.257 216.762H72.7362C75.3612 216.762 77.1685 214.954 77.1685 212.329V212.085C77.1685 209.46 75.3612 207.652 72.7362 207.652H62.8924C59.5278 200.845 54.7726 194.855 54.7726 190.262C54.7726 187.47 56.5747 185.095 59.283 185.095C62.731 185.095 66.0903 188.621 68.1424 192.97C69.8664 196.579 71.1789 203.96 77.3299 203.96C85.6997 203.96 93.8195 198.137 93.8195 189.689C93.8195 177.71 78.0695 170.324 64.2883 170.324C44.7622 170.324 34.9185 184.355 34.9185 198.548V207.652H30.8143C28.1893 207.652 26.3872 209.46 26.3872 212.085V212.329C26.3872 214.954 28.1893 216.762 30.8143 216.762Z" fill="#272324"/>
<path d="M96.6865 248.673C96.6865 269.756 112.192 290.923 140.989 290.923C164.202 290.923 174.624 282.558 174.624 275.09C174.624 270.334 171.504 261.965 164.041 261.965C157.15 261.965 153.869 269.183 142.134 269.183C138.77 269.183 133.603 268.116 133.603 265.491C133.603 264.506 134.343 264.345 135.739 264.345C138.197 264.345 142.629 265.001 148.369 263.194C160.431 259.423 173.395 251.381 173.395 232.267C173.395 215.037 157.806 206.423 140.989 206.423C110.634 206.423 96.6865 227.834 96.6865 248.673ZM128.353 239.975C131.14 232.84 135.655 228.162 139.754 228.162C143.858 228.162 144.759 232.84 141.973 239.975C139.181 247.032 134.588 251.709 130.483 251.709C126.384 251.709 125.562 247.032 128.353 239.975Z" fill="#272324"/>
<path d="M177.077 248.673C177.077 269.756 192.582 290.923 221.379 290.923C244.593 290.923 255.015 282.558 255.015 275.09C255.015 270.334 251.895 261.965 244.431 261.965C237.541 261.965 234.259 269.183 222.525 269.183C219.16 269.183 213.994 268.116 213.994 265.491C213.994 264.506 214.733 264.345 216.129 264.345C218.588 264.345 223.02 265.001 228.759 263.194C240.822 259.423 253.785 251.381 253.785 232.267C253.785 215.037 238.197 206.423 221.379 206.423C191.025 206.423 177.077 227.834 177.077 248.673ZM208.744 239.975C211.53 232.84 216.046 228.162 220.145 228.162C224.249 228.162 225.15 232.84 222.364 239.975C219.572 247.032 214.978 251.709 210.874 251.709C206.775 251.709 205.952 247.032 208.744 239.975Z" fill="#272324"/>
<path d="M256.239 282.392C256.239 290.267 265.26 289.694 268.708 289.694H289.874C293.317 289.694 302.343 290.267 302.343 282.392C302.343 269.35 294.879 271.725 294.879 228.985C294.879 194.772 302.343 191.657 302.343 178.855C302.343 170.98 293.317 171.558 289.874 171.558H268.708C265.26 171.558 256.239 170.98 256.239 178.855C256.239 191.657 263.702 194.772 263.702 228.985C263.702 271.725 256.239 269.35 256.239 282.392Z" fill="#272324"/>
<path d="M312.017 248.673C312.017 263.689 304.637 273.616 304.637 282.392C304.637 290.267 312.346 289.694 315.793 289.694H339.585C343.028 289.694 350.741 290.267 350.741 282.392C350.741 275.257 343.278 262.783 343.278 248.673C343.278 242.605 343.194 232.022 343.194 223.241C343.194 210.116 338.601 206.423 334.497 206.423C332.366 206.423 323.34 209.048 319.319 210.116C311.934 212.085 303.981 213.559 303.981 219.22C303.981 227.918 312.017 230.626 312.017 248.673ZM327.439 201.501C332.283 201.501 348.606 192.147 348.606 181.319C348.606 174.84 343.851 170.324 338.434 170.324C333.429 170.324 329.903 173.855 327.439 176.809C325.064 173.855 321.533 170.324 316.533 170.324C311.116 170.324 306.356 174.84 306.356 181.319C306.356 192.147 322.684 201.501 327.439 201.501Z" fill="#272324"/>
<path d="M352.379 219.22C352.379 227.918 360.416 230.626 360.416 248.673C360.416 263.767 352.952 273.616 352.952 282.392C352.952 290.267 361.973 289.694 365.421 289.694H383.635C387.077 289.694 399.056 290.267 399.056 282.392C399.056 273.204 391.593 261.47 391.51 248.673C391.426 242.027 392.083 232.267 399.14 232.267C405.786 232.267 406.931 241.949 407.098 248.673C407.343 260.407 402.504 271.397 402.504 282.392C402.504 290.267 414.484 289.694 417.926 289.694H433.27C436.713 289.694 445.739 290.267 445.739 282.392C445.739 273.616 438.275 263.767 438.275 248.673V232.267C438.275 217.251 432.119 206.423 417.27 206.423C402.833 206.423 394.463 216.183 392.411 216.183C391.348 216.183 390.937 215.61 390.692 214.709C388.968 208.392 385.931 206.423 382.895 206.423C380.765 206.423 371.739 209.048 367.718 210.116C360.333 212.084 352.379 213.558 352.379 219.22Z" fill="#272324"/>
<path d="M485.106 328.007C516.694 328.007 530.064 310.288 530.064 291.007C530.064 271.809 525.799 262.455 525.799 243.835C525.799 229.147 533.267 222.751 533.267 215.038C533.267 207.163 524.241 207.736 520.793 207.736H486.257C475.59 207.736 448.929 214.543 448.929 248.757C448.929 271.892 460.168 290.923 480.595 291.007C485.762 291.007 492.491 290.022 494.377 287.809C498.726 292.975 493.064 299.376 487.486 299.376C471.897 299.376 469.272 290.923 461.564 290.923C454.34 290.923 448.601 299.376 448.601 307.168C448.601 319.147 467.549 328.007 485.106 328.007ZM480.184 248.673C480.184 236.288 483.137 228.08 487.486 228.08C491.835 228.08 494.788 236.288 494.788 248.673C494.788 260.981 491.835 269.184 487.486 269.184C483.137 269.184 480.184 260.981 480.184 248.673Z" fill="#272324"/>
<path d="M34.1685 454.392C34.1685 462.267 43.1893 461.694 46.6372 461.694H67.8039C71.2466 461.694 80.2726 462.267 80.2726 454.392C80.2726 441.35 72.8091 443.725 72.8091 400.985C72.8091 366.772 80.2726 363.657 80.2726 350.855C80.2726 342.98 71.2466 343.558 67.8039 343.558H46.6372C43.1893 343.558 34.1685 342.98 34.1685 350.855C34.1685 363.657 41.632 366.772 41.632 400.985C41.632 443.725 34.1685 441.35 34.1685 454.392Z" fill="#272324"/>
<path d="M81.9106 435.934C81.9106 451.684 88.8794 462.924 109.801 462.924C116.53 462.924 125.718 459.153 127.687 455.377C129.489 459.887 132.853 461.694 138.926 461.694H154.02C157.468 461.694 165.176 462.267 165.176 454.392C165.176 446.679 157.713 438.559 157.713 423.872C157.713 405.58 165.015 394.668 165.015 386.955C165.015 379.08 155.989 379.653 152.546 379.653H134.822C131.379 379.653 124.161 379.08 124.161 386.955C124.161 394.668 126.864 401.069 126.864 415.752C126.864 426.83 123.994 441.267 116.53 441.267C113.327 441.267 112.015 437.413 112.015 433.554C112.015 426.335 118.004 417.476 118.004 400.741C118.004 392.372 116.036 379.653 106.765 379.653H90.1919C87.895 379.653 81.9888 381.377 81.9888 387.283C81.9888 396.471 85.3534 401.148 85.3534 410.83C85.3534 420.674 81.9106 424.122 81.9106 435.934Z" fill="#272324"/>
<path d="M168.042 420.673C168.042 441.756 183.547 462.923 212.344 462.923C235.558 462.923 245.979 454.558 245.979 447.09C245.979 442.334 242.86 433.965 235.396 433.965C228.506 433.965 225.224 441.183 215.297 441.183C208.407 441.183 199.297 437.246 199.297 420.918C199.297 412.965 204.797 400.162 212.672 400.162C216.693 400.162 216.854 404.511 216.854 408.694C216.854 416.491 219.646 424.366 231.62 424.366C242.37 424.366 248.032 414.522 248.032 405.334C248.032 388.105 233.756 378.423 213.078 378.423C190.683 378.423 168.042 391.548 168.042 420.673Z" fill="#272324"/>
<path d="M250.895 454.392C250.895 462.267 259.916 461.694 263.364 461.694H280.999C284.447 461.694 296.426 462.267 296.426 454.392C296.426 446.678 288.958 440.282 288.958 425.595C288.958 420.673 291.911 420.673 293.223 420.673C298.473 420.673 302.416 429.86 302.416 438.803C302.416 445.037 301.103 448.485 301.103 454.636C301.103 459.48 305.859 461.694 310.452 461.694H328.254C339.905 461.694 342.775 459.314 342.775 452.668C342.775 434.126 319.968 410.006 297.411 410.006C295.192 410.006 292.65 411.241 292.65 408.121C292.65 404.267 298.145 403.61 302.166 403.61C311.687 403.61 319.562 409.761 331.046 409.761C341.791 409.761 340.4 401.23 340.4 393.439C340.4 383.261 339.333 378.34 326.208 378.34C301.676 378.34 292.567 394.501 289.942 394.501C288.551 394.501 289.124 392.287 289.124 389.418C289.124 378.423 295.931 363.819 295.931 350.855C295.931 342.98 287.812 343.558 284.364 343.558H263.364C259.916 343.558 250.895 342.98 250.895 350.855C250.895 363.657 258.359 378.423 258.359 400.985C258.359 443.725 250.895 441.35 250.895 454.392Z" fill="#272324"/>
<path d="M342.765 479.663C342.765 491.147 349.004 499.845 362.947 499.845C373.697 499.845 390.02 494.184 396.749 467.272C399.291 457.1 406.593 441.022 413.077 427.402C426.447 399.345 433.504 394.751 433.504 386.871C433.504 382.527 430.223 379.652 425.874 379.652H406.843C402.244 379.652 396.259 380.803 396.259 387.121C396.259 390.647 398.39 394.173 398.39 398.767C398.39 405.007 395.275 411.897 392.567 419.934C389.858 411.897 386.739 405.007 386.739 398.767C386.739 394.173 388.874 390.647 388.874 387.121C388.874 380.803 382.884 379.652 378.291 379.652H352.119C347.77 379.652 344.489 382.527 344.489 386.871C344.489 398.439 352.942 402.215 364.916 427.402C371.4 441.022 373.858 454.475 380.426 462.923C379.358 467.439 375.338 469.652 370.499 469.652C363.114 469.652 360.322 464.814 352.119 464.814C345.312 464.814 342.765 474.163 342.765 479.663Z" fill="#272324"/>
<path d="M460.898 400.163C468.361 400.163 476.236 394.668 476.236 387.199C476.236 378.423 467.132 381.788 467.132 372.678C467.132 367.267 473.122 363.736 478.45 363.736C487.392 363.736 490.924 370.876 490.924 378.423C490.924 397.621 468.361 397.949 468.361 416.819C468.361 421.085 470.163 424.449 474.596 424.449C477.059 424.449 478.122 422.97 478.122 421.574C478.122 420.512 478.122 419.033 478.616 417.72C482.637 406.975 522.179 409.189 522.179 375.387C522.179 353.158 501.585 342.324 480.668 342.324C456.627 342.324 438.418 352.501 438.418 374.074C438.418 387.777 447.361 400.163 460.898 400.163ZM449.986 439.382C449.986 452.012 469.101 462.923 474.679 462.923C480.257 462.923 499.372 452.012 499.372 439.382C499.372 431.751 493.793 426.501 487.476 426.501C481.653 426.501 477.465 430.6 474.679 434.126C471.887 430.6 467.705 426.501 461.882 426.501C455.564 426.501 449.986 431.751 449.986 439.382Z" fill="#272324"/>
</g>
<defs>
<clipPath id="clip0_476_961">
<rect width="560" height="500" fill="white"/>
</clipPath>
</defs>
</svg>
