<svg width="315" height="474" viewBox="0 0 315 474" fill="none" xmlns="http://www.w3.org/2000/svg">
<path d="M281.932 201.542H273.526V140.901C273.526 139 273.479 137.099 273.391 135.198C273.297 133.302 273.156 131.401 272.969 129.51C272.781 127.62 272.552 125.729 272.271 123.849C271.995 121.969 271.672 120.094 271.297 118.229C270.927 116.364 270.516 114.505 270.052 112.661C269.589 110.818 269.084 108.984 268.531 107.167C267.985 105.344 267.386 103.542 266.75 101.75C266.11 99.9582 265.427 98.1821 264.698 96.4269C263.974 94.6665 263.203 92.9321 262.391 91.2134C261.578 89.4894 260.729 87.7915 259.834 86.1144C258.938 84.4373 258 82.7811 257.026 81.1509C256.052 79.5207 255.037 77.9165 253.979 76.3332C252.927 74.7498 251.834 73.1978 250.703 71.6665C249.573 70.1405 248.406 68.6405 247.203 67.1717C245.995 65.703 244.755 64.2603 243.485 62.854C242.209 61.4425 240.901 60.0675 239.557 58.7186C238.214 57.3748 236.839 56.0623 235.432 54.7863C234.026 53.5103 232.589 52.2707 231.125 51.0623C229.656 49.854 228.162 48.6873 226.636 47.5519C225.11 46.4165 223.557 45.3228 221.979 44.2655C220.401 43.2082 218.797 42.1925 217.172 41.2134C215.542 40.2394 213.891 39.3019 212.219 38.4061C210.542 37.505 208.849 36.6509 207.136 35.8384C205.417 35.0259 203.682 34.255 201.927 33.5259C200.177 32.8019 198.406 32.1144 196.615 31.4738C194.828 30.8332 193.026 30.2394 191.214 29.6873C189.396 29.1353 187.568 28.6248 185.724 28.1613C183.886 27.703 182.031 27.2863 180.172 26.9113C178.307 26.5415 176.438 26.2186 174.563 25.9373C172.682 25.6613 170.802 25.4269 168.912 25.2394C167.021 25.0519 165.13 24.9113 163.235 24.8228C161.339 24.729 159.443 24.6821 157.542 24.6821C155.646 24.6821 153.75 24.729 151.854 24.8228C149.953 24.9113 148.063 25.0519 146.172 25.2394C144.287 25.4269 142.401 25.6613 140.526 25.9373C138.646 26.2186 136.776 26.5415 134.917 26.9113C133.052 27.2863 131.203 27.703 129.36 28.1613C127.521 28.6248 125.693 29.1353 123.875 29.6873C122.057 30.2394 120.255 30.8332 118.469 31.4738C116.682 32.1144 114.912 32.8019 113.156 33.5259C111.401 34.255 109.667 35.0259 107.953 35.8384C106.235 36.6509 104.542 37.505 102.87 38.4061C101.193 39.3019 99.5418 40.2394 97.9168 41.2134C96.2866 42.1925 94.6825 43.2082 93.1043 44.2655C91.5262 45.3228 89.9741 46.4165 88.4481 47.5519C86.9272 48.6873 85.4325 49.854 83.9637 51.0623C82.495 52.2707 81.0575 53.5103 79.6512 54.7863C78.245 56.0623 76.87 57.3748 75.5314 58.7186C74.1877 60.0675 72.8804 61.4425 71.6043 62.854C70.3283 64.2603 69.0887 65.703 67.8856 67.1717C66.6825 68.6405 65.5158 70.1405 64.3804 71.6665C63.2502 73.1978 62.1616 74.7498 61.1043 76.3332C60.0522 77.9165 59.0366 79.5207 58.0575 81.1509C57.0835 82.7811 56.146 84.4373 55.2554 86.1144C54.3595 87.7915 53.5054 89.4894 52.6929 91.2134C51.8804 92.9321 51.1147 94.6665 50.3856 96.4269C49.6616 98.1821 48.9793 99.9582 48.3387 101.75C47.6981 103.542 47.1043 105.344 46.5522 107.167C46.0002 108.984 45.495 110.818 45.0314 112.661C44.5731 114.505 44.1564 116.364 43.7866 118.229C43.4168 120.094 43.0939 121.969 42.8127 123.849C42.5366 125.729 42.3022 127.62 42.1147 129.51C41.9325 131.401 41.7918 133.302 41.6981 135.198C41.6043 137.099 41.5575 139 41.5575 140.901V201.542H33.1512C32.271 201.542 31.3908 201.583 30.5158 201.667C29.6408 201.755 28.771 201.885 27.9064 202.057C27.0418 202.229 26.1877 202.443 25.3439 202.698C24.5002 202.958 23.672 203.255 22.8595 203.588C22.047 203.927 21.2502 204.307 20.4741 204.724C19.6981 205.135 18.9429 205.588 18.2085 206.083C17.4793 206.573 16.771 207.099 16.0887 207.656C15.4116 208.219 14.7554 208.807 14.1356 209.432C13.5106 210.057 12.922 210.708 12.3647 211.39C11.8022 212.073 11.2814 212.781 10.7918 213.515C10.3022 214.25 9.84912 215.005 9.43245 215.786C9.01579 216.562 8.64079 217.359 8.30745 218.177C7.96891 218.989 7.67204 219.823 7.41683 220.667C7.16162 221.51 6.94808 222.364 6.7762 223.229C6.60433 224.099 6.47412 224.969 6.38558 225.849C6.30225 226.724 6.25537 227.604 6.25537 228.489V427.245C6.25537 428.13 6.30225 429.01 6.38558 429.885C6.47412 430.765 6.60433 431.635 6.7762 432.505C6.94808 433.37 7.16162 434.224 7.41683 435.068C7.67204 435.911 7.96891 436.745 8.30745 437.557C8.64079 438.375 9.01579 439.172 9.43245 439.948C9.84912 440.729 10.3022 441.484 10.7918 442.219C11.2814 442.953 11.8022 443.661 12.3647 444.344C12.922 445.026 13.5106 445.677 14.1356 446.302C14.7554 446.927 15.4116 447.515 16.0887 448.078C16.771 448.635 17.4793 449.161 18.2085 449.651C18.9429 450.146 19.6981 450.599 20.4741 451.01C21.2502 451.427 22.047 451.807 22.8595 452.146C23.672 452.479 24.5002 452.776 25.3439 453.036C26.1877 453.292 27.0418 453.505 27.9064 453.677C28.771 453.849 29.6408 453.979 30.5158 454.068C31.3908 454.151 32.271 454.193 33.1512 454.193H281.932C282.813 454.193 283.693 454.151 284.568 454.068C285.448 453.979 286.318 453.849 287.182 453.677C288.042 453.505 288.896 453.292 289.74 453.036C290.584 452.776 291.412 452.479 292.224 452.146C293.037 451.807 293.834 451.427 294.61 451.01C295.386 450.599 296.141 450.146 296.875 449.651C297.61 449.161 298.313 448.635 298.995 448.078C299.677 447.515 300.328 446.927 300.953 446.302C301.573 445.677 302.167 445.026 302.724 444.344C303.281 443.661 303.807 442.953 304.297 442.219C304.787 441.484 305.235 440.729 305.651 439.948C306.068 439.172 306.443 438.375 306.781 437.557C307.12 436.745 307.417 435.911 307.672 435.068C307.927 434.224 308.141 433.37 308.313 432.505C308.485 431.635 308.615 430.765 308.698 429.885C308.787 429.01 308.828 428.13 308.828 427.245V228.489C308.828 227.604 308.787 226.724 308.698 225.849C308.615 224.969 308.485 224.099 308.313 223.229C308.141 222.364 307.927 221.51 307.672 220.667C307.417 219.823 307.12 218.989 306.781 218.177C306.443 217.359 306.068 216.562 305.651 215.786C305.235 215.005 304.787 214.25 304.297 213.515C303.807 212.781 303.281 212.073 302.724 211.39C302.167 210.708 301.573 210.057 300.953 209.432C300.328 208.807 299.677 208.219 298.995 207.656C298.313 207.099 297.61 206.573 296.875 206.083C296.141 205.588 295.386 205.135 294.61 204.724C293.834 204.307 293.037 203.927 292.224 203.588C291.412 203.255 290.584 202.958 289.74 202.698C288.896 202.443 288.042 202.229 287.182 202.057C286.318 201.885 285.448 201.755 284.568 201.667C283.693 201.583 282.813 201.542 281.932 201.542ZM78.5366 140.901C78.5366 138.307 78.6668 135.724 78.9168 133.14C79.172 130.562 79.5522 128 80.0575 125.458C80.5627 122.917 81.1877 120.401 81.9377 117.922C82.6929 115.443 83.5627 113 84.5522 110.609C85.5418 108.213 86.646 105.87 87.8647 103.583C89.0887 101.297 90.4168 99.078 91.8543 96.9217C93.2918 94.7655 94.8283 92.6821 96.4741 90.6821C98.1147 88.6769 99.8491 86.755 101.677 84.9217C103.505 83.0884 105.422 81.3488 107.422 79.7082C109.422 78.0623 111.5 76.5207 113.651 75.078C115.802 73.6353 118.021 72.3071 120.302 71.0832C122.584 69.8644 124.917 68.755 127.307 67.7603C129.698 66.7707 132.136 65.8957 134.61 65.1457C137.084 64.3905 139.594 63.7655 142.13 63.2603C144.667 62.7498 147.224 62.3696 149.797 62.1196C152.375 61.8644 154.953 61.7342 157.542 61.7342C160.13 61.7342 162.714 61.8644 165.287 62.1196C167.86 62.3696 170.417 62.7498 172.953 63.2603C175.495 63.7655 178 64.3905 180.474 65.1457C182.953 65.8957 185.386 66.7707 187.776 67.7603C190.167 68.755 192.505 69.8644 194.787 71.0832C197.068 72.3071 199.281 73.6353 201.438 75.078C203.589 76.5207 205.662 78.0623 207.662 79.7082C209.662 81.3488 211.578 83.0884 213.406 84.9217C215.235 86.755 216.974 88.6769 218.615 90.6821C220.255 92.6821 221.797 94.7655 223.235 96.9217C224.672 99.078 226 101.297 227.219 103.583C228.438 105.87 229.542 108.213 230.531 110.609C231.526 113 232.396 115.443 233.146 117.922C233.896 120.401 234.526 122.917 235.031 125.458C235.537 128 235.912 130.562 236.167 133.14C236.422 135.724 236.547 138.307 236.547 140.901V201.542H78.5366V140.901Z" fill="#FFCE31"/>
<path d="M55.0053 199.854C55.0053 199.854 51.6407 122.375 61.7292 102.161C71.8126 81.9478 81.9011 65.104 108.797 51.6301C118.141 46.828 127.938 43.2863 138.188 41.0051C148.443 38.7186 158.813 37.7707 169.307 38.1561C182.755 38.1561 196.203 34.7863 199.568 28.0467C193.922 26.0519 188.167 24.4738 182.292 23.3176C176.417 22.1613 170.495 21.4426 164.516 21.1561C158.537 20.8749 152.568 21.0259 146.609 21.6144C140.656 22.2082 134.776 23.229 128.969 24.6821C91.9844 34.7863 85.2605 41.5259 65.0886 65.104C44.9167 88.6874 41.5574 95.4217 38.198 122.375C34.8334 149.323 36.9115 201.635 36.9115 201.635L55.0053 199.854Z" fill="white"/>
<path d="M7.93746 418.823C28.1093 439.036 75.177 432.297 91.9843 432.297C109.13 432.297 174.354 433.984 211.333 433.984C248.312 433.984 302.104 440.718 308.828 403.661C308.828 403.661 319.312 448.25 290.536 452.906C261.76 457.567 26.427 454.192 26.427 454.192C26.427 454.192 1.2135 442.406 7.93746 418.823Z" fill="#1A1A1A"/>
<path d="M7.93772 260.495C7.93772 260.495 23.2033 233.703 41.5575 226.808C68.4533 216.698 108.797 226.808 155.86 226.808C202.927 226.808 249.995 226.808 273.526 223.438C297.063 220.068 297.261 216.995 297.063 206.594C297.063 206.594 283.615 203.224 253.354 203.224C223.099 203.224 31.4742 199.854 31.4742 199.854C31.4742 199.854 -8.86957 213.328 7.93772 260.495Z" fill="white"/>
<path d="M157.542 391.875C156.828 391.87 156.115 391.839 155.401 391.766C154.687 391.693 153.984 391.589 153.281 391.448C152.578 391.308 151.885 391.136 151.203 390.922C150.516 390.714 149.844 390.474 149.182 390.198C148.526 389.927 147.88 389.62 147.245 389.282C146.615 388.943 146.005 388.573 145.406 388.177C144.812 387.776 144.24 387.349 143.687 386.896C143.135 386.438 142.604 385.959 142.099 385.453C141.594 384.943 141.115 384.417 140.661 383.86C140.203 383.308 139.781 382.729 139.38 382.136C138.984 381.542 138.615 380.927 138.276 380.292C137.943 379.662 137.635 379.016 137.359 378.354C137.089 377.688 136.844 377.016 136.635 376.328C136.427 375.646 136.255 374.948 136.115 374.245C135.974 373.542 135.87 372.834 135.797 372.12C135.729 371.407 135.693 370.693 135.693 369.974V337.927C134 336.766 132.411 335.479 130.922 334.063C129.432 332.651 128.068 331.125 126.823 329.495C125.578 327.86 124.469 326.141 123.495 324.328C122.526 322.521 121.703 320.646 121.026 318.703C120.354 316.761 119.839 314.782 119.479 312.756C119.12 310.735 118.922 308.693 118.885 306.641C118.849 304.584 118.979 302.542 119.266 300.506C119.557 298.469 120.005 296.474 120.609 294.511C121.219 292.547 121.974 290.641 122.885 288.802C123.792 286.959 124.844 285.198 126.031 283.526C127.219 281.849 128.531 280.282 129.969 278.813C131.406 277.349 132.953 276.006 134.604 274.787C136.255 273.568 137.99 272.485 139.812 271.542C141.635 270.599 143.521 269.808 145.469 269.167C147.417 268.526 149.401 268.042 151.427 267.719C153.453 267.391 155.49 267.229 157.542 267.229C158.964 267.229 160.38 267.308 161.792 267.453C163.745 267.672 165.667 268.032 167.562 268.542C169.458 269.052 171.302 269.703 173.099 270.49C174.896 271.282 176.62 272.203 178.276 273.261C179.932 274.313 181.5 275.485 182.979 276.776C184.458 278.073 185.828 279.469 187.094 280.974C188.365 282.474 189.505 284.063 190.531 285.74C191.557 287.417 192.448 289.162 193.208 290.974C193.964 292.787 194.583 294.651 195.057 296.558C195.536 298.464 195.865 300.396 196.047 302.354C196.229 304.313 196.266 306.271 196.151 308.235C196.036 310.198 195.771 312.141 195.359 314.063C194.953 315.985 194.401 317.865 193.703 319.703C193.005 321.542 192.177 323.318 191.208 325.032C190.245 326.74 189.156 328.37 187.943 329.917C186.729 331.459 185.406 332.907 183.974 334.25C182.542 335.594 181.016 336.818 179.396 337.927V369.974C179.396 370.693 179.359 371.407 179.286 372.12C179.219 372.834 179.109 373.542 178.969 374.245C178.828 374.948 178.656 375.646 178.448 376.328C178.24 377.016 178 377.688 177.724 378.354C177.448 379.016 177.146 379.662 176.807 380.292C176.469 380.927 176.104 381.542 175.703 382.136C175.307 382.729 174.88 383.308 174.427 383.86C173.974 384.417 173.495 384.943 172.984 385.453C172.479 385.959 171.953 386.438 171.401 386.896C170.844 387.349 170.271 387.776 169.677 388.177C169.083 388.573 168.469 388.943 167.839 389.282C167.208 389.62 166.562 389.922 165.901 390.198C165.24 390.474 164.568 390.714 163.885 390.922C163.198 391.136 162.505 391.308 161.802 391.448C161.104 391.589 160.396 391.693 159.682 391.766C158.974 391.839 158.26 391.87 157.542 391.875Z" fill="#1A1A1A"/>
<mask id="mask0_476_950" style="mask-type:luminance" maskUnits="userSpaceOnUse" x="0" y="15" width="315" height="445">
<path d="M0 15.25H314.667V459.25H0V15.25Z" fill="white"/>
</mask>
<g mask="url(#mask0_476_950)">
<path d="M283.614 196.573V140.901C283.614 138.833 283.562 136.771 283.463 134.703C283.359 132.64 283.208 130.578 283.005 128.521C282.802 126.463 282.552 124.411 282.25 122.364C281.948 120.323 281.594 118.286 281.193 116.255C280.786 114.229 280.338 112.213 279.833 110.208C279.333 108.203 278.786 106.208 278.187 104.229C277.588 102.255 276.937 100.292 276.245 98.3436C275.547 96.3957 274.807 94.4686 274.015 92.5571C273.229 90.6509 272.39 88.7603 271.51 86.8905C270.625 85.0207 269.698 83.1769 268.729 81.354C267.755 79.5259 266.739 77.729 265.677 75.9582C264.614 74.1821 263.515 72.4373 262.364 70.7186C261.219 68.9998 260.031 67.3071 258.802 65.6509C257.573 63.9894 256.307 62.3592 254.995 60.7603C253.687 59.1613 252.338 57.5988 250.953 56.0675C249.568 54.5311 248.146 53.0363 246.687 51.5728C245.229 50.1144 243.734 48.6873 242.208 47.2967C240.677 45.9113 239.114 44.5623 237.521 43.2498C235.927 41.9373 234.302 40.6665 232.64 39.4321C230.984 38.203 229.302 37.0103 227.583 35.8644C225.87 34.7134 224.125 33.6092 222.354 32.5467C220.588 31.4842 218.792 30.4634 216.974 29.4894C215.151 28.5155 213.312 27.5884 211.443 26.703C209.578 25.8175 207.693 24.979 205.786 24.1925C203.88 23.4009 201.958 22.6561 200.015 21.9582C198.073 21.2603 196.114 20.6144 194.14 20.0155C192.167 19.4113 190.177 18.8644 188.177 18.3592C186.172 17.8592 184.161 17.4061 182.135 16.9998C180.114 16.5988 178.083 16.2446 176.042 15.9425C174 15.6405 171.953 15.3853 169.901 15.1821C167.849 14.979 165.792 14.828 163.729 14.7238C161.667 14.6248 159.604 14.5728 157.542 14.5728C155.479 14.5728 153.417 14.6248 151.354 14.7238C149.297 14.828 147.239 14.979 145.187 15.1821C143.13 15.3853 141.083 15.6405 139.042 15.9425C137.005 16.2446 134.969 16.5988 132.948 16.9998C130.922 17.4061 128.911 17.8592 126.911 18.3592C124.906 18.8644 122.922 19.4113 120.948 20.0155C118.974 20.6144 117.015 21.2603 115.073 21.9582C113.13 22.6561 111.203 23.4009 109.297 24.1925C107.39 24.979 105.505 25.8175 103.64 26.703C101.776 27.5884 99.9321 28.5155 98.1144 29.4894C96.2915 30.4634 94.4998 31.4842 92.729 32.5467C90.9582 33.6092 89.2186 34.7134 87.4998 35.8644C85.7863 37.0103 84.0988 38.203 82.4425 39.4321C80.7863 40.6665 79.1613 41.9373 77.5623 43.2498C75.9686 44.5623 74.4061 45.9113 72.88 47.2967C71.3488 48.6873 69.854 50.1144 68.3957 51.5728C66.9373 53.0363 65.5155 54.5311 64.13 56.0675C62.7446 57.5988 61.3957 59.1613 60.0884 60.7603C58.7811 62.3592 57.5103 63.9894 56.2811 65.6509C55.0519 67.3071 53.8644 68.9998 52.7186 70.7186C51.5728 72.4373 50.4686 74.1821 49.4061 75.9582C48.3488 77.729 47.328 79.5259 46.3592 81.354C45.3853 83.1769 44.4582 85.0207 43.578 86.8905C42.6925 88.7603 41.8592 90.6509 41.0675 92.5571C40.2811 94.4686 39.5363 96.3957 38.8436 98.3436C38.1457 100.292 37.4998 102.255 36.9009 104.229C36.3019 106.208 35.7498 108.203 35.2498 110.208C34.7498 112.213 34.2967 114.229 33.8957 116.255C33.4894 118.286 33.1405 120.323 32.8384 122.364C32.5311 124.411 32.2811 126.463 32.078 128.521C31.8748 130.578 31.7238 132.64 31.6248 134.703C31.5207 136.771 31.4738 138.833 31.4738 140.901V196.573C30.4634 196.625 29.4582 196.724 28.4582 196.875C27.4634 197.021 26.4686 197.219 25.4894 197.458C24.5103 197.703 23.5415 197.995 22.5884 198.328C21.6353 198.661 20.703 199.042 19.7863 199.463C18.8644 199.89 17.9738 200.354 17.0988 200.864C16.2238 201.37 15.38 201.922 14.5571 202.51C13.7342 203.099 12.9425 203.729 12.1821 204.39C11.4217 205.057 10.6925 205.755 9.99463 206.489C9.30192 207.224 8.64046 207.989 8.01546 208.786C7.39567 209.583 6.81234 210.406 6.26546 211.255C5.71859 212.109 5.21859 212.984 4.75505 213.885C4.2915 214.786 3.87484 215.703 3.49984 216.646C3.12484 217.583 2.7915 218.542 2.51025 219.51C2.2238 220.484 1.98421 221.463 1.79671 222.458C1.604 223.453 1.45817 224.453 1.35921 225.458C1.26546 226.469 1.21338 227.479 1.21338 228.489V427.245C1.21338 428.292 1.26546 429.338 1.36963 430.38C1.4738 431.422 1.63005 432.458 1.83317 433.484C2.0415 434.515 2.2915 435.526 2.5988 436.531C2.90088 437.531 3.25504 438.521 3.65609 439.484C4.05713 440.453 4.50504 441.401 4.99463 442.323C5.48942 443.25 6.02588 444.146 6.60921 445.015C7.18734 445.885 7.81234 446.729 8.4738 447.536C9.14046 448.349 9.83838 449.125 10.578 449.864C11.3175 450.604 12.0936 451.307 12.9009 451.974C13.7082 452.635 14.5467 453.26 15.4165 453.844C16.2863 454.427 17.1821 454.963 18.104 455.458C19.0259 455.953 19.9686 456.401 20.9373 456.802C21.9009 457.203 22.8853 457.557 23.8853 457.859C24.8853 458.167 25.9009 458.422 26.9217 458.625C27.9478 458.833 28.9842 458.984 30.0207 459.088C31.0623 459.193 32.1092 459.245 33.1509 459.25H281.932C282.979 459.245 284.021 459.193 285.062 459.088C286.104 458.984 287.135 458.833 288.161 458.625C289.187 458.422 290.198 458.167 291.198 457.859C292.198 457.557 293.182 457.203 294.151 456.802C295.114 456.401 296.057 455.953 296.979 455.458C297.901 454.963 298.797 454.427 299.667 453.844C300.536 453.26 301.375 452.635 302.182 451.974C302.995 451.307 303.765 450.604 304.505 449.864C305.245 449.125 305.948 448.349 306.609 447.536C307.271 446.729 307.896 445.885 308.479 445.015C309.057 444.146 309.594 443.25 310.088 442.323C310.583 441.401 311.031 440.453 311.432 439.484C311.828 438.521 312.182 437.531 312.489 436.531C312.792 435.526 313.047 434.515 313.25 433.484C313.458 432.458 313.609 431.422 313.713 430.38C313.818 429.338 313.87 428.292 313.87 427.245V228.489C313.87 227.479 313.823 226.469 313.724 225.458C313.625 224.453 313.484 223.453 313.292 222.458C313.099 221.463 312.859 220.484 312.578 219.51C312.292 218.542 311.963 217.583 311.588 216.646C311.213 215.703 310.792 214.786 310.333 213.885C309.87 212.984 309.364 212.109 308.818 211.255C308.276 210.406 307.693 209.583 307.068 208.786C306.443 207.989 305.786 207.224 305.088 206.489C304.396 205.755 303.667 205.057 302.901 204.39C302.14 203.729 301.349 203.099 300.531 202.51C299.708 201.922 298.859 201.37 297.989 200.864C297.114 200.354 296.219 199.89 295.302 199.463C294.385 199.042 293.448 198.661 292.495 198.328C291.542 197.995 290.573 197.703 289.594 197.458C288.614 197.219 287.625 197.021 286.625 196.875C285.625 196.724 284.62 196.625 283.614 196.573ZM157.542 24.6821C159.443 24.6821 161.338 24.7342 163.229 24.828C165.125 24.9217 167.021 25.0623 168.906 25.255C170.797 25.4425 172.677 25.6769 174.552 25.9582C176.432 26.2394 178.302 26.5623 180.161 26.9373C182.021 27.3123 183.87 27.729 185.713 28.1925C187.552 28.6561 189.38 29.1665 191.198 29.7186C193.01 30.2707 194.812 30.8696 196.599 31.5103C198.385 32.1509 200.151 32.8384 201.906 33.5675C203.656 34.2967 205.39 35.0675 207.109 35.88C208.823 36.6925 210.515 37.5467 212.187 38.4478C213.864 39.3436 215.51 40.2811 217.14 41.2603C218.765 42.2394 220.37 43.255 221.948 44.3123C223.526 45.3696 225.073 46.4634 226.599 47.5988C228.12 48.729 229.62 49.9009 231.083 51.104C232.552 52.3123 233.989 53.5519 235.39 54.8332C236.797 56.1092 238.172 57.4165 239.515 58.7655C240.854 60.1092 242.167 61.4842 243.437 62.8957C244.713 64.3019 245.953 65.7394 247.156 67.2082C248.359 68.6821 249.526 70.1769 250.656 71.703C251.792 73.2342 252.88 74.7863 253.937 76.3644C254.989 77.9478 256.005 79.5519 256.984 81.1821C257.958 82.8123 258.896 84.4686 259.792 86.1457C260.687 87.8228 261.542 89.5155 262.349 91.2342C263.161 92.953 263.932 94.6925 264.661 96.4478C265.385 98.203 266.073 99.979 266.713 101.765C267.354 103.557 267.948 105.359 268.5 107.182C269.052 109 269.562 110.833 270.026 112.677C270.484 114.521 270.901 116.375 271.276 118.239C271.646 120.104 271.974 121.974 272.255 123.854C272.536 125.734 272.771 127.625 272.958 129.515C273.146 131.406 273.286 133.302 273.38 135.203C273.479 137.099 273.526 139 273.526 140.901V196.484H236.547V140.901C236.547 138.307 236.422 135.724 236.167 133.14C235.911 130.562 235.536 128 235.031 125.458C234.526 122.917 233.896 120.401 233.146 117.922C232.396 115.443 231.526 113 230.531 110.609C229.542 108.213 228.437 105.87 227.219 103.583C226 101.297 224.672 99.078 223.234 96.9217C221.797 94.7655 220.255 92.6821 218.614 90.6821C216.974 88.6769 215.234 86.755 213.406 84.9217C211.578 83.0884 209.661 81.3488 207.661 79.7082C205.661 78.0623 203.588 76.5207 201.437 75.078C199.281 73.6353 197.068 72.3071 194.786 71.0832C192.505 69.8644 190.167 68.755 187.776 67.7603C185.385 66.7707 182.953 65.8957 180.474 65.1457C178 64.3905 175.495 63.7655 172.953 63.2603C170.417 62.7498 167.859 62.3696 165.286 62.1196C162.713 61.8644 160.13 61.7342 157.542 61.7342C154.953 61.7342 152.375 61.8644 149.797 62.1196C147.224 62.3696 144.667 62.7498 142.13 63.2603C139.594 63.7655 137.083 64.3905 134.609 65.1457C132.13 65.8957 129.698 66.7707 127.307 67.7603C124.917 68.755 122.583 69.8644 120.302 71.0832C118.021 72.3071 115.802 73.6353 113.651 75.078C111.5 76.5207 109.422 78.0623 107.422 79.7082C105.422 81.3488 103.505 83.0884 101.677 84.9217C99.8488 86.755 98.1144 88.6769 96.4738 90.6821C94.828 92.6821 93.2915 94.7655 91.854 96.9217C90.4165 99.078 89.0884 101.297 87.8644 103.583C86.6457 105.87 85.5415 108.213 84.5519 110.609C83.5623 113 82.6925 115.443 81.9373 117.922C81.1873 120.401 80.5623 122.917 80.0571 125.458C79.5519 128 79.1717 130.562 78.9165 133.14C78.6665 135.724 78.5363 138.307 78.5363 140.901V196.484H41.5571V140.901C41.5571 139 41.6092 137.099 41.703 135.203C41.7967 133.302 41.9425 131.406 42.13 129.515C42.3175 127.625 42.5519 125.734 42.8332 123.854C43.1092 121.974 43.4373 120.104 43.8071 118.239C44.1821 116.375 44.5988 114.521 45.0623 112.677C45.5259 110.833 46.0311 109 46.5832 107.182C47.1353 105.359 47.7342 103.557 48.3748 101.765C49.0155 99.979 49.6978 98.203 50.4269 96.4478C51.1509 94.6925 51.9217 92.953 52.7342 91.2342C53.5467 89.5155 54.4009 87.8228 55.2967 86.1457C56.1925 84.4686 57.1248 82.8123 58.104 81.1821C59.078 79.5519 60.0936 77.9478 61.1509 76.3644C62.203 74.7863 63.2967 73.2342 64.4269 71.703C65.5571 70.1769 66.7238 68.6821 67.9269 67.2082C69.1353 65.7394 70.3696 64.3019 71.6457 62.8957C72.9217 61.4842 74.229 60.1092 75.5728 58.7655C76.9113 57.4165 78.2863 56.1092 79.6925 54.8332C81.0988 53.5519 82.5363 52.3123 83.9998 51.104C85.4686 49.9009 86.9634 48.729 88.4842 47.5988C90.0103 46.4634 91.5623 45.3696 93.1405 44.3123C94.7186 43.255 96.3175 42.2394 97.9478 41.2603C99.5728 40.2811 101.224 39.3436 102.896 38.4478C104.568 37.5467 106.265 36.6925 107.979 35.88C109.693 35.0675 111.427 34.2967 113.177 33.5675C114.932 32.8384 116.703 32.1509 118.489 31.5103C120.276 30.8696 122.073 30.2707 123.89 29.7186C125.703 29.1665 127.531 28.6561 129.375 28.1925C131.213 27.729 133.062 27.3123 134.927 26.9373C136.786 26.5623 138.656 26.2394 140.531 25.9582C142.406 25.6769 144.292 25.4425 146.177 25.255C148.068 25.0623 149.958 24.9217 151.854 24.828C153.75 24.7342 155.646 24.6821 157.542 24.6821ZM226.463 196.484H88.6248V140.901C88.6248 138.64 88.7342 136.385 88.9582 134.135C89.1769 131.88 89.505 129.646 89.9478 127.427C90.3905 125.213 90.9373 123.021 91.5936 120.854C92.2446 118.693 93.005 116.562 93.8696 114.474C94.7342 112.385 95.6978 110.344 96.7603 108.349C97.828 106.354 98.9842 104.417 100.239 102.536C101.495 100.656 102.833 98.8384 104.265 97.0936C105.698 95.3436 107.213 93.6665 108.807 92.0675C110.406 90.4686 112.078 88.953 113.823 87.5207C115.568 86.0832 117.375 84.7394 119.255 83.479C121.13 82.2238 123.062 81.0623 125.052 79.9946C127.047 78.9321 129.083 77.9634 131.167 77.0988C133.255 76.2342 135.375 75.4738 137.536 74.8175C139.698 74.1613 141.885 73.6092 144.099 73.1717C146.312 72.729 148.542 72.3957 150.786 72.1769C153.031 71.953 155.286 71.8436 157.542 71.8436C159.802 71.8436 162.052 71.953 164.297 72.1769C166.542 72.3957 168.776 72.729 170.989 73.1717C173.203 73.6092 175.39 74.1613 177.547 74.8175C179.708 75.4738 181.833 76.2342 183.917 77.0988C186 77.9634 188.042 78.9321 190.031 79.9946C192.021 81.0623 193.953 82.2238 195.833 83.479C197.708 84.7394 199.521 86.0832 201.265 87.5207C203.01 88.953 204.677 90.4686 206.276 92.0675C207.87 93.6665 209.385 95.3436 210.818 97.0936C212.25 98.8384 213.594 100.656 214.849 102.536C216.099 104.417 217.26 106.354 218.323 108.349C219.385 110.344 220.354 112.385 221.213 114.474C222.078 116.562 222.838 118.693 223.495 120.854C224.151 123.021 224.698 125.213 225.135 127.427C225.578 129.646 225.906 131.88 226.13 134.135C226.349 136.385 226.463 138.64 226.463 140.901V196.484ZM303.786 427.245C303.786 427.963 303.75 428.677 303.677 429.39C303.604 430.104 303.5 430.812 303.359 431.515C303.219 432.219 303.047 432.911 302.838 433.599C302.63 434.286 302.39 434.958 302.114 435.62C301.838 436.281 301.536 436.932 301.198 437.562C300.859 438.193 300.489 438.807 300.094 439.406C299.698 440 299.271 440.573 298.818 441.13C298.364 441.682 297.88 442.213 297.375 442.719C296.87 443.229 296.344 443.708 295.786 444.161C295.234 444.62 294.661 445.047 294.068 445.443C293.474 445.844 292.859 446.208 292.229 446.547C291.599 446.885 290.953 447.193 290.292 447.469C289.63 447.745 288.958 447.984 288.271 448.193C287.588 448.401 286.896 448.578 286.193 448.719C285.495 448.859 284.786 448.963 284.073 449.036C283.359 449.104 282.646 449.14 281.932 449.14H33.1509C32.4373 449.14 31.7238 449.104 31.0103 449.036C30.3019 448.963 29.5936 448.859 28.8905 448.719C28.1873 448.578 27.4946 448.401 26.8123 448.193C26.13 447.984 25.453 447.745 24.7967 447.469C24.1353 447.193 23.4894 446.885 22.8592 446.547C22.2238 446.208 21.6144 445.844 21.0207 445.443C20.4217 445.047 19.8488 444.62 19.2967 444.161C18.7446 443.708 18.2134 443.229 17.7082 442.719C17.203 442.213 16.7238 441.682 16.2707 441.13C15.8123 440.573 15.3905 440 14.9894 439.406C14.5936 438.807 14.2238 438.193 13.8905 437.562C13.5519 436.927 13.2446 436.281 12.9686 435.62C12.6978 434.958 12.453 434.286 12.2446 433.599C12.0415 432.911 11.8644 432.219 11.7238 431.515C11.5832 430.812 11.479 430.104 11.4061 429.39C11.3384 428.677 11.3019 427.963 11.3019 427.245V228.489C11.3019 227.771 11.3384 227.057 11.4061 226.344C11.479 225.63 11.5832 224.922 11.7238 224.219C11.8644 223.515 12.0415 222.823 12.2446 222.135C12.453 221.448 12.6978 220.776 12.9686 220.114C13.2446 219.453 13.5519 218.802 13.8905 218.172C14.2238 217.542 14.5936 216.927 14.9894 216.328C15.3905 215.734 15.8123 215.161 16.2707 214.604C16.7238 214.052 17.203 213.521 17.7082 213.015C18.2134 212.505 18.7446 212.026 19.2967 211.573C19.8488 211.114 20.4217 210.687 21.0207 210.292C21.6144 209.89 22.2238 209.526 22.8592 209.187C23.4894 208.849 24.1353 208.542 24.7967 208.265C25.453 207.989 26.13 207.75 26.8123 207.542C27.4946 207.333 28.1873 207.156 28.8905 207.015C29.5936 206.875 30.3019 206.771 31.0103 206.698C31.7238 206.63 32.4373 206.594 33.1509 206.594H281.932C282.646 206.594 283.359 206.63 284.073 206.698C284.786 206.771 285.495 206.875 286.193 207.015C286.896 207.156 287.588 207.333 288.271 207.542C288.958 207.75 289.63 207.989 290.292 208.265C290.953 208.542 291.599 208.849 292.229 209.187C292.859 209.526 293.474 209.89 294.068 210.292C294.661 210.687 295.234 211.114 295.786 211.573C296.344 212.026 296.87 212.505 297.375 213.015C297.88 213.521 298.364 214.052 298.818 214.604C299.271 215.161 299.698 215.734 300.094 216.328C300.489 216.927 300.859 217.542 301.198 218.172C301.536 218.802 301.838 219.453 302.114 220.114C302.39 220.776 302.63 221.448 302.838 222.135C303.047 222.823 303.219 223.515 303.359 224.219C303.5 224.922 303.604 225.63 303.677 226.344C303.75 227.057 303.786 227.771 303.786 228.489V427.245Z" fill="#1A1A1A"/>
</g>
</svg>
