<svg width="315" height="473" viewBox="0 0 315 473" fill="none" xmlns="http://www.w3.org/2000/svg">
<path d="M143.583 213.537V293.349L116.188 327.5L143.583 361.667L116.188 395.834L174.344 455.584L205.125 408.016V213.537H143.583Z" fill="#FBC829"/>
<path d="M155.63 213.537V436.443L174.261 455.584L188.073 434.255V213.537H155.63Z" fill="#F89A2C"/>
<mask id="mask0_476_902" style="mask-type:luminance" maskUnits="userSpaceOnUse" x="58" y="3" width="225" height="226">
<path d="M58 3.3335H282.698V228.667H58V3.3335Z" fill="white"/>
</mask>
<g mask="url(#mask0_476_902)">
<path d="M170.891 87.7448C155.755 87.7448 143.5 75.4844 143.5 60.375C143.5 45.2604 155.755 33.0156 170.891 33.0156C186.026 33.0156 198.307 45.2604 198.307 60.375C198.307 75.4844 186.026 87.7448 170.891 87.7448ZM170.891 4.34375C109.115 4.34375 59.0625 54.3438 59.0625 116.031C59.0625 177.74 109.115 227.745 170.891 227.745C232.667 227.745 282.76 177.74 282.76 116.031C282.76 54.3438 232.667 4.34375 170.891 4.34375Z" fill="#FBC829"/>
</g>
<path d="M136.276 426.333L106.333 395.573L131.479 364.208C132.672 362.719 132.672 360.609 131.479 359.12L106.13 327.5L131.479 295.896C132.057 295.172 132.375 294.271 132.375 293.349V229.479C133.672 229.745 134.964 229.989 136.276 230.208V302.453L116.188 327.5L136.276 352.557V370.771L116.188 395.833L136.276 416.474V426.333Z" fill="white"/>
<path d="M136.276 416.474L116.188 395.833L136.276 370.771V416.474ZM136.276 352.557L116.188 327.5L136.276 302.453V352.557Z" fill="#FBC829"/>
<path d="M176.865 420.578V229.87C179.875 229.312 182.844 228.64 185.771 227.854V406.818L176.865 420.578Z" fill="#F8992B"/>
<mask id="mask1_476_902" style="mask-type:luminance" maskUnits="userSpaceOnUse" x="158" y="448" width="11" height="13">
<path d="M158 448.667H168.667V460.032H158V448.667Z" fill="white"/>
</mask>
<g mask="url(#mask1_476_902)">
<path d="M159.068 459.651C159.047 459.651 159.031 459.651 159.016 459.651C159.141 459.651 159.26 459.641 159.385 459.631C160.615 459.506 161.734 458.828 162.401 457.792L168 449.151L168.047 449.198L162.49 457.792C161.812 458.828 160.693 459.506 159.464 459.631C159.328 459.646 159.198 459.651 159.068 459.651Z" fill="#231F20"/>
</g>
<path d="M188.073 418.255V227.208C189.974 226.656 191.844 226.062 193.703 225.417C193.776 225.401 193.849 225.385 193.927 225.37V408.015C193.927 408.786 193.693 409.573 193.271 410.224L188.073 418.255Z" fill="#1E1504"/>
<path d="M168.047 449.198L168 449.151L176.214 436.464C176.646 435.797 176.865 435.052 176.865 434.255V420.578L185.771 406.818V227.854C186.542 227.646 187.307 227.432 188.073 227.208V418.255L168.047 449.198Z" fill="#1F1003"/>
<path d="M193.703 225.417C193.776 225.39 193.849 225.364 193.927 225.338V225.37C193.849 225.385 193.776 225.401 193.703 225.417Z" fill="#1E1504"/>
<path d="M136.995 438.745L97.9845 398.667C96.5522 397.198 96.4429 394.891 97.7241 393.292L123.083 361.667L97.7241 330.042C96.5366 328.552 96.5314 326.438 97.7241 324.953L124.229 291.922V227.516C126.901 228.266 129.625 228.927 132.375 229.479V293.349C132.375 294.271 132.057 295.172 131.479 295.896L106.13 327.5L131.479 359.12C132.672 360.609 132.672 362.719 131.479 364.208L106.333 395.573L136.276 426.333V436.443C136.276 437.266 136.531 438.073 136.995 438.745Z" fill="#231F20"/>
<path d="M158.339 449.078L144.427 434.791V424.849L155.63 436.359V436.442L162.172 443.161L158.339 449.078Z" fill="white"/>
<path d="M155.63 436.359L144.427 424.849V231.276C148.11 231.63 151.839 231.812 155.61 231.812C155.615 231.812 155.625 231.812 155.63 231.812V436.359Z" fill="#FBC829"/>
<path d="M162.172 443.162L155.63 436.443V231.813C160.052 231.813 164.422 231.563 168.719 231.083V433.052L162.172 443.162Z" fill="#F8992B"/>
<mask id="mask2_476_902" style="mask-type:luminance" maskUnits="userSpaceOnUse" x="135" y="230" width="34" height="231">
<path d="M135.333 230H168.667V460.031H135.333V230Z" fill="white"/>
</mask>
<g mask="url(#mask2_476_902)">
<path d="M158.985 459.651C157.891 459.651 156.828 459.203 156.058 458.417L137.427 439.276C137.271 439.115 137.125 438.932 136.995 438.745C136.532 438.073 136.276 437.266 136.276 436.443V416.474L144.427 424.849V434.792L158.339 449.078L162.172 443.162L168 449.151L162.401 457.792C161.735 458.828 160.615 459.505 159.386 459.63C159.261 459.641 159.141 459.651 159.016 459.651C159.006 459.651 158.995 459.651 158.985 459.651ZM136.276 370.771V352.557L143.584 361.667L136.276 370.771ZM136.276 302.453V230.208C138.688 230.61 141.125 230.943 143.584 231.198V293.349L136.276 302.453Z" fill="#231F20"/>
</g>
<path d="M144.427 424.849L136.276 416.474V370.771L143.583 361.667L136.276 352.557V302.453L143.583 293.349V231.198C143.864 231.224 144.146 231.25 144.427 231.276V424.849Z" fill="#1E1504"/>
<path d="M168 449.151L162.172 443.161L168.719 433.052V231.083C171.464 230.771 174.182 230.364 176.865 229.87V434.255C176.865 435.052 176.646 435.797 176.214 436.463L168 449.151Z" fill="#1F1003"/>
<path d="M133.906 221.49C112.849 217.193 94.0467 206.766 79.4061 192.151C59.9061 172.656 47.854 145.776 47.854 116.031C47.854 86.297 59.9061 59.422 79.4061 39.9325C94.0467 25.3231 112.849 14.896 133.901 10.5991C90.3123 25.8439 59.0623 67.2918 59.0623 116.031C59.0623 164.792 90.3123 206.24 133.906 221.49ZM171.109 87.745C173.599 86.3387 175.875 84.6095 177.875 82.6043C183.568 76.9272 187.099 69.0418 187.099 60.3752C187.099 51.7033 183.568 43.8231 177.875 38.146C175.875 36.1564 173.599 34.422 171.114 33.021C186.146 33.1356 198.307 45.3387 198.307 60.3752C198.307 75.4116 186.14 87.6252 171.109 87.745Z" fill="white"/>
<path d="M155.609 223.672C148.172 223.672 140.911 222.922 133.906 221.49C90.3125 206.24 59.0625 164.792 59.0625 116.031C59.0625 67.2918 90.3125 25.8439 133.901 10.5991C140.911 9.16683 148.172 8.41683 155.609 8.41683C185.385 8.41683 212.307 20.4533 231.833 39.9325C251.344 59.422 263.406 86.297 263.411 116.031C263.406 145.776 251.344 172.656 231.828 192.151C212.307 211.63 185.385 223.667 155.609 223.672ZM155.599 28.9481C146.927 28.9481 139.036 32.4741 133.359 38.1512C127.672 43.8283 124.141 51.7033 124.141 60.3752C124.141 69.0366 127.672 76.9272 133.359 82.6043C139.036 88.2866 146.927 91.8179 155.604 91.8179C155.609 91.8179 155.609 91.8179 155.609 91.8179V87.7502V91.8127C155.615 91.8127 155.615 91.8127 155.62 91.8127C161.24 91.8127 166.536 90.3335 171.109 87.745C186.141 87.6252 198.307 75.4116 198.307 60.3752C198.307 45.3387 186.146 33.1356 171.115 33.021C166.536 30.4272 161.24 28.9481 155.62 28.9481C155.615 28.9481 155.615 28.9481 155.609 28.9481C155.609 28.9481 155.604 28.9481 155.599 28.9481Z" fill="#FBC829"/>
<path d="M133.901 10.5991C140.849 8.16683 148.114 6.4012 155.609 5.38037V8.41683C148.172 8.41683 140.911 9.16683 133.901 10.5991Z" fill="#1E1504"/>
<mask id="mask3_476_902" style="mask-type:luminance" maskUnits="userSpaceOnUse" x="155" y="0" width="39" height="8">
<path d="M155.333 0.03125H194V7.33333H155.333V0.03125Z" fill="white"/>
</mask>
<g mask="url(#mask3_476_902)">
<path d="M193.693 6.66683C186.333 5.146 178.708 4.34391 170.891 4.34391C165.708 4.34391 160.609 4.69287 155.609 5.38037V0.270996C168.943 0.270996 181.766 2.521 193.693 6.66683Z" fill="#231F20"/>
</g>
<path d="M155.61 231.813C151.839 231.813 148.11 231.63 144.427 231.276C144.146 231.25 143.865 231.224 143.583 231.198V224.391C147.521 225.375 151.542 226.156 155.63 226.708V231.813C155.625 231.813 155.615 231.813 155.61 231.813ZM188.073 227.208V226.427C189.969 226.135 191.844 225.797 193.703 225.417C191.844 226.063 189.974 226.656 188.073 227.208Z" fill="#1E1504"/>
<path d="M155.63 231.813V226.708C160.62 227.391 165.714 227.745 170.891 227.745C176.735 227.745 182.474 227.292 188.073 226.427V227.208C187.307 227.432 186.542 227.646 185.771 227.854C182.844 228.641 179.875 229.313 176.865 229.87C174.182 230.365 171.464 230.771 168.719 231.083C164.422 231.563 160.052 231.813 155.63 231.813Z" fill="#1F1003"/>
<mask id="mask4_476_902" style="mask-type:luminance" maskUnits="userSpaceOnUse" x="39" y="0" width="118" height="232">
<path d="M39.6978 0.03125H156.667V231.333H39.6978V0.03125Z" fill="white"/>
</mask>
<g mask="url(#mask4_476_902)">
<path d="M143.583 231.198C141.125 230.943 138.688 230.61 136.276 230.209C134.964 229.99 133.672 229.745 132.375 229.479C129.625 228.927 126.901 228.266 124.229 227.516C104.828 222.078 87.4844 211.735 73.6458 197.906C52.6823 176.964 39.7031 147.995 39.7031 116.031C39.7031 84.0783 52.6823 55.1147 73.6458 34.1772C94.6042 13.2345 123.604 0.270996 155.604 0.270996H155.609V5.38037C148.115 6.4012 140.849 8.16683 133.901 10.5991C112.849 14.896 94.0469 25.3231 79.4063 39.9325C59.9063 59.422 47.8542 86.297 47.8542 116.031C47.8542 145.776 59.9063 172.656 79.4063 192.151C94.0469 206.766 112.849 217.193 133.906 221.49C137.068 222.599 140.292 223.563 143.583 224.391V231.198Z" fill="#231F20"/>
</g>
<path d="M170.891 227.745C165.714 227.745 160.62 227.391 155.63 226.708C151.542 226.156 147.521 225.375 143.583 224.391C140.292 223.563 137.068 222.599 133.906 221.49C140.911 222.922 148.172 223.672 155.609 223.672C185.385 223.667 212.307 211.63 231.828 192.151C251.344 172.656 263.406 145.776 263.411 116.031C263.406 86.2969 251.344 59.4219 231.833 39.9323C212.307 20.4531 185.385 8.41667 155.609 8.41667V5.38021C160.609 4.69271 165.708 4.34375 170.891 4.34375C178.708 4.34375 186.333 5.14583 193.693 6.66667C210.396 12.4635 225.365 21.9635 237.594 34.1771C258.573 55.1146 271.563 84.0781 271.563 116.031C271.563 147.995 258.573 176.964 237.599 197.906C225.422 210.068 210.531 219.536 193.927 225.339C193.849 225.365 193.776 225.391 193.703 225.417C191.844 225.797 189.969 226.135 188.073 226.427C182.474 227.292 176.734 227.745 170.891 227.745Z" fill="#1E1504"/>
<path d="M170.891 87.7448C165.61 87.7448 160.672 86.25 156.49 83.6667C162.589 83.4375 168.068 80.8802 172.115 76.849C176.349 72.6198 178.953 66.8177 178.953 60.375C178.953 53.9323 176.349 48.1354 172.115 43.9063C168.068 39.875 162.583 37.3281 156.474 37.1042C160.662 34.5104 165.604 33.0156 170.891 33.0156C170.969 33.0156 171.042 33.0208 171.115 33.0208C173.599 34.4219 175.875 36.1563 177.875 38.1458C183.568 43.8229 187.099 51.7031 187.099 60.375C187.099 69.0417 183.568 76.9271 177.875 82.6042C175.875 84.6094 173.599 86.3385 171.11 87.7448C171.042 87.7448 170.969 87.7448 170.891 87.7448Z" fill="#231F20"/>
<path d="M155.604 91.8175C146.927 91.8175 139.036 88.2863 133.359 82.604C127.672 76.9269 124.141 69.0363 124.141 60.3748C124.141 51.703 127.672 43.828 133.359 38.1509C139.036 32.4738 146.927 28.9478 155.599 28.9478C155.604 28.9478 155.609 28.9478 155.609 28.9478C155.615 28.9478 155.615 28.9478 155.62 28.9478C161.24 28.9478 166.536 30.4269 171.115 33.0207C171.042 33.0207 170.969 33.0155 170.891 33.0155C165.604 33.0155 160.661 34.5103 156.474 37.104C156.188 37.0936 155.901 37.0884 155.609 37.0884C149.161 37.0884 143.354 39.6821 139.12 43.9061C134.896 48.13 132.297 53.9269 132.292 60.3748C132.297 66.8228 134.896 72.6248 139.12 76.8488C143.354 81.0728 149.161 83.6769 155.609 83.6821V91.8175C155.609 91.8175 155.609 91.8175 155.604 91.8175ZM155.62 91.8123C155.615 91.8123 155.615 91.8123 155.609 91.8123V83.6821C155.906 83.6821 156.198 83.6769 156.49 83.6665C160.672 86.2498 165.609 87.7446 170.891 87.7446C170.969 87.7446 171.042 87.7446 171.109 87.7446C166.536 90.3332 161.24 91.8123 155.62 91.8123Z" fill="#1E1504"/>
</svg>
