<svg width="106" height="109" viewBox="0 0 106 109" fill="none" xmlns="http://www.w3.org/2000/svg">
<path d="M53.4176 6.14105C43.7703 6.14105 38.1443 6.66961 48.0221 39.5575L50.6501 47.388L53.4176 46.9652L56.1861 47.388L58.8131 39.5575C68.6919 6.67254 63.0659 6.14105 53.4176 6.14105Z" fill="#DC4D30"/>
<mask id="mask0_181_86" style="mask-type:luminance" maskUnits="userSpaceOnUse" x="42" y="5" width="23" height="43">
<path d="M42.3871 5.83859H64.3895V47.7971H42.3871V5.83859Z" fill="white"/>
</mask>
<g mask="url(#mask0_181_86)">
<path d="M56.3743 47.6846L53.4177 47.2333L50.4621 47.6846L47.7604 39.6329C44.915 30.161 43.278 23.1077 42.7572 18.0717C42.2699 13.3617 42.7198 10.2931 44.1759 8.41677C45.0556 7.28136 46.2881 6.58347 48.0536 6.22131C49.6006 5.90417 51.3995 5.87775 53.4197 5.87775C55.44 5.87775 57.2378 5.90417 58.7858 6.22131C60.5513 6.58347 61.7859 7.28136 62.6646 8.41677C64.1176 10.2931 64.5686 13.3617 64.0822 18.0717C63.5615 23.1077 61.9244 30.161 59.0791 39.6329V39.6407L56.3743 47.6846ZM53.4177 46.6989L55.9991 47.0924L58.5523 39.4802C61.3895 30.0416 63.0185 23.0206 63.5362 18.0179C64.0023 13.5095 63.5746 10.4732 62.2268 8.73293C60.5493 6.56683 57.6503 6.40532 53.4187 6.40532C49.1881 6.40532 46.2891 6.56781 44.6117 8.73293C43.2628 10.4732 42.8341 13.5095 43.3022 18.0179C43.8199 23.0206 45.4499 30.0416 48.2851 39.4802L50.8373 47.0924L53.4177 46.6989Z" fill="black"/>
</g>
<path d="M83.4575 15.5934C75.6535 10.0993 70.7778 7.32637 58.813 39.5556L56.186 47.388L58.6825 48.6232L60.6654 50.5407L67.5462 45.7005C95.4942 24.7208 91.2625 21.0884 83.4575 15.5934Z" fill="#DC4D30"/>
<path d="M60.6382 50.8863L58.5198 48.8376L55.8555 47.5201L58.5572 39.4675C62.0032 30.1835 64.9588 23.5462 67.5938 19.1748C70.058 15.0873 72.2845 12.8615 74.599 12.1715C76.0004 11.7535 77.4201 11.8906 79.0713 12.6031C80.5152 13.2266 81.9864 14.2299 83.6214 15.38C85.2554 16.5301 86.6953 17.5755 87.754 18.7119C88.9633 20.0107 89.5366 21.2763 89.5588 22.6966C89.5973 25.0428 88.0988 27.7805 84.8459 31.314C81.3686 35.0922 75.7638 39.8659 67.7131 45.908L67.706 45.9129L60.6382 50.8863ZM56.5178 47.2549L58.8444 48.405L60.6938 50.1933L67.3794 45.4911C75.4018 39.4685 80.9813 34.7183 84.4364 30.9616C87.5497 27.5808 89.0462 24.8803 89.0108 22.7044C88.9683 19.998 86.7196 18.2137 83.2979 15.8077C79.8751 13.4009 77.4312 11.8798 74.7588 12.6765C72.6121 13.3167 70.423 15.5288 68.065 19.4411C65.4461 23.784 62.5057 30.391 59.0719 39.6417L56.5178 47.2549Z" fill="black"/>
<path d="M102.023 40.3445C99.0423 31.4579 96.7844 26.4376 67.5462 45.7005L60.6685 50.5407L61.9385 52.9603L62.3793 55.6403H70.881C106.221 54.5803 105.005 49.2311 102.023 40.3445Z" fill="#DC4D30"/>
<path d="M70.882 55.9046H62.1457L61.6745 53.0425L60.3186 50.4595L67.3915 45.4822C75.8133 39.9344 82.2331 36.2472 87.0168 34.2103C91.4901 32.3085 94.6428 31.7721 96.9351 32.5326C98.3224 32.9917 99.3901 33.9118 100.289 35.426C101.08 36.7532 101.66 38.4015 102.285 40.2623C102.909 42.1239 103.44 43.7889 103.606 45.3109C103.796 47.0503 103.491 48.401 102.648 49.5629C101.255 51.4823 98.382 52.8448 93.6064 53.851C88.5001 54.9277 81.0682 55.5992 70.8881 55.9046H70.882ZM62.6099 55.377H70.8739C81.0197 55.0716 88.4152 54.4041 93.4881 53.3352C98.0585 52.3721 100.907 51.0389 102.2 49.2595C103.808 47.0434 103.073 44.3233 101.763 40.4257C100.454 36.5281 99.4023 33.9088 96.7571 33.0318C94.6297 32.328 91.5174 32.8732 87.2352 34.6938C82.4818 36.717 76.0924 40.3875 67.6999 45.9198L61.0143 50.622L62.1983 52.8771L62.6099 55.377Z" fill="black"/>
<path d="M102.023 70.9371C105.005 62.0505 106.224 56.7013 70.876 55.6403H62.3764L61.9355 58.3213L60.6655 60.7409L67.5463 65.5811C96.7845 84.844 99.0424 79.8237 102.023 70.9371Z" fill="#DC4D30"/>
<path d="M94.7015 79.0818C92.6944 79.0818 90.1878 78.4211 87.0158 77.0713C82.2311 75.0344 75.8124 71.3472 67.3906 65.7994L67.3835 65.7945L60.3176 60.8221L61.6736 58.2381L62.1458 55.377H70.8881C81.0683 55.6824 88.5002 56.3539 93.6064 57.4306C98.3821 58.4368 101.255 59.7993 102.648 61.7187C103.491 62.8806 103.794 64.2313 103.606 65.9697C103.443 67.4927 102.909 69.1576 102.285 71.0184C101.66 72.88 101.08 74.5284 100.289 75.8546C99.3881 77.3698 98.3224 78.2899 96.9351 78.749C96.2657 78.9702 95.5256 79.0818 94.7015 79.0818ZM67.7 65.3648C76.0924 70.894 82.4829 74.5646 87.2342 76.5878C91.5164 78.4103 94.6307 78.9535 96.7561 78.2498C99.4013 77.3728 100.456 74.7525 101.764 70.8529C103.073 66.9563 103.808 64.2352 102.2 62.0202C100.909 60.2407 98.0595 58.9076 93.4881 57.9444C88.4152 56.8756 81.0187 56.208 70.8739 55.9026H62.6099L62.1984 58.4015L61.0143 60.6577L67.7 65.3648Z" fill="black"/>
<path d="M83.4575 95.6882C91.2625 90.1932 95.4942 86.5618 67.5432 65.582L60.6654 60.7418L58.6825 62.6603L56.186 63.8946L58.813 71.726C70.7778 103.953 75.6535 101.179 83.4575 95.6882Z" fill="#DC4D30"/>
<path d="M76.1896 99.3441C75.6466 99.3441 75.1168 99.2658 74.5991 99.1092C72.2835 98.4191 70.058 96.1933 67.5939 92.1058C64.9588 87.7345 62.0033 81.0972 58.5573 71.8132V71.8053L55.8575 63.7605L58.5229 62.4421L60.6413 60.3944L67.7101 65.3716C75.7598 71.4148 81.3646 76.1884 84.8429 79.9666C88.0948 83.4992 89.5933 86.2379 89.5559 88.5841C89.5326 90.0033 88.9593 91.2699 87.75 92.5678C86.6913 93.7052 85.2514 94.7506 83.6174 95.9006C81.9834 97.0507 80.5122 98.053 79.0683 98.6775C78.0369 99.1219 77.0925 99.3441 76.1896 99.3441ZM59.072 71.6389C62.5078 80.8887 65.4472 87.4966 68.0651 91.8386C70.423 95.748 72.6122 97.964 74.7588 98.6041C75.23 98.7451 75.7123 98.8155 76.2047 98.8155C78.3544 98.8155 80.4981 97.4423 83.2959 95.471C86.7186 93.0621 88.9694 91.2807 89.0098 88.5733C89.0442 86.3984 87.5477 83.6969 84.4354 80.3161C80.9804 76.5653 75.4009 71.8102 67.3785 65.7896L60.6918 61.0854L58.8424 62.8727L56.5158 64.0238L59.072 71.6389Z" fill="black"/>
<path d="M53.4176 105.141C63.0659 105.141 68.6919 104.609 58.8131 71.7241L56.1861 63.8936L53.4176 64.3155L50.6501 63.8936L48.0221 71.7241C38.1443 104.609 43.7703 105.141 53.4176 105.141Z" fill="#DC4D30"/>
<path d="M53.4176 105.405C51.3993 105.405 49.5995 105.378 48.0525 105.061C46.286 104.699 45.0514 104.001 44.1737 102.866C42.7197 100.989 42.2697 97.9209 42.7551 93.2109C43.2758 88.1749 44.9129 81.1216 47.7592 71.6497V71.6419L50.458 63.597L53.4145 64.0483L56.3701 63.597L59.0749 71.6487C61.9213 81.1206 63.5583 88.1739 64.0791 93.2099C64.5664 97.9199 64.1165 100.988 62.6604 102.864C61.7807 104 60.5481 104.698 58.7827 105.06C57.2367 105.378 55.4358 105.405 53.4176 105.405ZM48.283 71.8024C45.4467 81.241 43.8178 88.262 43.3001 93.2647C42.8329 97.7731 43.2617 100.809 44.6085 102.55C46.287 104.716 49.186 104.877 53.4166 104.877C57.6482 104.877 60.5471 104.715 62.2246 102.55C63.5735 100.809 64.0012 97.7721 63.5341 93.2647C63.0163 88.262 61.3864 81.241 58.5501 71.8024L55.996 64.1902L53.4156 64.5837L50.8351 64.1902L48.283 71.8024Z" fill="black"/>
<path d="M23.3776 95.6882C31.1826 101.182 36.0583 103.955 48.0222 71.726L50.6501 63.8946L48.1536 62.6603L46.1697 60.7418L39.293 65.582C11.342 86.5608 15.5736 90.1932 23.3776 95.6882Z" fill="#DC4D30"/>
<path d="M30.6467 99.3441C29.7417 99.3441 28.7993 99.1239 27.7669 98.6775C26.323 98.053 24.8528 97.0508 23.2178 95.9007C21.5828 94.7506 20.1429 93.7052 19.0853 92.5707C17.8759 91.2719 17.3026 90.0063 17.2794 88.586C17.242 86.2408 18.7395 83.5021 21.9923 79.9696C25.4706 76.1914 31.0744 71.4168 39.1251 65.3746L39.1322 65.3697L46.198 60.3954L48.3164 62.4431L50.9807 63.7615L48.279 71.8142C44.833 81.0981 41.8774 87.7354 39.2424 92.1068C36.7782 96.1943 34.5517 98.4201 32.2372 99.1102C31.7195 99.2658 31.1886 99.3441 30.6467 99.3441ZM39.4557 65.7925C31.4333 71.8151 25.8549 76.5653 22.3998 80.318C19.2865 83.6998 17.79 86.4003 17.8254 88.5753C17.8679 91.2826 20.1156 93.066 23.5383 95.4729C26.3372 97.4423 28.4818 98.8175 30.6295 98.8175C31.1229 98.8185 31.6042 98.748 32.0754 98.6061C34.2221 97.9659 36.4112 95.7538 38.7692 91.8406C41.388 87.4986 44.3284 80.8916 47.7633 71.6409L50.3164 64.0277L47.9898 62.8767L46.1404 61.0894L39.4557 65.7925Z" fill="black"/>
<path d="M4.81507 70.9371C7.79592 79.8237 10.0568 84.844 39.295 65.5811L46.1728 60.7409L44.9028 58.3213L44.4599 55.6403H35.9572C0.61479 56.7013 1.83119 62.0505 4.81507 70.9371Z" fill="#DC4D30"/>
<path d="M12.1347 79.0818C11.3106 79.0818 10.5704 78.9702 9.90206 78.749C8.51477 78.2899 7.44802 77.3698 6.5481 75.8546C5.7584 74.5284 5.17699 72.88 4.55312 71.0184C3.92823 69.1576 3.39637 67.4927 3.23358 65.9697C3.04348 64.2313 3.34784 62.8806 4.19113 61.7187C5.58448 59.7993 8.45714 58.4368 13.2328 57.4306C18.339 56.3539 25.7709 55.6824 35.9511 55.377H44.6904L45.1606 58.2381L46.5165 60.8221L39.4446 65.7994C31.0228 71.3472 24.603 75.0344 19.8183 77.0713C16.6484 78.4211 14.1428 79.0818 12.1347 79.0818ZM5.07183 70.8569C6.38025 74.7545 7.43386 77.3747 10.079 78.2527C12.2064 78.9575 15.3187 78.4113 19.6009 76.5907C24.3543 74.5685 30.7427 70.897 39.1352 65.3687L45.8219 60.6665L44.6358 58.4035L44.2263 55.9046H35.9622C25.8164 56.21 18.4209 56.8775 13.348 57.9464C8.77767 58.9095 5.92928 60.2427 4.63603 62.0221C3.0273 64.2372 3.76342 66.9583 5.07183 70.8569Z" fill="black"/>
<path d="M4.81507 40.3445C1.83119 49.2311 0.614789 54.5803 35.9572 55.6403H44.4599L44.8998 52.9603L46.1698 50.5407L39.293 45.7005C10.0518 26.4376 7.7939 31.4579 4.81507 40.3445Z" fill="#DC4D30"/>
<path d="M44.6904 55.9046H35.9491C25.7689 55.5992 18.3381 54.9277 13.2318 53.851C8.45617 52.8477 5.5825 51.4823 4.18915 49.5629C3.34586 48.4 3.04353 47.0503 3.2316 45.3109C3.39541 43.7889 3.92828 42.1239 4.55316 40.2622C5.17704 38.4015 5.75844 36.7532 6.54815 35.426C7.44907 33.9117 8.51482 32.9917 9.9021 32.5326C12.1934 31.7721 15.3461 32.3065 19.8204 34.2103C24.6051 36.2472 31.0238 39.9343 39.4456 45.4822L39.4527 45.4871L46.5186 50.4595L45.1626 53.0425L44.6904 55.9046ZM35.9623 55.377H44.2263L44.6358 52.8771L45.8189 50.6219L39.1352 45.9197C30.7427 40.3905 24.3523 36.7199 19.601 34.6967C15.3188 32.8742 12.2045 32.33 10.0791 33.0347C7.43391 33.9088 6.37928 36.5291 5.07188 40.4247C3.76245 44.3223 3.02735 47.0424 4.63507 49.2585C5.9273 51.037 8.7767 52.3711 13.3471 53.3342C18.421 54.4041 25.8165 55.0716 35.9623 55.377Z" fill="black"/>
<path d="M23.3776 15.5934C15.5736 21.0884 11.342 24.7208 39.293 45.7005L46.1697 50.5407L48.1536 48.6233L50.6501 47.388L48.0222 39.5575C36.0583 7.32737 31.1826 10.1023 23.3776 15.5934Z" fill="#DC4D30"/>
<path d="M46.198 50.8862L39.1261 45.909C31.0744 39.8668 25.4706 35.0932 21.9923 31.315C18.7395 27.7825 17.242 25.0438 17.2794 22.6976C17.3026 21.2773 17.8759 20.0117 19.0853 18.7128C20.1439 17.5764 21.5838 16.5311 23.2178 15.381C24.8518 14.2309 26.323 13.2286 27.7669 12.6041C29.4151 11.8915 30.8357 11.7545 32.2402 12.1724C34.5547 12.8625 36.7813 15.0883 39.2454 19.1758C41.8794 23.5472 44.836 30.1845 48.282 39.4685L48.284 39.4763L50.9837 47.5211L48.3184 48.8386L46.198 50.8862ZM39.4557 45.4891L46.1424 50.1913L47.9918 48.404L50.3184 47.2529L47.7643 39.6427C44.3284 30.3929 41.389 23.785 38.7712 19.4421C36.4132 15.5298 34.2231 13.3177 32.0764 12.6795C29.404 11.8827 26.961 13.4028 23.5383 15.8107C20.1156 18.2195 17.8679 19.999 17.8254 22.7054C17.79 24.8813 19.2865 27.5818 22.3998 30.9626C25.8549 34.7193 31.4354 39.4675 39.4557 45.4891Z" fill="black"/>
<path d="M69.1975 55.6403C69.1975 56.1415 69.1723 56.6407 69.1217 57.1389C69.0711 57.6371 68.9953 58.1314 68.8942 58.6228C68.7931 59.1131 68.6677 59.5986 68.518 60.0773C68.3674 60.5559 68.1945 61.0267 67.9963 61.4897C67.7981 61.9517 67.5777 62.4039 67.334 62.8453C67.0903 63.2868 66.8254 63.7155 66.5382 64.1315C66.2511 64.5475 65.9437 64.9488 65.6161 65.3364C65.2874 65.723 64.9406 66.094 64.5756 66.4473C64.2106 66.8017 63.8274 67.1374 63.428 67.4545C63.0286 67.7727 62.614 68.0702 62.1843 68.3482C61.7545 68.6262 61.3116 68.8836 60.8566 69.1195C60.4006 69.3554 59.9345 69.5688 59.4562 69.7606C58.9789 69.9515 58.4926 70.1208 57.9981 70.2657C57.5037 70.4105 57.0032 70.5329 56.4966 70.6298C55.99 70.7277 55.4794 70.8011 54.9647 70.85C54.45 70.899 53.9344 70.9234 53.4177 70.9234C52.901 70.9234 52.3853 70.899 51.8716 70.85C51.357 70.8011 50.8463 70.7277 50.3397 70.6298C49.8332 70.5329 49.3316 70.4105 48.8372 70.2657C48.3427 70.1208 47.8574 69.9515 47.3791 69.7606C46.9019 69.5688 46.4357 69.3554 45.9797 69.1195C45.5237 68.8836 45.0808 68.6262 44.6511 68.3482C44.2223 68.0702 43.8068 67.7727 43.4074 67.4545C43.008 67.1374 42.6257 66.8017 42.2607 66.4473C41.8947 66.094 41.5479 65.723 41.2203 65.3364C40.8926 64.9488 40.5853 64.5475 40.2981 64.1315C40.0109 63.7155 39.746 63.2868 39.5023 62.8453C39.2586 62.4039 39.0372 61.9517 38.84 61.4897C38.6418 61.0267 38.4679 60.5559 38.3183 60.0773C38.1686 59.5986 38.0433 59.1131 37.9421 58.6228C37.841 58.1314 37.7652 57.6371 37.7146 57.1389C37.6641 56.6407 37.6388 56.1415 37.6388 55.6403C37.6388 55.1402 37.6641 54.641 37.7146 54.1428C37.7652 53.6445 37.841 53.1502 37.9421 52.6589C38.0433 52.1685 38.1686 51.683 38.3183 51.2044C38.4679 50.7257 38.6418 50.2549 38.84 49.792C39.0372 49.33 39.2586 48.8778 39.5023 48.4363C39.746 47.9949 40.0109 47.5662 40.2981 47.1502C40.5853 46.7342 40.8926 46.3319 41.2203 45.9452C41.5479 45.5586 41.8947 45.1877 42.2607 44.8343C42.6257 44.48 43.008 44.1442 43.4074 43.8271C43.8068 43.509 44.2223 43.2114 44.6511 42.9335C45.0808 42.6555 45.5237 42.3981 45.9797 42.1622C46.4357 41.9263 46.9019 41.7129 47.3791 41.521C47.8574 41.3292 48.3427 41.1608 48.8372 41.016C49.3316 40.8701 49.8332 40.7488 50.3397 40.6519C50.8463 40.554 51.357 40.4806 51.8716 40.4316C52.3853 40.3827 52.901 40.3582 53.4177 40.3582C53.9344 40.3582 54.45 40.3827 54.9647 40.4316C55.4794 40.4806 55.99 40.554 56.4966 40.6519C57.0032 40.7488 57.5037 40.8701 57.9981 41.016C58.4926 41.1608 58.9789 41.3292 59.4562 41.521C59.9345 41.7129 60.4006 41.9263 60.8566 42.1622C61.3116 42.3981 61.7545 42.6555 62.1843 42.9335C62.614 43.2114 63.0286 43.509 63.428 43.8271C63.8274 44.1442 64.2106 44.48 64.5756 44.8343C64.9406 45.1877 65.2874 45.5586 65.6161 45.9452C65.9437 46.3319 66.2511 46.7342 66.5382 47.1502C66.8254 47.5662 67.0903 47.9949 67.334 48.4363C67.5777 48.8778 67.7981 49.33 67.9963 49.792C68.1945 50.2549 68.3674 50.7257 68.518 51.2044C68.6677 51.683 68.7931 52.1685 68.8942 52.6589C68.9953 53.1502 69.0711 53.6445 69.1217 54.1428C69.1723 54.641 69.1975 55.1402 69.1975 55.6403Z" fill="#FECD1A"/>
<path d="M53.4176 71.1877C53.1112 71.1877 52.8048 71.1799 52.4995 71.1623C52.1931 71.1456 51.8877 71.1202 51.5834 71.0859C51.279 71.0517 50.9757 71.0096 50.6734 70.9587C50.372 70.9078 50.0717 70.849 49.7734 70.7815C49.4741 70.714 49.1779 70.6386 48.8846 70.5544C48.5904 70.4712 48.2992 70.3792 48.01 70.2794C47.7218 70.1795 47.4367 70.0709 47.1536 69.9554C46.8715 69.8399 46.5934 69.7156 46.3184 69.5844C46.0433 69.4533 45.7723 69.3143 45.5064 69.1684C45.2395 69.0216 44.9776 68.8679 44.7198 68.7074C44.4619 68.5469 44.2091 68.3785 43.9614 68.2033C43.7137 68.0291 43.472 67.847 43.2344 67.6591C42.9978 67.4702 42.7662 67.2754 42.5407 67.0748C42.3153 66.8731 42.0968 66.6666 41.8835 66.4532C41.6701 66.2398 41.4639 66.0206 41.2637 65.7955C41.0635 65.5713 40.8693 65.3413 40.6833 65.1054C40.4962 64.8695 40.3172 64.6297 40.1443 64.384C39.9724 64.1383 39.8076 63.8887 39.6499 63.6333C39.4921 63.3788 39.3425 63.1204 39.1999 62.8571C39.0574 62.5948 38.9229 62.3275 38.7965 62.0574C38.6701 61.7872 38.5518 61.5132 38.4416 61.2362C38.3314 60.9592 38.2292 60.6792 38.1352 60.3964C38.0412 60.1145 37.9562 59.8286 37.8794 59.5419C37.8025 59.2541 37.7338 58.9653 37.6741 58.6737C37.6145 58.3829 37.5639 58.0903 37.5204 57.7957C37.478 57.502 37.4446 57.2074 37.4193 56.9118C37.395 56.6152 37.3779 56.3186 37.3708 56.0221C37.3637 55.7255 37.3647 55.4289 37.3748 55.1323C37.3849 54.8358 37.4031 54.5392 37.4304 54.2436C37.4587 53.948 37.4951 53.6534 37.5396 53.3597C37.5841 53.0661 37.6387 52.7734 37.7004 52.4827C37.7631 52.192 37.8339 51.9032 37.9127 51.6165C37.9926 51.3306 38.0796 51.0458 38.1756 50.7639C38.2727 50.482 38.3769 50.2031 38.4891 49.927C38.6023 49.651 38.7227 49.3779 38.8511 49.1087C38.9805 48.8396 39.117 48.5733 39.2616 48.312C39.4062 48.0497 39.5579 47.7923 39.7176 47.5387C39.8774 47.2862 40.0442 47.0366 40.2192 46.7929C40.3931 46.5492 40.5751 46.3094 40.7632 46.0754C40.9522 45.8415 41.1474 45.6134 41.3496 45.3903C41.5518 45.1671 41.7601 44.9488 41.9745 44.7374C42.1899 44.526 42.4113 44.3204 42.6378 44.1207C42.8653 43.922 43.0979 43.7292 43.3365 43.5423C43.5751 43.3563 43.8188 43.1762 44.0676 43.0029C44.3173 42.8307 44.5711 42.6643 44.83 42.5057C45.0888 42.3471 45.3527 42.1954 45.6207 42.0515C45.8886 41.9067 46.1606 41.7706 46.4367 41.6414C46.7127 41.5122 46.9918 41.3909 47.2749 41.2773C47.558 41.1638 47.8442 41.0581 48.1344 40.9602C48.4236 40.8623 48.7158 40.7732 49.01 40.691C49.3053 40.6098 49.6015 40.5364 49.9008 40.4718C50.2001 40.4062 50.5004 40.3494 50.8028 40.3014C51.1051 40.2525 51.4095 40.2133 51.7138 40.181C52.0192 40.1497 52.3245 40.1272 52.6299 40.1125C52.9363 40.0978 53.2427 40.092 53.549 40.0939C53.8554 40.0969 54.1618 40.1076 54.4682 40.1272C54.7735 40.1468 55.0789 40.1742 55.3833 40.2104C55.6866 40.2466 55.9899 40.2917 56.2913 40.3445C56.5926 40.3983 56.8929 40.459 57.1912 40.5295C57.4884 40.599 57.7847 40.6773 58.0779 40.7634C58.3712 40.8496 58.6614 40.9435 58.9495 41.0453C59.2367 41.1481 59.5219 41.2587 59.803 41.3762C60.084 41.4946 60.3611 41.6199 60.6351 41.754C60.9091 41.8871 61.1781 42.0281 61.444 42.1768C61.709 42.3246 61.9698 42.4803 62.2267 42.6437C62.4825 42.8062 62.7343 42.9765 62.98 43.1537C63.2267 43.3299 63.4673 43.5139 63.7019 43.7038C63.9375 43.8937 64.167 44.0904 64.3905 44.293C64.615 44.4966 64.8324 44.7051 65.0437 44.9204C65.255 45.1358 65.4593 45.356 65.6585 45.5821C65.8567 45.8092 66.0478 46.0402 66.2328 46.2771C66.4168 46.5149 66.5948 46.7567 66.7647 47.0033C66.9345 47.25 67.0983 47.5015 67.253 47.757C67.4088 48.0135 67.5564 48.2728 67.6969 48.5371C67.8365 48.8014 67.9689 49.0686 68.0933 49.3407C68.2167 49.6119 68.3329 49.8869 68.4411 50.1639C68.5493 50.4419 68.6484 50.7228 68.7404 51.0057C68.8314 51.2895 68.9143 51.5753 68.9892 51.8631C69.063 52.1509 69.1297 52.4406 69.1863 52.7323C69.244 53.024 69.2925 53.3166 69.333 53.6113C69.3724 53.9059 69.4037 54.2005 69.427 54.4971C69.4492 54.7927 69.4624 55.0893 69.4674 55.3868C69.4725 55.6834 69.4695 55.98 69.4563 56.2766C69.4442 56.5731 69.423 56.8687 69.3926 57.1643C69.3623 57.4599 69.3239 57.7546 69.2763 58.0482C69.2288 58.3409 69.1732 58.6325 69.1085 58.9233C69.0438 59.213 68.97 59.5017 68.8881 59.7875C68.8072 60.0734 68.7162 60.3572 68.6181 60.6381C68.52 60.919 68.4128 61.197 68.2976 61.473C68.1833 61.7481 68.0599 62.0192 67.9285 62.2884C67.798 62.5566 67.6585 62.8209 67.5119 63.0812C67.3653 63.3426 67.2116 63.599 67.0498 63.8506C66.888 64.1031 66.7181 64.3498 66.5422 64.5925C66.3653 64.8352 66.1822 65.0731 65.9911 65.3061C65.801 65.538 65.6039 65.7651 65.3996 65.9873C65.1954 66.2085 64.9851 66.4239 64.7687 66.6343C64.0245 67.3586 63.2156 68.0046 62.3389 68.5733C61.4632 69.142 60.5381 69.6216 59.5643 70.0122C58.5896 70.4027 57.5855 70.6973 56.5511 70.895C55.5167 71.0928 54.4722 71.1906 53.4176 71.1877ZM53.4176 40.6215C44.8674 40.6215 37.9117 47.3596 37.9117 55.6403C37.9117 63.922 44.8674 70.6592 53.4176 70.6592C61.9688 70.6592 68.9245 63.922 68.9245 55.6403C68.9245 47.3596 61.9688 40.6215 53.4176 40.6215Z" fill="black"/>
<path d="M53.4176 71.1877C53.1112 71.1877 52.8048 71.1799 52.4995 71.1623C52.1931 71.1456 51.8877 71.1202 51.5834 71.0859C51.279 71.0517 50.9757 71.0096 50.6734 70.9587C50.372 70.9078 50.0717 70.849 49.7734 70.7815C49.4741 70.714 49.1779 70.6386 48.8846 70.5544C48.5904 70.4712 48.2992 70.3792 48.01 70.2794C47.7218 70.1795 47.4367 70.0709 47.1536 69.9554C46.8715 69.8399 46.5934 69.7156 46.3184 69.5844C46.0433 69.4533 45.7723 69.3143 45.5064 69.1684C45.2395 69.0216 44.9776 68.8679 44.7198 68.7074C44.4619 68.5469 44.2091 68.3785 43.9614 68.2033C43.7137 68.0291 43.472 67.847 43.2344 67.6591C42.9978 67.4702 42.7662 67.2754 42.5407 67.0748C42.3153 66.8731 42.0968 66.6666 41.8835 66.4532C41.6701 66.2398 41.4639 66.0206 41.2637 65.7955C41.0635 65.5713 40.8693 65.3413 40.6833 65.1054C40.4962 64.8695 40.3172 64.6297 40.1443 64.384C39.9724 64.1383 39.8076 63.8887 39.6499 63.6333C39.4921 63.3788 39.3425 63.1204 39.1999 62.8571C39.0574 62.5948 38.9229 62.3275 38.7965 62.0574C38.6701 61.7872 38.5518 61.5132 38.4416 61.2362C38.3314 60.9592 38.2292 60.6792 38.1352 60.3964C38.0412 60.1145 37.9562 59.8286 37.8794 59.5419C37.8025 59.2541 37.7338 58.9653 37.6741 58.6737C37.6145 58.3829 37.5639 58.0903 37.5204 57.7957C37.478 57.502 37.4446 57.2074 37.4193 56.9118C37.395 56.6152 37.3779 56.3186 37.3708 56.0221C37.3637 55.7255 37.3647 55.4289 37.3748 55.1323C37.3849 54.8358 37.4031 54.5392 37.4304 54.2436C37.4587 53.948 37.4951 53.6534 37.5396 53.3597C37.5841 53.0661 37.6387 52.7734 37.7004 52.4827C37.7631 52.192 37.8339 51.9032 37.9127 51.6165C37.9926 51.3306 38.0796 51.0458 38.1756 50.7639C38.2727 50.482 38.3769 50.2031 38.4891 49.927C38.6023 49.651 38.7227 49.3779 38.8511 49.1087C38.9805 48.8396 39.117 48.5733 39.2616 48.312C39.4062 48.0497 39.5579 47.7923 39.7176 47.5387C39.8774 47.2862 40.0442 47.0366 40.2192 46.7929C40.3931 46.5492 40.5751 46.3094 40.7632 46.0754C40.9522 45.8415 41.1474 45.6134 41.3496 45.3903C41.5518 45.1671 41.7601 44.9488 41.9745 44.7374C42.1899 44.526 42.4113 44.3204 42.6378 44.1207C42.8653 43.922 43.0979 43.7292 43.3365 43.5423C43.5751 43.3563 43.8188 43.1762 44.0676 43.0029C44.3173 42.8307 44.5711 42.6643 44.83 42.5057C45.0888 42.3471 45.3527 42.1954 45.6207 42.0515C45.8886 41.9067 46.1606 41.7706 46.4367 41.6414C46.7127 41.5122 46.9918 41.3909 47.2749 41.2773C47.558 41.1638 47.8442 41.0581 48.1344 40.9602C48.4236 40.8623 48.7158 40.7732 49.01 40.691C49.3053 40.6098 49.6015 40.5364 49.9008 40.4718C50.2001 40.4062 50.5004 40.3494 50.8028 40.3014C51.1051 40.2525 51.4095 40.2133 51.7138 40.181C52.0192 40.1497 52.3245 40.1272 52.6299 40.1125C52.9363 40.0978 53.2427 40.092 53.549 40.0939C53.8554 40.0969 54.1618 40.1076 54.4682 40.1272C54.7735 40.1468 55.0789 40.1742 55.3833 40.2104C55.6866 40.2466 55.9899 40.2917 56.2913 40.3445C56.5926 40.3983 56.8929 40.459 57.1912 40.5295C57.4884 40.599 57.7847 40.6773 58.0779 40.7634C58.3712 40.8496 58.6614 40.9435 58.9495 41.0453C59.2367 41.1481 59.5219 41.2587 59.803 41.3762C60.084 41.4946 60.3611 41.6199 60.6351 41.754C60.9091 41.8871 61.1781 42.0281 61.444 42.1768C61.709 42.3246 61.9698 42.4803 62.2267 42.6437C62.4825 42.8062 62.7343 42.9765 62.98 43.1537C63.2267 43.3299 63.4673 43.5139 63.7019 43.7038C63.9375 43.8937 64.167 44.0904 64.3905 44.293C64.615 44.4966 64.8324 44.7051 65.0437 44.9204C65.255 45.1358 65.4593 45.356 65.6585 45.5821C65.8567 45.8092 66.0478 46.0402 66.2328 46.2771C66.4168 46.5149 66.5948 46.7567 66.7647 47.0033C66.9345 47.25 67.0983 47.5015 67.253 47.757C67.4088 48.0135 67.5564 48.2728 67.6969 48.5371C67.8365 48.8014 67.9689 49.0686 68.0933 49.3407C68.2167 49.6119 68.3329 49.8869 68.4411 50.1639C68.5493 50.4419 68.6484 50.7228 68.7404 51.0057C68.8314 51.2895 68.9143 51.5753 68.9892 51.8631C69.063 52.1509 69.1297 52.4406 69.1863 52.7323C69.244 53.024 69.2925 53.3166 69.333 53.6113C69.3724 53.9059 69.4037 54.2005 69.427 54.4971C69.4492 54.7927 69.4624 55.0893 69.4674 55.3868C69.4725 55.6834 69.4695 55.98 69.4563 56.2766C69.4442 56.5731 69.423 56.8687 69.3926 57.1643C69.3623 57.4599 69.3239 57.7546 69.2763 58.0482C69.2288 58.3409 69.1732 58.6325 69.1085 58.9233C69.0438 59.213 68.97 59.5017 68.8881 59.7875C68.8072 60.0734 68.7162 60.3572 68.6181 60.6381C68.52 60.919 68.4128 61.197 68.2976 61.473C68.1833 61.7481 68.0599 62.0192 67.9285 62.2884C67.798 62.5566 67.6585 62.8209 67.5119 63.0812C67.3653 63.3426 67.2116 63.599 67.0498 63.8506C66.888 64.1031 66.7181 64.3498 66.5422 64.5925C66.3653 64.8352 66.1822 65.0731 65.9911 65.3061C65.801 65.538 65.6039 65.7651 65.3996 65.9873C65.1954 66.2085 64.9851 66.4239 64.7687 66.6343C64.0245 67.3586 63.2156 68.0046 62.3389 68.5733C61.4632 69.142 60.5381 69.6216 59.5643 70.0122C58.5896 70.4027 57.5855 70.6973 56.5511 70.895C55.5167 71.0928 54.4722 71.1906 53.4176 71.1877ZM53.4176 40.6215C44.8674 40.6215 37.9117 47.3596 37.9117 55.6403C37.9117 63.922 44.8674 70.6592 53.4176 70.6592C61.9688 70.6592 68.9245 63.922 68.9245 55.6403C68.9245 47.3596 61.9688 40.6215 53.4176 40.6215Z" fill="black"/>
<path d="M63.7596 55.101C63.7596 55.1685 63.7515 55.2341 63.7333 55.2997C63.7161 55.3662 63.6908 55.4298 63.6564 55.4915C63.6221 55.5532 63.5806 55.6119 63.5311 55.6677C63.4815 55.7235 63.4249 55.7744 63.3622 55.8224C63.2985 55.8693 63.2297 55.9114 63.1559 55.9486C63.0811 55.9858 63.0032 56.0171 62.9203 56.0426C62.8384 56.068 62.7535 56.0876 62.6655 56.1013C62.5786 56.114 62.4896 56.1209 62.4006 56.1209C62.3116 56.1209 62.2226 56.114 62.1357 56.1013C62.0477 56.0876 61.9628 56.068 61.8799 56.0426C61.798 56.0171 61.7191 55.9858 61.6453 55.9486C61.5715 55.9114 61.5027 55.8693 61.439 55.8224C61.3763 55.7744 61.3197 55.7235 61.2701 55.6677C61.2206 55.6119 61.1791 55.5532 61.1448 55.4915C61.1104 55.4298 61.0851 55.3662 61.0669 55.2997C61.0497 55.2341 61.0416 55.1685 61.0416 55.101C61.0416 55.0344 61.0497 54.9679 61.0669 54.9023C61.0851 54.8367 61.1104 54.7731 61.1448 54.7114C61.1791 54.6497 61.2206 54.591 61.2701 54.5352C61.3197 54.4794 61.3763 54.4276 61.439 54.3806C61.5027 54.3336 61.5715 54.2915 61.6453 54.2543C61.7191 54.2171 61.798 54.1858 61.8799 54.1594C61.9628 54.1339 62.0477 54.1143 62.1357 54.1016C62.2226 54.0889 62.3116 54.082 62.4006 54.082C62.4896 54.082 62.5786 54.0889 62.6655 54.1016C62.7535 54.1143 62.8384 54.1339 62.9203 54.1594C63.0032 54.1858 63.0811 54.2171 63.1559 54.2543C63.2297 54.2915 63.2985 54.3336 63.3622 54.3806C63.4249 54.4276 63.4815 54.4794 63.5311 54.5352C63.5806 54.591 63.6221 54.6497 63.6564 54.7114C63.6908 54.7731 63.7161 54.8367 63.7333 54.9023C63.7515 54.9679 63.7596 55.0344 63.7596 55.101Z" fill="#F76161"/>
<path d="M45.836 55.101C45.836 55.1685 45.8279 55.2341 45.8097 55.2997C45.7925 55.3662 45.7673 55.4298 45.7329 55.4915C45.6985 55.5532 45.6571 55.6119 45.6075 55.6677C45.558 55.7235 45.5013 55.7744 45.4376 55.8224C45.3749 55.8693 45.3062 55.9114 45.2324 55.9486C45.1575 55.9858 45.0797 56.0171 44.9968 56.0426C44.9149 56.068 44.8299 56.0876 44.742 56.1013C44.655 56.114 44.566 56.1209 44.4771 56.1209C44.3881 56.1209 44.2991 56.114 44.2121 56.1013C44.1242 56.0876 44.0392 56.068 43.9563 56.0426C43.8744 56.0171 43.7955 55.9858 43.7217 55.9486C43.6479 55.9114 43.5792 55.8693 43.5155 55.8224C43.4528 55.7744 43.3961 55.7235 43.3466 55.6677C43.297 55.6119 43.2556 55.5532 43.2212 55.4915C43.1868 55.4298 43.1616 55.3662 43.1434 55.2997C43.1262 55.2341 43.1171 55.1685 43.1171 55.101C43.1171 55.0344 43.1262 54.9679 43.1434 54.9023C43.1616 54.8367 43.1868 54.7731 43.2212 54.7114C43.2556 54.6497 43.297 54.591 43.3466 54.5352C43.3961 54.4794 43.4528 54.4276 43.5155 54.3806C43.5792 54.3336 43.6479 54.2915 43.7217 54.2543C43.7955 54.2171 43.8744 54.1858 43.9563 54.1594C44.0392 54.1339 44.1242 54.1143 44.2121 54.1016C44.2991 54.0889 44.3881 54.082 44.4771 54.082C44.566 54.082 44.655 54.0889 44.742 54.1016C44.8299 54.1143 44.9149 54.1339 44.9968 54.1594C45.0797 54.1858 45.1575 54.2171 45.2324 54.2543C45.3062 54.2915 45.3749 54.3336 45.4376 54.3806C45.5013 54.4276 45.558 54.4794 45.6075 54.5352C45.6571 54.591 45.6985 54.6497 45.7329 54.7114C45.7673 54.7731 45.7925 54.8367 45.8097 54.9023C45.8279 54.9679 45.836 55.0344 45.836 55.101Z" fill="#F76161"/>
<path d="M53.4177 66.2799C48.6683 66.2799 44.8027 62.536 44.8027 57.9356C44.8027 57.9004 44.8098 57.8671 44.824 57.8348C44.8381 57.8025 44.8573 57.7741 44.8826 57.7487C44.9089 57.7242 44.9382 57.7056 44.9716 57.6919C45.005 57.6782 45.0393 57.6713 45.0757 57.6713C45.1121 57.6713 45.1465 57.6782 45.1799 57.6919C45.2133 57.7056 45.2436 57.7242 45.2689 57.7487C45.2941 57.7741 45.3144 57.8025 45.3275 57.8348C45.3417 57.8671 45.3488 57.9004 45.3488 57.9356C45.3488 62.2453 48.9686 65.7514 53.4177 65.7514C57.8677 65.7514 61.4876 62.2453 61.4876 57.9356C61.4876 57.9004 61.4947 57.8671 61.5078 57.8348C61.522 57.8025 61.5422 57.7741 61.5675 57.7487C61.5927 57.7242 61.6221 57.7056 61.6554 57.6919C61.6888 57.6782 61.7242 57.6713 61.7606 57.6713C61.796 57.6713 61.8314 57.6782 61.8647 57.6919C61.8981 57.7056 61.9274 57.7242 61.9527 57.7487C61.979 57.7741 61.9982 57.8025 62.0124 57.8348C62.0255 57.8671 62.0326 57.9004 62.0326 57.9356C62.0326 62.536 58.168 66.2799 53.4177 66.2799Z" fill="black"/>
<path d="M47.8735 47.388C46.9372 47.388 46.1556 48.5851 45.9696 50.1796L47.2112 50.5407L45.9352 51.2132C46.0201 53.0152 46.8553 54.4315 47.8735 54.4315C48.9484 54.4315 49.82 52.8546 49.82 50.9098C49.82 48.9649 48.9484 47.388 47.8735 47.388Z" fill="black"/>
<path d="M58.9546 47.388C58.0183 47.388 57.2367 48.5851 57.0507 50.1796L58.2923 50.5407L57.0183 51.2132C57.1032 53.0152 57.9384 54.4315 58.9567 54.4315C60.0325 54.4315 60.9031 52.8546 60.9031 50.9098C60.9031 48.9649 60.0295 47.388 58.9546 47.388Z" fill="black"/>
<path d="M46.3163 58.1334H44.1252C44.0888 58.1334 44.0544 58.1265 44.021 58.1138C43.9877 58.1001 43.9573 58.0805 43.9321 58.056C43.9068 58.0316 43.8866 58.0032 43.8734 57.9699C43.8593 57.9376 43.8522 57.9043 43.8522 57.8691C43.8522 57.8338 43.8593 57.8006 43.8734 57.7683C43.8866 57.736 43.9068 57.7076 43.9321 57.6821C43.9573 57.6577 43.9877 57.6391 44.021 57.6254C44.0544 57.6116 44.0888 57.6048 44.1252 57.6048H46.3163C46.3527 57.6048 46.3881 57.6116 46.4215 57.6254C46.4549 57.6391 46.4842 57.6577 46.5095 57.6821C46.5357 57.7076 46.555 57.736 46.5691 57.7683C46.5823 57.8006 46.5893 57.8338 46.5893 57.8691C46.5893 57.9043 46.5823 57.9376 46.5691 57.9699C46.555 58.0032 46.5357 58.0316 46.5095 58.056C46.4842 58.0805 46.4549 58.1001 46.4215 58.1138C46.3881 58.1265 46.3527 58.1334 46.3163 58.1334Z" fill="black"/>
<path d="M62.711 58.1334H60.5188C60.4834 58.1334 60.448 58.1265 60.4147 58.1138C60.3813 58.1001 60.352 58.0805 60.3267 58.056C60.3004 58.0316 60.2812 58.0032 60.267 57.9699C60.2529 57.9376 60.2468 57.9043 60.2468 57.8691C60.2468 57.8338 60.2529 57.8006 60.267 57.7683C60.2812 57.736 60.3004 57.7076 60.3267 57.6821C60.352 57.6577 60.3813 57.6391 60.4147 57.6254C60.448 57.6116 60.4834 57.6048 60.5188 57.6048H62.711C62.7474 57.6048 62.7818 57.6116 62.8151 57.6254C62.8485 57.6391 62.8778 57.6577 62.9041 57.6821C62.9294 57.7076 62.9486 57.736 62.9628 57.7683C62.9769 57.8006 62.984 57.8338 62.984 57.8691C62.984 57.9043 62.9769 57.9376 62.9628 57.9699C62.9486 58.0032 62.9294 58.0316 62.9041 58.056C62.8778 58.0805 62.8485 58.1001 62.8151 58.1138C62.7818 58.1265 62.7474 58.1334 62.711 58.1334Z" fill="black"/>
</svg>
