<svg width="75" height="77" viewBox="0 0 75 77" fill="none" xmlns="http://www.w3.org/2000/svg">
<path d="M37.7955 4.3382C30.9696 4.3382 26.9889 4.71158 33.978 27.9443L35.8374 33.4759L37.7955 33.1772L39.7544 33.4759L41.613 27.9443C48.6028 4.71365 44.6221 4.3382 37.7955 4.3382Z" fill="#DC4D30"/>
<mask id="mask0_370_101" style="mask-type:luminance" maskUnits="userSpaceOnUse" x="29" y="4" width="17" height="30">
<path d="M29.9908 4.12451H45.5586V33.7649H29.9908V4.12451Z" fill="white"/>
</mask>
<g mask="url(#mask0_370_101)">
<path d="M39.8874 33.6854L37.7954 33.3667L35.7042 33.6854L33.7926 27.9975C31.7794 21.3064 30.6211 16.3238 30.2527 12.7663C29.9078 9.439 30.2262 7.2713 31.2564 5.94578C31.8788 5.1437 32.7509 4.6507 34.0001 4.39486C35.0947 4.17083 36.3674 4.15216 37.7969 4.15216C39.2263 4.15216 40.4983 4.17083 41.5937 4.39486C42.8428 4.6507 43.7163 5.1437 44.338 5.94578C45.3661 7.2713 45.6852 9.439 45.3411 12.7663C44.9726 16.3238 43.8144 21.3064 41.8011 27.9975V28.0031L39.8874 33.6854ZM37.7954 32.9891L39.6219 33.2671L41.4284 27.8897C43.4359 21.222 44.5884 16.2622 44.9547 12.7282C45.2846 9.54341 44.9819 7.39852 44.0283 6.16912C42.8414 4.63894 40.7902 4.52485 37.7961 4.52485C34.8028 4.52485 32.7516 4.63963 31.5648 6.16912C30.6104 7.39852 30.307 9.54341 30.6383 12.7282C31.0046 16.2622 32.1578 21.222 34.1639 27.8897L35.9697 33.2671L37.7954 32.9891Z" fill="black"/>
</g>
<path d="M59.0501 11.0155C53.5285 7.13439 50.0786 5.1755 41.613 27.9429L39.7543 33.4759L41.5207 34.3485L42.9236 35.7031L47.7921 32.2839C67.5666 17.4633 64.5726 14.8973 59.0501 11.0155Z" fill="#DC4D30"/>
<path d="M42.9044 35.9472L41.4055 34.5L39.5204 33.5693L41.432 27.8807C43.8702 21.3223 45.9614 16.6335 47.8258 13.5455C49.5693 10.658 51.1447 9.08566 52.7823 8.59818C53.7739 8.30293 54.7784 8.39974 55.9467 8.90311C56.9683 9.34357 58.0093 10.0523 59.1661 10.8648C60.3222 11.6772 61.341 12.4157 62.0901 13.2185C62.9457 14.136 63.3514 15.0301 63.3671 16.0334C63.3943 17.6908 62.334 19.6248 60.0325 22.1209C57.5721 24.7899 53.6065 28.1621 47.9102 32.4304L47.9052 32.4339L42.9044 35.9472ZM39.989 33.3819L41.6352 34.1943L42.9437 35.4576L47.6741 32.1359C53.3504 27.8814 57.2981 24.5258 59.7427 21.872C61.9456 19.4837 63.0044 17.576 62.9793 16.0389C62.9493 14.127 61.3582 12.8665 58.9372 11.1669C56.5154 9.46665 54.7862 8.39213 52.8954 8.95497C51.3765 9.40718 49.8276 10.9699 48.1592 13.7336C46.3062 16.8016 44.2258 21.4689 41.7962 28.0038L39.989 33.3819Z" fill="black"/>
<path d="M72.1862 28.5002C70.0771 22.2226 68.4795 18.6761 47.7921 32.2839L42.9258 35.7031L43.8244 37.4124L44.1363 39.3056H50.1516C75.1566 38.5567 74.296 34.7779 72.1862 28.5002Z" fill="#DC4D30"/>
<path d="M50.1524 39.4923H43.9711L43.6377 37.4705L42.6783 35.6457L47.6828 32.1297C53.6416 28.2105 58.1839 25.6058 61.5686 24.1669C64.7336 22.8234 66.9643 22.4445 68.5862 22.9818C69.5678 23.3061 70.3233 23.956 70.9593 25.0257C71.5188 25.9633 71.9294 27.1277 72.3716 28.4422C72.813 29.7573 73.1886 30.9335 73.3059 32.0087C73.4404 33.2374 73.2251 34.1916 72.6284 35.0123C71.6425 36.3683 69.61 37.3308 66.231 38.0416C62.6181 38.8022 57.3597 39.2765 50.1567 39.4923H50.1524ZM44.2995 39.1196H50.1467C57.3254 38.9038 62.558 38.4323 66.1473 37.6772C69.3811 36.9968 71.3964 36.0551 72.3115 34.798C73.449 33.2326 72.9289 31.311 72.0024 28.5577C71.0759 25.8043 70.3319 23.954 68.4603 23.3344C66.955 22.8373 64.753 23.2224 61.7231 24.5085C58.3599 25.9377 53.8391 28.5307 47.901 32.4388L43.1706 35.7605L44.0083 37.3536L44.2995 39.1196Z" fill="black"/>
<path d="M72.1862 50.1115C74.296 43.8339 75.1581 40.0551 50.1481 39.3055H44.1342L43.8223 41.1994L42.9237 42.9087L47.7922 46.3279C68.4796 59.9357 70.0772 56.3892 72.1862 50.1115Z" fill="#DC4D30"/>
<path d="M67.0058 55.8651C65.5857 55.8651 63.8121 55.3983 61.5678 54.4448C58.1824 53.0059 53.6409 50.4012 47.682 46.4821L47.677 46.4786L42.6776 42.966L43.637 41.1406L43.9711 39.1195H50.1567C57.3597 39.3352 62.6181 39.8096 66.231 40.5702C69.61 41.281 71.6425 42.2435 72.6284 43.5994C73.2251 44.4202 73.439 45.3744 73.3059 46.6024C73.1907 47.6783 72.813 48.8544 72.3715 50.1689C71.9294 51.484 71.5188 52.6484 70.9593 53.5854C70.3218 54.6557 69.5678 55.3057 68.5862 55.63C68.1126 55.7862 67.5889 55.8651 67.0058 55.8651ZM47.901 46.1751C53.839 50.0811 58.3606 52.674 61.7224 54.1033C64.7522 55.3907 66.9557 55.7745 68.4596 55.2773C70.3311 54.6578 71.0773 52.8068 72.0031 50.052C72.9289 47.2994 73.449 45.3771 72.3115 43.8124C71.3978 42.5553 69.3818 41.6136 66.1473 40.9332C62.558 40.1781 57.3246 39.7065 50.1467 39.4908H44.2995L44.0083 41.2561L43.1705 42.8499L47.901 46.1751Z" fill="black"/>
<path d="M59.0501 67.5962C64.5726 63.7144 67.5666 61.1492 47.79 46.3286L42.9236 42.9094L41.5207 44.2646L39.7543 45.1365L41.613 50.6688C50.0786 73.4349 53.5285 71.4753 59.0501 67.5962Z" fill="#DC4D30"/>
<path d="M53.9077 70.1789C53.5235 70.1789 53.1487 70.1235 52.7824 70.0129C51.144 69.5254 49.5694 67.9531 47.8259 65.0656C45.9614 61.9776 43.8702 57.2888 41.432 50.7304V50.7249L39.5219 45.0418L41.4077 44.1105L42.9066 42.6639L47.9081 46.18C53.6037 50.449 57.5693 53.8212 60.0304 56.4902C62.3312 58.9856 63.3915 60.9203 63.365 62.5777C63.3485 63.5803 62.9429 64.4751 62.0872 65.3919C61.3382 66.1954 60.3194 66.9339 59.1633 67.7463C58.0071 68.5588 56.9662 69.2668 55.9446 69.708C55.2148 70.0219 54.5466 70.1789 53.9077 70.1789ZM41.7962 50.6073C44.2272 57.1415 46.307 61.8095 48.1592 64.8768C49.8276 67.6385 51.3765 69.2039 52.8954 69.6561C53.2288 69.7557 53.57 69.8055 53.9185 69.8055C55.4395 69.8055 56.9562 68.8354 58.9358 67.4428C61.3575 65.7411 62.95 64.4827 62.9787 62.5701C63.003 61.0337 61.9442 59.1253 59.7421 56.737C57.2974 54.0874 53.3497 50.7283 47.6735 46.4752L42.9423 43.1521L41.6338 44.4147L39.9876 45.2278L41.7962 50.6073Z" fill="black"/>
<path d="M37.7955 74.2736C44.6221 74.2736 48.6028 73.8982 41.613 50.6675L39.7544 45.1359L37.7955 45.4339L35.8374 45.1359L33.978 50.6675C26.9889 73.8982 30.9696 74.2736 37.7955 74.2736Z" fill="#DC4D30"/>
<path d="M37.7954 74.4603C36.3674 74.4603 35.094 74.4416 33.9994 74.2176C32.7495 73.9617 31.876 73.4687 31.255 72.6667C30.2262 71.3411 29.9078 69.1734 30.2512 65.8462C30.6197 62.2887 31.7779 57.3061 33.7919 50.6149V50.6094L35.7014 44.9263L37.7933 45.2451L39.8845 44.9263L41.7983 50.6142C43.8122 57.3054 44.9705 62.288 45.3389 65.8455C45.6838 69.1728 45.3654 71.3405 44.3352 72.6653C43.7128 73.4681 42.8406 73.9611 41.5915 74.2169C40.4976 74.4416 39.2234 74.4603 37.7954 74.4603ZM34.1625 50.7228C32.1557 57.3904 31.0031 62.3502 30.6368 65.8842C30.3063 69.069 30.6097 71.2139 31.5626 72.4433C32.7502 73.9735 34.8014 74.0876 37.7947 74.0876C40.7888 74.0876 42.8399 73.9728 44.0268 72.4433C44.9812 71.2139 45.2838 69.0683 44.9533 65.8842C44.587 62.3502 43.4337 57.3904 41.427 50.7228L39.6198 45.3453L37.794 45.6233L35.9682 45.3453L34.1625 50.7228Z" fill="black"/>
<path d="M16.5408 67.5962C22.0632 71.4774 25.513 73.4362 33.978 50.6688L35.8374 45.1365L34.071 44.2646L32.6673 42.9094L27.8017 46.3286C8.02503 61.1485 11.0191 63.7144 16.5408 67.5962Z" fill="#DC4D30"/>
<path d="M21.6839 70.1788C21.0436 70.1788 20.3768 70.0233 19.6464 69.708C18.6248 69.2668 17.5845 68.5588 16.4277 67.7463C15.2708 66.9339 14.252 66.1954 13.5037 65.394C12.6481 64.4764 12.2424 63.5824 12.2259 62.5791C12.1995 60.9224 13.259 58.9877 15.5606 56.4923C18.0216 53.8233 21.9866 50.4504 27.6828 46.182L27.6878 46.1786L32.6873 42.6646L34.1861 44.1111L36.0712 45.0425L34.1596 50.7311C31.7214 57.2895 29.6302 61.9782 27.7658 65.0662C26.0223 67.9537 24.4469 69.5261 22.8093 70.0136C22.443 70.1235 22.0674 70.1788 21.6839 70.1788ZM27.9168 46.4773C22.2405 50.7318 18.2935 54.0874 15.8489 56.7384C13.6461 59.1274 12.5872 61.0351 12.6123 62.5715C12.6423 64.484 14.2327 65.7439 16.6545 67.4441C18.6348 68.8353 20.1522 69.8068 21.6718 69.8068C22.0209 69.8075 22.3614 69.7577 22.6948 69.6575C24.2137 69.2053 25.7626 67.6426 27.431 64.8782C29.284 61.8109 31.3644 57.1436 33.7947 50.6087L35.6012 45.2306L33.955 44.4174L32.6465 43.1549L27.9168 46.4773Z" fill="black"/>
<path d="M3.40685 50.1115C5.51594 56.3892 7.11565 59.9357 27.803 46.3279L32.6694 42.9087L31.7708 41.1994L31.4574 39.3055H25.4414C0.434954 40.0551 1.29562 43.8339 3.40685 50.1115Z" fill="#DC4D30"/>
<path d="M8.58589 55.8651C8.00281 55.8651 7.47911 55.7862 7.00621 55.63C6.02464 55.3057 5.26987 54.6557 4.63313 53.5854C4.07438 52.6484 3.66301 51.484 3.22159 50.1689C2.77945 48.8544 2.40314 47.6783 2.28795 46.6024C2.15345 45.3744 2.3688 44.4202 2.96546 43.5994C3.95133 42.2435 5.98387 41.281 9.36284 40.5702C12.9758 39.8096 18.2342 39.3352 25.4371 39.1195H31.6206L31.9533 41.1406L32.9127 42.966L27.9089 46.4821C21.9501 50.4012 17.4079 53.0059 14.0224 54.4448C11.7796 55.3983 10.0067 55.8651 8.58589 55.8651ZM3.5886 50.0548C4.51437 52.8082 5.25985 54.6592 7.13142 55.2794C8.63668 55.7773 10.8388 55.3914 13.8686 54.1053C17.2319 52.6768 21.752 50.0832 27.69 46.1778L32.4212 42.8561L31.582 41.2575L31.2922 39.4922H25.445C18.2664 39.7079 13.0337 40.1795 9.4444 40.9346C6.21066 41.615 4.19529 42.5567 3.28025 43.8138C2.142 45.3785 2.66284 47.3008 3.5886 50.0548Z" fill="black"/>
<path d="M3.40685 28.5002C1.29562 34.7779 0.434954 38.5567 25.4414 39.3056H31.4575L31.7687 37.4124L32.6672 35.7031L27.8016 32.2839C7.11207 18.6761 5.51451 22.2226 3.40685 28.5002Z" fill="#DC4D30"/>
<path d="M31.6206 39.4922H25.4357C18.2328 39.2765 12.9751 38.8021 9.36217 38.0415C5.98319 37.3328 3.94994 36.3682 2.96407 35.0123C2.3674 34.1908 2.15349 33.2373 2.28656 32.0086C2.40246 30.9334 2.77949 29.7573 3.22163 28.4421C3.66305 27.1277 4.07442 25.9633 4.63317 25.0257C5.27062 23.956 6.02469 23.306 7.00626 22.9817C8.62742 22.4445 10.8581 22.822 14.0239 24.1669C17.4093 25.6058 21.9509 28.2105 27.9097 32.1296L27.9147 32.1331L32.9141 35.6457L31.9547 37.4704L31.6206 39.4922ZM25.445 39.1195H31.2923L31.582 37.3535L32.4191 35.7604L27.6901 32.4387C21.752 28.5327 17.2305 25.9398 13.8687 24.5105C10.8388 23.2231 8.63529 22.8386 7.13146 23.3364C5.25989 23.9539 4.5137 25.8049 3.58864 28.5569C2.66216 31.3103 2.14204 33.2318 3.27958 34.7972C4.1939 36.0536 6.20998 36.9961 9.44373 37.6765C13.0338 38.4322 18.2664 38.9038 25.445 39.1195Z" fill="black"/>
<path d="M16.5408 11.0155C11.0191 14.8973 8.02503 17.4633 27.8017 32.2839L32.6673 35.7031L34.071 34.3485L35.8374 33.4759L33.978 27.9443C25.513 5.17622 22.0632 7.13649 16.5408 11.0155Z" fill="#DC4D30"/>
<path d="M32.6873 35.9472L27.6835 32.4312C21.9866 28.1628 18.0216 24.7906 15.5606 22.1216C13.259 19.6262 12.1995 17.6915 12.2259 16.0341C12.2424 15.0308 12.6481 14.1367 13.5037 13.2192C14.2528 12.4164 15.2715 11.6779 16.4277 10.8655C17.5838 10.053 18.6248 9.34499 19.6464 8.90385C20.8125 8.40047 21.8177 8.30367 22.8115 8.59892C24.4491 9.08639 26.0245 10.6587 27.768 13.5462C29.6317 16.6343 31.7236 21.323 34.1618 27.8814L34.1632 27.8869L36.0734 33.57L34.1875 34.5007L32.6873 35.9472ZM27.9168 32.1345L32.6479 35.4563L33.9564 34.1937L35.6026 33.3805L33.7955 28.0045C31.3644 21.4703 29.2847 16.8023 27.4324 13.7343C25.764 10.9706 24.2144 9.40791 22.6956 8.95709C20.8047 8.39425 19.0762 9.46807 16.6545 11.169C14.2327 12.8707 12.6423 14.1278 12.6123 16.0396C12.5872 17.5767 13.6461 19.4844 15.8489 21.8727C18.2935 24.5265 22.242 27.8807 27.9168 32.1345Z" fill="black"/>
<path d="M48.9605 39.3055C48.9605 39.6595 48.9426 40.0122 48.9069 40.3641C48.8711 40.7161 48.8174 41.0653 48.7459 41.4124C48.6744 41.7588 48.5856 42.1017 48.4798 42.4399C48.3732 42.778 48.2508 43.1106 48.1106 43.4376C47.9704 43.764 47.8144 44.0834 47.642 44.3953C47.4696 44.7071 47.2821 45.01 47.0789 45.3039C46.8758 45.5977 46.6583 45.8812 46.4265 46.155C46.194 46.4282 45.9486 46.6902 45.6903 46.9398C45.432 47.1901 45.1609 47.4273 44.8783 47.6513C44.5957 47.8761 44.3024 48.0863 43.9983 48.2826C43.6942 48.479 43.3809 48.6608 43.0589 48.8275C42.7363 48.9941 42.4065 49.1449 42.0681 49.2804C41.7304 49.4152 41.3863 49.5348 41.0364 49.6372C40.6866 49.7395 40.3324 49.8259 39.974 49.8944C39.6156 49.9635 39.2543 50.0154 38.8901 50.05C38.526 50.0845 38.1611 50.1018 37.7955 50.1018C37.4299 50.1018 37.0651 50.0845 36.7016 50.05C36.3375 50.0154 35.9762 49.9635 35.6177 49.8944C35.2593 49.8259 34.9045 49.7395 34.5546 49.6372C34.2048 49.5348 33.8614 49.4152 33.523 49.2804C33.1853 49.1449 32.8555 48.9941 32.5328 48.8275C32.2102 48.6608 31.8968 48.479 31.5927 48.2826C31.2894 48.0863 30.9954 47.8761 30.7128 47.6513C30.4302 47.4273 30.1597 47.1901 29.9015 46.9398C29.6425 46.6902 29.3971 46.4282 29.1653 46.155C28.9335 45.8812 28.716 45.5977 28.5128 45.3039C28.3096 45.01 28.1222 44.7071 27.9498 44.3953C27.7773 44.0834 27.6207 43.764 27.4812 43.4376C27.3409 43.1106 27.2179 42.778 27.112 42.4399C27.0061 42.1017 26.9174 41.7588 26.8459 41.4124C26.7743 41.0653 26.7207 40.7161 26.6849 40.3641C26.6491 40.0122 26.6312 39.6595 26.6312 39.3055C26.6312 38.9522 26.6491 38.5995 26.6849 38.2476C26.7207 37.8956 26.7743 37.5465 26.8459 37.1994C26.9174 36.8529 27.0061 36.51 27.112 36.1719C27.2179 35.8337 27.3409 35.5012 27.4812 35.1741C27.6207 34.8477 27.7773 34.5283 27.9498 34.2164C28.1222 33.9046 28.3096 33.6017 28.5128 33.3079C28.716 33.014 28.9335 32.7298 29.1653 32.4567C29.3971 32.1836 29.6425 31.9215 29.9015 31.6719C30.1597 31.4216 30.4302 31.1844 30.7128 30.9604C30.9954 30.7357 31.2894 30.5255 31.5927 30.3291C31.8968 30.1327 32.2102 29.9509 32.5328 29.7842C32.8555 29.6176 33.1853 29.4669 33.523 29.3313C33.8614 29.1958 34.2048 29.0769 34.5546 28.9745C34.9045 28.8715 35.2593 28.7858 35.6177 28.7173C35.9762 28.6482 36.3375 28.5963 36.7016 28.5617C37.0651 28.5272 37.4299 28.5099 37.7955 28.5099C38.1611 28.5099 38.526 28.5272 38.8901 28.5617C39.2543 28.5963 39.6156 28.6482 39.974 28.7173C40.3324 28.7858 40.6866 28.8715 41.0364 28.9745C41.3863 29.0769 41.7304 29.1958 42.0681 29.3313C42.4065 29.4669 42.7363 29.6176 43.0589 29.7842C43.3809 29.9509 43.6942 30.1327 43.9983 30.3291C44.3024 30.5255 44.5957 30.7357 44.8783 30.9604C45.1609 31.1844 45.432 31.4216 45.6903 31.6719C45.9486 31.9215 46.194 32.1836 46.4265 32.4567C46.6583 32.7298 46.8758 33.014 47.0789 33.3079C47.2821 33.6017 47.4696 33.9046 47.642 34.2164C47.8144 34.5283 47.9704 34.8477 48.1106 35.1741C48.2508 35.5012 48.3732 35.8337 48.4798 36.1719C48.5856 36.51 48.6744 36.8529 48.7459 37.1994C48.8174 37.5465 48.8711 37.8956 48.9069 38.2476C48.9426 38.5995 48.9605 38.9522 48.9605 39.3055Z" fill="#FECD1A"/>
<path d="M37.7955 50.2885C37.5787 50.2885 37.3619 50.283 37.1459 50.2705C36.9291 50.2588 36.713 50.2408 36.4977 50.2166C36.2823 50.1924 36.0677 50.1627 35.8538 50.1267C35.6406 50.0908 35.4281 50.0493 35.2171 50.0016C35.0053 49.9539 34.7957 49.9006 34.5882 49.8412C34.38 49.7824 34.174 49.7174 33.9693 49.6469C33.7654 49.5763 33.5637 49.4996 33.3634 49.418C33.1638 49.3364 32.967 49.2486 32.7724 49.1559C32.5778 49.0633 32.3861 48.9651 32.1979 48.8621C32.0091 48.7583 31.8238 48.6498 31.6413 48.5364C31.4589 48.423 31.28 48.3041 31.1048 48.1803C30.9295 48.0572 30.7585 47.9286 30.5904 47.7958C30.423 47.6624 30.2591 47.5248 30.0996 47.383C29.94 47.2406 29.7855 47.0947 29.6345 46.944C29.4836 46.7932 29.3376 46.6384 29.196 46.4793C29.0543 46.321 28.917 46.1585 28.7853 45.9918C28.653 45.8252 28.5263 45.6558 28.404 45.4822C28.2824 45.3087 28.1658 45.1324 28.0542 44.9519C27.9426 44.7721 27.8367 44.5896 27.7358 44.4036C27.6349 44.2183 27.5398 44.0295 27.4503 43.8387C27.3609 43.6478 27.2772 43.4542 27.1992 43.2585C27.1212 43.0629 27.049 42.8651 26.9824 42.6653C26.9159 42.4661 26.8558 42.2642 26.8014 42.0616C26.7471 41.8584 26.6984 41.6544 26.6562 41.4483C26.614 41.243 26.5782 41.0362 26.5475 40.8281C26.5174 40.6207 26.4938 40.4125 26.4759 40.2037C26.4588 39.9942 26.4466 39.7847 26.4416 39.5752C26.4366 39.3657 26.4373 39.1562 26.4444 38.9467C26.4516 38.7371 26.4645 38.5276 26.4838 38.3188C26.5038 38.11 26.5296 37.9019 26.5611 37.6944C26.5925 37.487 26.6312 37.2803 26.6748 37.0749C26.7192 36.8695 26.7693 36.6656 26.8251 36.463C26.8816 36.2611 26.9431 36.0598 27.0111 35.8607C27.0797 35.6616 27.1534 35.4645 27.2328 35.2695C27.313 35.0745 27.3981 34.8816 27.489 34.6915C27.5805 34.5013 27.6771 34.3132 27.7794 34.1286C27.8817 33.9433 27.9891 33.7615 28.1021 33.5824C28.2151 33.404 28.3332 33.2277 28.457 33.0555C28.58 32.8833 28.7088 32.7139 28.8419 32.5487C28.9756 32.3834 29.1137 32.2223 29.2568 32.0646C29.3999 31.907 29.5473 31.7528 29.6989 31.6034C29.8513 31.4541 30.008 31.3089 30.1683 31.1678C30.3292 31.0275 30.4938 30.8912 30.6626 30.7592C30.8315 30.6278 31.0039 30.5006 31.1799 30.3782C31.3566 30.2565 31.5362 30.1389 31.7193 30.0269C31.9025 29.9149 32.0892 29.8077 32.2788 29.7061C32.4684 29.6038 32.6608 29.5077 32.8561 29.4164C33.0514 29.3251 33.2489 29.2394 33.4492 29.1592C33.6495 29.079 33.852 29.0043 34.0573 28.9351C34.262 28.866 34.4687 28.8031 34.6769 28.745C34.8858 28.6876 35.0954 28.6357 35.3072 28.5901C35.519 28.5438 35.7314 28.5037 35.9454 28.4698C36.1593 28.4352 36.3746 28.4076 36.59 28.3847C36.806 28.3626 37.0221 28.3467 37.2381 28.3363C37.4549 28.326 37.6717 28.3218 37.8885 28.3232C38.1052 28.3253 38.322 28.3329 38.5388 28.3467C38.7549 28.3605 38.9709 28.3799 39.1863 28.4055C39.4009 28.4311 39.6155 28.4629 39.8287 28.5002C40.0419 28.5382 40.2544 28.5811 40.4655 28.6309C40.6758 28.68 40.8854 28.7353 41.0929 28.7961C41.3004 28.857 41.5057 28.9234 41.7096 28.9953C41.9128 29.0679 42.1145 29.146 42.3134 29.229C42.5123 29.3127 42.7083 29.4012 42.9022 29.4959C43.0961 29.5899 43.2864 29.6895 43.4746 29.7946C43.662 29.899 43.8466 30.009 44.0283 30.1244C44.2093 30.2392 44.3874 30.3595 44.5613 30.4847C44.7359 30.6091 44.9061 30.7391 45.0721 30.8733C45.2388 31.0074 45.4012 31.1464 45.5593 31.2895C45.7181 31.4333 45.872 31.5806 46.0215 31.7327C46.171 31.8849 46.3155 32.0404 46.4565 32.2002C46.5967 32.3606 46.7319 32.5238 46.8628 32.6911C46.993 32.8591 47.119 33.0299 47.2391 33.2041C47.3593 33.3784 47.4752 33.5561 47.5847 33.7366C47.6949 33.9177 47.7993 34.101 47.8988 34.2877C47.9975 34.4743 48.0912 34.6631 48.1792 34.8553C48.2665 35.0469 48.3488 35.2412 48.4253 35.4368C48.5019 35.6332 48.572 35.8317 48.6371 36.0315C48.7015 36.232 48.7602 36.4339 48.8131 36.6372C48.8653 36.8405 48.9125 37.0452 48.9526 37.2512C48.9934 37.4573 49.0277 37.664 49.0563 37.8721C49.0842 38.0803 49.1064 38.2884 49.1229 38.4979C49.1386 38.7067 49.1479 38.9162 49.1515 39.1264C49.1551 39.3359 49.1529 39.5454 49.1436 39.755C49.135 39.9645 49.12 40.1733 49.0985 40.3821C49.0771 40.5909 49.0499 40.799 49.0163 41.0065C48.9826 41.2132 48.9433 41.4193 48.8975 41.6246C48.8517 41.8293 48.7995 42.0333 48.7415 42.2352C48.6843 42.4371 48.6199 42.6376 48.5505 42.8361C48.4811 43.0345 48.4053 43.2309 48.3237 43.4259C48.2429 43.6202 48.1556 43.8117 48.0626 44.0019C47.9703 44.1913 47.8716 44.378 47.7678 44.5619C47.6641 44.7465 47.5554 44.9277 47.4409 45.1054C47.3264 45.2838 47.2062 45.458 47.0818 45.6295C46.9566 45.801 46.8271 45.969 46.6918 46.1336C46.5573 46.2975 46.4178 46.4579 46.2733 46.6148C46.1288 46.7711 45.98 46.9232 45.8269 47.0719C45.3003 47.5836 44.728 48.0399 44.1077 48.4417C43.4881 48.8434 42.8335 49.1822 42.1446 49.4581C41.4549 49.734 40.7445 49.9421 40.0126 50.0818C39.2807 50.2215 38.5417 50.2906 37.7955 50.2885ZM37.7955 28.6959C31.7458 28.6959 26.8243 33.4558 26.8243 39.3055C26.8243 45.1559 31.7458 49.9151 37.7955 49.9151C43.8459 49.9151 48.7673 45.1559 48.7673 39.3055C48.7673 33.4558 43.8459 28.6959 37.7955 28.6959Z" fill="black"/>
<path d="M37.7955 50.2885C37.5787 50.2885 37.3619 50.283 37.1459 50.2705C36.9291 50.2588 36.713 50.2408 36.4977 50.2166C36.2823 50.1924 36.0677 50.1627 35.8538 50.1267C35.6406 50.0908 35.4281 50.0493 35.2171 50.0016C35.0053 49.9539 34.7957 49.9006 34.5882 49.8412C34.38 49.7824 34.174 49.7174 33.9693 49.6469C33.7654 49.5763 33.5637 49.4996 33.3634 49.418C33.1638 49.3364 32.967 49.2486 32.7724 49.1559C32.5778 49.0633 32.3861 48.9651 32.1979 48.8621C32.0091 48.7583 31.8238 48.6498 31.6413 48.5364C31.4589 48.423 31.28 48.3041 31.1048 48.1803C30.9295 48.0572 30.7585 47.9286 30.5904 47.7958C30.423 47.6624 30.2591 47.5248 30.0996 47.383C29.94 47.2406 29.7855 47.0947 29.6345 46.944C29.4836 46.7932 29.3376 46.6384 29.196 46.4793C29.0543 46.321 28.917 46.1585 28.7853 45.9918C28.653 45.8252 28.5263 45.6558 28.404 45.4822C28.2824 45.3087 28.1658 45.1324 28.0542 44.9519C27.9426 44.7721 27.8367 44.5896 27.7358 44.4036C27.6349 44.2183 27.5398 44.0295 27.4503 43.8387C27.3609 43.6478 27.2772 43.4542 27.1992 43.2585C27.1212 43.0629 27.049 42.8651 26.9824 42.6653C26.9159 42.4661 26.8558 42.2642 26.8014 42.0616C26.7471 41.8584 26.6984 41.6544 26.6562 41.4483C26.614 41.243 26.5782 41.0362 26.5475 40.8281C26.5174 40.6207 26.4938 40.4125 26.4759 40.2037C26.4588 39.9942 26.4466 39.7847 26.4416 39.5752C26.4366 39.3657 26.4373 39.1562 26.4444 38.9467C26.4516 38.7371 26.4645 38.5276 26.4838 38.3188C26.5038 38.11 26.5296 37.9019 26.5611 37.6944C26.5925 37.487 26.6312 37.2803 26.6748 37.0749C26.7192 36.8695 26.7693 36.6656 26.8251 36.463C26.8816 36.2611 26.9431 36.0598 27.0111 35.8607C27.0797 35.6616 27.1534 35.4645 27.2328 35.2695C27.313 35.0745 27.3981 34.8816 27.489 34.6915C27.5805 34.5013 27.6771 34.3132 27.7794 34.1286C27.8817 33.9433 27.9891 33.7615 28.1021 33.5824C28.2151 33.404 28.3332 33.2277 28.457 33.0555C28.58 32.8833 28.7088 32.7139 28.8419 32.5487C28.9756 32.3834 29.1137 32.2223 29.2568 32.0646C29.3999 31.907 29.5473 31.7528 29.6989 31.6034C29.8513 31.4541 30.008 31.3089 30.1683 31.1678C30.3292 31.0275 30.4938 30.8912 30.6626 30.7592C30.8315 30.6278 31.0039 30.5006 31.1799 30.3782C31.3566 30.2565 31.5362 30.1389 31.7193 30.0269C31.9025 29.9149 32.0892 29.8077 32.2788 29.7061C32.4684 29.6038 32.6608 29.5077 32.8561 29.4164C33.0514 29.3251 33.2489 29.2394 33.4492 29.1592C33.6495 29.079 33.852 29.0043 34.0573 28.9351C34.262 28.866 34.4687 28.8031 34.6769 28.745C34.8858 28.6876 35.0954 28.6357 35.3072 28.5901C35.519 28.5438 35.7314 28.5037 35.9454 28.4698C36.1593 28.4352 36.3746 28.4076 36.59 28.3847C36.806 28.3626 37.0221 28.3467 37.2381 28.3363C37.4549 28.326 37.6717 28.3218 37.8885 28.3232C38.1052 28.3253 38.322 28.3329 38.5388 28.3467C38.7549 28.3605 38.9709 28.3799 39.1863 28.4055C39.4009 28.4311 39.6155 28.4629 39.8287 28.5002C40.0419 28.5382 40.2544 28.5811 40.4655 28.6309C40.6758 28.68 40.8854 28.7353 41.0929 28.7961C41.3004 28.857 41.5057 28.9234 41.7096 28.9953C41.9128 29.0679 42.1145 29.146 42.3134 29.229C42.5123 29.3127 42.7083 29.4012 42.9022 29.4959C43.0961 29.5899 43.2864 29.6895 43.4746 29.7946C43.662 29.899 43.8466 30.009 44.0283 30.1244C44.2093 30.2392 44.3874 30.3595 44.5613 30.4847C44.7359 30.6091 44.9061 30.7391 45.0721 30.8733C45.2388 31.0074 45.4012 31.1464 45.5593 31.2895C45.7181 31.4333 45.872 31.5806 46.0215 31.7327C46.171 31.8849 46.3155 32.0404 46.4565 32.2002C46.5967 32.3606 46.7319 32.5238 46.8628 32.6911C46.993 32.8591 47.119 33.0299 47.2391 33.2041C47.3593 33.3784 47.4752 33.5561 47.5847 33.7366C47.6949 33.9177 47.7993 34.101 47.8988 34.2877C47.9975 34.4743 48.0912 34.6631 48.1792 34.8553C48.2665 35.0469 48.3488 35.2412 48.4253 35.4368C48.5019 35.6332 48.572 35.8317 48.6371 36.0315C48.7015 36.232 48.7602 36.4339 48.8131 36.6372C48.8653 36.8405 48.9125 37.0452 48.9526 37.2512C48.9934 37.4573 49.0277 37.664 49.0563 37.8721C49.0842 38.0803 49.1064 38.2884 49.1229 38.4979C49.1386 38.7067 49.1479 38.9162 49.1515 39.1264C49.1551 39.3359 49.1529 39.5454 49.1436 39.755C49.135 39.9645 49.12 40.1733 49.0985 40.3821C49.0771 40.5909 49.0499 40.799 49.0163 41.0065C48.9826 41.2132 48.9433 41.4193 48.8975 41.6246C48.8517 41.8293 48.7995 42.0333 48.7415 42.2352C48.6843 42.4371 48.6199 42.6376 48.5505 42.8361C48.4811 43.0345 48.4053 43.2309 48.3237 43.4259C48.2429 43.6202 48.1556 43.8117 48.0626 44.0019C47.9703 44.1913 47.8716 44.378 47.7678 44.5619C47.6641 44.7465 47.5554 44.9277 47.4409 45.1054C47.3264 45.2838 47.2062 45.458 47.0818 45.6295C46.9566 45.801 46.8271 45.969 46.6918 46.1336C46.5573 46.2975 46.4178 46.4579 46.2733 46.6148C46.1288 46.7711 45.98 46.9232 45.8269 47.0719C45.3003 47.5836 44.728 48.0399 44.1077 48.4417C43.4881 48.8434 42.8335 49.1822 42.1446 49.4581C41.4549 49.734 40.7445 49.9421 40.0126 50.0818C39.2807 50.2215 38.5417 50.2906 37.7955 50.2885ZM37.7955 28.6959C31.7458 28.6959 26.8243 33.4558 26.8243 39.3055C26.8243 45.1559 31.7458 49.9151 37.7955 49.9151C43.8459 49.9151 48.7673 45.1559 48.7673 39.3055C48.7673 33.4558 43.8459 28.6959 37.7955 28.6959Z" fill="black"/>
<path d="M45.1129 38.9246C45.1129 38.9723 45.1072 39.0186 45.0943 39.0649C45.0821 39.112 45.0642 39.1569 45.0399 39.2005C45.0156 39.244 44.9863 39.2855 44.9512 39.3249C44.9162 39.3643 44.8761 39.4003 44.8317 39.4342C44.7867 39.4674 44.738 39.4971 44.6858 39.5234C44.6328 39.5496 44.5778 39.5718 44.5191 39.5897C44.4611 39.6077 44.401 39.6216 44.3388 39.6312C44.2773 39.6402 44.2143 39.6451 44.1514 39.6451C44.0884 39.6451 44.0254 39.6402 43.9639 39.6312C43.9017 39.6216 43.8416 39.6077 43.7829 39.5897C43.725 39.5718 43.6692 39.5496 43.6169 39.5234C43.5647 39.4971 43.5161 39.4674 43.471 39.4342C43.4266 39.4003 43.3866 39.3643 43.3515 39.3249C43.3165 39.2855 43.2871 39.244 43.2628 39.2005C43.2385 39.1569 43.2206 39.112 43.2077 39.0649C43.1955 39.0186 43.1898 38.9723 43.1898 38.9246C43.1898 38.8776 43.1955 38.8305 43.2077 38.7842C43.2206 38.7379 43.2385 38.6929 43.2628 38.6494C43.2871 38.6058 43.3165 38.5643 43.3515 38.5249C43.3866 38.4855 43.4266 38.4489 43.471 38.4157C43.5161 38.3825 43.5647 38.3527 43.6169 38.3265C43.6692 38.3002 43.725 38.2781 43.7829 38.2594C43.8416 38.2414 43.9017 38.2276 43.9639 38.2186C44.0254 38.2096 44.0884 38.2048 44.1514 38.2048C44.2143 38.2048 44.2773 38.2096 44.3388 38.2186C44.401 38.2276 44.4611 38.2414 44.5191 38.2594C44.5778 38.2781 44.6328 38.3002 44.6858 38.3265C44.738 38.3527 44.7867 38.3825 44.8317 38.4157C44.8761 38.4489 44.9162 38.4855 44.9512 38.5249C44.9863 38.5643 45.0156 38.6058 45.0399 38.6494C45.0642 38.6929 45.0821 38.7379 45.0943 38.7842C45.1072 38.8305 45.1129 38.8776 45.1129 38.9246Z" fill="#F76161"/>
<path d="M32.4311 38.9246C32.4311 38.9723 32.4254 39.0186 32.4125 39.0649C32.4004 39.112 32.3825 39.1569 32.3581 39.2005C32.3338 39.244 32.3045 39.2855 32.2694 39.3249C32.2344 39.3643 32.1943 39.4003 32.1492 39.4342C32.1049 39.4674 32.0562 39.4971 32.004 39.5234C31.9511 39.5496 31.896 39.5718 31.8373 39.5897C31.7794 39.6077 31.7193 39.6216 31.657 39.6312C31.5955 39.6402 31.5325 39.6451 31.4696 39.6451C31.4066 39.6451 31.3437 39.6402 31.2821 39.6312C31.2199 39.6216 31.1598 39.6077 31.1011 39.5897C31.0432 39.5718 30.9874 39.5496 30.9352 39.5234C30.8829 39.4971 30.8343 39.4674 30.7892 39.4342C30.7448 39.4003 30.7048 39.3643 30.6697 39.3249C30.6347 39.2855 30.6053 39.244 30.581 39.2005C30.5567 39.1569 30.5388 39.112 30.5259 39.0649C30.5138 39.0186 30.5073 38.9723 30.5073 38.9246C30.5073 38.8776 30.5138 38.8305 30.5259 38.7842C30.5388 38.7379 30.5567 38.6929 30.581 38.6494C30.6053 38.6058 30.6347 38.5643 30.6697 38.5249C30.7048 38.4855 30.7448 38.4489 30.7892 38.4157C30.8343 38.3825 30.8829 38.3527 30.9352 38.3265C30.9874 38.3002 31.0432 38.2781 31.1011 38.2594C31.1598 38.2414 31.2199 38.2276 31.2821 38.2186C31.3437 38.2096 31.4066 38.2048 31.4696 38.2048C31.5325 38.2048 31.5955 38.2096 31.657 38.2186C31.7193 38.2276 31.7794 38.2414 31.8373 38.2594C31.896 38.2781 31.9511 38.3002 32.004 38.3265C32.0562 38.3527 32.1049 38.3825 32.1492 38.4157C32.1943 38.4489 32.2344 38.4855 32.2694 38.5249C32.3045 38.5643 32.3338 38.6058 32.3581 38.6494C32.3825 38.6929 32.4004 38.7379 32.4125 38.7842C32.4254 38.8305 32.4311 38.8776 32.4311 38.9246Z" fill="#F76161"/>
<path d="M37.9351 40.2661C41.2954 40.2661 44.0305 42.9109 44.0305 46.1607C44.0305 46.1856 44.0255 46.2091 44.0155 46.2319C44.0055 46.2548 43.9919 46.2748 43.974 46.2928C43.9554 46.3101 43.9346 46.3232 43.911 46.3329C43.8874 46.3426 43.8631 46.3474 43.8374 46.3474C43.8116 46.3474 43.7873 46.3426 43.7637 46.3329C43.7401 46.3232 43.7186 46.3101 43.7007 46.2928C43.6828 46.2748 43.6685 46.2548 43.6592 46.2319C43.6492 46.2091 43.6442 46.1856 43.6442 46.1607C43.6442 43.1163 41.0829 40.6395 37.9351 40.6395C34.7864 40.6395 32.2252 43.1163 32.2252 46.1607C32.2252 46.1856 32.2202 46.2091 32.2109 46.2319C32.2009 46.2548 32.1866 46.2748 32.1687 46.2928C32.1508 46.3101 32.13 46.3232 32.1064 46.3329C32.0828 46.3426 32.0578 46.3474 32.032 46.3474C32.007 46.3474 31.982 46.3426 31.9583 46.3329C31.9347 46.3232 31.914 46.3101 31.8961 46.2928C31.8775 46.2748 31.8639 46.2548 31.8539 46.2319C31.8446 46.2091 31.8396 46.1856 31.8396 46.1607C31.8396 42.9109 34.574 40.2661 37.9351 40.2661Z" fill="black"/>
<path d="M33.8728 33.4759C33.2103 33.4759 32.6573 34.3215 32.5257 35.4479L33.4042 35.7031L32.5013 36.1781C32.5614 37.451 33.1524 38.4516 33.8728 38.4516C34.6333 38.4516 35.25 37.3376 35.25 35.9637C35.25 34.5898 34.6333 33.4759 33.8728 33.4759Z" fill="black"/>
<path d="M41.7132 33.4759C41.0507 33.4759 40.4977 34.3215 40.366 35.4479L41.2446 35.7031L40.3431 36.1781C40.4032 37.451 40.9942 38.4516 41.7146 38.4516C42.4758 38.4516 43.0918 37.3376 43.0918 35.9637C43.0918 34.5898 42.4737 33.4759 41.7132 33.4759Z" fill="black"/>
</svg>
