<svg width="827" height="173" viewBox="0 0 827 173" fill="none" xmlns="http://www.w3.org/2000/svg">
<g clip-path="url(#clip0_478_1113)">
<path d="M-0.480469 133.242C-0.480469 163.903 35.8216 172.83 66.7174 172.83C93.5039 172.83 130.035 161.32 130.035 120.908C130.035 60.1738 45.6914 70.8613 45.6914 45.3717C45.6914 41.377 48.2747 35.8561 56.8477 35.8561C73.7643 35.8561 84.8112 62.5228 103.368 61.2311C116.176 60.2884 126.046 49.4811 126.046 35.8561C126.046 10.4811 97.3789 0.142578 70.832 0.142578C27.4831 0.142578 2.34245 20.9342 2.34245 53.4759C2.34245 112.804 83.7539 100.465 83.7539 126.783C83.7539 132.538 80.6966 137.002 73.0612 137.002C55.0872 137.002 43.3424 104.346 23.8372 104.929C11.6237 105.283 -0.480469 116.445 -0.480469 133.242Z" fill="#272324"/>
<path d="M136.955 112.33C136.955 142.523 159.158 172.83 200.393 172.83C233.637 172.83 248.554 160.851 248.554 150.158C248.554 143.346 244.09 131.361 233.403 131.361C223.533 131.361 218.835 141.7 202.038 141.7C197.221 141.7 189.82 140.174 189.82 136.413C189.82 135.007 190.877 134.768 192.872 134.768C196.398 134.768 202.742 135.71 210.965 133.127C228.231 127.721 246.794 116.21 246.794 88.8353C246.794 64.1686 224.476 51.8301 200.393 51.8301C156.924 51.8301 136.955 82.4915 136.955 112.33ZM182.299 99.877C186.294 89.6582 192.757 82.9655 198.627 82.9655C204.502 82.9655 205.794 89.6582 201.799 99.877C197.809 109.981 191.226 116.679 185.356 116.679C179.481 116.679 178.304 109.981 182.299 99.877Z" fill="#272324"/>
<path d="M257.238 112.33C257.238 148.512 278.618 172.83 304.697 172.83C320.91 172.83 323.139 165.903 329.957 165.903C336.301 165.903 335.592 172.83 345.228 172.83C361.79 172.83 374.947 165.663 374.947 155.21C374.947 144.637 366.02 139.236 366.02 112.33C366.02 87.3089 374.009 76.0329 374.009 64.9912C374.009 53.7099 363.79 51.8297 358.853 51.8297C353.332 51.8297 349.103 53.5954 337.004 53.5954C331.129 53.5954 326.551 51.7152 311.395 51.8297C294.243 51.9495 257.238 63.3454 257.238 112.33ZM312.332 82.8454C318.561 82.8454 322.79 94.5902 322.79 112.33C322.79 129.955 318.561 141.7 312.332 141.7C306.108 141.7 301.879 129.955 301.879 112.33C301.879 94.5902 306.108 82.8454 312.332 82.8454Z" fill="#272324"/>
<path d="M382.338 70.1582C382.338 82.1426 393.849 88.3665 393.849 119.382C393.849 140.408 383.276 149.57 383.276 160.617C383.276 171.893 394.318 171.07 399.255 171.07H433.323C438.255 171.07 449.297 171.893 449.297 160.617C449.297 149.57 438.609 140.408 438.609 119.382C438.724 108.924 438.609 88.8353 450.708 88.8353C463.396 88.8353 452.469 112.33 473.849 112.33C490.531 112.33 500.984 105.283 500.984 82.8457C500.984 63.4603 487.005 51.8301 471.5 51.8301C458.812 51.8301 446.479 58.2936 437.552 64.8717C435.437 54.8874 430.5 51.8301 426.036 51.8301C422.984 51.8301 410.062 55.5905 404.302 57.1165C393.729 59.9395 382.338 62.054 382.338 70.1582Z" fill="#272324"/>
<path d="M510.255 112.33C510.255 142.523 532.458 172.83 573.692 172.83C606.937 172.83 621.854 160.851 621.854 150.158C621.854 143.346 617.39 131.361 606.703 131.361C596.833 131.361 592.135 141.7 577.922 141.7C568.052 141.7 555.01 136.064 555.01 112.684C555.01 101.288 562.885 82.9655 574.161 82.9655C579.916 82.9655 580.151 89.1895 580.151 95.179C580.151 106.34 584.146 117.617 601.297 117.617C616.687 117.617 624.791 103.523 624.791 90.3665C624.791 65.6947 604.354 51.8301 574.75 51.8301C542.677 51.8301 510.255 70.627 510.255 112.33Z" fill="#272324"/>
<path d="M644.75 84.1374C644.75 145.34 634.063 141.934 634.063 160.617C634.063 171.893 646.985 171.07 651.917 171.07H676.823C681.756 171.07 698.907 171.893 698.907 160.617C698.907 149.57 688.219 140.408 688.219 119.382V104.46C688.219 97.6478 691.974 88.8353 701.724 88.8353C711.006 88.8353 714.532 97.6478 714.532 104.46V119.382C714.532 140.408 703.839 149.57 703.839 160.617C703.839 171.893 720.99 171.07 725.928 171.07H752.006C756.938 171.07 769.86 171.893 769.86 160.617C769.86 149.57 759.172 140.408 759.172 119.382V88.8353C759.172 67.3405 750.36 51.8301 729.099 51.8301C704.547 51.8301 692.094 64.9915 689.625 64.9915C688.334 64.9915 688.568 64.1686 688.568 60.054C688.568 45.8405 698.792 29.6269 698.792 12.3613C698.792 1.08007 685.865 1.90299 680.933 1.90299H651.917C646.985 1.90299 634.063 1.08007 634.063 12.3613C634.063 30.6842 644.75 51.8301 644.75 84.1374Z" fill="#272324"/>
<path d="M782.066 150.278C782.066 162.731 792.171 172.83 804.618 172.83C817.191 172.83 827.296 162.731 827.296 150.278C827.296 137.705 817.191 127.606 804.618 127.606C792.171 127.606 782.066 137.705 782.066 150.278ZM782.066 74.5072C782.066 86.9551 792.171 97.0592 804.618 97.0592C817.191 97.0592 827.296 86.9551 827.296 74.5072C827.296 61.9342 817.191 51.8301 804.618 51.8301C792.171 51.8301 782.066 61.9342 782.066 74.5072Z" fill="#272324"/>
</g>
<defs>
<clipPath id="clip0_478_1113">
<rect width="827" height="173" fill="white"/>
</clipPath>
</defs>
</svg>
