<svg width="71" height="71" viewBox="0 0 71 71" fill="none" xmlns="http://www.w3.org/2000/svg">
<g clip-path="url(#clip0_231_43)">
<path d="M69.0092 35.4514C69.0092 54.122 54.0426 69.2568 35.5809 69.2568C17.1186 69.2568 2.15198 54.122 2.15198 35.4514C2.15198 16.7809 17.1186 1.64545 35.5809 1.64545C54.0426 1.64545 69.0092 16.7809 69.0092 35.4514Z" fill="#FFCE00"/>
<mask id="mask0_231_43" style="mask-type:luminance" maskUnits="userSpaceOnUse" x="0" y="0" width="71" height="71">
<path d="M0.86792 0.377014H70.2043V70.4538H0.86792V0.377014Z" fill="white"/>
</mask>
<g mask="url(#mask0_231_43)">
<path d="M67.8142 35.4514C67.813 36.3542 67.7792 37.2565 67.7086 38.1569C67.6742 38.6012 67.6303 39.0454 67.5787 39.4884C67.5698 39.5622 67.5609 39.6355 67.552 39.7087C67.5485 39.7399 67.4986 40.1049 67.5366 39.827C67.501 40.0821 67.4642 40.3372 67.4233 40.5918C67.1523 42.2786 66.7543 43.9438 66.233 45.5689C65.9708 46.3877 65.6767 47.1963 65.3528 47.9923C65.3416 48.0199 65.2034 48.3477 65.309 48.0991C65.2674 48.197 65.2259 48.2954 65.1832 48.3933C65.1126 48.5566 65.0409 48.7192 64.9673 48.8813C64.777 49.3021 64.5789 49.7182 64.3713 50.1306C63.6269 51.6127 62.7741 53.039 61.8216 54.3951C61.2581 55.1977 61.0334 55.4919 60.4148 56.2422C59.8798 56.8906 59.3205 57.5191 58.7399 58.1248C58.1824 58.7059 57.6053 59.2672 57.0093 59.8056C56.6979 60.0878 56.3818 60.3627 56.0597 60.6322C55.9263 60.7445 55.791 60.8561 55.6558 60.966C55.574 61.0326 55.4921 61.0981 55.4103 61.1635C55.3551 61.2073 55.3006 61.2505 55.2454 61.2938C55.3498 61.2127 55.3474 61.2145 55.2389 61.298C53.9145 62.3107 52.5285 63.2339 51.073 64.0444C50.35 64.4466 49.6122 64.8223 48.8614 65.1687C48.6686 65.2582 48.4753 65.3452 48.2819 65.4304C48.2541 65.4425 47.9308 65.5817 48.1776 65.4773C48.0797 65.5181 47.9812 65.5589 47.8834 65.5997C47.4902 65.7618 47.094 65.9161 46.6942 66.0638C45.1142 66.6449 43.4904 67.1047 41.841 67.4379C41.4145 67.5237 40.9857 67.6011 40.5563 67.6702C40.3766 67.6996 40.1963 67.7254 40.016 67.753C39.6572 67.807 40.2604 67.7236 39.8998 67.7686C39.7545 67.7872 39.6092 67.8058 39.4633 67.8227C38.5831 67.9259 37.6994 67.9937 36.814 68.0262C35.0703 68.0898 33.3218 68.0183 31.5888 67.81C31.4803 67.7968 31.3706 67.783 31.262 67.7686C30.9014 67.7236 31.5046 67.807 31.1458 67.753C30.9293 67.72 30.7134 67.6882 30.4975 67.6528C30.0687 67.5819 29.6405 67.5033 29.2147 67.4156C28.3695 67.2428 27.5315 67.0357 26.7024 66.7967C25.9141 66.5692 25.136 66.3117 24.3674 66.0265C23.9682 65.8783 23.5732 65.7228 23.18 65.5589C23.1527 65.5475 22.8283 65.4088 23.0744 65.5151C22.9938 65.4797 22.9125 65.4449 22.8319 65.4088C22.6219 65.3164 22.4125 65.2215 22.205 65.1249C20.6772 64.4123 19.2027 63.5827 17.7989 62.6456C17.1293 62.199 16.4757 61.7284 15.8393 61.2343C16.0493 61.3964 15.7747 61.1821 15.7515 61.1635C15.6697 61.0981 15.5879 61.0326 15.506 60.966C15.3435 60.8345 15.1822 60.7001 15.0215 60.565C14.7012 60.2943 14.3851 60.0181 14.0755 59.736C12.8596 58.6296 11.7239 57.4338 10.6806 56.1618C10.5472 55.9991 10.4155 55.8346 10.285 55.6695C10.2204 55.5873 10.1557 55.5039 10.0911 55.421C9.87581 55.1467 10.2311 55.6113 10.0223 55.3316C9.77024 54.9942 9.52114 54.6544 9.27975 54.3087C8.79638 53.6159 8.33911 52.9052 7.90853 52.1776C7.47676 51.4476 7.07168 50.7014 6.69566 49.9403C6.52248 49.5903 6.35522 49.2373 6.1945 48.8813C6.10613 48.6868 6.02013 48.4911 5.9365 48.2954C5.92405 48.2672 5.78645 47.9401 5.89084 48.1904C5.84932 48.0913 5.80899 47.9923 5.76866 47.8926C5.12278 46.2916 4.59968 44.6402 4.20527 42.9576C4.00896 42.1207 3.84527 41.2773 3.71301 40.4279C3.68158 40.228 3.65311 40.0275 3.62464 39.827C3.66319 40.1049 3.61337 39.7399 3.60981 39.7087C3.59617 39.5989 3.58312 39.4884 3.57007 39.378C3.51966 38.9343 3.47755 38.4901 3.44434 38.0453C3.30911 36.245 3.31505 34.4333 3.46213 32.6342C3.49475 32.2266 3.53567 31.8202 3.58312 31.4144C3.59617 31.3039 3.6104 31.194 3.62405 31.0836C3.66912 30.7186 3.58609 31.3291 3.64006 30.9659C3.67268 30.7474 3.70411 30.5289 3.73851 30.311C3.87729 29.4448 4.04988 28.5851 4.25569 27.7333C4.65661 26.0699 5.18862 24.4448 5.82915 22.8607C5.85169 22.8066 5.94481 22.5869 5.85288 22.8036C5.89439 22.7052 5.93591 22.6073 5.97861 22.5089C6.06342 22.3132 6.15002 22.1181 6.23839 21.9242C6.41513 21.537 6.59898 21.1522 6.78996 20.7716C7.17132 20.0134 7.58055 19.2702 8.01647 18.5433C8.4518 17.8187 8.91381 17.111 9.40133 16.4212C9.62374 16.1061 9.85208 15.7945 10.0852 15.4877C9.92503 15.6991 10.1368 15.4217 10.1552 15.3983C10.2204 15.3149 10.285 15.2326 10.3503 15.1504C10.4814 14.9859 10.6136 14.822 10.7476 14.6605C11.817 13.3639 12.9824 12.1477 14.2303 11.0263C14.5167 10.7694 14.8073 10.5172 15.1021 10.2705C15.2628 10.1355 15.4248 10.0016 15.5879 9.87012C15.6697 9.80409 15.7515 9.73926 15.8334 9.67322C15.9419 9.58858 15.9437 9.58678 15.8393 9.66842C15.8945 9.6252 15.9502 9.58258 16.0054 9.53996C16.6447 9.05011 17.3019 8.58308 17.9739 8.14065C19.3848 7.21199 20.864 6.39137 22.3971 5.68902C22.5573 5.61578 22.7186 5.54315 22.8805 5.47171C22.9078 5.45971 23.231 5.32104 22.9843 5.42549C23.0821 5.38407 23.18 5.34325 23.2779 5.30243C23.6717 5.14095 24.0679 4.98607 24.467 4.83899C25.2706 4.54304 26.0855 4.27891 26.9088 4.0472C27.7397 3.81308 28.5807 3.61138 29.427 3.44389C29.8185 3.36585 30.2117 3.29562 30.6055 3.23259C30.8214 3.19717 31.0378 3.16535 31.2537 3.13474C30.9791 3.17376 31.3397 3.12333 31.3706 3.11913C31.5165 3.10112 31.6612 3.08371 31.8077 3.0669C33.5425 2.87 35.2927 2.80937 37.037 2.88561C37.9207 2.92403 38.8038 2.99727 39.6815 3.10592C39.7907 3.11913 39.8998 3.13294 40.0083 3.14734C39.7812 3.11673 39.9716 3.14314 40.016 3.14974C40.2325 3.18276 40.4484 3.21458 40.6643 3.25C41.0931 3.32023 41.5207 3.39947 41.9471 3.48711C43.6291 3.83169 45.2851 4.30893 46.8941 4.91283C47.2594 5.0503 47.6218 5.19377 47.9812 5.34385C48.0097 5.35525 48.3329 5.49392 48.0868 5.38767C48.1847 5.42969 48.2819 5.47171 48.3786 5.51493C48.604 5.61518 48.8294 5.71784 49.053 5.82289C49.7854 6.16686 50.506 6.53845 51.2112 6.93585C51.9443 7.34825 52.6625 7.78948 53.3635 8.25651C53.6838 8.47022 53.9999 8.68993 54.3131 8.91444C54.4839 9.0369 54.6529 9.16057 54.8213 9.28663C54.905 9.34966 54.9892 9.41329 55.0722 9.47632C55.1078 9.50334 55.4524 9.77107 55.2454 9.60839C56.536 10.6247 57.753 11.7347 58.884 12.9293C59.4617 13.5392 60.0162 14.1707 60.5476 14.8226C60.6805 14.9859 60.8116 15.1498 60.9414 15.3149C60.9847 15.3701 61.0274 15.4259 61.0707 15.4811C61.286 15.7561 60.9308 15.2908 61.1395 15.5712C61.4129 15.9368 61.6822 16.3054 61.9426 16.6805C62.8862 18.0426 63.7307 19.475 64.4662 20.9625C64.6394 21.3125 64.8066 21.6655 64.9673 22.0208C65.0551 22.2159 65.1411 22.411 65.2259 22.6073C65.2378 22.6349 65.3748 22.9627 65.271 22.7124C65.3256 22.8444 65.3801 22.9765 65.4329 23.1092C65.7449 23.8908 66.0284 24.6844 66.2822 25.4882C66.8018 27.1342 67.1944 28.8216 67.4571 30.5289C67.4743 30.6376 67.4903 30.7474 67.5064 30.8567C67.5111 30.8879 67.5609 31.2517 67.5241 30.9737C67.5485 31.1574 67.5704 31.3405 67.5918 31.5248C67.6416 31.9678 67.6843 32.4127 67.7175 32.8575C67.7827 33.7207 67.813 34.5857 67.8142 35.4514C67.8154 36.0835 68.3634 36.6892 69.0092 36.6598C69.6557 36.6304 70.2055 36.1291 70.2043 35.4514C70.1925 28.237 67.979 21.0772 63.8244 15.202C59.741 9.4259 54.0225 4.99567 47.4297 2.54524C40.634 0.0197715 33.0247 -0.233556 26.0666 1.77565C19.3985 3.70082 13.3347 7.70003 8.92449 13.1136C4.35829 18.7168 1.59805 25.6136 1.05419 32.8575C0.513882 40.0635 2.24452 47.4016 5.95311 53.5793C9.55317 59.5757 14.9544 64.4658 21.2869 67.3442C27.9478 70.3721 35.4226 71.2162 42.5823 69.7466C49.4076 68.3461 55.7608 64.7659 60.5743 59.682C65.4299 54.5536 68.7198 47.9341 69.7785 40.9075C70.0507 39.0994 70.2019 37.2799 70.2043 35.4514C70.2055 34.8193 69.6539 34.2136 69.0092 34.2424C68.3616 34.2724 67.8154 34.7736 67.8142 35.4514Z" fill="black"/>
</g>
<path d="M47.3324 31.7908C47.0773 32.7224 46.7345 33.6571 46.1029 34.3829C45.4718 35.108 44.4992 35.5925 43.5591 35.4142C42.192 35.1555 41.4169 33.6865 41.0278 32.3353C39.9211 28.4897 40.3807 24.2084 42.278 20.6918C42.6446 20.0141 43.0799 19.3441 43.7198 18.9215C44.3598 18.5001 45.2476 18.3818 45.8787 18.8177C46.368 19.1562 46.6147 19.7469 46.8104 20.3136C48.1473 24.1976 48.308 27.3161 47.3324 31.7908Z" fill="black"/>
<path d="M47.1402 31.7374C46.7986 32.9644 46.2886 34.2724 45.1273 34.9244C43.969 35.5739 42.7626 35.1441 42.0343 34.0924C41.3742 33.1391 41.0836 31.9499 40.8778 30.8213C40.6447 29.5427 40.5819 28.231 40.6768 26.9338C40.7716 25.6359 41.0302 24.3507 41.4436 23.1176C41.8428 21.929 42.3694 20.6096 43.1992 19.6551C43.628 19.1617 44.1961 18.7745 44.8628 18.7462C45.5674 18.7162 46.065 19.128 46.3674 19.7415C46.9 20.8233 47.1907 22.1139 47.4261 23.2935C47.9884 26.1125 47.7428 28.9472 47.1402 31.7374C47.0857 31.9901 47.47 32.0982 47.5246 31.8448C48.1289 29.0462 48.3816 26.2038 47.846 23.3722C47.7144 22.6728 47.5406 21.9831 47.3377 21.3023C47.1503 20.6738 46.97 20.0087 46.6563 19.4312C46.0294 18.2798 44.6896 18.0517 43.6197 18.7474C42.5141 19.4672 41.9021 20.8719 41.4163 22.0539C40.8654 23.3956 40.5095 24.8123 40.3428 26.2542C40.1726 27.7196 40.2088 29.2047 40.4478 30.6604C40.6548 31.9241 40.9727 33.2813 41.723 34.3409C42.4875 35.4214 43.7235 35.9659 44.9897 35.4352C46.4576 34.8205 47.1201 33.2952 47.5246 31.8448C47.5934 31.5945 47.2102 31.4882 47.1402 31.7374Z" fill="black"/>
<path d="M29.8754 31.7908C29.6204 32.7224 29.2776 33.6571 28.6465 34.3829C28.0143 35.108 27.0422 35.5925 26.1028 35.4142C24.7345 35.1555 23.9599 33.6865 23.5709 32.3353C22.4642 28.4897 22.9238 24.2084 24.8217 20.6918C25.187 20.0141 25.6236 19.3441 26.2635 18.9215C26.9034 18.5001 27.7913 18.3818 28.4218 18.8177C28.9116 19.1562 29.1584 19.7469 29.3529 20.3136C30.6903 24.1976 30.8516 27.3161 29.8754 31.7908Z" fill="black"/>
<path d="M29.6832 31.7374C29.3416 32.9644 28.8321 34.2724 27.6696 34.9244C26.5113 35.5739 25.3056 35.1441 24.5773 34.0924C23.9178 33.1391 23.6266 31.9499 23.4208 30.8213C23.1877 29.5427 23.1248 28.231 23.2197 26.9338C23.3146 25.6359 23.5732 24.3507 23.9866 23.1176C24.3857 21.929 24.9118 20.6096 25.7421 19.6551C26.1709 19.1617 26.7391 18.7745 27.4057 18.7462C28.1103 18.7162 28.6079 19.128 28.9098 19.7415C29.443 20.8233 29.7336 22.1139 29.9691 23.2935C30.5319 26.1125 30.2864 28.9472 29.6832 31.7374C29.6286 31.9901 30.0129 32.0982 30.0675 31.8448C30.6719 29.0462 30.9251 26.2038 30.3896 23.3722C30.2567 22.6728 30.0835 21.9831 29.8807 21.3023C29.6933 20.6738 29.513 20.0087 29.1986 19.4312C28.5723 18.2798 27.2325 18.0517 26.1626 18.7474C25.0571 19.4672 24.445 20.8719 23.9599 22.0539C23.4083 23.3956 23.0524 24.8123 22.8852 26.2542C22.7162 27.7196 22.7523 29.2047 22.9902 30.6604C23.1977 31.9241 23.5156 33.2813 24.2653 34.3409C25.0304 35.4214 26.2658 35.9659 27.5332 35.4352C29.0005 34.8205 29.6636 33.2952 30.0675 31.8448C30.1369 31.5945 29.7526 31.4882 29.6832 31.7374Z" fill="black"/>
<path d="M20.3931 43.0669C20.5307 42.8501 20.332 43.1041 20.4963 42.9384C20.7068 42.7259 20.3658 42.984 20.6232 42.8309C20.7246 42.7703 20.8272 42.7049 20.9376 42.6598C20.7466 42.7385 21.0977 42.6244 21.1013 42.6238C21.504 42.5194 22.0538 42.5776 22.4636 42.658C23.0751 42.7781 23.7826 42.484 23.9339 41.814C24.0679 41.2167 23.7553 40.4561 23.0994 40.3277C21.3189 39.9783 19.3932 40.177 18.3292 41.8464C17.9792 42.3957 18.2182 43.1803 18.7574 43.5003C19.3368 43.8424 20.0426 43.6167 20.3931 43.0669Z" fill="black"/>
<path d="M48.779 41.7678C49.047 41.7828 49.2392 41.7984 49.3554 41.8212C49.6045 41.8693 49.859 41.9245 50.0933 42.0241C49.9224 41.9515 50.2552 42.1214 50.2605 42.1238C50.4313 42.2108 50.2753 42.0962 50.4248 42.2414C50.6116 42.4239 50.63 42.4533 50.7688 42.7313C51.06 43.3142 51.8713 43.4799 52.4039 43.1653C52.9899 42.8183 53.1245 42.0962 52.8327 41.5121C52.0493 39.9429 50.3957 39.4404 48.779 39.351C48.1538 39.3162 47.556 39.9321 47.5833 40.5594C47.6141 41.2437 48.1088 41.7306 48.779 41.7678Z" fill="black"/>
<path d="M20.4352 42.4017C20.4132 43.8773 20.7157 45.3492 21.7103 46.4766C22.6284 47.5175 23.9356 47.9467 25.2612 48.0962C25.5245 48.1256 25.7878 48.1478 26.0517 48.173C26.1911 48.1862 26.3293 48.1994 26.4681 48.2144C26.531 48.2216 26.5932 48.2294 26.6561 48.2354C26.9384 48.2649 26.4574 48.2006 26.7148 48.2427C26.9959 48.2883 27.2753 48.3375 27.5511 48.4107C27.7011 48.451 27.8452 48.5032 27.9935 48.55C28.0522 48.568 28.1958 48.6443 27.9621 48.5314C28.0433 48.5704 28.1246 48.6076 28.2047 48.6509C28.2812 48.6929 28.643 48.9588 28.4081 48.7601C28.4994 48.837 28.5801 48.9258 28.6685 49.0056C28.8654 49.1845 28.6139 48.87 28.6815 49.0116C28.7147 49.0801 28.7687 49.1461 28.8084 49.2115C28.8944 49.358 28.9775 49.5057 29.0706 49.648C29.4614 50.2471 29.9246 50.8101 30.4649 51.2778C32.5348 53.0703 35.4789 53.7456 38.0826 52.8338C39.4716 52.3469 40.6625 51.4933 41.5984 50.3491C41.905 49.9745 42.1933 49.5843 42.4738 49.1893C42.5616 49.0639 42.6506 48.9396 42.7401 48.8153C42.9465 48.529 42.6529 48.9162 42.7864 48.7565C42.8558 48.6743 42.9246 48.5926 42.9987 48.514C43.0604 48.4486 43.128 48.3891 43.1897 48.3243C43.2146 48.2985 43.3617 48.1808 43.2063 48.2997C43.3504 48.1892 43.5093 48.095 43.6701 48.0109C43.8705 47.9059 43.4311 48.0788 43.8071 47.9485C43.8901 47.9203 43.9737 47.8945 44.058 47.8717C44.1428 47.8483 44.2288 47.8284 44.3142 47.8104C44.3106 47.811 44.7044 47.742 44.52 47.769C45.4203 47.6363 46.3182 47.6129 47.1942 47.3374C47.7968 47.1483 48.4041 46.907 48.9361 46.5594C50.3797 45.6169 51.1738 44.0814 51.4182 42.3867C51.5072 41.7642 51.2658 41.057 50.5831 40.9004C50.0167 40.7701 49.2095 41.0751 49.1135 41.7444C49.0589 42.1244 48.9848 42.5008 48.8709 42.8682C48.8477 42.942 48.7119 43.3112 48.7979 43.1041C48.7321 43.262 48.6532 43.4156 48.5684 43.5639C48.5043 43.6756 48.432 43.7812 48.3614 43.8893C48.2404 44.0724 48.3531 43.8959 48.381 43.8647C48.3312 43.9205 48.2843 43.9781 48.2339 44.0333C48.1455 44.1294 48.0524 44.2206 47.9546 44.3071C47.9119 44.3449 47.868 44.3803 47.8247 44.4169C47.9664 44.2975 47.9196 44.3449 47.798 44.4271C47.6183 44.5496 47.4285 44.6577 47.2334 44.7537C47.1853 44.7777 47.1361 44.7987 47.088 44.8221C46.8473 44.9392 47.2802 44.7615 47.1159 44.8095C46.9908 44.8467 46.8686 44.9044 46.7447 44.9458C46.1154 45.1589 45.619 45.2405 45.0532 45.2958C44.1285 45.3858 43.2359 45.5029 42.4062 45.9537C41.701 46.3373 41.1827 46.9136 40.7094 47.5505C40.2734 48.1382 39.9057 48.6965 39.398 49.2205C39.3008 49.3214 39.2005 49.4186 39.0973 49.5129C39.0452 49.5597 38.7065 49.8371 38.904 49.6864C38.6638 49.8695 38.4106 50.0352 38.1466 50.1816C38.0173 50.2543 37.8845 50.3197 37.751 50.3839C37.7172 50.4007 37.5239 50.4824 37.6686 50.4223C37.8127 50.3635 37.6194 50.4404 37.585 50.4524C37.2938 50.5562 37.002 50.6487 36.7007 50.7141C36.5749 50.7417 36.4468 50.7597 36.3217 50.7849C36.6165 50.7243 36.1954 50.7969 36.1129 50.8029C35.8253 50.8239 35.537 50.8264 35.2488 50.8101C35.1047 50.8017 34.9611 50.7873 34.8182 50.7711C35.0863 50.8017 34.7625 50.7579 34.6616 50.7375C34.3775 50.6811 34.0982 50.6066 33.8236 50.5142C33.7483 50.4884 33.6724 50.4596 33.5964 50.4326C33.5614 50.4199 33.3693 50.3425 33.5146 50.4025C33.6866 50.4734 33.3948 50.3467 33.3912 50.3455C33.3331 50.3173 33.2744 50.2885 33.2169 50.2591C32.9553 50.1246 32.7027 49.9733 32.4613 49.8058C32.4049 49.7668 32.1131 49.5345 32.3071 49.6972C32.192 49.6005 32.0787 49.5033 31.9684 49.4012C31.7335 49.1803 31.5171 48.942 31.3136 48.6911C31.4631 48.8754 31.2377 48.5818 31.1921 48.5158C31.1132 48.3987 31.0378 48.2787 30.9667 48.1574C30.7793 47.8399 30.5824 47.5325 30.3273 47.2642C29.3926 46.2785 28.035 45.9909 26.7504 45.83C26.4426 45.7916 26.1336 45.7634 25.8252 45.7352C25.6793 45.7214 25.5328 45.7082 25.3875 45.6926C25.2778 45.6812 24.8584 45.6794 25.2173 45.6758C24.9984 45.6782 24.7375 45.5893 24.5322 45.5197C24.4617 45.4957 24.3917 45.4681 24.3223 45.4398C24.5506 45.5317 24.2404 45.3966 24.2185 45.3852C24.069 45.309 23.9314 45.2159 23.7873 45.1307C23.7417 45.1037 23.6058 44.9908 23.7992 45.1487C23.7274 45.0899 23.6568 45.0292 23.5898 44.9644C23.5281 44.9056 23.2405 44.5628 23.4178 44.8029C23.3283 44.6817 23.2476 44.5562 23.1758 44.4241C23.1474 44.3713 23.1225 44.3161 23.0934 44.2633C22.9884 44.0688 23.1171 44.3917 23.0887 44.2561C23.0572 44.106 22.9867 43.9559 22.9487 43.8052C22.9285 43.7266 22.9107 43.6473 22.8947 43.5675C22.8888 43.5345 22.8384 43.2589 22.8668 43.43C22.8989 43.6215 22.8526 43.2848 22.8526 43.283C22.8443 43.1935 22.8384 43.1053 22.8336 43.0158C22.823 42.8111 22.8218 42.6064 22.8247 42.4017C22.8342 41.7696 22.2684 41.1645 21.6303 41.1933C20.9743 41.2233 20.4453 41.724 20.4352 42.4017Z" fill="black"/>
<mask id="mask1_231_43" style="mask-type:luminance" maskUnits="userSpaceOnUse" x="0" y="0" width="71" height="71">
<path d="M0.86792 0.377014H70.2043V70.4538H0.86792V0.377014Z" fill="white"/>
</mask>
<g mask="url(#mask1_231_43)">
<path d="M67.8142 35.4514C67.813 36.3542 67.7792 37.2565 67.7086 38.1569C67.6742 38.6012 67.6303 39.0454 67.5787 39.4884C67.5698 39.5622 67.5609 39.6355 67.552 39.7087C67.5485 39.7399 67.4986 40.1049 67.5366 39.827C67.501 40.0821 67.4642 40.3372 67.4233 40.5918C67.1523 42.2786 66.7543 43.9438 66.233 45.5689C65.9708 46.3877 65.6767 47.1963 65.3528 47.9923C65.3416 48.0199 65.2034 48.3477 65.309 48.0991C65.2674 48.197 65.2259 48.2954 65.1832 48.3933C65.1126 48.5566 65.0409 48.7192 64.9673 48.8813C64.777 49.3021 64.5789 49.7182 64.3713 50.1306C63.6269 51.6127 62.7741 53.039 61.8216 54.3951C61.2581 55.1977 61.0334 55.4919 60.4148 56.2422C59.8798 56.8906 59.3205 57.5191 58.7399 58.1248C58.1824 58.7059 57.6053 59.2672 57.0093 59.8056C56.6979 60.0878 56.3818 60.3627 56.0597 60.6322C55.9263 60.7445 55.791 60.8561 55.6558 60.966C55.574 61.0326 55.4921 61.0981 55.4103 61.1635C55.3551 61.2073 55.3006 61.2505 55.2454 61.2938C55.3498 61.2127 55.3474 61.2145 55.2389 61.298C53.9145 62.3107 52.5285 63.2339 51.073 64.0444C50.35 64.4466 49.6122 64.8223 48.8614 65.1687C48.6686 65.2582 48.4753 65.3452 48.2819 65.4304C48.2541 65.4425 47.9308 65.5817 48.1776 65.4773C48.0797 65.5181 47.9812 65.5589 47.8834 65.5997C47.4902 65.7618 47.094 65.9161 46.6942 66.0638C45.1142 66.6449 43.4904 67.1047 41.841 67.4379C41.4145 67.5237 40.9857 67.6011 40.5563 67.6702C40.3766 67.6996 40.1963 67.7254 40.016 67.753C39.6572 67.807 40.2604 67.7236 39.8998 67.7686C39.7545 67.7872 39.6092 67.8058 39.4633 67.8227C38.5831 67.9259 37.6994 67.9937 36.814 68.0262C35.0703 68.0898 33.3218 68.0183 31.5888 67.81C31.4803 67.7968 31.3706 67.783 31.262 67.7686C30.9014 67.7236 31.5046 67.807 31.1458 67.753C30.9293 67.72 30.7134 67.6882 30.4975 67.6528C30.0687 67.5819 29.6405 67.5033 29.2147 67.4156C28.3695 67.2428 27.5315 67.0357 26.7024 66.7967C25.9141 66.5692 25.136 66.3117 24.3674 66.0265C23.9682 65.8783 23.5732 65.7228 23.18 65.5589C23.1527 65.5475 22.8283 65.4088 23.0744 65.5151C22.9938 65.4797 22.9125 65.4449 22.8319 65.4088C22.6219 65.3164 22.4125 65.2215 22.205 65.1249C20.6772 64.4123 19.2027 63.5827 17.7989 62.6456C17.1293 62.199 16.4757 61.7284 15.8393 61.2343C16.0493 61.3964 15.7747 61.1821 15.7515 61.1635C15.6697 61.0981 15.5879 61.0326 15.506 60.966C15.3435 60.8345 15.1822 60.7001 15.0215 60.565C14.7012 60.2943 14.3851 60.0181 14.0755 59.736C12.8596 58.6296 11.7239 57.4338 10.6806 56.1618C10.5472 55.9991 10.4155 55.8346 10.285 55.6695C10.2204 55.5873 10.1557 55.5039 10.0911 55.421C9.87581 55.1467 10.2311 55.6113 10.0223 55.3316C9.77024 54.9942 9.52114 54.6544 9.27975 54.3087C8.79638 53.6159 8.33911 52.9052 7.90853 52.1776C7.47676 51.4476 7.07168 50.7014 6.69566 49.9403C6.52248 49.5903 6.35522 49.2373 6.1945 48.8813C6.10613 48.6868 6.02013 48.4911 5.9365 48.2954C5.92405 48.2672 5.78645 47.9401 5.89084 48.1904C5.84932 48.0913 5.80899 47.9923 5.76866 47.8926C5.12278 46.2916 4.59968 44.6402 4.20527 42.9576C4.00896 42.1207 3.84527 41.2773 3.71301 40.4279C3.68158 40.228 3.65311 40.0275 3.62464 39.827C3.66319 40.1049 3.61337 39.7399 3.60981 39.7087C3.59617 39.5989 3.58312 39.4884 3.57007 39.378C3.51966 38.9343 3.47755 38.4901 3.44434 38.0453C3.30911 36.245 3.31505 34.4333 3.46213 32.6342C3.49475 32.2266 3.53567 31.8202 3.58312 31.4144C3.59617 31.3039 3.6104 31.194 3.62405 31.0836C3.66912 30.7186 3.58609 31.3291 3.64006 30.9659C3.67268 30.7474 3.70411 30.5289 3.73851 30.311C3.87729 29.4448 4.04988 28.5851 4.25569 27.7333C4.65661 26.0699 5.18862 24.4448 5.82915 22.8607C5.85169 22.8066 5.94481 22.5869 5.85288 22.8036C5.89439 22.7052 5.93591 22.6073 5.97861 22.5089C6.06342 22.3132 6.15002 22.1181 6.23839 21.9242C6.41513 21.537 6.59898 21.1522 6.78996 20.7716C7.17132 20.0134 7.58055 19.2702 8.01647 18.5433C8.4518 17.8187 8.91381 17.111 9.40133 16.4212C9.62374 16.1061 9.85208 15.7945 10.0852 15.4877C9.92503 15.6991 10.1368 15.4217 10.1552 15.3983C10.2204 15.3149 10.285 15.2326 10.3503 15.1504C10.4814 14.9859 10.6136 14.822 10.7476 14.6605C11.817 13.3639 12.9824 12.1477 14.2303 11.0263C14.5167 10.7694 14.8073 10.5172 15.1021 10.2705C15.2628 10.1355 15.4248 10.0016 15.5879 9.87012C15.6697 9.80409 15.7515 9.73926 15.8334 9.67322C15.9419 9.58858 15.9437 9.58678 15.8393 9.66842C15.8945 9.6252 15.9502 9.58258 16.0054 9.53996C16.6447 9.05011 17.3019 8.58308 17.9739 8.14065C19.3848 7.21199 20.864 6.39137 22.3971 5.68902C22.5573 5.61578 22.7186 5.54315 22.8805 5.47171C22.9078 5.45971 23.231 5.32104 22.9843 5.42549C23.0821 5.38407 23.18 5.34325 23.2779 5.30243C23.6717 5.14095 24.0679 4.98607 24.467 4.83899C25.2706 4.54304 26.0855 4.27891 26.9088 4.0472C27.7397 3.81308 28.5807 3.61138 29.427 3.44389C29.8185 3.36585 30.2117 3.29562 30.6055 3.23259C30.8214 3.19717 31.0378 3.16535 31.2537 3.13474C30.9791 3.17376 31.3397 3.12333 31.3706 3.11913C31.5165 3.10112 31.6612 3.08371 31.8077 3.0669C33.5425 2.87 35.2927 2.80937 37.037 2.88561C37.9207 2.92403 38.8038 2.99727 39.6815 3.10592C39.7907 3.11913 39.8998 3.13294 40.0083 3.14734C39.7812 3.11673 39.9716 3.14314 40.016 3.14974C40.2325 3.18276 40.4484 3.21458 40.6643 3.25C41.0931 3.32023 41.5207 3.39947 41.9471 3.48711C43.6291 3.83169 45.2851 4.30893 46.8941 4.91283C47.2594 5.0503 47.6218 5.19377 47.9812 5.34385C48.0097 5.35525 48.3329 5.49392 48.0868 5.38767C48.1847 5.42969 48.2819 5.47171 48.3786 5.51493C48.604 5.61518 48.8294 5.71784 49.053 5.82289C49.7854 6.16686 50.506 6.53845 51.2112 6.93585C51.9443 7.34825 52.6625 7.78948 53.3635 8.25651C53.6838 8.47022 53.9999 8.68993 54.3131 8.91444C54.4839 9.0369 54.6529 9.16057 54.8213 9.28663C54.905 9.34966 54.9892 9.41329 55.0722 9.47632C55.1078 9.50334 55.4524 9.77107 55.2454 9.60839C56.536 10.6247 57.753 11.7347 58.884 12.9293C59.4617 13.5392 60.0162 14.1707 60.5476 14.8226C60.6805 14.9859 60.8116 15.1498 60.9414 15.3149C60.9847 15.3701 61.0274 15.4259 61.0707 15.4811C61.286 15.7561 60.9308 15.2908 61.1395 15.5712C61.4129 15.9368 61.6822 16.3054 61.9426 16.6805C62.8862 18.0426 63.7307 19.475 64.4662 20.9625C64.6394 21.3125 64.8066 21.6655 64.9673 22.0208C65.0551 22.2159 65.1411 22.411 65.2259 22.6073C65.2378 22.6349 65.3748 22.9627 65.271 22.7124C65.3256 22.8444 65.3801 22.9765 65.4329 23.1092C65.7449 23.8908 66.0284 24.6844 66.2822 25.4882C66.8018 27.1342 67.1944 28.8216 67.4571 30.5289C67.4743 30.6376 67.4903 30.7474 67.5064 30.8567C67.5111 30.8879 67.5609 31.2517 67.5241 30.9737C67.5485 31.1574 67.5704 31.3405 67.5918 31.5248C67.6416 31.9678 67.6843 32.4127 67.7175 32.8575C67.7827 33.7207 67.813 34.5857 67.8142 35.4514C67.8154 36.0835 68.3634 36.6892 69.0092 36.6598C69.6557 36.6304 70.2055 36.1291 70.2043 35.4514C70.1925 28.237 67.979 21.0772 63.8244 15.202C59.741 9.4259 54.0225 4.99567 47.4297 2.54524C40.634 0.0197715 33.0247 -0.233556 26.0666 1.77565C19.3985 3.70082 13.3347 7.70003 8.92449 13.1136C4.35829 18.7168 1.59805 25.6136 1.05419 32.8575C0.513882 40.0635 2.24452 47.4016 5.95311 53.5793C9.55317 59.5757 14.9544 64.4658 21.2869 67.3442C27.9478 70.3721 35.4226 71.2162 42.5823 69.7466C49.4076 68.3461 55.7608 64.7659 60.5743 59.682C65.4299 54.5536 68.7198 47.9341 69.7785 40.9075C70.0507 39.0994 70.2019 37.2799 70.2043 35.4514C70.2055 34.8193 69.6539 34.2136 69.0092 34.2424C68.3616 34.2724 67.8154 34.7736 67.8142 35.4514Z" fill="black"/>
</g>
</g>
<defs>
<clipPath id="clip0_231_43">
<rect width="71" height="71" fill="white"/>
</clipPath>
</defs>
</svg>
