<svg width="866" height="152" viewBox="0 0 866 152" fill="none" xmlns="http://www.w3.org/2000/svg">
<g clip-path="url(#clip0_441_38)">
<path d="M-0.00268555 32.2812C-0.00268555 34.7603 1.99731 36.3593 4.32023 36.3593C12.6379 36.3593 17.039 26.6822 28.3202 26.6822H28.5598V57.401C28.5598 91.7187 21.2786 94.7603 21.2786 107.719C21.2786 115.562 30.0806 115 33.44 115H54.0806C57.44 115 66.2369 115.562 66.2369 107.719C66.2369 94.7603 58.9609 91.7187 58.9609 57.401V26.6822H60.1588C71.44 26.6822 75.8359 36.3593 84.1588 36.3593C86.4765 36.3593 88.4765 34.7603 88.4765 32.2812V7.95825C88.4765 3.07804 85.2004 -0.197998 80.3202 -0.197998H8.15877C3.27856 -0.197998 -0.00268555 3.07804 -0.00268555 7.95825V32.2812Z" fill="black"/>
<path d="M130 116.198C154 116.198 167.917 99.7187 167.917 74.9218C167.917 50.2812 154 33.802 130 33.802C106 33.802 92.0784 50.2812 92.0784 74.9218C92.0784 99.7187 106 116.198 130 116.198ZM122.88 75.078C122.88 62.9999 125.761 54.9999 130 54.9999C134.24 54.9999 137.12 62.9999 137.12 75.078C137.12 87.078 134.24 95.078 130 95.078C125.761 95.078 122.88 87.078 122.88 75.078Z" fill="black"/>
<path d="M170.72 42.1197C170.72 55.7187 177.997 70.5989 177.997 94.1978C177.997 116.198 170.72 130.521 170.72 143.078C170.72 150.76 179.517 150.198 182.877 150.198H207.356C210.72 150.198 219.517 150.76 219.517 143.078C219.517 133.078 208.637 126.042 208.637 110.599C211.517 113.958 215.679 116.198 220.72 116.198C238.481 116.198 251.439 102.198 251.439 74.9999C251.439 40.3593 224.559 34.9999 214.158 34.9999H182.877C179.517 34.9999 170.72 34.4374 170.72 42.1197ZM206.799 75.078C206.799 62.9999 209.679 54.9999 213.918 54.9999C218.158 54.9999 221.038 62.9999 221.038 75.078C221.038 87.078 218.158 95.078 213.918 95.078C209.679 95.078 206.799 87.078 206.799 75.078Z" fill="black"/>
<path d="M285.437 107.719C285.437 115.562 294.239 115 297.598 115H318.239C321.598 115 330.401 115.562 330.401 107.719C330.401 97.401 323.916 88.1198 323.916 75C323.916 73.5625 324.557 72.0417 326.64 72.0417C341.437 72.0417 376.401 69.4792 376.401 34.7604C376.401 12.6823 361.119 -0.197926 333.52 -0.197926H297.598C294.239 -0.197926 285.437 -0.760426 285.437 7.07812C285.437 20.0417 292.718 23.0781 292.718 57.401C292.718 91.7187 285.437 94.7604 285.437 107.719ZM330.64 22.9219C342.718 23.3177 345.036 29.7187 345.036 33.401C345.036 37.1614 342.718 44.1198 330.64 43.8802C327.119 43.8021 324 43 324 39.7187V27.0781C324 23.8021 327.119 22.8385 330.64 22.9219Z" fill="black"/>
<path d="M376.4 107.88C376.4 115.563 385.197 115 388.556 115H409.197C412.556 115 421.358 115.563 421.358 107.88C421.358 95.1615 414.077 97.4792 414.077 55.8021C414.077 22.4376 421.358 19.4011 421.358 6.92194C421.358 -0.760352 412.556 -0.197853 409.197 -0.197853H388.556C385.197 -0.197853 376.4 -0.760352 376.4 6.92194C376.4 19.4011 383.676 22.4376 383.676 55.8021C383.676 97.4792 376.4 95.1615 376.4 107.88Z" fill="black"/>
<path d="M424.158 74.9999C424.158 99.6405 438.72 116.198 456.476 116.198C467.517 116.198 469.038 111.479 473.679 111.479C477.997 111.479 477.517 116.198 484.08 116.198C495.356 116.198 504.319 111.318 504.319 104.198C504.319 96.9999 498.236 93.3176 498.236 74.9999C498.236 57.9582 503.679 50.2812 503.679 42.7603C503.679 35.078 496.72 33.802 493.356 33.802C489.595 33.802 486.72 34.9999 478.476 34.9999C474.476 34.9999 471.356 33.7187 461.038 33.802C449.356 33.8801 424.158 41.6405 424.158 74.9999ZM461.679 54.9218C465.918 54.9218 468.799 62.9218 468.799 74.9999C468.799 86.9999 465.918 94.9999 461.679 94.9999C457.439 94.9999 454.559 86.9999 454.559 74.9999C454.559 62.9218 457.439 54.9218 461.679 54.9218Z" fill="black"/>
<path d="M504.236 132.521C504.236 143.719 510.319 152.198 523.918 152.198C534.397 152.198 550.319 146.682 556.876 120.438C559.356 110.521 566.475 94.8385 572.798 81.5625C585.84 54.1979 592.72 49.7187 592.72 42.0417C592.72 37.8021 589.517 35 585.278 35H566.72C562.236 35 556.397 36.1198 556.397 42.2813C556.397 45.7187 558.475 49.1615 558.475 53.6406C558.475 59.7187 555.439 66.4375 552.798 74.2813C550.158 66.4375 547.116 59.7187 547.116 53.6406C547.116 49.1615 549.199 45.7187 549.199 42.2813C549.199 36.1198 543.356 35 538.876 35H513.356C509.116 35 505.918 37.8021 505.918 42.0417C505.918 53.3177 514.158 57 525.84 81.5625C532.158 94.8385 534.559 107.958 540.96 116.198C539.918 120.599 535.996 122.76 531.278 122.76C524.08 122.76 521.356 118.042 513.356 118.042C506.72 118.042 504.236 127.161 504.236 132.521Z" fill="black"/>
<path d="M595.518 74.9999C595.518 95.5624 610.638 116.198 638.716 116.198C661.356 116.198 671.518 108.042 671.518 100.76C671.518 96.1197 668.476 87.9583 661.2 87.9583C654.476 87.9583 651.278 94.9999 639.836 94.9999C636.559 94.9999 631.518 93.9583 631.518 91.401C631.518 90.4374 632.237 90.2812 633.596 90.2812C635.997 90.2812 640.32 90.9218 645.919 89.1614C657.679 85.4791 670.32 77.6405 670.32 58.9999C670.32 42.1978 655.117 33.802 638.716 33.802C609.117 33.802 595.518 54.6822 595.518 74.9999ZM626.398 66.5208C629.117 59.5624 633.518 54.9999 637.518 54.9999C641.518 54.9999 642.398 59.5624 639.679 66.5208C636.955 73.401 632.476 77.9583 628.476 77.9583C624.476 77.9583 623.679 73.401 626.398 66.5208Z" fill="black"/>
<path d="M672.72 46.2812C672.72 54.4374 680.559 58.6822 680.559 79.802C680.559 94.1197 673.355 100.359 673.355 107.88C673.355 115.562 680.876 115 684.236 115H707.439C710.798 115 718.319 115.562 718.319 107.88C718.319 100.359 711.038 94.1197 711.038 79.802C711.116 72.6822 711.038 58.9999 719.277 58.9999C727.918 58.9999 720.48 74.9999 735.038 74.9999C746.397 74.9999 753.517 70.1978 753.517 54.9218C753.517 41.7187 743.996 33.802 733.439 33.802C724.798 33.802 716.397 38.1978 710.319 42.6822C708.876 35.8801 705.517 33.802 702.48 33.802C700.397 33.802 691.6 36.3593 687.678 37.401C680.48 39.3176 672.72 40.7603 672.72 46.2812Z" fill="black"/>
<path d="M802.479 95.8801C802.479 98.5208 800.557 100.042 797.599 100.12C786.396 100.12 780.797 87.2395 768.24 87.2395C761.198 87.2395 756.479 91.802 756.479 98.9999C756.479 112.599 774 116.198 791.838 116.198C810.958 116.198 828.797 108.682 828.797 88.2812C828.797 58.5989 781.755 63.4791 781.755 54.1197C781.755 51.5624 784.24 51.078 786.078 51.078C794.557 51.078 799.677 60.9999 814.396 60.9999C821.198 60.9999 826.24 57.4791 826.24 50.6822C826.24 36.8385 803.677 33.802 790.719 33.802C772.719 33.802 756.318 42.0416 756.318 58.9999C756.318 92.5989 802.479 84.4374 802.479 95.8801Z" fill="black"/>
<path d="M834.798 100.838C834.798 109.318 841.678 116.198 850.157 116.198C858.719 116.198 865.6 109.318 865.6 100.838C865.6 92.2812 858.719 85.401 850.157 85.401C841.678 85.401 834.798 92.2812 834.798 100.838ZM834.798 49.2395C834.798 57.7187 841.678 64.5989 850.157 64.5989C858.719 64.5989 865.6 57.7187 865.6 49.2395C865.6 40.6822 858.719 33.802 850.157 33.802C841.678 33.802 834.798 40.6822 834.798 49.2395Z" fill="black"/>
</g>
<defs>
<clipPath id="clip0_441_38">
<rect width="866" height="152" fill="white"/>
</clipPath>
</defs>
</svg>
