<svg width="73" height="75" viewBox="0 0 73 75" fill="none" xmlns="http://www.w3.org/2000/svg">
<path d="M36.7877 4.22549C30.1438 4.22549 26.2692 4.58918 33.0719 27.2185L34.8817 32.6064L36.7877 32.3155L38.6943 32.6064L40.5034 27.2185C47.3067 4.5912 43.4322 4.22549 36.7877 4.22549Z" fill="#F5F1DF"/>
<mask id="mask0_370_67" style="mask-type:luminance" maskUnits="userSpaceOnUse" x="29" y="4" width="16" height="29">
<path d="M29.691 4.5174H43.8437V32.388H29.691V4.5174Z" fill="white" stroke="white"/>
</mask>
<g mask="url(#mask0_370_67)">
<path d="M38.8236 32.8105L36.7875 32.5L34.7521 32.8105L32.8914 27.2704C30.9319 20.753 29.8045 15.8998 29.4459 12.4347C29.1102 9.19386 29.4201 7.08246 30.4228 5.79138C31.0287 5.01013 31.8775 4.52993 33.0934 4.28074C34.1588 4.06253 35.3976 4.04434 36.7889 4.04434C38.1802 4.04434 39.4183 4.06253 40.4844 4.28074C41.7003 4.52993 42.5505 5.01013 43.1557 5.79138C44.1563 7.08246 44.4669 9.19386 44.1319 12.4347C43.7733 15.8998 42.6459 20.753 40.6864 27.2704V27.2758L38.8236 32.8105ZM36.7875 32.1323L38.5653 32.403L40.3236 27.1653C42.2776 20.6708 43.3994 15.8399 43.7559 12.3977C44.0769 9.29555 43.7824 7.20638 42.8541 6.00892C41.6989 4.51848 39.7024 4.40735 36.7882 4.40735C33.8747 4.40735 31.8782 4.51915 30.723 6.00892C29.794 7.20638 29.4988 9.29555 29.8212 12.3977C30.1777 15.8399 31.3003 20.6708 33.2528 27.1653L35.0104 32.403L36.7875 32.1323Z" fill="black"/>
</g>
<path d="M57.4755 10.7294C52.1011 6.94908 48.7433 5.04108 40.5033 27.2171L38.6942 32.6064L40.4135 33.4564L41.7791 34.7757L46.5177 31.4453C65.7649 17.0097 62.8507 14.5104 57.4755 10.7294Z" fill="#F5F1DF"/>
<path d="M41.7603 35.0135L40.3014 33.6038L38.4666 32.6973L40.3272 27.1565C42.7004 20.7684 44.7358 16.2015 46.5505 13.1937C48.2475 10.3812 49.7809 8.84966 51.3748 8.37485C52.34 8.08727 53.3177 8.18156 54.4548 8.67186C55.4492 9.10087 56.4624 9.7912 57.5884 10.5826C58.7137 11.3739 59.7053 12.0932 60.4344 12.8751C61.2672 13.7688 61.662 14.6397 61.6774 15.6169C61.7038 17.2313 60.6718 19.115 58.4317 21.5463C56.0369 24.146 52.177 27.4306 46.6327 31.5881L46.6278 31.5914L41.7603 35.0135ZM38.9227 32.5148L40.525 33.3062L41.7986 34.5366L46.4029 31.3012C51.9277 27.1572 55.7702 23.8887 58.1496 21.3039C60.2937 18.9776 61.3243 17.1195 61.2999 15.6223C61.2707 13.7601 59.722 12.5323 57.3656 10.8769C55.0084 9.22075 53.3253 8.17415 51.4849 8.72237C50.0065 9.16283 48.4989 10.6849 46.875 13.3769C45.0715 16.3652 43.0465 20.9112 40.6816 27.2764L38.9227 32.5148Z" fill="black"/>
<path d="M70.2612 27.76C68.2084 21.6454 66.6534 18.191 46.5177 31.4453L41.7811 34.7757L42.6557 36.4406L42.9594 38.2846H48.8143C73.1525 37.5552 72.3148 33.8746 70.2612 27.76Z" fill="#F5F1DF"/>
<path d="M48.815 38.4665H42.7985L42.474 36.4972L41.5402 34.7199L46.4111 31.2952C52.2111 27.4778 56.6322 24.9408 59.9266 23.5392C63.0073 22.2306 65.1785 21.8616 66.7572 22.3849C67.7126 22.7007 68.4479 23.3338 69.067 24.3757C69.6115 25.289 70.0112 26.4231 70.4416 27.7034C70.8712 28.9844 71.2368 30.13 71.351 31.1773C71.4819 32.3741 71.2723 33.3035 70.6916 34.1029C69.732 35.4237 67.7536 36.3612 64.4648 37.0535C60.9482 37.7943 55.83 38.2564 48.8191 38.4665H48.815ZM43.1181 38.1035H48.8094C55.7966 37.8934 60.8897 37.434 64.3833 36.6986C67.5308 36.0359 69.4924 35.1186 70.3831 33.8942C71.4903 32.3694 70.984 30.4977 70.0822 27.8159C69.1805 25.1341 68.4563 23.3318 66.6346 22.7283C65.1695 22.2441 63.0261 22.6192 60.0771 23.8719C56.8035 25.264 52.4033 27.7896 46.6235 31.5962L42.0193 34.8317L42.8347 36.3834L43.1181 38.1035Z" fill="black"/>
<path d="M70.2613 48.8099C72.3148 42.6953 73.1539 39.0147 48.8108 38.2846H42.9573L42.6537 40.1293L41.7791 41.7942L46.5177 45.1246C66.6535 58.3789 68.2084 54.9246 70.2613 48.8099Z" fill="#F5F1DF"/>
<path d="M65.219 54.4141C63.8368 54.4141 62.1105 53.9595 59.926 53.0307C56.6309 51.6292 52.2105 49.0921 46.4105 45.2748L46.4057 45.2714L41.5396 41.8501L42.4734 40.0721L42.7986 38.1035H48.8192C55.8301 38.3136 60.9483 38.7756 64.4649 39.5164C67.7537 40.2088 69.7321 41.1463 70.6916 42.467C71.2724 43.2664 71.4806 44.1959 71.3511 45.392C71.239 46.4399 70.8713 47.5855 70.4417 48.8658C70.0113 50.1468 69.6116 51.281 69.0671 52.1936C68.4466 53.2361 67.7126 53.8692 66.7573 54.1851C66.2963 54.3373 65.7865 54.4141 65.219 54.4141ZM46.6236 44.9758C52.4033 48.7803 56.8043 51.3059 60.0764 52.698C63.0255 53.9521 65.1703 54.3258 66.634 53.8416C68.4557 53.2382 69.182 51.4352 70.083 48.752C70.9841 46.0709 71.4904 44.1986 70.3832 42.6744C69.4939 41.45 67.5316 40.5327 64.3834 39.87C60.8898 39.1346 55.796 38.6752 48.8095 38.4651H43.1182L42.8348 40.1845L42.0193 41.7369L46.6236 44.9758Z" fill="black"/>
<path d="M57.4755 65.8405C62.8507 62.0595 65.7649 59.5609 46.5156 45.1253L41.7791 41.7949L40.4135 43.1149L38.6942 43.9642L40.5033 49.3528C48.7433 71.5275 52.1011 69.6188 57.4755 65.8405Z" fill="#F5F1DF"/>
<path d="M52.4701 68.356C52.0962 68.356 51.7313 68.3021 51.3748 68.1944C49.7801 67.7196 48.2475 66.1881 46.5505 63.3756C44.7358 60.3677 42.7003 55.8008 40.3272 49.4127V49.4073L38.4679 43.8719L40.3035 42.9647L41.7623 41.5558L46.6305 44.9805C52.1742 49.1386 56.0341 52.4232 58.4295 55.0229C60.669 57.4535 61.701 59.338 61.6752 60.9523C61.6592 61.9289 61.2644 62.8004 60.4315 63.6934C59.7025 64.476 58.7109 65.1953 57.5855 65.9867C56.4602 66.778 55.4471 67.4677 54.4527 67.8974C53.7424 68.2031 53.092 68.356 52.4701 68.356ZM40.6816 49.2929C43.0478 55.6573 45.0721 60.2041 46.875 63.1917C48.4988 65.8816 50.0065 67.4064 51.4848 67.8469C51.8093 67.9439 52.1415 67.9923 52.4806 67.9923C53.961 67.9923 55.4373 67.0474 57.3641 65.691C59.7213 64.0336 61.2713 62.8078 61.2992 60.9449C61.3229 59.4484 60.2923 57.5896 58.1489 55.2634C55.7695 52.6825 51.927 49.4107 46.4021 45.2681L41.7972 42.0313L40.5235 43.2611L38.9212 44.0531L40.6816 49.2929Z" fill="black"/>
<path d="M36.7877 72.3444C43.4322 72.3444 47.3067 71.9787 40.5034 49.3514L38.6943 43.9635L36.7877 44.2538L34.8817 43.9635L33.0719 49.3514C26.2693 71.9787 30.1438 72.3444 36.7877 72.3444Z" fill="#F5F1DF"/>
<path d="M36.7876 72.5262C35.3977 72.5262 34.1582 72.5081 33.0928 72.2898C31.8762 72.0407 31.026 71.5605 30.4216 70.7792C29.4202 69.4881 29.1103 67.3767 29.4446 64.1359C29.8032 60.6708 30.9306 55.8176 32.8908 49.3002V49.2948L34.7494 43.7594L36.7855 44.0699L38.821 43.7594L40.6837 49.2995C42.6439 55.8169 43.7713 60.6701 44.1299 64.1352C44.4656 67.3761 44.1557 69.4874 43.153 70.7779C42.5471 71.5598 41.6983 72.04 40.4825 72.2892C39.4177 72.5081 38.1775 72.5262 36.7876 72.5262ZM33.2515 49.4053C31.2983 55.8998 30.1764 60.7307 29.8199 64.1729C29.4982 67.275 29.7935 69.3642 30.721 70.5617C31.8769 72.0521 33.8734 72.1632 36.7869 72.1632C39.7011 72.1632 41.6976 72.0514 42.8528 70.5617C43.7818 69.3642 44.0763 67.2744 43.7546 64.1729C43.3981 60.7307 42.2756 55.8998 40.3223 49.4053L38.5633 44.1675L36.7862 44.4383L35.0091 44.1675L33.2515 49.4053Z" fill="black"/>
<path d="M16.0997 65.8405C21.4748 69.6208 24.8327 71.5288 33.0719 49.3528L34.8817 43.9642L33.1624 43.1149L31.7962 41.7949L27.0603 45.1253C7.81103 59.5602 10.7253 62.0595 16.0997 65.8405Z" fill="#F5F1DF"/>
<path d="M21.1058 68.356C20.4825 68.356 19.8335 68.2045 19.1226 67.8974C18.1282 67.4677 17.1157 66.778 15.9897 65.9867C14.8637 65.1953 13.8721 64.476 13.1437 63.6955C12.3109 62.8017 11.916 61.9309 11.9 60.9537C11.8742 59.34 12.9055 57.4556 15.1457 55.0249C17.5412 52.4253 21.4003 49.14 26.9447 44.9825L26.9496 44.9791L31.8157 41.5565L33.2745 42.9654L35.1094 43.8726L33.2488 49.4134C30.8756 55.8015 28.8402 60.3684 27.0255 63.3762C25.3285 66.1887 23.7951 67.7203 22.2011 68.1951C21.8446 68.3021 21.479 68.356 21.1058 68.356ZM27.1724 45.2701C21.6475 49.4141 17.8058 52.6825 15.4263 55.2647C13.2823 57.5916 12.2517 59.4498 12.276 60.9463C12.3053 62.8092 13.8533 64.0363 16.2104 65.6924C18.1379 67.0474 19.6149 67.9937 21.0939 67.9937C21.4338 67.9944 21.7652 67.9459 22.0897 67.8482C23.5681 67.4078 25.0757 65.8857 26.6996 63.193C28.5031 60.2054 30.5281 55.6594 32.8936 49.2942L34.6519 44.0558L33.0496 43.2638L31.776 42.034L27.1724 45.2701Z" fill="black"/>
<path d="M3.31607 48.8099C5.36891 54.9246 6.92596 58.3789 27.0617 45.1246L31.7983 41.7942L30.9236 40.1293L30.6186 38.2846H24.763C0.423421 39.0147 1.26113 42.6953 3.31607 48.8099Z" fill="#F5F1DF"/>
<path d="M8.35698 54.4141C7.78945 54.4141 7.27972 54.3373 6.81943 54.1851C5.86403 53.8692 5.12938 53.2361 4.50963 52.1936C3.96578 51.281 3.56538 50.1468 3.13573 48.8658C2.70538 47.5855 2.3391 46.4399 2.22699 45.392C2.09607 44.1959 2.30567 43.2664 2.88643 42.467C3.84601 41.1463 5.82434 40.2088 9.11321 39.5164C12.6298 38.7756 17.748 38.3136 24.7589 38.1035H30.7774L31.1012 40.0721L32.035 41.8501L27.1648 45.2748C21.3648 49.0921 16.9437 51.6292 13.6486 53.0307C11.4655 53.9595 9.73993 54.4141 8.35698 54.4141ZM3.49296 48.7547C4.39403 51.4366 5.11963 53.2395 6.94129 53.8436C8.40642 54.3285 10.5498 53.9527 13.4988 52.7C16.7724 51.3086 21.1719 48.7823 26.9517 44.9785L31.5566 41.743L30.7398 40.1859L30.4578 38.4665H24.7665C17.7793 38.6766 12.6862 39.1359 9.1926 39.8714C6.04509 40.5341 4.08346 41.4514 3.19283 42.6758C2.08493 44.1999 2.59188 46.0722 3.49296 48.7547Z" fill="black"/>
<path d="M3.31607 27.76C1.26113 33.8746 0.423421 37.5552 24.763 38.2846H30.6186L30.9216 36.4406L31.7962 34.7757L27.0603 31.4453C6.92248 18.191 5.36752 21.6454 3.31607 27.76Z" fill="#F5F1DF"/>
<path d="M30.7773 38.4664H24.7574C17.7465 38.2563 12.629 37.7943 9.11241 37.0534C5.82354 36.3631 3.84451 35.4236 2.88493 34.1029C2.30418 33.3028 2.09597 32.374 2.22549 31.1772C2.3383 30.13 2.70528 28.9843 3.13562 27.7034C3.56527 26.4231 3.96567 25.2889 4.50952 24.3756C5.12997 23.3338 5.86393 22.7007 6.81932 22.3848C8.39726 21.8615 10.5685 22.2292 13.6498 23.5392C16.945 24.9407 21.3654 27.4777 27.1653 31.2951L27.1702 31.2985L32.0363 34.7198L31.1025 36.4971L30.7773 38.4664ZM24.7664 38.1034H30.4577L30.7397 36.3833L31.5545 34.8316L26.9516 31.5961C21.1718 27.7916 16.7709 25.266 13.4987 23.8739C10.5497 22.6198 8.40492 22.2454 6.94119 22.7303C5.11953 23.3317 4.39323 25.1347 3.49285 27.8152C2.59107 30.497 2.08483 32.3686 3.19203 33.8934C4.08196 35.1172 6.04428 36.0351 9.1918 36.6978C12.6861 37.434 17.7792 37.8933 24.7664 38.1034Z" fill="black"/>
<path d="M16.0997 10.7294C10.7253 14.5104 7.81103 17.0097 27.0603 31.4453L31.7962 34.7757L33.1624 33.4563L34.8817 32.6064L33.0719 27.2185C24.8327 5.04175 21.4748 6.9511 16.0997 10.7294Z" fill="#F5F1DF"/>
<path d="M31.8157 35.0135L26.9454 31.5888C21.4003 27.4313 17.5412 24.1467 15.1457 21.547C12.9055 19.1164 11.8742 17.232 11.9 15.6176C11.916 14.6404 12.3109 13.7695 13.1437 12.8758C13.8728 12.0939 14.8644 11.3746 15.9897 10.5833C17.115 9.7919 18.1282 9.10225 19.1226 8.67256C20.2576 8.18226 21.236 8.08797 22.2032 8.37555C23.7972 8.85036 25.3306 10.3819 27.0276 13.1944C28.8416 16.2022 30.8777 20.7691 33.2509 27.1572L33.2523 27.1626L35.1115 32.698L33.2759 33.6045L31.8157 35.0135ZM27.1724 31.2999L31.7774 34.5353L33.051 33.3055L34.6533 32.5135L32.8943 27.2771C30.5281 20.9126 28.5038 16.3659 26.701 13.3776C25.0771 10.6856 23.5688 9.16354 22.0904 8.72442C20.25 8.1762 18.5676 9.22213 16.2104 10.8789C13.8533 12.5364 12.3053 13.7608 12.276 15.623C12.2517 17.1202 13.2823 18.9783 15.4263 21.3046C17.8058 23.8894 21.6489 27.1565 27.1724 31.2999Z" fill="black"/>
<path d="M47.6549 38.2846C47.6549 38.6295 47.6375 38.9729 47.6026 39.3157C47.5678 39.6586 47.5156 39.9987 47.446 40.3368C47.3763 40.6742 47.29 41.0082 47.1869 41.3376C47.0832 41.6669 46.9641 41.9909 46.8276 42.3094C46.6911 42.6273 46.5393 42.9385 46.3715 43.2422C46.2037 43.5459 46.0212 43.8409 45.8235 44.1272C45.6257 44.4134 45.414 44.6895 45.1884 44.9562C44.9621 45.2223 44.7232 45.4775 44.4718 45.7206C44.2205 45.9645 43.9565 46.1955 43.6815 46.4137C43.4064 46.6326 43.1209 46.8373 42.825 47.0286C42.529 47.2198 42.224 47.397 41.9107 47.5593C41.5966 47.7216 41.2756 47.8684 40.9462 48.0004C40.6175 48.1317 40.2826 48.2483 39.9421 48.3479C39.6016 48.4476 39.2569 48.5318 38.908 48.5985C38.5591 48.6658 38.2075 48.7163 37.853 48.75C37.4986 48.7837 37.1434 48.8005 36.7876 48.8005C36.4318 48.8005 36.0766 48.7837 35.7229 48.75C35.3684 48.7163 35.0168 48.6658 34.6679 48.5985C34.319 48.5318 33.9736 48.4476 33.6331 48.3479C33.2926 48.2483 32.9584 48.1317 32.629 48.0004C32.3003 47.8684 31.9793 47.7216 31.6652 47.5593C31.3512 47.397 31.0462 47.2198 30.7502 47.0286C30.455 46.8373 30.1688 46.6326 29.8937 46.4137C29.6187 46.1955 29.3554 45.9645 29.104 45.7206C28.852 45.4775 28.6131 45.2223 28.3875 44.9562C28.1619 44.6895 27.9502 44.4134 27.7524 44.1272C27.5547 43.8409 27.3722 43.5459 27.2044 43.2422C27.0366 42.9385 26.8841 42.6273 26.7483 42.3094C26.6118 41.9909 26.492 41.6669 26.389 41.3376C26.2859 41.0082 26.1996 40.6742 26.1299 40.3368C26.0603 39.9987 26.0081 39.6586 25.9732 39.3157C25.9384 38.9729 25.921 38.6295 25.921 38.2846C25.921 37.9405 25.9384 37.597 25.9732 37.2542C26.0081 36.9114 26.0603 36.5713 26.1299 36.2332C26.1996 35.8958 26.2859 35.5617 26.389 35.2324C26.492 34.903 26.6118 34.5791 26.7483 34.2605C26.8841 33.9426 27.0366 33.6315 27.2044 33.3277C27.3722 33.024 27.5547 32.729 27.7524 32.4428C27.9502 32.1565 28.1619 31.8797 28.3875 31.6137C28.6131 31.3477 28.852 31.0924 29.104 30.8493C29.3554 30.6055 29.6187 30.3745 29.8937 30.1563C30.1688 29.9374 30.455 29.7326 30.7502 29.5414C31.0462 29.3501 31.3512 29.173 31.6652 29.0107C31.9793 28.8483 32.3003 28.7015 32.629 28.5695C32.9584 28.4375 33.2926 28.3217 33.6331 28.222C33.9736 28.1216 34.319 28.0381 34.6679 27.9715C35.0168 27.9041 35.3684 27.8536 35.7229 27.8199C36.0766 27.7862 36.4318 27.7694 36.7876 27.7694C37.1434 27.7694 37.4986 27.7862 37.853 27.8199C38.2075 27.8536 38.5591 27.9041 38.908 27.9715C39.2569 28.0381 39.6016 28.1216 39.9421 28.222C40.2826 28.3217 40.6175 28.4375 40.9462 28.5695C41.2756 28.7015 41.5966 28.8483 41.9107 29.0107C42.224 29.173 42.529 29.3501 42.825 29.5414C43.1209 29.7326 43.4064 29.9374 43.6815 30.1563C43.9565 30.3745 44.2205 30.6055 44.4718 30.8493C44.7232 31.0924 44.9621 31.3477 45.1884 31.6137C45.414 31.8797 45.6257 32.1565 45.8235 32.4428C46.0212 32.729 46.2037 33.024 46.3715 33.3277C46.5393 33.6315 46.6911 33.9426 46.8276 34.2605C46.9641 34.5791 47.0832 34.903 47.1869 35.2324C47.29 35.5617 47.3763 35.8958 47.446 36.2332C47.5156 36.5713 47.5678 36.9114 47.6026 37.2542C47.6375 37.597 47.6549 37.9405 47.6549 38.2846Z" fill="#FECD1A"/>
<path d="M36.7875 48.9823C36.5765 48.9823 36.3655 48.9769 36.1552 48.9648C35.9442 48.9534 35.7339 48.9359 35.5243 48.9123C35.3147 48.8887 35.1058 48.8598 34.8976 48.8247C34.6901 48.7897 34.4833 48.7493 34.2779 48.7028C34.0718 48.6564 33.8677 48.6045 33.6658 48.5466C33.4631 48.4893 33.2626 48.426 33.0634 48.3573C32.865 48.2886 32.6686 48.2139 32.4736 48.1344C32.2793 48.0549 32.0878 47.9694 31.8984 47.8792C31.709 47.7889 31.5224 47.6933 31.3393 47.5929C31.1554 47.4919 30.9751 47.3862 30.7975 47.2757C30.6199 47.1653 30.4458 47.0494 30.2752 46.9289C30.1046 46.809 29.9382 46.6837 29.7746 46.5544C29.6116 46.4244 29.4522 46.2904 29.2969 46.1523C29.1416 46.0136 28.9912 45.8715 28.8442 45.7247C28.6973 45.5778 28.5553 45.427 28.4174 45.2721C28.2795 45.1178 28.1458 44.9596 28.0177 44.7973C27.8888 44.6349 27.7656 44.4699 27.6465 44.3009C27.5281 44.1318 27.4146 43.9601 27.306 43.7843C27.1974 43.6092 27.0943 43.4314 26.9961 43.2502C26.8979 43.0698 26.8053 42.8859 26.7183 42.7C26.6312 42.5141 26.5498 42.3255 26.4739 42.1349C26.398 41.9443 26.3276 41.7517 26.2629 41.5571C26.1981 41.3631 26.1396 41.1665 26.0867 40.9691C26.0338 40.7711 25.9864 40.5724 25.9453 40.3717C25.9042 40.1717 25.8694 39.9703 25.8395 39.7676C25.8102 39.5656 25.7873 39.3629 25.7698 39.1595C25.7531 38.9554 25.7413 38.7513 25.7364 38.5473C25.7315 38.3432 25.7322 38.1391 25.7392 37.9351C25.7462 37.731 25.7587 37.5269 25.7775 37.3235C25.797 37.1201 25.8221 36.9174 25.8527 36.7154C25.8833 36.5133 25.921 36.3119 25.9634 36.1119C26.0066 35.9119 26.0553 35.7132 26.1097 35.5159C26.1647 35.3192 26.2246 35.1232 26.2907 34.9293C26.3576 34.7353 26.4293 34.5433 26.5066 34.3534C26.5846 34.1635 26.6674 33.9756 26.7559 33.7904C26.845 33.6052 26.939 33.422 27.0386 33.2422C27.1382 33.0617 27.2426 32.8845 27.3527 32.7101C27.4627 32.5363 27.5776 32.3646 27.698 32.1969C27.8178 32.0292 27.9432 31.8642 28.0727 31.7032C28.2029 31.5423 28.3373 31.3853 28.4766 31.2318C28.6158 31.0782 28.7593 30.928 28.9069 30.7826C29.0552 30.6371 29.2077 30.4957 29.3637 30.3583C29.5204 30.2216 29.6806 30.0889 29.8449 29.9602C30.0092 29.8323 30.1771 29.7084 30.3484 29.5891C30.5204 29.4706 30.6951 29.3561 30.8734 29.247C31.0517 29.1379 31.2334 29.0335 31.418 28.9345C31.6025 28.8348 31.7898 28.7412 31.9799 28.6523C32.17 28.5634 32.3622 28.4799 32.5572 28.4018C32.7522 28.3237 32.9492 28.2509 33.1491 28.1836C33.3482 28.1162 33.5495 28.0549 33.7521 27.9984C33.9555 27.9425 34.1595 27.8919 34.3656 27.8475C34.5717 27.8024 34.7786 27.7633 34.9868 27.7303C35.195 27.6966 35.4046 27.6697 35.6142 27.6475C35.8245 27.6259 36.0348 27.6104 36.2451 27.6003C36.4561 27.5902 36.6671 27.5862 36.8781 27.5875C37.089 27.5896 37.3 27.597 37.511 27.6104C37.7213 27.6239 37.9316 27.6428 38.1412 27.6677C38.3501 27.6926 38.559 27.7236 38.7666 27.7599C38.9741 27.797 39.1809 27.8387 39.3863 27.8872C39.591 27.9351 39.7951 27.9889 39.997 28.0482C40.199 28.1075 40.3988 28.1721 40.5973 28.2422C40.795 28.3129 40.9914 28.389 41.185 28.4698C41.3786 28.5513 41.5694 28.6375 41.7581 28.7298C41.9468 28.8214 42.132 28.9184 42.3152 29.0207C42.4976 29.1224 42.6773 29.2295 42.8541 29.342C43.0303 29.4538 43.2037 29.571 43.3729 29.6929C43.5428 29.8141 43.7086 29.9407 43.8701 30.0714C44.0324 30.202 44.1904 30.3374 44.3443 30.4768C44.4989 30.6169 44.6486 30.7603 44.7942 30.9085C44.9397 31.0567 45.0804 31.2082 45.2176 31.3638C45.3541 31.52 45.4857 31.679 45.6131 31.842C45.7398 32.0056 45.8624 32.172 45.9794 32.3417C46.0964 32.5114 46.2092 32.6845 46.3157 32.8603C46.423 33.0367 46.5246 33.2152 46.6214 33.3971C46.7175 33.5789 46.8087 33.7628 46.8944 33.95C46.9793 34.1366 47.0594 34.3258 47.1339 34.5164C47.2084 34.7077 47.2767 34.901 47.34 35.0956C47.4027 35.2909 47.4598 35.4876 47.5114 35.6856C47.5622 35.8836 47.6081 36.083 47.6471 36.2837C47.6868 36.4844 47.7203 36.6857 47.7481 36.8884C47.7753 37.0912 47.7969 37.2939 47.8129 37.498C47.8282 37.7014 47.8372 37.9054 47.8407 38.1102C47.8442 38.3142 47.8421 38.5183 47.8331 38.7224C47.8247 38.9264 47.8101 39.1298 47.7892 39.3332C47.7683 39.5366 47.7418 39.7393 47.7091 39.9414C47.6764 40.1428 47.6381 40.3435 47.5935 40.5435C47.549 40.7428 47.4981 40.9415 47.4417 41.1382C47.386 41.3348 47.3233 41.5301 47.2558 41.7234C47.1882 41.9167 47.1144 42.108 47.035 42.2979C46.9564 42.4872 46.8714 42.6737 46.7809 42.8589C46.691 43.0435 46.595 43.2253 46.494 43.4045C46.393 43.5843 46.2872 43.7608 46.1757 43.9338C46.0643 44.1076 45.9473 44.2773 45.8262 44.4443C45.7043 44.6114 45.5783 44.775 45.4467 44.9353C45.3158 45.0949 45.18 45.2512 45.0393 45.4041C44.8986 45.5563 44.7538 45.7044 44.6048 45.8492C44.0923 46.3476 43.5352 46.7921 42.9314 47.1834C42.3284 47.5747 41.6912 47.9047 41.0207 48.1735C40.3494 48.4422 39.6579 48.6449 38.9455 48.781C38.2332 48.917 37.5138 48.9844 36.7875 48.9823ZM36.7875 27.9505C30.8992 27.9505 26.109 32.5869 26.109 38.2846C26.109 43.983 30.8992 48.6186 36.7875 48.6186C42.6766 48.6186 47.4668 43.983 47.4668 38.2846C47.4668 32.5869 42.6766 27.9505 36.7875 27.9505Z" fill="black"/>
<path d="M36.7875 48.9823C36.5765 48.9823 36.3655 48.9769 36.1552 48.9648C35.9442 48.9534 35.7339 48.9359 35.5243 48.9123C35.3147 48.8887 35.1058 48.8598 34.8976 48.8247C34.6901 48.7897 34.4833 48.7493 34.2779 48.7028C34.0718 48.6564 33.8677 48.6045 33.6658 48.5466C33.4631 48.4893 33.2626 48.426 33.0634 48.3573C32.865 48.2886 32.6686 48.2139 32.4736 48.1344C32.2793 48.0549 32.0878 47.9694 31.8984 47.8792C31.709 47.7889 31.5224 47.6933 31.3393 47.5929C31.1554 47.4919 30.9751 47.3862 30.7975 47.2757C30.6199 47.1653 30.4458 47.0494 30.2752 46.9289C30.1046 46.809 29.9382 46.6837 29.7746 46.5544C29.6116 46.4244 29.4522 46.2904 29.2969 46.1523C29.1416 46.0136 28.9912 45.8715 28.8442 45.7247C28.6973 45.5778 28.5553 45.427 28.4174 45.2721C28.2795 45.1178 28.1458 44.9596 28.0177 44.7973C27.8888 44.6349 27.7656 44.4699 27.6465 44.3009C27.5281 44.1318 27.4146 43.9601 27.306 43.7843C27.1974 43.6092 27.0943 43.4314 26.9961 43.2502C26.8979 43.0698 26.8053 42.8859 26.7183 42.7C26.6312 42.5141 26.5498 42.3255 26.4739 42.1349C26.398 41.9443 26.3276 41.7517 26.2629 41.5571C26.1981 41.3631 26.1396 41.1665 26.0867 40.9691C26.0338 40.7711 25.9864 40.5724 25.9453 40.3717C25.9042 40.1717 25.8694 39.9703 25.8395 39.7676C25.8102 39.5656 25.7873 39.3629 25.7698 39.1595C25.7531 38.9554 25.7413 38.7513 25.7364 38.5473C25.7315 38.3432 25.7322 38.1391 25.7392 37.9351C25.7462 37.731 25.7587 37.5269 25.7775 37.3235C25.797 37.1201 25.8221 36.9174 25.8527 36.7154C25.8833 36.5133 25.921 36.3119 25.9634 36.1119C26.0066 35.9119 26.0553 35.7132 26.1097 35.5159C26.1647 35.3192 26.2246 35.1232 26.2907 34.9293C26.3576 34.7353 26.4293 34.5433 26.5066 34.3534C26.5846 34.1635 26.6674 33.9756 26.7559 33.7904C26.845 33.6052 26.939 33.422 27.0386 33.2422C27.1382 33.0617 27.2426 32.8845 27.3527 32.7101C27.4627 32.5363 27.5776 32.3646 27.698 32.1969C27.8178 32.0292 27.9432 31.8642 28.0727 31.7032C28.2029 31.5423 28.3373 31.3853 28.4766 31.2318C28.6158 31.0782 28.7593 30.928 28.9069 30.7826C29.0552 30.6371 29.2077 30.4957 29.3637 30.3583C29.5204 30.2216 29.6806 30.0889 29.8449 29.9602C30.0092 29.8323 30.1771 29.7084 30.3484 29.5891C30.5204 29.4706 30.6951 29.3561 30.8734 29.247C31.0517 29.1379 31.2334 29.0335 31.418 28.9345C31.6025 28.8348 31.7898 28.7412 31.9799 28.6523C32.17 28.5634 32.3622 28.4799 32.5572 28.4018C32.7522 28.3237 32.9492 28.2509 33.1491 28.1836C33.3482 28.1162 33.5495 28.0549 33.7521 27.9984C33.9555 27.9425 34.1595 27.8919 34.3656 27.8475C34.5717 27.8024 34.7786 27.7633 34.9868 27.7303C35.195 27.6966 35.4046 27.6697 35.6142 27.6475C35.8245 27.6259 36.0348 27.6104 36.2451 27.6003C36.4561 27.5902 36.6671 27.5862 36.8781 27.5875C37.089 27.5896 37.3 27.597 37.511 27.6104C37.7213 27.6239 37.9316 27.6428 38.1412 27.6677C38.3501 27.6926 38.559 27.7236 38.7666 27.7599C38.9741 27.797 39.1809 27.8387 39.3863 27.8872C39.591 27.9351 39.7951 27.9889 39.997 28.0482C40.199 28.1075 40.3988 28.1721 40.5973 28.2422C40.795 28.3129 40.9914 28.389 41.185 28.4698C41.3786 28.5513 41.5694 28.6375 41.7581 28.7298C41.9468 28.8214 42.132 28.9184 42.3152 29.0207C42.4976 29.1224 42.6773 29.2295 42.8541 29.342C43.0303 29.4538 43.2037 29.571 43.3729 29.6929C43.5428 29.8141 43.7086 29.9407 43.8701 30.0714C44.0324 30.202 44.1904 30.3374 44.3443 30.4768C44.4989 30.6169 44.6486 30.7603 44.7942 30.9085C44.9397 31.0567 45.0804 31.2082 45.2176 31.3638C45.3541 31.52 45.4857 31.679 45.6131 31.842C45.7398 32.0056 45.8624 32.172 45.9794 32.3417C46.0964 32.5114 46.2092 32.6845 46.3157 32.8603C46.423 33.0367 46.5246 33.2152 46.6214 33.3971C46.7175 33.5789 46.8087 33.7628 46.8944 33.95C46.9793 34.1366 47.0594 34.3258 47.1339 34.5164C47.2084 34.7077 47.2767 34.901 47.34 35.0956C47.4027 35.2909 47.4598 35.4876 47.5114 35.6856C47.5622 35.8836 47.6081 36.083 47.6471 36.2837C47.6868 36.4844 47.7203 36.6857 47.7481 36.8884C47.7753 37.0912 47.7969 37.2939 47.8129 37.498C47.8282 37.7014 47.8372 37.9054 47.8407 38.1102C47.8442 38.3142 47.8421 38.5183 47.8331 38.7224C47.8247 38.9264 47.8101 39.1298 47.7892 39.3332C47.7683 39.5366 47.7418 39.7393 47.7091 39.9414C47.6764 40.1428 47.6381 40.3435 47.5935 40.5435C47.549 40.7428 47.4981 40.9415 47.4417 41.1382C47.386 41.3348 47.3233 41.5301 47.2558 41.7234C47.1882 41.9167 47.1144 42.108 47.035 42.2979C46.9564 42.4872 46.8714 42.6737 46.7809 42.8589C46.691 43.0435 46.595 43.2253 46.494 43.4045C46.393 43.5843 46.2872 43.7608 46.1757 43.9338C46.0643 44.1076 45.9473 44.2773 45.8262 44.4443C45.7043 44.6114 45.5783 44.775 45.4467 44.9353C45.3158 45.0949 45.18 45.2512 45.0393 45.4041C44.8986 45.5563 44.7538 45.7044 44.6048 45.8492C44.0923 46.3476 43.5352 46.7921 42.9314 47.1834C42.3284 47.5747 41.6912 47.9047 41.0207 48.1735C40.3494 48.4422 39.6579 48.6449 38.9455 48.781C38.2332 48.917 37.5138 48.9844 36.7875 48.9823ZM36.7875 27.9505C30.8992 27.9505 26.109 32.5869 26.109 38.2846C26.109 43.983 30.8992 48.6186 36.7875 48.6186C42.6766 48.6186 47.4668 43.983 47.4668 38.2846C47.4668 32.5869 42.6766 27.9505 36.7875 27.9505Z" fill="black"/>
<path d="M43.9099 37.9135C43.9099 37.96 43.9043 38.0051 43.8918 38.0502C43.8799 38.096 43.8625 38.1398 43.8389 38.1822C43.8152 38.2247 43.7866 38.2651 43.7525 38.3035C43.7184 38.3418 43.6794 38.3769 43.6362 38.4099C43.5923 38.4422 43.545 38.4712 43.4942 38.4968C43.4426 38.5223 43.389 38.5439 43.3319 38.5614C43.2755 38.5789 43.217 38.5924 43.1564 38.6018C43.0965 38.6106 43.0353 38.6153 42.974 38.6153C42.9127 38.6153 42.8514 38.6106 42.7915 38.6018C42.731 38.5924 42.6725 38.5789 42.6154 38.5614C42.559 38.5439 42.5046 38.5223 42.4538 38.4968C42.403 38.4712 42.3556 38.4422 42.3118 38.4099C42.2686 38.3769 42.2296 38.3418 42.1955 38.3035C42.1613 38.2651 42.1328 38.2247 42.1091 38.1822C42.0854 38.1398 42.068 38.096 42.0555 38.0502C42.0437 38.0051 42.0381 37.96 42.0381 37.9135C42.0381 37.8677 42.0437 37.8219 42.0555 37.7768C42.068 37.7317 42.0854 37.6879 42.1091 37.6455C42.1328 37.603 42.1613 37.5626 42.1955 37.5242C42.2296 37.4858 42.2686 37.4501 42.3118 37.4178C42.3556 37.3855 42.403 37.3565 42.4538 37.3309C42.5046 37.3053 42.559 37.2838 42.6154 37.2656C42.6725 37.2481 42.731 37.2346 42.7915 37.2259C42.8514 37.2171 42.9127 37.2124 42.974 37.2124C43.0353 37.2124 43.0965 37.2171 43.1564 37.2259C43.217 37.2346 43.2755 37.2481 43.3319 37.2656C43.389 37.2838 43.4426 37.3053 43.4942 37.3309C43.545 37.3565 43.5923 37.3855 43.6362 37.4178C43.6794 37.4501 43.7184 37.4858 43.7525 37.5242C43.7866 37.5626 43.8152 37.603 43.8389 37.6455C43.8625 37.6879 43.8799 37.7317 43.8918 37.7768C43.9043 37.8219 43.9099 37.8677 43.9099 37.9135Z" fill="#F76161"/>
<path d="M31.5663 37.9135C31.5663 37.96 31.5608 38.0051 31.5482 38.0502C31.5364 38.096 31.519 38.1398 31.4953 38.1822C31.4716 38.2247 31.4431 38.2651 31.409 38.3035C31.3748 38.3418 31.3358 38.3769 31.292 38.4099C31.2488 38.4422 31.2015 38.4712 31.1506 38.4968C31.0991 38.5223 31.0455 38.5439 30.9884 38.5614C30.932 38.5789 30.8735 38.5924 30.8129 38.6018C30.753 38.6106 30.6917 38.6153 30.6304 38.6153C30.5692 38.6153 30.5079 38.6106 30.448 38.6018C30.3874 38.5924 30.3289 38.5789 30.2718 38.5614C30.2154 38.5439 30.1611 38.5223 30.1103 38.4968C30.0594 38.4712 30.0121 38.4422 29.9682 38.4099C29.925 38.3769 29.886 38.3418 29.8519 38.3035C29.8178 38.2651 29.7892 38.2247 29.7656 38.1822C29.7419 38.1398 29.7245 38.096 29.712 38.0502C29.7001 38.0051 29.6938 37.96 29.6938 37.9135C29.6938 37.8677 29.7001 37.8219 29.712 37.7768C29.7245 37.7317 29.7419 37.6879 29.7656 37.6455C29.7892 37.603 29.8178 37.5626 29.8519 37.5242C29.886 37.4858 29.925 37.4501 29.9682 37.4178C30.0121 37.3855 30.0594 37.3565 30.1103 37.3309C30.1611 37.3053 30.2154 37.2838 30.2718 37.2656C30.3289 37.2481 30.3874 37.2346 30.448 37.2259C30.5079 37.2171 30.5692 37.2124 30.6304 37.2124C30.6917 37.2124 30.753 37.2171 30.8129 37.2259C30.8735 37.2346 30.932 37.2481 30.9884 37.2656C31.0455 37.2838 31.0991 37.3053 31.1506 37.3309C31.2015 37.3565 31.2488 37.3855 31.292 37.4178C31.3358 37.4501 31.3748 37.4858 31.409 37.5242C31.4431 37.5626 31.4716 37.603 31.4953 37.6455C31.519 37.6879 31.5364 37.7317 31.5482 37.7768C31.5608 37.8219 31.5663 37.8677 31.5663 37.9135Z" fill="#F76161"/>
<path d="M32.9696 32.6064C32.3247 32.6064 31.7864 33.4301 31.6583 34.5272L32.5134 34.7758L31.6346 35.2384C31.6931 36.4783 32.2683 37.4529 32.9696 37.4529C33.7098 37.4529 34.31 36.3679 34.31 35.0297C34.31 33.6914 33.7098 32.6064 32.9696 32.6064Z" fill="black"/>
<path d="M40.6008 32.6064C39.956 32.6064 39.4177 33.4301 39.2896 34.5272L40.1447 34.7758L39.2673 35.2384C39.3258 36.4783 39.901 37.4529 40.6022 37.4529C41.3432 37.4529 41.9427 36.3679 41.9427 35.0297C41.9427 33.6914 41.3411 32.6064 40.6008 32.6064Z" fill="black"/>
<rect width="8.26415" height="0.688073" rx="0.344037" transform="matrix(1 0 0 -1 33.0566 42.6605)" fill="black"/>
</svg>
