<svg width="300" height="304" viewBox="0 0 300 304" fill="none" xmlns="http://www.w3.org/2000/svg">
<g clip-path="url(#clip0_187_150)">
<path d="M285.13 166.97C284.925 216.877 246.67 265.814 195.568 280.514C192.306 281.475 189.011 282.293 185.684 282.964C182.355 283.637 179.006 284.161 175.637 284.538C172.267 284.916 168.889 285.145 165.501 285.225C162.112 285.305 158.728 285.236 155.346 285.018C151.962 284.8 148.594 284.434 145.242 283.919C141.889 283.406 138.562 282.744 135.263 281.937C131.961 281.129 128.7 280.178 125.476 279.085C122.253 277.99 119.078 276.755 115.953 275.383C112.503 273.85 108.852 273.186 105.296 272.118C103.709 271.642 102.132 271.134 100.562 270.592C98.9952 270.047 97.4386 269.472 95.8947 268.864C94.3487 268.255 92.8154 267.615 91.2948 266.94C89.7742 266.267 88.2663 265.563 86.7733 264.826C85.2802 264.088 83.802 263.317 82.3386 262.518C80.8752 261.718 79.4266 260.887 77.9949 260.026C76.5633 259.164 75.1486 258.271 73.753 257.349C72.3552 256.427 70.9765 255.477 69.6169 254.497C68.2551 253.518 66.9145 252.509 65.593 251.472C64.2715 250.435 62.9712 249.371 61.692 248.278C60.4107 247.185 59.1527 246.066 57.9159 244.919C56.6791 243.776 55.4656 242.603 54.2733 241.406C53.0831 240.208 51.9141 238.987 50.7704 237.741C49.6247 236.495 48.5065 235.224 47.4116 233.929C46.3146 232.634 45.2451 231.317 44.201 229.978C43.1569 228.638 42.1403 227.277 41.1471 225.893C40.1559 224.511 39.1923 223.108 38.2541 221.684C37.316 220.26 36.4074 218.816 35.5264 217.355C34.6454 215.893 33.7919 214.412 32.9681 212.912C32.1421 211.415 31.348 209.898 30.5813 208.368C29.8168 206.835 29.0798 205.287 28.3745 203.724C27.6693 202.16 26.9937 200.583 26.3478 198.99C25.704 197.398 25.0898 195.792 24.5074 194.175C23.925 192.556 23.3744 190.925 22.8534 189.284C22.3345 187.642 21.8453 185.99 21.39 184.328C20.9347 182.667 20.5111 180.994 20.1193 179.315C19.7275 177.634 19.3696 175.946 19.0434 174.251C18.7173 172.556 18.425 170.855 18.1646 169.147C17.9041 167.439 17.6775 165.726 17.4826 164.007C17.2899 162.29 17.1289 160.569 17.0019 158.845C16.8748 157.119 16.7795 155.393 16.7202 153.665C16.6588 151.937 16.6313 150.209 16.6376 148.479C16.644 146.748 16.6842 145.02 16.7562 143.292C16.8303 141.564 16.9362 139.838 17.076 138.115C17.2158 136.391 17.3894 134.672 17.5949 132.957C17.8003 131.24 18.0396 129.53 18.3128 127.824C18.586 126.118 18.891 124.419 19.2277 122.727C19.5666 121.032 19.9372 119.348 20.3417 117.671C20.7441 115.994 21.1803 114.326 21.6484 112.667C22.1143 111.008 22.6141 109.36 23.1457 107.723C23.6772 106.086 24.2406 104.46 24.8357 102.845C25.4287 101.232 26.0555 99.6309 26.7121 98.045C27.3665 96.4569 28.0548 94.8843 28.7706 93.3273C29.4885 91.7703 30.234 90.2265 31.0112 88.7006C31.7885 87.1747 32.5932 85.6665 33.4298 84.1739C34.2642 82.6813 35.1283 81.2086 36.0199 79.7538C36.9115 78.2967 37.8306 76.8618 38.7794 75.4447C39.726 74.0298 40.7002 72.6327 41.702 71.2578C42.7037 69.8829 43.7308 68.5302 44.7855 67.1975C45.8402 65.867 46.9181 64.5588 48.0236 63.2727C49.127 61.9867 50.2558 60.7251 51.41 59.4879C52.5621 58.2507 53.7396 57.0379 54.9404 55.8496C56.1391 54.6613 57.3632 53.4996 58.6064 52.3646C59.8516 51.2274 61.1181 50.119 62.4057 49.0373C63.6955 47.9556 65.0022 46.9005 66.3321 45.8744C67.66 44.8482 69.0091 43.8487 70.375 42.8802C71.7432 41.9096 73.1282 40.97 74.5323 40.0594C75.9364 39.1487 77.3554 38.2691 78.7934 37.4184C80.2314 36.5677 81.6842 35.7481 83.1539 34.9596C84.6237 34.1711 86.1083 33.4136 87.6056 32.6873C89.105 31.9632 90.6171 31.268 92.142 30.6061C93.6689 29.9464 95.2064 29.3156 96.7546 28.7203C98.3048 28.1228 99.8656 27.5609 101.437 27.03C103.008 26.5014 104.59 26.0038 106.181 25.5418C113.083 23.5228 120.099 22.1568 127.234 21.4482C134.367 20.7375 141.504 20.693 148.645 21.3127C155.158 21.828 161.585 22.8986 167.928 24.5312C174.269 26.1615 180.44 28.3272 186.44 31.0303C187.677 31.5901 188.952 32.0387 190.26 32.3719C226.649 41.6875 253.68 63.6414 271.356 98.2338C280.687 116.565 285.071 136.291 285.13 166.97Z" fill="#231F20"/>
<path d="M138.757 272.881L138.77 272.881C203.942 273.157 257.27 217.366 257.09 148.654C256.916 82.5015 206.616 25.2719 138.763 25.1426L138.759 25.1426C136.826 25.1339 134.895 25.1755 132.963 25.2654C131.032 25.3553 129.103 25.4955 127.179 25.6862C125.256 25.8768 123.338 26.118 121.423 26.4074C119.511 26.6967 117.605 27.0364 115.709 27.4244L115.709 27.4245C113.811 27.8125 111.924 28.2487 110.048 28.7351L110.046 28.7355C108.171 29.2196 106.307 29.7543 104.454 30.3354C102.604 30.9188 100.766 31.548 98.9439 32.2253C97.1214 32.9026 95.3176 33.626 93.5302 34.3955L138.757 272.881ZM138.757 272.881C75.9488 273.159 20.6307 220.184 20.6642 148.83L20.6642 148.825M138.757 272.881L20.6642 148.825M20.6642 148.825C20.6579 146.795 20.6977 144.768 20.7856 142.742C20.8736 140.716 21.0096 138.694 21.1938 136.674C21.3781 134.655 21.6084 132.642 21.8868 130.636L21.8868 130.635M20.6642 148.825L21.8868 130.635M21.8868 130.635C22.1652 128.627 22.4917 126.629 22.8645 124.637C23.2372 122.648 23.6558 120.668 24.1223 118.702L24.1228 118.7M21.8868 130.635L24.1228 118.7M24.1228 118.7C24.5872 116.732 25.0999 114.776 25.6568 112.835C26.2158 110.892 26.8187 108.966 27.4676 107.054C28.1165 105.144 28.8092 103.252 29.5478 101.378L29.548 101.378M24.1228 118.7L29.548 101.378M29.548 101.378C30.2868 99.5007 31.0675 97.648 31.8921 95.8128C32.7191 93.9771 33.5856 92.1663 34.4956 90.3781L34.4959 90.3775M29.548 101.378L34.4959 90.3775M34.4959 90.3775C35.4061 88.5869 36.358 86.8227 37.3517 85.085L37.3521 85.0843M34.4959 90.3775L37.3521 85.0843M37.3521 85.0843C38.3463 83.3435 39.38 81.6294 40.4534 79.9442M37.3521 85.0843L40.4534 79.9442M42.5682 74.1052C43.7351 72.4571 44.9401 70.8379 46.1833 69.252M42.5682 74.1052C41.4034 75.7533 40.2767 77.4303 39.1882 79.1384M42.5682 74.1052L43.7924 74.972C43.7925 74.9719 43.7926 74.9717 43.7927 74.9716M42.5682 74.1052L43.7931 74.971C43.793 74.9712 43.7929 74.9714 43.7927 74.9716M46.1833 69.252L39.1882 79.1384M46.1833 69.252C47.4243 67.6661 48.7035 66.1135 50.0187 64.592L46.1833 69.252ZM39.1882 79.1384L40.4534 79.9442M39.1882 79.1384L40.4531 79.9446C40.4532 79.9444 40.4533 79.9443 40.4534 79.9442M43.7927 74.9716C44.9459 73.3429 46.1363 71.7434 47.3638 70.1774L47.3646 70.1764C48.5901 68.6103 49.8538 67.0766 51.1534 65.573L43.7927 74.9716ZM58.329 55.8961C56.8762 57.2733 55.4572 58.6859 54.0722 60.1363L58.329 55.8961ZM58.329 55.8961C59.7797 54.519 61.2643 53.1797 62.7785 51.8803L58.329 55.8961ZM55.157 61.1723L55.1562 61.1731C53.7875 62.6042 52.4554 64.0715 51.1535 65.5729L55.157 61.1723ZM55.157 61.1723C56.5246 59.7401 57.9259 58.345 59.3609 56.9848L59.3617 56.984M55.157 61.1723L59.3617 56.984M59.3617 56.984C60.794 55.6244 62.26 54.3018 63.7553 53.0186C65.2537 51.7347 66.778 50.4891 68.3325 49.2861L68.3335 49.2853M59.3617 56.984L68.3335 49.2853M68.3335 49.2853C69.8897 48.0787 71.4705 46.9143 73.0799 45.7919C74.6903 44.6688 76.3254 43.5877 77.985 42.5508L77.9862 42.55M68.3335 49.2853L77.9862 42.55M77.9862 42.55C79.6464 41.5106 81.3288 40.5155 83.0356 39.5667L83.0376 39.5656M77.9862 42.55L83.0376 39.5656M83.0376 39.5656C84.7436 38.614 86.4724 37.7064 88.2217 36.8449M83.0376 39.5656L88.2217 36.8449M88.2217 36.8449C89.9714 35.9832 91.7402 35.1675 93.5301 34.3956L88.2217 36.8449Z" fill="#FFE9DE" stroke="black" stroke-width="3"/>
<path d="M209.455 271.67C209.532 267.072 208.498 262.796 207.171 258.706L207.171 258.706C206.875 257.792 206.891 257.325 207.001 257.016C207.114 256.697 207.401 256.339 208.144 255.812L209.455 271.67ZM209.455 271.67C209.58 271.629 209.704 271.57 209.829 271.491L209.889 271.452L209.955 271.423C219.238 267.246 227.859 261.898 235.818 255.374L235.819 255.373C244.681 248.123 252.418 239.734 259.034 230.207L209.455 271.67Z" fill="#FECD1A" stroke="black" stroke-width="2"/>
<path d="M263.028 224.549C262.84 224.389 262.702 224.194 262.615 223.958M263.028 224.549C263.215 224.707 263.427 224.805 263.664 224.845M263.028 224.549L263.082 224.486M263.028 224.549L263.082 224.485L262.813 224.319C262.93 224.13 263.047 223.942 263.164 223.756C263.185 223.723 263.206 223.689 263.227 223.656C263.26 223.602 263.294 223.549 263.328 223.496C263.36 223.444 263.393 223.392 263.425 223.34M262.615 223.958L275.862 198.753C273.105 206.955 269.577 214.776 265.28 222.217C264.921 222.84 264.538 223.45 264.162 224.048C263.993 224.316 263.826 224.581 263.664 224.845M262.615 223.958C261.082 220.858 259.231 217.977 257.063 215.322L262.615 223.958ZM263.664 224.845L263.082 224.486M263.664 224.845L263.83 223.858C263.77 223.848 263.724 223.828 263.675 223.787L263.082 224.486M263.082 224.486L263.674 223.786C263.617 223.737 263.58 223.685 263.554 223.612L263.535 223.563L263.512 223.515C263.483 223.457 263.454 223.399 263.425 223.34M263.425 223.34C261.876 220.239 260.013 217.353 257.837 214.69C255.623 211.976 253.141 209.562 250.395 207.446C249.776 206.957 249.604 206.659 249.554 206.451C249.504 206.243 249.521 205.892 249.862 205.161L249.862 205.16C255.008 194.09 258.544 182.482 260.466 170.339C261.18 165.907 261.562 161.449 261.941 157.03C261.974 156.646 262.007 156.262 262.04 155.879L262.041 155.876C262.09 155.282 262.149 154.694 262.209 154.107C268.849 157.058 274.718 161.049 279.325 166.9M263.425 223.34C263.762 222.804 264.095 222.271 264.413 221.718L264.414 221.717C268.677 214.334 272.178 206.574 274.914 198.434L274.915 198.434C277.651 190.296 279.565 181.949 280.658 173.396L280.658 173.395C280.999 170.736 280.8 168.774 279.325 166.9M279.325 166.9L280.109 166.283L279.325 166.9C279.325 166.9 279.325 166.9 279.325 166.9Z" fill="#FECD1A" stroke="black" stroke-width="2"/>
<path d="M271.697 107.279L271.692 107.264C271.327 106.303 270.847 105.414 270.249 104.597C269.651 103.782 268.961 103.07 268.175 102.456C262.842 98.368 256.851 95.7611 250.197 93.5716C252.063 97.6557 253.714 101.832 255.153 106.101L271.697 107.279ZM271.697 107.279L271.703 107.294M271.697 107.279L271.703 107.294M271.703 107.294C274.589 114.229 276.85 121.381 278.485 128.751C280.12 136.122 281.103 143.587 281.433 151.145L281.433 151.153M271.703 107.294L281.433 151.153M281.433 151.153L281.434 151.16M281.433 151.153L281.434 151.16M281.434 151.16C281.654 154.911 281.696 158.663 281.565 162.417M281.434 151.16L281.565 162.417M262.104 147.204L262.104 147.205C262.112 148.089 262.271 148.591 262.505 148.935C262.743 149.283 263.146 149.6 263.91 149.939C263.91 149.939 263.911 149.939 263.911 149.939L263.505 150.853L262.104 147.204ZM262.104 147.204C262.055 142.543 261.764 137.895 261.229 133.266M262.104 147.204L261.229 133.266M281.565 162.417C281.544 162.392 281.523 162.367 281.501 162.342L281.565 162.417ZM261.229 133.266C260.693 128.636 259.919 124.051 258.903 119.51M261.229 133.266L258.903 119.51M258.903 119.51C257.887 114.969 256.639 110.5 255.154 106.101L258.903 119.51Z" fill="#FECD1A" stroke="black" stroke-width="2"/>
<path d="M195.808 263.535C198.027 262.329 200.202 261.037 202.343 259.712L202.344 259.712C202.592 259.558 202.752 259.498 202.84 259.478C202.84 259.478 202.84 259.478 202.84 259.478C202.847 259.486 202.854 259.496 202.862 259.509C202.924 259.604 203.003 259.775 203.086 260.056L203.091 260.071L203.096 260.086C204.253 263.582 204.869 267.179 204.947 270.879C204.938 271.699 204.921 272.264 204.865 272.691C204.81 273.109 204.728 273.303 204.647 273.421C204.569 273.536 204.429 273.672 204.083 273.854C203.723 274.043 203.227 274.239 202.488 274.515L202.487 274.515C194.256 277.602 185.8 279.684 177.121 280.763L177.117 280.763C169.615 281.725 162.094 281.926 154.557 281.362L154.556 281.362C147.721 280.853 140.987 279.724 134.351 277.978C134.574 277.983 134.797 277.988 135.02 277.994C135.489 278.005 135.957 278.016 136.426 278.026C139.029 278.083 141.645 278.118 144.27 277.999C148.753 277.806 153.213 277.353 157.649 276.646L157.65 276.645C162.086 275.935 166.471 274.972 170.805 273.756C175.139 272.539 179.398 271.076 183.578 269.367C187.757 267.66 191.834 265.716 195.808 263.535ZM195.808 263.535C195.807 263.536 195.807 263.536 195.806 263.536L195.328 262.658L195.81 263.534C195.809 263.535 195.808 263.535 195.808 263.535ZM132.031 278.381L132.159 277.932C132.159 277.932 132.158 277.932 132.158 277.932L132.031 278.381ZM130.397 277.911C129.966 277.784 129.536 277.652 129.109 277.513C129 277.477 128.916 277.355 128.806 277.196C128.747 277.11 128.681 277.013 128.598 276.913C128.834 276.911 129.07 276.909 129.305 276.909L129.109 277.513L129.309 276.909C129.722 276.908 130.134 276.909 130.546 276.912C131.068 277.068 131.595 277.218 132.129 277.369C132.187 277.386 132.245 277.402 132.303 277.419L130.397 277.911ZM202.808 259.44C202.808 259.44 202.809 259.44 202.81 259.441C202.809 259.44 202.808 259.44 202.808 259.44Z" fill="#FECD1A" stroke="black" stroke-width="2"/>
<path d="M265.213 94.7399C259.958 92.1547 254.517 90.071 248.892 88.4907L248.89 88.4903C247.66 88.1469 247.174 87.3523 246.452 86.0038C240.6 75.0391 233.373 65.1794 224.766 56.4298L224.765 56.4289C219.57 51.1624 213.989 46.4069 208.022 42.163C232.829 53.1928 251.831 70.5083 265.213 94.7399Z" fill="#FECD1A" stroke="black" stroke-width="2"/>
</g>
<defs>
<clipPath id="clip0_187_150">
<rect width="300" height="304" fill="white"/>
</clipPath>
</defs>
</svg>
