<svg width="252" height="231" viewBox="0 0 252 231" fill="none" xmlns="http://www.w3.org/2000/svg">
<mask id="mask0_151_5005" style="mask-type:luminance" maskUnits="userSpaceOnUse" x="5" y="3" width="239" height="225">
<path d="M5.40039 3.16846H243.499V227.063H5.40039V3.16846Z" fill="white"/>
</mask>
<g mask="url(#mask0_151_5005)">
<path d="M243.339 126.814C243.157 168.922 209.312 210.208 164.1 222.61C161.214 223.422 158.3 224.112 155.355 224.679C152.411 225.246 149.449 225.689 146.468 226.008C143.487 226.326 140.498 226.52 137.499 226.586C134.503 226.655 131.506 226.596 128.514 226.411C125.521 226.229 122.542 225.919 119.575 225.485C116.609 225.05 113.666 224.493 110.746 223.812C107.827 223.131 104.941 222.329 102.089 221.405C99.2354 220.483 96.4273 219.441 93.6629 218.281C90.6112 216.988 87.3788 216.429 84.2339 215.528C82.8299 215.127 81.4353 214.697 80.0484 214.239C78.6614 213.781 77.284 213.296 75.9161 212.783C74.5481 212.269 73.1916 211.729 71.8465 211.161C70.5014 210.592 69.1678 209.997 67.8474 209.374C66.5251 208.752 65.2181 208.104 63.9225 207.429C62.6288 206.754 61.3464 206.052 60.0813 205.326C58.8142 204.598 57.5623 203.847 56.3276 203.069C55.0909 202.291 53.8714 201.489 52.6671 200.662C51.4647 199.835 50.2775 198.983 49.1093 198.109C47.9393 197.234 46.7901 196.335 45.6562 195.415C44.5242 194.492 43.4112 193.548 42.3173 192.582C41.2214 191.616 40.1484 190.627 39.0944 189.618C38.0404 188.606 37.0054 187.576 35.9933 186.524C34.9811 185.473 33.9918 184.4 33.0215 183.307C32.0531 182.216 31.1075 181.106 30.1829 179.974C29.2583 178.845 28.3584 177.697 27.4813 176.529C26.6042 175.362 25.75 174.179 24.9205 172.978C24.091 171.776 23.2862 170.559 22.5081 169.325C21.728 168.091 20.9727 166.842 20.2441 165.578C19.5135 164.313 18.8115 163.034 18.1342 161.741C17.455 160.448 16.8043 159.144 16.1803 157.824C15.5562 156.505 14.9588 155.174 14.3881 153.83C13.8173 152.487 13.2751 151.132 12.7595 149.767C12.2439 148.402 11.755 147.027 11.2964 145.643C10.836 144.257 10.4042 142.863 10.0008 141.46C9.59748 140.059 9.22268 138.648 8.87642 137.23C8.53016 135.813 8.21243 134.389 7.92515 132.957C7.63597 131.528 7.37722 130.092 7.14701 128.651C6.91681 127.21 6.71514 125.765 6.54391 124.316C6.37268 122.867 6.22999 121.415 6.11774 119.96C6.00549 118.506 5.92178 117.048 5.86851 115.591C5.81524 114.133 5.79051 112.673 5.79621 111.214C5.80192 109.754 5.83617 108.296 5.90085 106.838C5.96554 105.381 6.06067 103.925 6.18433 102.47C6.308 101.018 6.4602 99.5653 6.64284 98.1184C6.82549 96.6696 7.03667 95.2265 7.27829 93.7873C7.51991 92.348 7.79007 90.9144 8.08877 89.4866C8.38747 88.0587 8.7147 86.6366 9.07238 85.222C9.43006 83.8074 9.81437 82.3986 10.2291 80.9993C10.642 79.5999 11.0853 78.2101 11.5552 76.8279C12.0251 75.4475 12.5236 74.0748 13.0487 72.7135C13.5738 71.3522 14.1274 70.0023 14.7077 68.6637C15.2899 67.3252 15.8968 65.9982 16.5303 64.6844C17.1658 63.3687 17.8259 62.0682 18.5128 60.781C19.1996 59.492 19.913 58.22 20.6512 56.9614C21.3913 55.7027 22.1542 54.4593 22.9438 53.231C23.7333 52.0028 24.5476 50.7917 25.3847 49.5958C26.2237 48.4018 27.0856 47.223 27.9722 46.0632C28.8588 44.9034 29.7663 43.7627 30.7004 42.639C31.6326 41.5154 32.5858 40.4107 33.5637 39.327C34.5416 38.2413 35.5386 37.1785 36.5602 36.1328C37.58 35.089 38.6207 34.0661 39.6823 33.0642C40.7439 32.0622 41.8264 31.0811 42.928 30.1229C44.0296 29.1646 45.1502 28.2292 46.2898 27.3166C47.4294 26.404 48.5861 25.5142 49.7619 24.6472C50.9377 23.7802 52.1306 22.9398 53.3387 22.1204C54.5487 21.3028 55.7739 20.51 57.0163 19.7419C58.2586 18.9738 59.5162 18.2304 60.7871 17.5136C62.0599 16.7949 63.346 16.1047 64.6454 15.4393C65.9449 14.7738 67.2576 14.135 68.5837 13.5228C69.9098 12.9106 71.2472 12.325 72.598 11.766C73.9469 11.2089 75.3073 10.6785 76.679 10.1746C78.0488 9.6708 79.43 9.19738 80.8208 8.74867C82.2116 8.30187 83.6099 7.88359 85.0178 7.49193C91.123 5.78838 97.3329 4.6381 103.644 4.0392C109.954 3.4403 116.269 3.40227 122.587 3.92512C128.348 4.35862 134.035 5.26363 139.645 6.64015C145.258 8.01478 150.716 9.84381 156.024 12.1234C157.118 12.5969 158.246 12.9733 159.405 13.2547C191.598 21.1146 215.515 39.6369 231.152 68.8215C239.409 84.2885 243.286 100.932 243.339 126.814Z" fill="#231F20"/>
</g>
<path d="M113.845 217.437C57.5108 217.675 8.00115 172.384 8.03159 111.511C8.02588 109.779 8.06203 108.049 8.14003 106.321C8.21994 104.59 8.3417 102.864 8.50532 101.142C8.67084 99.4171 8.87632 97.6983 9.12555 95.9853C9.37478 94.2722 9.66777 92.5668 10.0007 90.867C10.3337 89.1692 10.7085 87.4789 11.127 85.7982C11.5437 84.1194 12.0022 82.4501 12.5006 80.7921C13.001 79.1342 13.5413 77.4896 14.1216 75.8583C14.7019 74.227 15.3221 72.6109 15.9842 71.0119C16.6444 69.4111 17.3426 67.8273 18.0827 66.2606C18.8209 64.6959 19.5971 63.1483 20.4133 61.6215C21.2276 60.0929 22.0799 58.5871 22.9703 57.1003C23.8607 55.6154 24.7853 54.1514 25.748 52.7121C26.7088 51.2729 27.7057 49.8564 28.7388 48.4666C29.77 47.0748 30.8354 45.7097 31.935 44.3712C33.0347 43.0327 34.1667 41.7227 35.3292 40.4413C36.4935 39.1579 37.6883 37.9049 38.9154 36.6805C40.1407 35.458 41.3964 34.264 42.6806 33.1023C43.9648 31.9406 45.2775 30.8113 46.6188 29.7142C47.9601 28.6172 49.3261 27.5544 50.7188 26.5258C52.1133 25.4953 53.5307 24.5009 54.9728 23.5408C56.415 22.5806 57.8799 21.6585 59.3677 20.7706C60.8555 19.8827 62.3642 19.0328 63.8957 18.2191C65.4254 17.4053 66.974 16.6315 68.5417 15.8938C70.1094 15.158 71.6961 14.4602 73.2981 13.8024C74.9019 13.1427 76.5191 12.5247 78.1514 11.9449C79.7857 11.3669 81.4314 10.8288 83.0923 10.3307C84.7513 9.83253 86.4237 9.37622 88.1055 8.96174C89.7873 8.54726 91.4787 8.17271 93.1796 7.84189C94.8804 7.50916 96.5889 7.22017 98.305 6.973C100.019 6.72393 101.739 6.51859 103.465 6.35699C105.19 6.19348 106.918 6.0737 108.649 5.99574C110.38 5.91779 112.114 5.88357 113.845 5.89117C174.696 6.00145 219.702 54.9347 219.856 111.359C220.018 169.974 172.3 217.673 113.845 217.437Z" fill="#FFE9DE"/>
<path d="M175.472 215.979C175.698 211.918 174.772 208.14 173.525 204.474C172.953 202.795 173.32 202.027 174.714 201.084C181.016 196.837 186.797 191.973 192.06 186.492C197.322 181.012 201.947 175.04 205.935 168.574C206.932 166.968 207.891 165.338 208.814 163.682C209.276 162.857 209.757 162.387 210.657 163.108C215.381 166.888 219.375 171.238 221.852 176.868C222.567 178.491 221.808 179.508 220.977 180.647C215.079 188.751 208.176 195.886 200.273 202.054C193.171 207.606 185.477 212.157 177.192 215.711C176.655 216.036 176.082 216.125 175.472 215.979Z" fill="#458848"/>
<path d="M222.265 115.089C222.582 115.046 222.809 114.937 222.963 115.002C229.119 117.548 234.604 121.035 238.898 126.235C240.415 128.071 240.575 129.997 240.259 132.344C239.285 139.616 237.578 146.712 235.139 153.63C232.698 160.551 229.578 167.15 225.777 173.426C225.318 174.189 224.812 174.925 224.348 175.643C224.137 175.611 223.948 175.527 223.783 175.394C223.617 175.261 223.495 175.096 223.419 174.896C222.061 172.28 220.425 169.85 218.507 167.61C216.589 165.369 214.441 163.376 212.063 161.631C210.865 160.73 210.676 160.026 211.334 158.68C215.851 149.411 218.956 139.694 220.645 129.524C221.325 125.499 221.661 121.442 222.029 117.384C222.097 116.61 222.187 115.837 222.265 115.089Z" fill="#458848"/>
<path d="M211.009 63.5684C217.613 65.5381 223.591 67.8538 228.878 71.7173C229.639 72.2838 230.308 72.9417 230.885 73.6946C231.461 74.4456 231.926 75.2612 232.276 76.1415C234.848 82.0393 236.864 88.1215 238.322 94.3881C239.779 100.655 240.656 107.001 240.951 113.428C241.168 116.966 241.191 120.504 241.023 124.046C240.137 124.51 239.815 123.85 239.461 123.466C235.202 118.823 229.943 115.641 224.207 113.217C222.712 112.585 222.097 111.823 222.082 110.15C222.038 106.245 221.783 102.353 221.313 98.4759C220.843 94.5992 220.162 90.7605 219.27 86.9579C218.379 83.1554 217.282 79.4136 215.978 75.7309C214.677 72.0481 213.176 68.4489 211.479 64.9316C211.351 64.6654 211.283 64.3707 211.009 63.5684Z" fill="#458848"/>
<path d="M104.852 219.572C109.518 219.532 114.094 219.846 118.675 219.648C122.61 219.485 126.521 219.108 130.412 218.515C134.305 217.92 138.152 217.116 141.953 216.099C145.756 215.08 149.491 213.857 153.157 212.427C156.825 210.997 160.402 209.372 163.889 207.547C165.834 206.539 167.742 205.457 169.629 204.343C170.695 203.714 171.254 203.993 171.6 205.111C172.654 208.146 173.213 211.267 173.284 214.477C173.253 217.249 173.111 217.422 170.533 218.34C163.185 220.968 155.638 222.74 147.889 223.66C141.192 224.478 134.48 224.649 127.75 224.17C121.021 223.69 114.4 222.571 107.888 220.812C107.022 220.578 106.157 220.346 105.302 220.08C105.154 220.034 105.059 219.816 104.852 219.572Z" fill="#458848"/>
<path d="M227.839 67.8617C222.466 65.1258 216.865 62.9754 211.038 61.4145C209.552 61.0209 208.97 60.0303 208.338 58.9029C203.201 49.7216 196.854 41.47 189.301 34.1444C184.06 29.0775 178.371 24.5771 172.236 20.6415C171.176 20.1072 170.291 19.3657 169.582 18.417C195.488 27.9272 214.843 44.1641 227.839 67.8617Z" fill="#458848"/>
</svg>
