<svg width="1440" height="1024" viewBox="0 0 1440 1024" fill="none" xmlns="http://www.w3.org/2000/svg">
<path d="M1440 1024H1372.6C1372.6 1024 1209.82 981.813 1197.07 1024H1082.95C1068.93 982.854 998.269 984.563 988.931 1024H804.712C764.758 974.625 695.728 971.521 690.82 1024H589.021C575.596 1013.38 394.438 1000.67 381.387 1024H334.519C312.283 971.535 271.194 986.611 247.793 1024H108.098C83.6865 970.507 0 903.91 0 903.91V767.16C32.3291 746.917 30.9668 676.278 0 630.507V460.118C44.9854 419.417 26.272 365.653 0 330.813V168.653C0 168.653 16.5088 171.882 0 160.882V0H67.0093C67.0093 0 78.9771 34.3056 85.1221 27.4375C91.2817 20.5833 94.4824 0 94.4824 0H219.5C219.5 0 252.59 20.1458 314.084 12.3056C375.579 4.46528 383.298 0 383.298 0H443.613C443.613 0 451.882 36.1875 494.927 24.6111C537.964 13.0417 562.5 0 562.5 0H727.017C727.017 0 741.445 59.6667 765.212 0H877.925C908.342 28.8125 1028.17 0 1028.17 0H1173.57C1205.63 34.6389 1221.68 9.93056 1265.57 0H1305.59C1305.59 0 1324.63 47.3333 1353.21 38.7569C1381.78 30.1875 1440 11.1042 1440 11.1042V99.4375C1440 99.4375 1403.82 240.292 1440 260.417V404.667C1418.31 421.465 1416.04 544.201 1440 563.146V686.25C1411.44 702.681 1407.43 712.535 1440 736.931V817.75C1406.37 863.521 1408.51 929.507 1440 967.333V1024Z" fill="#FC985B"/>
<path d="M90.52 632.438C95.5151 677.215 101.418 721.424 106.201 766.083C73.2202 771.694 38.4595 772.986 0 767.146V630.493C30.7544 638.229 60.4395 637.91 90.52 632.438ZM93.4863 314.576C60.2271 323.931 29.0918 330.451 0 330.813V460.118C26.8433 464.84 53.4375 464.854 80.127 461.75C80.4199 430.042 82.251 397.535 86.228 363.931C88.2275 346.986 90.6738 330.535 93.4863 314.576ZM94.4824 0H67.0093C51.189 28.2153 24.2871 82.3611 0 160.882V168.653C24.8071 172.91 69.2139 177.896 130.613 174.583C153.494 111.104 180.564 60.5069 203.979 23.4653C163.953 20.7569 127.786 13.2292 94.4824 0ZM106.201 766.083C111.416 814.799 115.269 864.042 115.1 915.132C160.708 911.403 205.437 899.319 251.06 885.229C248.936 837.639 244.292 784.201 237.517 725.771C193.74 742.451 151.648 758.347 106.201 766.083ZM211.948 429.16C166.75 443.576 123.311 456.722 80.127 461.75C79.5776 520.771 84.3457 577.042 90.52 632.438C131.697 624.958 173.613 607.91 220.063 588.799C212.988 531.389 208.63 481.014 211.948 429.16ZM300.11 148.347C234.463 164.653 177.568 172.056 130.613 174.583C115.737 215.868 102.642 262.597 93.4863 314.576C140.53 301.333 191.814 282.417 247.588 267.264C260.662 231.361 277.859 192.25 300.11 148.347ZM259.482 572.75C245.955 578.146 232.844 583.563 220.078 588.813C224.019 620.75 228.779 654.868 233.525 692.639C234.932 703.868 236.265 714.917 237.532 725.799C270.095 713.403 303.596 700.597 340.129 690.424C355.767 686.083 371.294 682.563 386.748 679.785C381.782 631.896 376.677 585.292 374.795 539.118C335.574 545.493 298.843 557.014 259.482 572.75ZM425.486 242.583C361.699 241.132 302.468 252.361 247.588 267.264C225.549 327.736 215.186 379.132 211.963 429.146C266.748 411.667 324.097 392.333 386.66 383.333C397.617 330.91 410.881 284.16 425.486 242.583ZM386.719 679.771C392.117 731.917 397.354 785.611 398.042 841.972C454.329 828.972 514.124 821.972 579.983 830.389C571.26 783.493 560.654 732.451 552.744 676.826C498.376 669.625 443.167 669.639 386.719 679.771ZM547.874 414.188C549.507 405.639 551.235 397.229 553.022 388.91C552.766 388.854 552.532 388.799 552.275 388.75C492.612 375.535 437.893 375.972 386.646 383.347C383.796 396.986 381.094 411 378.56 425.424C373.85 463.361 373.22 501.09 374.766 539.118C423.252 531.229 475.54 531.229 541.311 540.944C540.593 500.75 542.366 458.535 547.874 414.188ZM541.318 540.931C542.197 589.069 546.694 634.292 552.751 676.84C613.66 684.917 673.499 702.042 732.825 724.083C723.853 677.882 716.089 629.292 710.676 578.465C644.524 560.306 589.314 548.028 541.318 540.931ZM705.359 432.438C709.131 381.882 719.436 332.708 733.557 286.375C683.987 279.264 635.229 271.549 587.952 264C574.695 302.215 562.727 343.882 553.022 388.91C620.369 403.854 667.925 419.014 705.359 432.438ZM768.655 737.986C756.731 733.174 744.778 728.535 732.81 724.083C743.738 780.347 756.453 833.069 768.867 882.042C829.644 897.028 886.685 903.042 940.261 903.118C926.104 866.597 912.261 825.813 900.813 775.917C858.428 769.25 814.937 756.653 768.655 737.986ZM705.359 432.438C703.66 455.306 703.293 478.465 704.531 501.771C705.908 527.868 708.018 553.438 710.676 578.465C718.777 580.694 727.031 583 735.469 585.403C790.129 600.958 836.353 609 876.885 611.84C876.357 604.931 875.867 597.896 875.435 590.722C873.098 552.91 874.109 514.653 877.639 476.694C811.926 477.722 777.458 458.306 705.359 432.438ZM944.956 191.042C886.597 185.319 833.291 174.188 782.285 162.083C764.158 200.056 747.114 241.91 733.557 286.389C791.111 294.639 849.785 302.09 908.511 307.563C919.336 266.521 931.897 227.306 944.956 191.042ZM876.885 611.826C881.807 676.694 890.31 730.146 900.813 775.917C964.966 786.014 1026.56 782.493 1091.37 765.722C1079.28 733.563 1066.32 695.424 1052.31 648.576C1046.97 630.694 1042.61 612.771 1039.13 594.868C992.278 607.521 941.931 616.389 876.885 611.826ZM1015.03 456.549C1019.53 455.549 1024.01 454.563 1028.49 453.583C1030.12 406.229 1036.53 360.056 1046.01 316.174C1000.47 314.896 954.478 311.84 908.525 307.563C894.265 361.597 883.03 418.813 877.654 476.681C911.77 476.146 954.353 470.09 1015.03 456.549ZM1081.53 193.174C1101.36 138.132 1123.85 90.1736 1143.71 52.6111C1098.1 62.3333 1050.48 61.0903 1001.54 54.1458C984.236 91.1736 964.072 137.958 944.956 191.042C987.451 195.201 1032.63 196.479 1081.53 193.174ZM1091.36 765.722C1109.29 813.438 1125.26 848.042 1139.71 878.563C1207.1 863.069 1267.54 843.639 1322.03 830.771C1309.02 792.16 1295.38 756.243 1282.06 721.507C1238.16 723.417 1194.16 730.896 1153.67 745.958C1132.48 753.854 1111.77 760.438 1091.36 765.722ZM1039.13 594.868C1098.04 578.944 1151.46 557.028 1221.67 548.174C1210.87 508.757 1202.5 467.694 1197.88 422.826C1144.25 430.597 1087.31 440.799 1028.49 453.583C1026.88 499.882 1029.88 547.319 1039.13 594.868ZM1197.96 312.854C1203.12 262.507 1214.66 214.424 1229.09 170.493C1176.07 182.986 1127.17 190.083 1081.53 193.174C1067.83 231.174 1055.42 272.535 1045.99 316.174C1097.47 317.611 1148.36 316.785 1197.96 312.854ZM1265.57 0H1173.57C1165.05 13.9097 1154.79 31.625 1143.71 52.5972C1157.65 49.625 1171.44 45.6389 1184.99 40.4653C1216.73 28.3611 1243.29 14.5972 1265.57 0ZM1221.67 548.16C1237.87 607.292 1259.52 662.681 1282.08 721.507C1337.3 719.104 1392.36 725.563 1440 736.931V686.25C1413 642.215 1393.52 597.014 1380.07 551.785C1316.86 542.201 1265.92 542.583 1221.67 548.16ZM1197.16 415.493C1197.38 417.944 1197.62 420.389 1197.87 422.813C1254.76 414.563 1307.91 409.028 1355.6 405.986C1353.56 364.854 1355.35 324.75 1359.73 286.583C1308.15 300.056 1253.88 308.424 1197.96 312.854C1194.54 346.25 1193.92 380.653 1197.16 415.493ZM1440 0H1305.59C1282.21 41.3333 1252.01 100.681 1229.09 170.493C1280.91 158.278 1336.67 140.91 1397.15 117.083C1411.65 72.7222 1427.37 36.3472 1440 11.1042V0ZM1440 563.146V403.146C1414.41 403.118 1386.12 404.042 1355.6 406C1357.96 453.694 1365.48 502.757 1380.07 551.799C1398.91 554.639 1418.83 558.389 1440 563.146ZM1440 260.417V99.4375C1425.46 105.681 1411.17 111.563 1397.15 117.083C1381.33 165.479 1366.97 223.361 1359.73 286.583C1387.31 279.389 1414.11 270.708 1440 260.417ZM1440 967.319V817.736C1404.02 814.625 1364.86 820.667 1322.04 830.771C1336.01 872.215 1349.27 916.736 1360.64 966.174C1385.46 965.639 1411.89 965.986 1440 967.319ZM940.261 903.118C957.18 946.736 974.546 984.264 988.931 1024H1082.95C1112.19 1010.58 1145.97 997.944 1186.23 987.91C1172.49 946.667 1157.25 915.611 1139.72 878.563C1079.1 892.507 1012.85 903.243 940.261 903.118ZM579.983 830.389C591.621 893.042 599.875 948.319 593.884 997.347C626.331 1002.1 658.923 1010.61 690.806 1023.99H804.697C794.7 981.028 781.963 933.625 768.867 882.028C742.039 875.417 714.485 867.056 686.177 856.667C648.955 843.028 613.674 834.694 579.983 830.389ZM398.042 841.972C346.809 853.813 298.462 870.597 251.06 885.243C253.477 939.549 252.576 986.229 247.778 1024H334.504C350.032 1019.1 366.636 1014.42 384.119 1010.22C395.281 951.09 398.701 895.333 398.042 841.972ZM0 903.91V1022.48C1.58936 1022.99 3.19336 1023.49 4.79736 1024H108.098C112.939 986.549 114.99 950.403 115.1 915.132C77.6367 918.215 39.5874 915.625 0 903.91ZM384.119 1010.22C383.262 1014.78 382.332 1019.39 381.372 1024H589.006C591.16 1015.32 592.778 1006.45 593.884 997.361C519.822 986.507 446.514 995.201 384.119 1010.22ZM1197.06 1024H1372.59C1368.9 1003.97 1364.9 984.722 1360.63 966.174C1291.2 967.667 1234.14 975.944 1186.22 987.91C1189.94 999.083 1193.55 1011.01 1197.06 1024ZM300.11 148.347C303.706 147.451 307.339 146.535 310.979 145.583C311.008 145.576 311.045 145.576 311.074 145.563C314.744 144.611 318.428 143.625 322.156 142.611C329.839 140.535 337.625 138.333 345.527 136C394.409 121.576 439.651 114.882 482.783 113.451C462.81 149.549 443.152 192.278 425.479 242.583C445.488 243.042 465.959 244.75 486.87 247.972C519.595 253.042 553.374 258.479 587.937 264C605.618 213.056 625.569 168.243 645.498 129.75C592.661 118.854 539.561 111.576 482.769 113.451C510.176 63.9722 538.154 26.9583 562.5 0H443.613C420.103 4.70833 397.559 8.82639 375.916 12.2639C345.784 62.625 320.764 107.563 300.11 148.347ZM861.284 24.0278C829.475 15.8819 797.388 7.45139 765.212 0H727.017C705.146 28.6111 675.381 72.0694 645.513 129.75C690.579 139.042 735.469 150.958 782.285 162.069C808.901 106.292 837.817 58.9167 861.284 24.0278ZM1028.17 0H877.925C872.805 7.17361 867.217 15.1875 861.284 24.0278C908.818 36.1875 955.759 47.6528 1001.54 54.1458C1011.66 32.5486 1020.78 14.2778 1028.17 0ZM375.916 12.2639C378.34 8.21528 380.815 4.11806 383.298 0H219.5C214.578 7.09028 209.377 14.9097 203.979 23.4653C254.517 26.8681 311.191 22.5625 375.916 12.2639Z" fill="#FFF1E7"/>
</svg>
